<svg width="27" height="28" viewBox="0 0 27 28" fill="none" xmlns="http://www.w3.org/2000/svg">
<path d="M12.6033 4.56663C12.9701 3.82346 14.0299 3.82346 14.3967 4.56663L16.7438 9.32159C16.8893 9.61644 17.1705 9.8209 17.4959 9.86845L22.7462 10.6359C23.5661 10.7557 23.8929 11.7636 23.2993 12.3417L19.5018 16.0405C19.2659 16.2702 19.1583 16.6014 19.2139 16.9259L20.1099 22.1501C20.25 22.9671 19.3925 23.5901 18.6589 23.2042L13.9655 20.736C13.6741 20.5828 13.3259 20.5828 13.0345 20.736L8.34113 23.2042C7.6075 23.5901 6.74995 22.9671 6.89007 22.1501L7.78609 16.9259C7.84175 16.6014 7.73408 16.2702 7.49821 16.0405L3.70068 12.3417C3.10709 11.7636 3.43387 10.7557 4.25378 10.6359L9.50412 9.86845C9.82947 9.8209 10.1107 9.61644 10.2562 9.32159L12.6033 4.56663Z" fill="#D3CD39"/>
</svg>
