<svg width="43" height="44" viewBox="0 0 43 44" fill="none" xmlns="http://www.w3.org/2000/svg">
<path d="M19.0875 9.57631L10.9835 1.47237C10.8306 1.31947 10.634 1.18841 10.4156 1.10103C10.3938 1.10103 10.3719 1.10103 10.3501 1.07919C10.1753 1.01366 10.0006 0.969971 9.80399 0.969971C9.36712 0.969971 8.95209 1.14472 8.64628 1.45053L0.498656 9.57631C-0.134806 10.2098 -0.134806 11.2583 0.498656 11.8917C1.13212 12.5252 2.1806 12.5252 2.81407 11.8917L8.16572 6.54006V41.9265C8.16572 42.8221 8.9084 43.5648 9.80399 43.5648C10.6996 43.5648 11.4422 42.8221 11.4422 41.9265V6.56191L16.7721 11.8917C17.0997 12.2194 17.5147 12.3723 17.9297 12.3723C18.3448 12.3723 18.7598 12.2194 19.0875 11.8917C19.7209 11.2583 19.7209 10.2316 19.0875 9.57631Z" fill="#D27722"/>
<path d="M42.1256 32.643C41.4921 32.0096 40.4436 32.0096 39.8101 32.643L34.4585 37.9947V2.60823C34.4585 1.71265 33.7158 0.969971 32.8202 0.969971C31.9246 0.969971 31.182 1.71265 31.182 2.60823V37.9729L25.8522 32.643C25.2187 32.0096 24.1702 32.0096 23.5367 32.643C22.9033 33.2765 22.9033 34.325 23.5367 34.9585L31.6407 43.0624C31.7936 43.2153 31.9902 43.3464 32.2086 43.4337C32.2305 43.4337 32.2523 43.4337 32.2741 43.4556C32.4489 43.5211 32.6455 43.5648 32.8421 43.5648C33.2789 43.5648 33.694 43.39 33.9998 43.0842L42.1256 34.9585C42.759 34.3032 42.759 33.2765 42.1256 32.643Z" fill="#D27722"/>
</svg>
