<svg xmlns="http://www.w3.org/2000/svg" version="1.1" xmlns:xlink="http://www.w3.org/1999/xlink" xmlns:svgjs="http://svgjs.com/svgjs" width="512" height="512" x="0" y="0" viewBox="0 0 512.008 512.008" style="enable-background:new 0 0 512 512" xml:space="preserve" className=""><g><path d="m443.336 164.68-160-160c-6.24-6.24-16.384-6.24-22.624 0l-160 160c-4.608 4.608-5.984 11.456-3.488 17.44 2.464 5.984 8.32 9.888 14.784 9.888h80v119.36c0 36.992-11.2 72.672-32.352 103.2-21.12 30.464-50.592 53.44-85.28 66.464a15.992 15.992 0 0 0-10.112 17.824 15.992 15.992 0 0 0 15.744 13.152h90.88c110.016 0 181.12-83.648 181.12-213.12v-106.88h80c6.464 0 12.32-3.904 14.784-9.888s1.088-12.832-3.456-17.44z" style="" fill="#ffdbb8" data-original="#4caf50" className=""></path></g></svg>