<svg xmlns="http://www.w3.org/2000/svg" version="1.1" xmlns:xlink="http://www.w3.org/1999/xlink" xmlns:svgjs="http://svgjs.com/svgjs" width="512" height="512" x="0" y="0" viewBox="0 0 512 512" style="enable-background:new 0 0 512 512" xml:space="preserve"><g><path d="M505.98 22.52c-6.011-10.41-15.714-17.856-27.324-20.97-11.61-3.109-23.738-1.51-34.148 4.497L335.387 69.05a14.996 14.996 0 0 0-5.492 20.488l11.14 19.297-37.558 82.562L13.18 359a15.002 15.002 0 0 0-6.989 9.11 14.988 14.988 0 0 0 1.5 11.378l30 51.965c10.016 17.348 26.192 29.762 45.543 34.945a75.462 75.462 0 0 0 19.536 2.59c12.996 0 25.82-3.41 37.378-10.082l190.528-110.004c35.816-20.675 48.133-66.64 27.453-102.453l-26.14-45.281 27.48-60.406.426.738c2.78 4.816 7.82 7.504 13.003 7.504 2.547 0 5.125-.649 7.489-2.012l109.12-63.004c21.49-12.402 28.88-39.98 16.473-61.468zM315.676 322.922 125.145 432.926c-10.41 6.008-22.536 7.605-34.145 4.492-11.613-3.11-21.316-10.555-27.328-20.965l-22.5-38.973 268.476-155.003 22.5 38.972c12.407 21.488 5.02 49.067-16.472 61.473zm158.832-264.91-96.133 55.5-15-25.98 96.133-55.505a14.89 14.89 0 0 1 11.383-1.496A14.886 14.886 0 0 1 480 37.52c4.133 7.164 1.672 16.355-5.492 20.492zM19.168 246.484a15.004 15.004 0 0 0 11.383-1.496l38.969-22.504 22.503 38.973c2.778 4.813 7.817 7.504 13.004 7.504 2.543 0 5.121-.648 7.485-2.012 7.175-4.144 9.633-13.316 5.492-20.492L95.5 207.484l38.973-22.5a14.988 14.988 0 0 0 6.988-9.109 14.987 14.987 0 0 0-1.496-11.379c-10.02-17.351-26.192-29.762-45.543-34.945-19.352-5.188-39.563-2.524-56.914 7.492-35.817 20.676-48.13 66.637-27.453 102.453a15.006 15.006 0 0 0 9.113 6.988zm33.344-83.46c6.933-4.004 14.629-6.047 22.425-6.047 3.91 0 7.848.511 11.723 1.55 6.598 1.77 12.578 4.938 17.617 9.25L30.766 210.22c-3.368-18.215 4.808-37.418 21.746-47.196zM30 298.96c0 8.286-6.715 15-15 15s-15-6.714-15-15c0-8.284 6.715-15 15-15s15 6.716 15 15zM121.004 73.953c0 8.285-6.715 15-15 15s-15-6.715-15-15 6.715-15 15-15 15 6.715 15 15zm0 0" fill="#d27722" data-original="#000000"></path><path d="M222.273 183.465c3.668 0 7.38-.29 11.094-.88 30.145-4.796 53.653-29.398 57.172-59.827a69.5 69.5 0 0 0-.719-20.848c-2.406-12.77-10.648-23.312-22.613-28.926-12.328-5.785-26.77-5.304-38.629 1.286-14.512 8.058-22.933 23.324-21.46 38.886.124 1.36.077 2.758-.145 4.156-.934 5.829-5.434 11.016-11.207 12.903-4.332 1.422-8.473 1.015-12.649-1.235a15 15 0 0 0-17.953 2.844 14.996 14.996 0 0 0-2.035 18.063c12.625 21.12 35.05 33.582 59.144 33.578zm14.325-61.414a46.8 46.8 0 0 0 .386-11.719c-.34-3.59 2.192-7.633 6.16-9.84 3.458-1.918 7.688-2.05 11.317-.347 1.844.863 5.059 2.964 5.879 7.32.726 3.855.86 7.84.394 11.847-1.949 16.848-15.441 30.997-32.086 33.645-4.058.648-8.09.66-11.992.09 10.492-7.113 17.918-18.356 19.942-30.996zm0 0" fill="#d27722" data-original="#000000"></path></g></svg>