<svg xmlns="http://www.w3.org/2000/svg" version="1.1" xmlns:xlink="http://www.w3.org/1999/xlink" xmlns:svgjs="http://svgjs.com/svgjs" width="512" height="512" x="0" y="0" viewBox="0 0 512 512" style="enable-background:new 0 0 512 512" xml:space="preserve" className=""><g><path d="M391 225c0 8.285-6.715 15-15 15s-15-6.715-15-15 6.715-15 15-15 15 6.715 15 15ZM331 195c0 8.285-6.715 15-15 15s-15-6.715-15-15 6.715-15 15-15 15 6.715 15 15ZM451 255c0 8.285-6.715 15-15 15s-15-6.715-15-15 6.715-15 15-15 15 6.715 15 15ZM301 255c0 8.285-6.715 15-15 15s-15-6.715-15-15 6.715-15 15-15 15 6.715 15 15Zm0 0" style="stroke:none;fillRule:nonzero;fillOpacity:1;" fill="#d27722" data-original="#000000" className=""></path><path d="M447.484 127.762C449.816 120.457 451 112.84 451 105c0-41.355-33.645-75-75-75-11.129 0-22.113 2.523-32.094 7.242C327.184 14.18 300.426 0 271 0c-29.977 0-56.57 14.734-72.938 37.336C187.856 32.602 176.41 30 165 30c-37.93 0-69.352 28.309-74.3 64.902-32.891 11.356-57.2 41.274-60.348 77.168C10.484 206.262 0 245.223 0 285c0 24.813 20.188 45 45 45h421c24.867 0 46-20.098 46-45 0-61.137-24.629-116.645-64.516-157.238ZM376 60c24.7 0 44.805 20 44.992 44.652a226.177 226.177 0 0 0-61.797-32.535 90.004 90.004 0 0 0-2.004-8.015C363.027 61.406 369.387 60 376 60ZM271 30c23.195 0 43.766 13.555 53.695 33.313A227.651 227.651 0 0 0 286 60c-25.219 0-49.488 4.137-72.156 11.762C221.582 47.566 244.274 30 271 30ZM165 60c6.75 0 13.652 1.523 19.762 4.238a89.565 89.565 0 0 0-3.66 21.52 225.618 225.618 0 0 0-22.012 13.164 89.794 89.794 0 0 0-36.524-8.875C128.742 72.563 145.43 60 165 60Zm-45 60c3.836 0 7.637.371 11.355 1.086-27.277 25.52-48.199 57.691-60.132 93.887C64.012 204.933 60 192.777 60 180c0-33.086 26.914-60 60-60ZM45 300c-8.27 0-15-6.73-15-15 0-21.531 3.563-42.777 10.414-62.91a89.868 89.868 0 0 0 22.406 27.414A224.865 224.865 0 0 0 60 285c0 8.27-6.73 15-15 15Zm421 0H87.43A44.793 44.793 0 0 0 90 285c0-107.863 88.285-195 196-195 107.488 0 196 86.941 196 195 0 7.992-7.477 15-16 15Zm0 0" style="stroke:none;fillRule:nonzero;fillOpacity:1;" fill="#d27722" data-original="#000000" className=""></path></g></svg>