<svg width="73" height="71" viewBox="0 0 73 71" fill="none" xmlns="http://www.w3.org/2000/svg">
<path d="M60.0232 25.4517C60.0232 30.3095 58.5826 34.7653 56.1034 38.4841C52.4852 43.8445 46.7562 47.6302 40.0893 48.6018C38.9502 48.8028 37.7776 48.9033 36.5715 48.9033C35.3654 48.9033 34.1929 48.8028 33.0538 48.6018C26.3868 47.6302 20.6579 43.8445 17.0397 38.4841C14.5605 34.7653 13.1199 30.3095 13.1199 25.4517C13.1199 12.4862 23.6061 2 36.5715 2C49.5369 2 60.0232 12.4862 60.0232 25.4517Z" stroke="white" strokeWidth="4" strokeLinecap="round" strokeLinejoin="round"/>
<path d="M67.5612 57.1782L62.0333 58.4847C60.7937 58.7863 59.8221 59.7243 59.5541 60.9639L58.3815 65.8888C57.745 68.569 54.3277 69.373 52.5521 67.2624L36.5715 48.9031L20.5907 67.2959C18.8151 69.4065 15.3978 68.6025 14.7613 65.9223L13.5887 60.9974C13.2872 59.7578 12.3156 58.7863 11.1095 58.5183L5.58165 57.2117C3.03547 56.6086 2.1309 53.4259 3.97353 51.5833L17.0395 38.5173C20.6577 43.8777 26.3866 47.6635 33.0537 48.6351C34.1928 48.8361 35.3654 48.9366 36.5715 48.9366C37.7776 48.9366 38.9501 48.8361 40.0892 48.6351C46.7562 47.6635 52.4851 43.8777 56.1034 38.5173L69.1693 51.5833C71.0119 53.3924 70.1073 56.5751 67.5612 57.1782Z" stroke="white" strokeWidth="4" strokeLinecap="round" strokeLinejoin="round"/>
<path d="M38.5146 15.3339L40.4913 19.2872C40.7593 19.8232 41.4628 20.3593 42.0994 20.4598L45.6841 21.0628C47.9623 21.4313 48.4983 23.1065 46.8567 24.7481L44.076 27.5287C43.607 27.9978 43.339 28.9024 43.5065 29.5724L44.3105 33.0232C44.9471 35.7369 43.5065 36.809 41.0943 35.3684L37.7441 33.3917C37.141 33.0232 36.136 33.0232 35.5329 33.3917L32.1827 35.3684C29.7704 36.7755 28.3298 35.7369 28.9664 33.0232L29.7704 29.5724C29.9045 28.9359 29.6699 27.9978 29.2009 27.5287L26.4202 24.7481C24.7786 23.1065 25.3146 21.4648 27.5928 21.0628L31.1776 20.4598C31.7807 20.3593 32.4842 19.8232 32.7522 19.2872L34.7289 15.3339C35.7004 13.1898 37.4426 13.1898 38.5146 15.3339Z" stroke="white" strokeWidth="4" strokeLinecap="round" strokeLinejoin="round"/>
</svg>
