<svg xmlns="http://www.w3.org/2000/svg" version="1.1" xmlns:xlink="http://www.w3.org/1999/xlink" xmlns:svgjs="http://svgjs.com/svgjs" width="512" height="512" x="0" y="0" viewBox="0 0 512 512" style="enable-background:new 0 0 512 512" xml:space="preserve"><g><path d="M467 196c-12.477 0-34.968 4.578-57.49 30.798C382.228 198.655 343.197 181 301 181H180c-5.64 0-11.323.381-17.402 1.172-24.976-39.521-70.298-37.676-92.285-30.425a14.987 14.987 0 0 0-9.902 10.781 14.945 14.945 0 0 0 3.984 14.077c8.643 8.643 15.469 22.104 19.98 39.258A150.12 150.12 0 0 0 43.081 271H15c-8.291 0-15 6.709-15 15v90c0 8.291 6.709 16 15 16h28.096c15.674 35.64 44.971 63.97 81.108 78.56l-3.999 23.979a14.95 14.95 0 0 0 3.354 12.158 14.96 14.96 0 0 0 11.44 5.303h60a14.992 14.992 0 0 0 14.795-12.539L212.71 482h55.58l2.915 17.461A14.992 14.992 0 0 0 286 512h60c9.339 0 16.318-8.416 14.795-17.461l-3.984-23.95C413.661 447.913 452 392.758 452 331c0-29.359-8.798-56.572-23.438-79.728C440.803 235.196 454.195 226 467 226c8.584 0 15 3.955 15 7.5 0 5.786-5.801 9.39-5.83 9.404-7.236 4.058-9.814 13.198-5.771 20.42 4.051 7.219 13.174 9.807 20.42 5.771C498.685 264.687 512 252.235 512 233.5c0-21.035-19.761-37.5-45-37.5zM335.585 446.258c-7.207 2.183-11.689 9.39-10.444 16.816L328.29 482h-29.575l-2.915-17.461A14.992 14.992 0 0 0 281.005 452h-81.01a14.992 14.992 0 0 0-14.795 12.539L182.285 482H152.71l3.149-18.926c1.245-7.427-3.237-14.634-10.444-16.816-36.211-10.972-65.376-39.745-78.018-75.282A15.01 15.01 0 0 0 53.262 361H30v-60h23.262a15.01 15.01 0 0 0 14.136-9.976c8.159-22.969 22.896-42.729 42.598-57.144a15.015 15.015 0 0 0 5.845-15.073c-3.208-15.791-7.896-29.531-14.033-41.104 13.403.879 29.604 6.753 39.111 27.275 2.915 6.255 9.697 9.844 16.45 8.423C165.894 211.762 173.086 211 180 211h121c66.167 0 121 53.833 121 120 0 52.866-35.321 99.789-86.415 115.258z" fill="#ffffff" data-original="#000000"></path><circle cx="135" cy="286" r="15" fill="#ffffff" data-original="#000000"></circle><path d="M256 151c41.353 0 75-33.647 75-75S297.353 0 256 0s-76 34.647-76 76 34.647 75 76 75zm0-121c24.814 0 45 21.186 45 46s-20.186 45-45 45-46-20.186-46-45 21.186-46 46-46zM316 241H195c-8.291 0-15 6.709-15 15s6.709 15 15 15h121c8.291 0 15-6.709 15-15s-6.709-15-15-15z" fill="#ffffff" data-original="#000000"></path></g></svg>