<svg xmlns="http://www.w3.org/2000/svg" version="1.1" xmlns:xlink="http://www.w3.org/1999/xlink" xmlns:svgjs="http://svgjs.com/svgjs" width="512" height="512" x="0" y="0" viewBox="0 0 512 512" style="enable-background:new 0 0 512 512" xml:space="preserve" class=""><g><path d="M511.947 273.58v-75.95h-.011l.011-5.081-.014-.659c-1.354-32.455-23.104-62.628-61.248-84.96-61.365-35.927-144.503-55.235-234.114-54.401-45.06.426-86.584 8.309-120.085 22.797-40.683 17.595-68.439 43.95-82.495 78.334-.466 1.141-.935 2.276-1.402 3.407-5.387 13.043-11.494 27.827-11.494 46.937v80.355c-6.266 51.086 14.692 105.83 53.573 139.735 26.821 23.389 60.044 35.402 96.437 35.402 15.705 0 32.001-2.238 48.626-6.764 26.723-7.274 49.029-20.098 70.601-32.498 9.209-5.294 17.908-10.294 26.975-14.92 27.352-13.95 49.519-17.066 80.217-20.225 58.975-6.072 98.342-26.396 120.349-62.133 9.957-16.165 14.69-32.777 14.074-49.376zm-31.344-80.686v4.309c-.013.275-.032.551-.05.825-.018.272-.032.542-.054.814-.025.303-.058.606-.089.909-.027.27-.052.539-.084.81-.037.307-.083.616-.125.925-.038.267-.071.534-.113.801-.049.312-.107.626-.162.939-.046.264-.089.529-.14.794-.062.318-.132.636-.198.954-.055.261-.108.522-.167.784-.074.324-.158.649-.238.974-.064.257-.123.513-.192.77-.088.33-.184.661-.279.993-.072.252-.14.505-.215.757-.101.336-.212.673-.32 1.01-.079.249-.155.496-.238.745-.115.343-.24.685-.362 1.029-.087.243-.169.487-.26.73-.128.347-.267.695-.404 1.043-.094.24-.184.482-.282.722-.144.355-.299.711-.451 1.067-.1.233-.194.466-.298.699-.163.37-.337.74-.509 1.11-.102.22-.198.441-.304.661-.175.369-.362.738-.545 1.106-.112.224-.217.447-.332.671-.183.357-.376.715-.567 1.072-.125.235-.245.47-.374.706-.19.347-.391.695-.587 1.042-.139.245-.274.492-.417.739-.141.243-.293.487-.437.73-.208.349-.411.697-.626 1.046-9.965 16.183-24.866 28.066-45.648 36.112-5.469 2.118-11.345 3.969-17.646 5.563-2.52.637-5.109 1.235-7.766 1.791-7.972 1.669-16.565 2.971-25.81 3.922a1254 1254 0 0 0-5.086.534c22.49-37.452 52.562-87.665 78.177-130.893 15.241 11.171 32.127 28.455 33.198 50.685zm-60.111-66.748c-31.133 52.542-68.901 115.483-91.557 153.16-14.866 3.398-29.574 8.437-45.868 16.748-9.768 4.981-19.217 10.412-28.355 15.666a1585.174 1585.174 0 0 1-10.879 6.214c34.848-57.191 92.031-151.29 128.023-211.835 17.306 5.664 33.591 12.364 48.636 20.047zm-79.857-28.878C293.59 176.21 215.806 303.734 193.268 340.639c-.591.169-1.175.348-1.771.51-1.622.442-3.237.848-4.848 1.239-2 .484-3.992.936-5.973 1.34l-.22.047c-.139.028-.278.052-.417.079a156.381 156.381 0 0 1-14 2.166c-.594.064-1.185.113-1.777.169-.589.056-1.18.12-1.767.168a141.02 141.02 0 0 1-5.341.331c-1.722.077-3.437.134-5.139.146-1.349.009-2.689-.007-4.025-.038a124.085 124.085 0 0 1-16.737-1.506C162.787 293.464 247.01 154.813 286.485 87.6c18.712 2.247 36.819 5.489 54.15 9.668zM216.867 83.871a555.242 555.242 0 0 1 34.986.761c-43.802 74.043-125.478 208.397-151.462 251.084a109.857 109.857 0 0 1-16.45-9.73c-.272-.194-.537-.398-.807-.594-.623-.454-1.246-.906-1.86-1.373-.31-.236-.613-.483-.922-.722-.565-.439-1.133-.875-1.689-1.325-.34-.275-.672-.56-1.008-.838-.516-.427-1.035-.849-1.544-1.285-.355-.304-.702-.619-1.053-.928-.482-.423-.967-.842-1.443-1.274-.348-.314-.686-.64-1.03-.96-.471-.437-.944-.87-1.408-1.315-.333-.32-.658-.649-.987-.973-.465-.457-.934-.91-1.392-1.375-.322-.327-.635-.662-.954-.993-.456-.473-.914-.943-1.363-1.424-.316-.337-.622-.684-.934-1.027-.442-.485-.886-.965-1.321-1.457-.307-.348-.607-.705-.911-1.057-.428-.496-.859-.989-1.28-1.493-.285-.341-.562-.69-.843-1.034 38.07-63.283 99.442-165.638 130.72-219.596 8.089-.63 16.412-.991 24.955-1.072zM32.442 204c-.002-12.888 4.224-23.12 9.118-34.968.482-1.167.964-2.336 1.446-3.513 15.146-37.053 54.418-63.373 109.36-74.997-30.432 51.871-76.391 128.591-109.605 183.846-.089-.202-.182-.401-.27-.604-.202-.465-.395-.934-.591-1.401-.249-.591-.5-1.182-.741-1.777-.192-.476-.376-.958-.564-1.437-.232-.592-.465-1.184-.688-1.781-.183-.488-.356-.979-.534-1.469-.215-.594-.432-1.188-.638-1.787-.172-.498-.335-1-.503-1.501-.198-.596-.398-1.19-.588-1.79-.162-.509-.315-1.022-.47-1.534-.182-.597-.365-1.192-.539-1.793-.149-.517-.29-1.037-.434-1.557-.166-.599-.333-1.197-.49-1.798-.139-.529-.268-1.06-.4-1.592-.148-.597-.299-1.193-.439-1.792-.126-.54-.245-1.082-.365-1.625-.132-.594-.265-1.189-.389-1.787-.115-.552-.219-1.105-.327-1.658-.115-.591-.232-1.183-.339-1.777-.101-.562-.193-1.125-.287-1.689-.098-.589-.199-1.18-.289-1.771-.088-.572-.166-1.146-.248-1.72-.064-.456-.127-.91-.187-1.367V204zm438.745 102.521c-16.785 27.254-47.565 42.313-96.871 47.39-33.164 3.413-59.121 7.097-91.249 23.483-9.768 4.983-19.217 10.414-28.356 15.668-20.766 11.938-40.381 23.214-63.212 29.429-57.308 15.601-94.837-3.363-116.231-22.019-23.645-20.618-39.044-50.82-42.96-82.073.136.183.275.361.412.544.239.32.481.636.722.955.558.737 1.123 1.467 1.693 2.192.241.306.482.613.724.918.73.915 1.469 1.823 2.219 2.721.067.079.132.162.198.241a153.07 153.07 0 0 0 2.494 2.894c.238.271.48.537.72.806a155.752 155.752 0 0 0 4.835 5.165c.176.18.349.361.526.54.893.902 1.797 1.791 2.711 2.668.216.207.436.411.652.616a150.982 150.982 0 0 0 3.032 2.799c.711.638 1.429 1.269 2.152 1.893.247.212.49.427.738.638.962.819 1.934 1.628 2.916 2.422.154.124.31.243.464.368.834.668 1.674 1.326 2.521 1.975.306.235.614.466.923.698.742.559 1.49 1.11 2.242 1.654.293.211.584.424.879.634a146.06 146.06 0 0 0 3.111 2.156l.117.077c.667.446 1.348.892 2.038 1.338.228.147.459.294.69.441.577.368 1.162.733 1.754 1.099.192.119.381.237.576.356.76.464 1.533.925 2.319 1.384.204.119.412.237.617.356a135.16 135.16 0 0 0 2.636 1.486 142.6 142.6 0 0 0 2.539 1.366c.077.041.157.079.234.12.795.414 1.604.824 2.421 1.231.26.13.523.258.787.388.738.362 1.485.719 2.241 1.073.187.088.37.177.558.263.923.427 1.86.847 2.809 1.262.239.104.482.207.723.31.764.328 1.536.653 2.316.973l.793.324c.995.4 2.001.795 3.024 1.18l.364.134a135.233 135.233 0 0 0 3.658 1.305c.92.314 1.85.624 2.793.924.158.05.313.103.471.154 1.09.344 2.195.675 3.312.999.274.079.551.156.826.234.905.256 1.818.504 2.74.745.28.073.559.148.84.219 1.158.296 2.327.581 3.513.852.164.038.332.072.497.11 1.036.233 2.084.456 3.143.67.322.065.644.13.967.192 1.116.217 2.241.425 3.38.621.117.02.233.043.35.063a150.513 150.513 0 0 0 7.921 1.11c.29.033.579.069.871.1 1.318.142 2.648.271 3.993.38.22.018.444.031.664.048a160.119 160.119 0 0 0 8.617.431c.038.001.074.003.112.003 1.146.024 2.302.038 3.467.038.309 0 .623-.006.933-.008l.717-.006c1.434-.015 2.879-.045 4.342-.098.155-.005.312-.014.467-.02 1.477-.057 2.967-.134 4.473-.232.081-.005.162-.008.243-.015 1.516-.101 3.049-.23 4.593-.374.24-.023.48-.044.721-.068a172.53 172.53 0 0 0 4.565-.506c.248-.03.495-.063.744-.095 1.58-.202 3.171-.422 4.78-.67l.292-.047c1.587-.248 3.189-.52 4.803-.814l.544-.097c1.607-.298 3.229-.623 4.865-.967l.876-.186c1.622-.35 3.256-.722 4.904-1.12.256-.062.513-.128.769-.19 1.727-.424 3.465-.866 5.221-1.345 26.723-7.274 49.03-20.098 70.602-32.499 9.21-5.294 17.908-10.293 26.974-14.919.855-.436 1.704-.861 2.549-1.277 26.194-12.868 47.929-15.887 77.668-18.949 1.685-.173 3.351-.363 5.005-.559.463-.055.92-.114 1.381-.171 1.212-.149 2.414-.305 3.609-.468l1.487-.205c1.284-.182 2.558-.371 3.821-.567.327-.051.659-.099.985-.15 1.582-.252 3.147-.515 4.696-.79.322-.057.638-.118.959-.177a248.42 248.42 0 0 0 3.644-.689c.468-.092.933-.186 1.398-.28a248.22 248.22 0 0 0 3.297-.694c.416-.091.834-.18 1.247-.272a217.398 217.398 0 0 0 8.664-2.121c.393-.106.78-.213 1.171-.32a199.982 199.982 0 0 0 7.61-2.243c.272-.087.547-.169.818-.257a180.94 180.94 0 0 0 3.989-1.338c.264-.092.522-.188.786-.281 1.045-.37 2.079-.746 3.104-1.131.389-.146.774-.295 1.161-.443.938-.36 1.868-.728 2.79-1.102.346-.14.695-.279 1.039-.421a152.286 152.286 0 0 0 7.25-3.22c.328-.156.651-.316.977-.474.862-.418 1.717-.843 2.562-1.275.351-.18.702-.358 1.051-.54a134.44 134.44 0 0 0 2.689-1.441c.229-.126.462-.249.69-.375a130.358 130.358 0 0 0 3.28-1.889c.226-.135.446-.274.671-.409a129.127 129.127 0 0 0 3.492-2.186c.753-.489 1.499-.985 2.237-1.487.294-.2.59-.398.881-.6a118.592 118.592 0 0 0 5.838-4.314c.284-.224.563-.451.845-.678.669-.536 1.33-1.078 1.983-1.628a111.078 111.078 0 0 0 2.952-2.568c.211-.19.427-.377.636-.569.808-.739 1.604-1.485 2.387-2.244v10.713l.014.652c.424 10.356-2.749 21.117-9.437 31.979z" fill="#d27722" data-original="#000000" class=""></path></g></svg>