<svg xmlns="http://www.w3.org/2000/svg" version="1.1" xmlns:xlink="http://www.w3.org/1999/xlink" xmlns:svgjs="http://svgjs.com/svgjs" width="512" height="512" x="0" y="0" viewBox="0 0 682.667 682.667" style="enable-background:new 0 0 512 512" xml:space="preserve" class=""><g><defs><clipPath id="a" clipPathUnits="userSpaceOnUse"><path d="M0 512h512V0H0Z" fill="#d27722" data-original="#000000"></path></clipPath></defs><g clipPath="url(#a)" transform="matrix(1.33333 0 0 -1.33333 0 682.667)"><path d="M0 0v0c0-104.935 85.066-190 190-190h76.5c32.309 0 58.5-26.191 58.5-58.5S298.809-307 266.5-307H225v-83h32c107.696 0 195 87.305 195 195S364.696 0 257 0Z" style="strokeWidth:30;strokeLinecap:round;strokeLinejoin:round;strokeMiterlimit:10;stroke-dasharray:none;stroke-opacity:1" transform="translate(45 437)" fill="none" stroke="#d27722" strokeWidth="30" strokeLinecap="round" strokeLinejoin="round" strokeMiterlimit="10" stroke-dasharray="none" stroke-opacity="" data-original="#000000" class=""></path><path d="M0 0h-150c-16.568 0-30 13.432-30 30 0 16.568 13.432 30 30 30H0" style="strokeWidth:30;strokeLinecap:round;strokeLinejoin:round;strokeMiterlimit:10;stroke-dasharray:none;stroke-opacity:1" transform="translate(195 437)" fill="none" stroke="#d27722" strokeWidth="30" strokeLinecap="round" strokeLinejoin="round" strokeMiterlimit="10" stroke-dasharray="none" stroke-opacity="" data-original="#000000" class=""></path><path d="M0 0s-50-32-90-32-40 36.75-40 36.75 0 36.75 40 36.75H0Z" style="strokeWidth:30;strokeLinecap:round;strokeLinejoin:round;strokeMiterlimit:10;stroke-dasharray:none;stroke-opacity:1" transform="translate(270 47)" fill="none" stroke="#d27722" strokeWidth="30" strokeLinecap="round" strokeLinejoin="round" strokeMiterlimit="10" stroke-dasharray="none" stroke-opacity="" data-original="#000000" class=""></path><path d="M0 0s-50 32-90 32-40-36.75-40-36.75 0-36.75 40-36.75H0Z" style="strokeWidth:30;strokeLinecap:round;strokeLinejoin:round;strokeMiterlimit:10;stroke-dasharray:none;stroke-opacity:1" transform="translate(270 130)" fill="none" stroke="#d27722" strokeWidth="30" strokeLinecap="round" strokeLinejoin="round" strokeMiterlimit="10" stroke-dasharray="none" stroke-opacity="" data-original="#000000" class=""></path><path d="M0 0c53.376 0 96.568 43.191 96.568 96.568" style="strokeWidth:30;strokeLinecap:round;strokeLinejoin:round;strokeMiterlimit:10;stroke-dasharray:none;stroke-opacity:1" transform="translate(233.432 247)" fill="none" stroke="#d27722" strokeWidth="30" strokeLinecap="round" strokeLinejoin="round" strokeMiterlimit="10" stroke-dasharray="none" stroke-opacity="" data-original="#000000" class=""></path><path d="M0 0c0-8.284-6.716-15-15-15-8.284 0-15 6.716-15 15 0 8.284 6.716 15 15 15C-6.716 15 0 8.284 0 0" style="fillOpacity:1;fill-rule:nonzero;stroke:none" transform="translate(190 372)" fill="#d27722" data-original="#000000"></path><path d="M0 0h-41.5v-83h32c34.053 0 66.061 8.737 93.921 24.079l-62.99 62.99A58.32 58.32 0 0 0 0 0Z" style="strokeWidth:30;strokeLinecap:round;strokeLinejoin:round;strokeMiterlimit:10;stroke-dasharray:none;stroke-opacity:1" transform="translate(311.5 130)" fill="none" stroke="#d27722" strokeWidth="30" strokeLinecap="round" strokeLinejoin="round" strokeMiterlimit="10" stroke-dasharray="none" stroke-opacity="" data-original="#000000" class=""></path><path d="M0 0h-257c0-104.935 85.066-190 190-190H9.5c16.154 0 30.779-6.548 41.366-17.134L165.749-92.251C131.349-36.877 69.986 0 0 0Z" style="strokeWidth:30;strokeLinecap:round;strokeLinejoin:round;strokeMiterlimit:10;stroke-dasharray:none;stroke-opacity:1" transform="translate(302 437)" fill="none" stroke="#d27722" strokeWidth="30" strokeLinecap="round" strokeLinejoin="round" strokeMiterlimit="10" stroke-dasharray="none" stroke-opacity="" data-original="#000000" class=""></path><path d="M0 0h-117.025c-3.919-19.651-17.683-35.739-35.933-42.931l62.99-62.99C-48.365-83.012-16.034-45.358 0 0Z" style="strokeWidth:30;strokeLinecap:round;strokeLinejoin:round;strokeMiterlimit:10;stroke-dasharray:none;stroke-opacity:1" transform="translate(485.889 177)" fill="none" stroke="#d27722" strokeWidth="30" strokeLinecap="round" strokeLinejoin="round" strokeMiterlimit="10" stroke-dasharray="none" stroke-opacity="" data-original="#000000" class=""></path><path d="M0 0v0c0 37.71-10.715 72.912-29.251 102.749L-144.134-12.134C-133.548-22.721-127-37.346-127-53.5a58.79 58.79 0 0 0-1.137-11.5h117.026C-3.924-44.668 0-22.794 0 0Z" style="strokeWidth:30;strokeLinecap:round;strokeLinejoin:round;strokeMiterlimit:10;stroke-dasharray:none;stroke-opacity:1" transform="translate(497 242)" fill="none" stroke="#d27722" strokeWidth="30" strokeLinecap="round" strokeLinejoin="round" strokeMiterlimit="10" stroke-dasharray="none" stroke-opacity="" data-original="#000000" class=""></path></g></g></svg>