<svg width="105" height="105" viewBox="0 0 105 105" fill="none" xmlns="http://www.w3.org/2000/svg">
<rect width="105" height="105" rx="16" fill="#D27722"/>
<path d="M51.52 75.704C47.936 75.704 44.5867 75.064 41.472 73.784C38.4 72.504 35.8613 70.7333 33.856 68.472L40.512 62.328C42.176 64.12 43.776 65.3573 45.312 66.04C46.8907 66.7227 48.9173 67.064 51.392 67.064C53.0133 67.064 54.4213 66.8507 55.616 66.424C56.8533 65.9547 57.792 65.3147 58.432 64.504C59.1147 63.6507 59.456 62.6693 59.456 61.56C59.456 60.5787 59.2 59.7467 58.688 59.064C58.2187 58.3813 57.536 57.848 56.64 57.464C55.7867 57.08 54.7627 56.888 53.568 56.888H47.808V48.76H52.544C54.3787 48.76 55.808 48.3333 56.832 47.48C57.856 46.584 58.368 45.3467 58.368 43.768C58.368 42.7013 58.048 41.7627 57.408 40.952C56.8107 40.0987 55.9787 39.4373 54.912 38.968C53.888 38.4987 52.6933 38.264 51.328 38.264C49.152 38.264 47.296 38.648 45.76 39.416C44.2667 40.1413 42.6453 41.464 40.896 43.384L34.176 37.304C36.3093 34.872 38.912 32.9733 41.984 31.608C45.0987 30.2 48.3413 29.496 51.712 29.496C54.9973 29.496 57.8773 30.0507 60.352 31.16C62.8267 32.2267 64.768 33.7413 66.176 35.704C67.584 37.624 68.288 39.864 68.288 42.424C68.288 44.856 67.4987 46.9893 65.92 48.824C64.3413 50.6587 62.2933 51.9387 59.776 52.664C62.72 53.2187 65.0667 54.3707 66.816 56.12C68.5653 57.8267 69.44 59.9173 69.44 62.392C69.44 64.952 68.672 67.2347 67.136 69.24C65.6 71.2453 63.488 72.824 60.8 73.976C58.112 75.128 55.0187 75.704 51.52 75.704Z" fill="white"/>
</svg>
