<svg width="105" height="105" viewBox="0 0 105 105" fill="none" xmlns="http://www.w3.org/2000/svg">
<rect width="105" height="105" rx="16" fill="#D27722"/>
<path d="M36.636 75V67.96L55.58 49.208C56.3053 48.5253 56.8813 47.864 57.308 47.224C57.7347 46.5413 58.0547 45.8587 58.268 45.176C58.4813 44.4933 58.588 43.8107 58.588 43.128C58.588 41.6773 57.948 40.4827 56.668 39.544C55.4307 38.5627 53.8733 38.072 51.996 38.072C49.9907 38.072 48.1133 38.4987 46.364 39.352C44.6147 40.1627 42.716 41.5707 40.668 43.576L35.164 36.856C37.724 34.424 40.4333 32.5893 43.292 31.352C46.1933 30.1147 49.2013 29.496 52.316 29.496C55.516 29.496 58.2893 30.0507 60.636 31.16C63.0253 32.2267 64.8813 33.7413 66.204 35.704C67.5267 37.624 68.188 39.8853 68.188 42.488C68.188 43.896 67.9747 45.2613 67.548 46.584C67.164 47.864 66.5453 49.1227 65.692 50.36C64.8387 51.5973 63.7293 52.8773 62.364 54.2L49.436 66.68L68.828 66.616V75H36.636Z" fill="white"/>
</svg>
