<?xml version="1.0" standalone="no"?>
<!DOCTYPE svg PUBLIC "-//W3C//DTD SVG 20010904//EN"
 "http://www.w3.org/TR/2001/REC-SVG-20010904/DTD/svg10.dtd">
<svg version="1.0" xmlns="http://www.w3.org/2000/svg"
 width="512.000000pt" height="512.000000pt" viewBox="0 0 512.000000 512.000000"
 preserveAspectRatio="xMidYMid meet">
<metadata>
Created by potrace 1.14, written by Peter Selinger 2001-2017
</metadata>
<g transform="translate(0.000000,512.000000) scale(0.100000,-0.100000)"
fill="#000000" stroke="none">
<path d="M290 2560 l0 -2270 2270 0 2270 0 0 2270 0 2270 -2270 0 -2270 0 0
-2270z m2600 1645 c413 -73 716 -310 863 -676 42 -105 75 -231 84 -321 l6 -68
-360 0 -359 0 -12 94 c-37 294 -197 426 -518 426 -303 0 -461 -167 -521 -552
-22 -143 -25 -690 -5 -833 32 -224 77 -345 164 -440 86 -94 196 -135 366 -135
288 0 466 131 503 371 6 41 13 84 15 97 l4 22 361 0 361 0 -7 -72 c-24 -248
-129 -472 -300 -644 -89 -90 -163 -143 -282 -203 -175 -88 -346 -128 -588
-138 -397 -16 -702 88 -942 320 -215 208 -341 481 -388 840 -20 160 -21 603 0
760 86 656 487 1093 1068 1167 103 13 375 4 487 -15z"/>
</g>
</svg>
