<svg width="349" height="121" viewBox="0 0 349 121" fill="none" xmlns="http://www.w3.org/2000/svg">
<path d="M346.947 43.5953C347.677 51.056 343.801 58.7753 335.786 66.3839C327.783 73.9814 315.784 81.3362 300.633 88.0281C270.34 101.407 227.658 112.044 179.777 116.731C131.896 121.419 87.9622 119.262 55.6495 112.012C39.4877 108.385 26.29 103.497 16.9657 97.5961C7.62794 91.6863 2.32804 84.8653 1.59765 77.4046C0.867257 69.9439 4.74367 62.2246 12.758 54.6161C20.7608 47.0185 32.7599 39.6637 47.9116 32.9718C78.2047 19.5926 120.886 8.95632 168.767 4.26879C216.648 -0.418747 260.582 1.73805 292.895 8.98822C309.057 12.6145 322.254 17.5026 331.579 23.4039C340.916 29.3136 346.216 36.1346 346.947 43.5953Z" fill="white" stroke="#FFDBB8" strokeWidth="2"/>
</svg>