<svg width="238" height="83" viewBox="0 0 238 83" fill="none" xmlns="http://www.w3.org/2000/svg">
<path d="M236.299 33.3352C236.639 38.4674 233.918 43.71 228.359 48.8228C222.809 53.9278 214.549 58.7852 204.143 63.1128C183.339 71.7641 154.171 78.2111 121.578 80.3671C88.9851 82.5231 59.2221 79.9744 37.4605 74.1387C26.5747 71.2195 17.7469 67.4925 11.5727 63.1631C5.38894 58.827 2.00109 53.9885 1.6616 48.8563C1.32211 43.7241 4.0431 38.4815 9.6018 33.3687C15.152 28.2637 23.4119 23.4064 33.8183 19.0787C54.6216 10.4274 83.7896 3.98041 116.383 1.8244C148.976 -0.331611 178.739 2.21714 200.5 8.05281C211.386 10.972 220.214 14.699 226.388 19.0284C232.572 23.3645 235.96 28.203 236.299 33.3352Z" fill="white" stroke="#FFDBB8" strokeWidth="2"/>
</svg>
