<svg width="285" height="99" viewBox="0 0 285 99" fill="none" xmlns="http://www.w3.org/2000/svg">
<path d="M283.571 40.2131C283.982 46.4673 280.662 52.8215 273.957 58.9838C267.261 65.1383 257.308 70.983 244.789 76.184C219.759 86.5821 184.68 94.3202 145.493 96.8976C106.307 99.475 70.5169 96.3982 44.3406 89.3682C31.2474 85.8518 20.6154 81.361 13.1708 76.1367C5.71671 70.9057 1.59235 65.0411 1.18099 58.7869C0.769628 52.5327 4.09031 46.1784 10.795 40.0161C17.4912 33.8617 27.4434 28.017 39.9633 22.816C64.9932 12.4179 100.072 4.67983 139.258 2.1024C178.445 -0.475022 214.235 2.60175 240.411 9.63179C253.504 13.1482 264.136 17.6389 271.581 22.8633C279.035 28.0943 283.159 33.9589 283.571 40.2131Z" fill="white" stroke="#FFDBB8" strokeWidth="2"/>
</svg>
