<svg xmlns="http://www.w3.org/2000/svg" version="1.1" xmlns:xlink="http://www.w3.org/1999/xlink" xmlns:svgjs="http://svgjs.com/svgjs" width="512" height="512" x="0" y="0" viewBox="0 0 32 32" style="enable-background:new 0 0 512 512" xml:space="preserve" className=""><g><path fill="#ffdbb8" d="M26 32H6a6 6 0 0 1-6-6V6a6 6 0 0 1 6-6h20a6 6 0 0 1 6 6v20a6 6 0 0 1-6 6z" data-original="#ffe6e2" className=""></path><path fill="#d27722" d="M17.581 19.747c-.378.378-.88.586-1.414.586s-1.036-.208-1.414-.586l-2.833-2.833c-.378-.378-.586-.88-.586-1.414s.208-1.036.586-1.414.88-.586 1.414-.586 1.036.208 1.414.586l1.419 1.419 4.473-4.473A.658.658 0 0 0 20 10.5H10c-1.103 0-2 .897-2 2v10c0 1.103.897 2 2 2h10c1.103 0 2-.897 2-2v-7.172z" data-original="#fc573b" className=""></path><path fill="#e5984f" d="M16.167 19a.663.663 0 0 1-.471-.195l-2.833-2.833a.668.668 0 0 1 .943-.943l2.362 2.362 6.695-6.695a.668.668 0 0 1 .943.943l-7.167 7.167a.672.672 0 0 1-.472.194z" data-original="#fd907e" className=""></path></g></svg>