<svg xmlns="http://www.w3.org/2000/svg" version="1.1" xmlns:xlink="http://www.w3.org/1999/xlink" xmlns:svgjs="http://svgjs.com/svgjs" width="512" height="512" x="0" y="0" viewBox="0 0 512 512" style="enable-background:new 0 0 512 512" xml:space="preserve" className=""><g><path fill="#ffdbb8" d="M416 512H96c-53.023 0-96-42.977-96-96V96C0 42.977 42.977 0 96 0h320c53.023 0 96 42.977 96 96v320c0 53.023-42.977 96-96 96zm0 0" data-original="#fff9dd" className=""></path><path fill="#d17721" d="M341.328 178.672c0-16.176-13.152-29.328-29.328-29.328H157.328C141.152 149.328 128 162.496 128 178.672v34.672h213.328zm0 0" data-original="#ffd200" className=""></path><path fill="#e5984f" d="M181.328 181.328c-5.887 0-10.672-4.785-10.672-10.672v-32c.016-5.886 4.785-10.656 10.672-10.656S192 132.77 192 138.672v32c0 5.887-4.77 10.656-10.672 10.656zM288 181.328c-5.887 0-10.672-4.785-10.672-10.672v-32c0-5.886 4.785-10.656 10.672-10.656s10.672 4.785 10.672 10.672v32c0 5.887-4.77 10.656-10.672 10.656zm0 0" data-original="#ffe777" className=""></path><path fill="#d17721" d="M213.328 330.672H160c-17.648 0-32-14.352-32-32V192c0-5.887 4.77-10.672 10.672-10.672s10.656 4.785 10.656 10.672v106.672c0 5.887 4.785 10.672 10.672 10.672h53.328C219.23 309.328 224 314.114 224 320s-4.77 10.672-10.672 10.672zM330.672 224C324.77 224 320 219.215 320 213.328V192c0-5.887 4.77-10.672 10.672-10.672 5.887 0 10.672 4.785 10.672 10.672v21.328c-.016 5.887-4.785 10.672-10.672 10.672zm0 0" data-original="#ffd200" className=""></path><path fill="#e5984f" d="M314.672 245.328c-38.223 0-69.328 31.106-69.328 69.328S276.434 384 314.672 384 384 352.895 384 314.672s-31.105-69.344-69.328-69.344zm32.062 57.664-34.671 40a10.684 10.684 0 0 1-7.68 3.68H304a10.67 10.67 0 0 1-7.535-3.121l-18.672-18.672c-4.16-4.16-4.16-10.91 0-15.086s10.91-4.16 15.086 0l10.562 10.559 27.168-31.344a10.645 10.645 0 0 1 15.04-1.07c4.464 3.855 4.925 10.605 1.085 15.054zm0 0" data-original="#ffe777" className=""></path></g></svg>