<svg width="125" height="125" viewBox="0 0 125 125" fill="none" xmlns="http://www.w3.org/2000/svg">
<path d="M41 6.14471C41 6.14471 25.6931 4.79206 19.0357 10.3578C13.186 15.2482 11 28 11 28" stroke="#D17721" strokeWidth="6" strokeLinecap="round"/>
<rect x="11" y="15" width="104" height="104" rx="52" fill="#D17721"/>
<g clipPath="url(#clip0_1237_57584)">
<path d="M62.99 40C64.0946 40 64.99 39.1046 64.99 38C64.99 36.8954 64.0946 36 62.99 36C61.8854 36 60.99 36.8954 60.99 38C60.99 39.1046 61.8854 40 62.99 40Z" fill="#D17721"/>
<path d="M72.99 50.21V51H52.99V50.21C52.9628 47.5302 54.001 44.9493 55.8762 43.0347C57.7514 41.12 60.3102 40.0285 62.99 40C64.3088 39.9983 65.6145 40.2621 66.8292 40.7758C68.0438 41.2895 69.1426 42.0425 70.06 42.99C71.9453 44.9196 72.9975 47.5123 72.99 50.21ZM47.98 57.69C47.98 57.79 47.98 57.9 47.97 58H38.01C38 57.9 38 57.79 38 57.69C37.9984 57.0745 38.1183 56.4647 38.3528 55.8957C38.5874 55.3266 38.9319 54.8094 39.3666 54.3737C39.8014 53.938 40.3179 53.5924 40.8864 53.3567C41.455 53.1209 42.0645 52.9997 42.68 53H43.3C43.9154 53.0003 44.5246 53.1218 45.093 53.3577C45.6613 53.5937 46.1776 53.9393 46.6122 54.3749C47.0469 54.8105 47.3914 55.3275 47.6261 55.8963C47.8608 56.4651 47.9811 57.0747 47.98 57.69Z" fill="#D17721"/>
<path d="M41 64.39C39.3 63.32 38.09 60.87 38.01 58H47.97C47.89 60.87 46.68 63.32 44.98 64.39C44.3925 64.7875 43.6994 65 42.99 65C42.2806 65 41.5875 64.7875 41 64.39Z" fill="#D17721"/>
<path d="M44.99 64.3999V67.2299L43.01 68.3299H43L41 66.9999V64.3899C41.5875 64.7874 42.2806 64.9999 42.99 64.9999C43.6994 64.9999 44.3925 64.7874 44.98 64.3899L44.99 64.3999Z" fill="#D17721"/>
<path d="M46.31 67C46.4107 67.0005 46.5112 67.0106 46.61 67.03C46.721 67.0334 46.8314 67.0468 46.94 67.07C47.05 67.09 47.17 67.11 47.29 67.13C47.54 67.18 47.8 67.24 48.07 67.32C48.345 67.402 48.6154 67.4988 48.88 67.61C48.9225 67.6141 48.9635 67.6278 49 67.65C49.16 67.72 49.32 67.79 49.47 67.87C49.63 67.95 49.78 68.04 49.94 68.13C50.09 68.22 50.24 68.31 50.38 68.41C50.8056 68.6881 51.2011 69.0098 51.56 69.37C53.0849 70.9122 53.9585 72.9816 54 75.15V79H40V69.98L43 68.33H43.01L44.99 67.23L45.47 66.97H45.68C45.8 66.97 45.92 66.97 46.03 66.98C46.0869 66.978 46.1438 66.9814 46.2 66.99C46.237 66.9879 46.274 66.9912 46.31 67Z" fill="#D17721"/>
<path d="M43 68.33L40 69.98V79H32V75.16C32.0119 74.0604 32.2434 72.9742 32.681 71.9653C33.1185 70.9564 33.7532 70.0451 34.5478 69.285C35.3425 68.5248 36.281 67.9311 37.3083 67.5387C38.3356 67.1463 39.4309 66.9632 40.53 67H41L43 68.33Z" fill="#D17721"/>
<path d="M86.13 66.99C86.29 67 86.46 67.01 86.66 67.04C86.7816 67.0419 86.9025 67.0587 87.02 67.09C87.1007 67.0985 87.1809 67.1119 87.26 67.13C87.4264 67.1513 87.5905 67.1881 87.75 67.24C87.8555 67.2621 87.9591 67.2922 88.06 67.33C88.2063 67.3628 88.3501 67.4062 88.49 67.46C88.66 67.52 88.82 67.58 88.99 67.65C89.9526 68.0467 90.8263 68.6314 91.56 69.37C93.0849 70.9122 93.9585 72.9817 94 75.15V79H80V69.98L83.01 68.33H83.02L85 67.24L85.47 66.98C85.58 66.98 85.81 66.97 86.13 66.99Z" fill="#D17721"/>
<path d="M77.98 58H87.96C87.88 60.86 86.68 63.3 84.98 64.38C84.3942 64.7788 83.7032 64.9945 82.9945 64.9999C82.2859 65.0052 81.5917 64.7999 81 64.41C79.28 63.34 78.06 60.89 77.98 58Z" fill="#D17721"/>
<path d="M87.97 57.69C87.97 57.79 87.97 57.9 87.96 58H77.98C77.97 57.9 77.97 57.79 77.97 57.69C77.9723 56.4463 78.4645 55.2535 79.34 54.37C79.7756 53.9339 80.2932 53.5882 80.863 53.3531C81.4328 53.118 82.0435 52.998 82.66 53H83.28C84.5238 53 85.7168 53.4941 86.5963 54.3737C87.4758 55.2532 87.97 56.4462 87.97 57.69Z" fill="#D17721"/>
<path d="M85 64.3999V67.2399L83.02 68.3299H83.01L81 66.9999V64.4099C81.5917 64.7998 82.2859 65.0051 82.9946 64.9998C83.7032 64.9944 84.3942 64.7787 84.98 64.3799L85 64.3999Z" fill="#D17721"/>
<path d="M83.01 68.33L80 69.98V79H72V75.16C72.0119 74.0604 72.2434 72.9742 72.681 71.9653C73.1185 70.9564 73.7532 70.0451 74.5478 69.285C75.3425 68.5248 76.281 67.9311 77.3083 67.5387C78.3356 67.1463 79.4309 66.9632 80.53 67H81L83.01 68.33Z" fill="#D17721"/>
<path d="M63.42 58.9501L64.2 58.6701C65.6856 58.1509 67.259 57.93 68.83 58.0201L69.4 58.0501C70.0489 58.0935 70.6755 58.3042 71.2187 58.6617C71.762 59.0192 72.2034 59.5113 72.5 60.0901L72.56 60.2101C72.8332 60.7414 72.9832 61.3275 72.9987 61.9248C73.0143 62.5221 72.8951 63.1152 72.65 63.6601C72.3084 64.4147 71.7288 65.0365 71 65.4301C71 65.4327 70.999 65.4353 70.9971 65.4372C70.9952 65.439 70.9927 65.4401 70.99 65.4401C70.7061 65.602 70.3993 65.72 70.08 65.7901C68.5293 66.1566 66.9036 66.0415 65.42 65.4601L63.81 64.8301C62.63 65.1901 60.74 65.5701 60.09 65.6901C59.9314 65.7199 59.7711 65.7399 59.61 65.7501C58.102 65.9213 56.5752 65.806 55.11 65.4101C55.0725 65.3953 55.0358 65.3786 55 65.3601C54.5795 65.1576 54.2031 64.874 53.8925 64.5256C53.5819 64.1773 53.3432 63.771 53.19 63.3301C52.9486 62.6301 52.9388 61.8711 53.1621 61.1651C53.3854 60.4592 53.8299 59.8438 54.43 59.4101C55.5595 58.5771 56.9085 58.0938 58.31 58.0201C60.0631 57.9196 61.8148 58.2384 63.42 58.9501Z" fill="#D17721"/>
<path d="M71 65.4301V69.0001H55V65.3601C55.0358 65.3786 55.0725 65.3953 55.11 65.4101C56.5752 65.806 58.102 65.9213 59.61 65.7501C59.7711 65.7399 59.9314 65.7199 60.09 65.6901C60.74 65.5701 62.63 65.1901 63.81 64.8301L65.42 65.4601C66.9036 66.0414 68.5293 66.1566 70.08 65.7901C70.3993 65.72 70.7061 65.602 70.99 65.4401C70.9927 65.4401 70.9952 65.439 70.9971 65.4371C70.9989 65.4353 71 65.4327 71 65.4301Z" fill="#D17721"/>
<path d="M66 79.0901V82.5401C64.97 83.0501 63.93 83.5601 62.9 84.0701L60 82.6201V79.0901C60.888 79.6834 61.932 80.0001 63 80.0001C64.068 80.0001 65.112 79.6834 66 79.0901Z" fill="#D17721"/>
<path d="M62.9 84.0701C61.6 84.7101 60.3 85.3601 59 86.0001V98.0001H49V93.0401C49.0521 90.2586 50.1562 87.6001 52.09 85.6001C53.1042 84.5948 54.3104 83.8041 55.6367 83.2749C56.9631 82.7458 58.3824 82.4891 59.81 82.5201L60 82.6201L62.9 84.0701Z" fill="#D17721"/>
<path d="M65.28 73.32L65.92 74.89C66.12 75.37 65.91 76 65.56 76H60.45C60.11 76 59.9 75.4 60.08 74.92L60.66 73.35C60.73 73.13 60.88 73 61.03 73H64.92C65.06 73 65.2 73.12 65.28 73.32Z" fill="#D17721"/>
<path d="M65.56 76C65.91 76 66.12 75.37 65.92 74.89L65.28 73.32C65.2 73.12 65.06 73 64.92 73H61.03C60.88 73 60.73 73.13 60.66 73.35L60.08 74.92C59.9 75.4 60.11 76 60.45 76H65.56ZM70 70.57C70 74.33 68.36 77.58 66 79.09C65.112 79.6833 64.068 80 63 80C61.932 80 60.888 79.6833 60 79.09C57.64 77.58 56 74.34 56 70.57C55.9978 70.045 56.0312 69.5205 56.1 69H69.9C69.9688 69.5205 70.0022 70.045 70 70.57Z" fill="#D17721"/>
<path d="M66.84 82.53C69.5588 82.6429 72.1301 83.7971 74.0215 85.7535C75.9128 87.71 76.9792 90.3189 77 93.04V98H59V86C60.3 85.36 61.6 84.71 62.9 84.07C63.93 83.56 64.97 83.05 66 82.54C66.01 82.53 66.03 82.53 66.04 82.52H66.46C66.59 82.52 66.71 82.52 66.84 82.53Z" fill="#D17721"/>
<path d="M76.999 99H48.999C48.7338 99 48.4795 98.8947 48.2919 98.7071C48.1044 98.5196 47.999 98.2652 47.999 98V93.042C48.0418 89.9953 49.2499 87.0806 51.375 84.897C52.4856 83.7932 53.8076 82.9252 55.2619 82.3449C56.7162 81.7646 58.2727 81.484 59.838 81.52C60.0974 81.5364 60.3402 81.6532 60.515 81.8456C60.6897 82.0379 60.7828 82.2908 60.7743 82.5505C60.7659 82.8103 60.6566 83.0566 60.4697 83.2372C60.2828 83.4178 60.0329 83.5185 59.773 83.518C58.4827 83.4898 57.1999 83.722 56.0013 84.2007C54.8028 84.6794 53.713 85.3947 52.797 86.304C51.0503 88.1232 50.0515 90.5326 49.999 93.054V97H57.999V86.001C57.9992 85.8146 58.0515 85.632 58.1499 85.4737C58.2483 85.3154 58.389 85.1877 58.556 85.105L65.594 81.622C65.7223 81.5586 65.8629 81.5238 66.006 81.52C67.5538 81.4698 69.096 81.7296 70.5419 82.2841C71.9878 82.8386 73.3083 83.6765 74.4257 84.7487C75.5431 85.8209 76.4348 87.1057 77.0485 88.5275C77.6621 89.9493 77.9853 91.4795 77.999 93.028V98C77.999 98.2652 77.8937 98.5196 77.7061 98.7071C77.5186 98.8947 77.2642 99 76.999 99ZM59.999 97H75.999V93.042C75.938 90.5196 74.924 88.114 73.161 86.309C71.3261 84.5207 68.8662 83.5184 66.304 83.515H66.279L60 86.622L59.999 97Z" fill="#FFDBB8"/>
<path d="M59.999 83.6211C59.7338 83.6211 59.4795 83.5157 59.2919 83.3282C59.1044 83.1406 58.999 82.8863 58.999 82.6211V79.0911C58.999 78.8258 59.1044 78.5715 59.2919 78.384C59.4795 78.1964 59.7338 78.0911 59.999 78.0911C60.2642 78.0911 60.5186 78.1964 60.7061 78.384C60.8937 78.5715 60.999 78.8258 60.999 79.0911V82.6211C60.999 82.8863 60.8937 83.1406 60.7061 83.3282C60.5186 83.5157 60.2642 83.6211 59.999 83.6211ZM65.999 83.5411C65.7338 83.5411 65.4795 83.4357 65.2919 83.2482C65.1044 83.0606 64.999 82.8063 64.999 82.5411V79.0911C64.999 78.8258 65.1044 78.5715 65.2919 78.384C65.4795 78.1964 65.7338 78.0911 65.999 78.0911C66.2642 78.0911 66.5186 78.1964 66.7061 78.384C66.8937 78.5715 66.999 78.8258 66.999 79.0911V82.5411C66.999 82.8063 66.8937 83.0606 66.7061 83.2482C66.5186 83.4357 66.2642 83.5411 65.999 83.5411Z" fill="#FFDBB8"/>
<path d="M62.999 81.0011C58.588 81.0011 54.999 76.3211 54.999 70.5661C54.9985 69.9958 55.0336 69.426 55.104 68.8601C55.1369 68.5969 55.273 68.3575 55.4824 68.1946C55.6918 68.0317 55.9573 67.9587 56.2205 67.9916C56.4838 68.0245 56.7231 68.1606 56.886 68.37C57.0489 68.5794 57.1219 68.8449 57.089 69.1081C57.0289 69.5918 56.9989 70.0787 56.999 70.5661C56.999 75.2161 59.69 79.0011 62.999 79.0011C66.308 79.0011 68.999 75.2171 68.999 70.5661C68.9993 70.0787 68.9693 69.5918 68.909 69.1081C68.8828 68.8483 68.9592 68.5886 69.1219 68.3843C69.2847 68.1801 69.5208 68.0477 69.7799 68.0153C70.039 67.9829 70.3005 68.0532 70.5085 68.211C70.7165 68.3689 70.8545 68.6018 70.893 68.8601C70.9635 69.426 70.9989 69.9958 70.999 70.5661C70.999 76.3201 67.41 81.0011 62.999 81.0011Z" fill="#FFDBB8"/>
<path d="M65.56 77.0011H60.452C60.2319 76.9985 60.0159 76.942 59.8227 76.8366C59.6295 76.7311 59.4652 76.5799 59.344 76.3961C59.1699 76.1293 59.0607 75.8255 59.0253 75.5089C58.9899 75.1923 59.0292 74.8718 59.14 74.5731L59.717 73.0031C59.8036 72.7197 59.9768 72.4705 60.2123 72.2906C60.4479 72.1107 60.7338 72.0091 61.03 72.0001H64.916C65.2005 72.0082 65.4759 72.1021 65.7062 72.2695C65.9364 72.4369 66.1106 72.67 66.206 72.9381L66.85 74.5111C66.9704 74.813 67.018 75.1389 66.9889 75.4625C66.9599 75.7862 66.8551 76.0985 66.683 76.3741C66.5626 76.5637 66.3967 76.7203 66.2004 76.8296C66.0041 76.9389 65.7837 76.9975 65.559 77.0001L65.56 77.0011ZM61.113 75.0011H64.873L64.477 74.0011H61.48L61.113 75.0011ZM71 70.0001H55C54.7348 70.0001 54.4805 69.8948 54.2929 69.7072C54.1054 69.5197 54 69.2653 54 69.0001L53.999 65.3601C53.999 65.0949 54.1044 64.8405 54.2919 64.653C54.4795 64.4655 54.7338 64.3601 54.999 64.3601C55.2642 64.3601 55.5186 64.4655 55.7061 64.653C55.8937 64.8405 55.999 65.0949 55.999 65.3601L56 68.0001H70V65.4351C70 65.1699 70.1054 64.9155 70.2929 64.728C70.4805 64.5405 70.7348 64.4351 71 64.4351C71.2652 64.4351 71.5196 64.5405 71.7071 64.728C71.8947 64.9155 72 65.1699 72 65.4351V69.0001C72 69.2653 71.8947 69.5197 71.7071 69.7072C71.5196 69.8948 71.2652 70.0001 71 70.0001Z" fill="#FFDBB8"/>
<path d="M57.992 66.815C56.8767 66.8614 55.7627 66.6961 54.709 66.328C54.6477 66.3035 54.5879 66.2755 54.53 66.244C53.4572 65.7198 52.6357 64.7922 52.245 63.664C51.9297 62.7615 51.9145 61.7814 52.2015 60.8696C52.4886 59.9577 53.0626 59.1631 53.8379 58.604C55.1239 57.6538 56.6612 57.1033 58.2579 57.021C60.1676 56.9136 62.0754 57.2618 63.824 58.037C63.9471 58.0881 64.0588 58.1633 64.1525 58.2581C64.2462 58.353 64.32 58.4657 64.3695 58.5895C64.419 58.7133 64.4432 58.8458 64.4408 58.9791C64.4383 59.1125 64.4092 59.2439 64.3552 59.3659C64.3012 59.4878 64.2233 59.5977 64.1262 59.689C64.0291 59.7804 63.9147 59.8514 63.7897 59.898C63.6647 59.9445 63.5317 59.9655 63.3985 59.9598C63.2653 59.9542 63.1345 59.9219 63.014 59.865C61.5529 59.2196 59.9597 58.9296 58.365 59.019C57.1568 59.0812 55.9937 59.4979 55.021 60.217C54.5927 60.5239 54.275 60.9608 54.115 61.4628C53.9551 61.9647 53.9613 62.5049 54.1329 63.003C54.2419 63.3191 54.4126 63.6104 54.635 63.86C54.8575 64.1096 55.1274 64.3126 55.429 64.457L55.461 64.474C55.497 64.488 55.5309 64.504 55.5639 64.521C56.8612 64.8451 58.2076 64.9241 59.534 64.754C59.6582 64.7467 59.7817 64.7313 59.9039 64.708C60.4789 64.603 62.365 64.226 63.518 63.874C63.6879 63.8279 63.8567 63.7772 64.0239 63.722C65.1214 63.3604 66.1946 62.9289 67.2369 62.43C67.356 62.367 67.4865 62.3287 67.6207 62.3174C67.7549 62.3061 67.8899 62.322 68.0178 62.3641C68.1457 62.4063 68.2638 62.4738 68.3649 62.5627C68.4661 62.6517 68.5482 62.7601 68.6064 62.8815C68.6647 63.0029 68.6978 63.1349 68.7037 63.2694C68.7097 63.4039 68.6885 63.5383 68.6413 63.6644C68.5941 63.7905 68.5219 63.9058 68.429 64.0033C68.3362 64.1009 68.2246 64.1786 68.101 64.232C66.9823 64.7696 65.8299 65.2339 64.651 65.622C64.457 65.686 64.271 65.74 64.074 65.795C62.853 66.168 60.912 66.557 60.27 66.674C60.0714 66.7118 59.8707 66.7369 59.669 66.749C59.157 66.787 58.58 66.815 57.992 66.815Z" fill="#FFDBB8"/>
<path d="M68.29 67.001C67.1829 67.0025 66.0855 66.7955 65.055 66.391L63.445 65.763C63.1978 65.6665 62.9991 65.4757 62.8926 65.2327C62.7861 64.9896 62.7805 64.7142 62.877 64.467C62.9735 64.2199 63.1643 64.0212 63.4074 63.9146C63.6504 63.8081 63.9258 63.8025 64.173 63.899L65.783 64.529C67.078 65.0404 68.4989 65.1409 69.853 64.817C70.0774 64.7678 70.2931 64.6852 70.493 64.572C71.0443 64.276 71.4834 63.8074 71.743 63.238C71.9232 62.8313 72.01 62.3894 71.9972 61.9447C71.9844 61.5 71.8723 61.0638 71.669 60.668L71.604 60.535C71.3853 60.1139 71.0621 59.756 70.6653 59.4958C70.2685 59.2356 69.8114 59.0817 69.338 59.049L68.776 59.019C67.3347 58.9319 65.8906 59.1345 64.529 59.615L63.896 59.843L62.595 60.803C62.3817 60.9524 62.1186 61.0127 61.8615 60.9711C61.6045 60.9294 61.3738 60.7892 61.2186 60.5802C61.0633 60.3711 60.9957 60.1098 61.0302 59.8517C61.0646 59.5936 61.1984 59.3591 61.403 59.198L62.825 58.147C62.9033 58.0893 62.9895 58.0431 63.081 58.01L63.861 57.73C65.4725 57.1634 67.1807 56.9231 68.886 57.023L69.451 57.052C70.2736 57.1065 71.0683 57.3726 71.7579 57.8244C72.4474 58.2762 73.0086 58.8986 73.387 59.631L73.454 59.767C73.792 60.4317 73.9768 61.1637 73.995 61.9091C74.0131 62.6546 73.8642 63.3947 73.559 64.075C73.1204 65.0332 72.3823 65.8228 71.456 66.325C71.093 66.5299 70.7013 66.6793 70.294 66.768C69.6367 66.9218 68.965 66.9999 68.29 67.001ZM62.897 85.071C62.7422 85.071 62.5895 85.0351 62.451 84.966L59.341 83.404C59.22 83.3456 59.1119 83.2634 59.0234 83.1623C58.9348 83.0612 58.8676 82.9433 58.8256 82.8156C58.7837 82.6879 58.7679 82.5531 58.7792 82.4191C58.7905 82.2852 58.8288 82.155 58.8916 82.0361C58.9544 81.9173 59.0405 81.8124 59.1448 81.7276C59.249 81.6428 59.3693 81.5799 59.4985 81.5426C59.6276 81.5054 59.7629 81.4945 59.8964 81.5108C60.0298 81.527 60.1586 81.5699 60.275 81.637L60.465 81.737L63.345 83.177C63.5463 83.2779 63.7077 83.4438 63.803 83.6479C63.8983 83.8519 63.9219 84.0821 63.8701 84.3012C63.8182 84.5204 63.694 84.7156 63.5174 84.8553C63.3408 84.995 63.1222 85.071 62.897 85.071ZM53.999 99C53.7338 99 53.4794 98.8947 53.2919 98.7072C53.1044 98.5196 52.999 98.2653 52.999 98V93.001C52.999 92.7358 53.1044 92.4815 53.2919 92.2939C53.4794 92.1064 53.7338 92.001 53.999 92.001C54.2642 92.001 54.5186 92.1064 54.7061 92.2939C54.8936 92.4815 54.999 92.7358 54.999 93.001V98C54.999 98.2653 54.8936 98.5196 54.7061 98.7072C54.5186 98.8947 54.2642 99 53.999 99ZM71.999 99C71.7338 99 71.4794 98.8947 71.2919 98.7072C71.1044 98.5196 70.999 98.2653 70.999 98V93.08C70.999 92.8148 71.1044 92.5605 71.2919 92.3729C71.4794 92.1854 71.7338 92.08 71.999 92.08C72.2642 92.08 72.5186 92.1854 72.7061 92.3729C72.8936 92.5605 72.999 92.8148 72.999 93.08V98C72.999 98.2653 72.8936 98.5196 72.7061 98.7072C72.5186 98.8947 72.2642 99 71.999 99ZM62.019 91.001C61.8877 91.0017 61.7575 90.9765 61.6359 90.9268C61.5144 90.8772 61.4038 90.8041 61.3104 90.7117C61.2171 90.6193 61.1429 90.5094 61.092 90.3883C61.0412 90.2673 61.0147 90.1374 61.014 90.006C61.0133 89.8747 61.0386 89.7446 61.0882 89.623C61.1379 89.5014 61.211 89.3908 61.3034 89.2975C61.3958 89.2042 61.5056 89.1299 61.6267 89.0791C61.7478 89.0282 61.8777 89.0017 62.009 89.001H62.019C62.2842 89.001 62.5386 89.1064 62.7261 89.2939C62.9136 89.4815 63.019 89.7358 63.019 90.001C63.019 90.2663 62.9136 90.5206 62.7261 90.7082C62.5386 90.8957 62.2842 91.001 62.019 91.001ZM62.019 96.001C61.8877 96.0017 61.7575 95.9765 61.6359 95.9268C61.5144 95.8772 61.4038 95.8041 61.3104 95.7117C61.2171 95.6193 61.1429 95.5094 61.092 95.3883C61.0412 95.2673 61.0147 95.1374 61.014 95.006C61.0133 94.8747 61.0386 94.7446 61.0882 94.623C61.1379 94.5014 61.211 94.3908 61.3034 94.2975C61.3958 94.2042 61.5056 94.1299 61.6267 94.0791C61.7478 94.0282 61.8777 94.0017 62.009 94.001H62.019C62.2842 94.001 62.5386 94.1064 62.7261 94.2939C62.9136 94.4815 63.019 94.7358 63.019 95.001C63.019 95.2663 62.9136 95.5206 62.7261 95.7082C62.5386 95.8957 62.2842 96.001 62.019 96.001ZM66.019 91.001C65.7538 91.0024 65.4989 90.8983 65.3104 90.7117C65.122 90.5251 65.0153 90.2713 65.014 90.006C65.0127 89.7408 65.1168 89.4859 65.3034 89.2975C65.49 89.109 65.7438 89.0024 66.009 89.001H66.019C66.2842 89.001 66.5386 89.1064 66.7261 89.2939C66.9136 89.4815 67.019 89.7358 67.019 90.001C67.019 90.2663 66.9136 90.5206 66.7261 90.7082C66.5386 90.8957 66.2842 91.001 66.019 91.001ZM66.019 96.001C65.7538 96.0024 65.4989 95.8983 65.3104 95.7117C65.122 95.5251 65.0153 95.2713 65.014 95.006C65.0127 94.7408 65.1168 94.4859 65.3034 94.2975C65.49 94.109 65.7438 94.0024 66.009 94.001H66.019C66.2842 94.001 66.5386 94.1064 66.7261 94.2939C66.9136 94.4815 67.019 94.7358 67.019 95.001C67.019 95.2663 66.9136 95.5206 66.7261 95.7082C66.5386 95.8957 66.2842 96.001 66.019 96.001ZM40 79.997H32C31.7348 79.997 31.4804 79.8917 31.2929 79.7042C31.1054 79.5166 31 79.2623 31 78.997V75.155C31.0113 73.922 31.2692 72.7037 31.7586 71.5718C32.248 70.44 32.9589 69.4175 33.8495 68.5647C34.7401 67.7118 35.7924 67.0458 36.9443 66.6059C38.0963 66.1659 39.3246 65.961 40.557 66.003L40.998 66.002C41.2632 66.002 41.5176 66.1074 41.7051 66.2949C41.8926 66.4825 41.998 66.7368 41.998 67.002C41.998 67.2673 41.8926 67.5216 41.7051 67.7092C41.5176 67.8967 41.2632 68.002 40.998 68.002H40.525C39.533 67.9759 38.5457 68.1481 37.6211 68.5083C36.6964 68.8686 35.8529 69.4097 35.14 70.1C33.8079 71.4552 33.0426 73.2673 33 75.167V77.997H39V69.979C39.0002 69.8 39.0485 69.6242 39.1398 69.4701C39.2311 69.316 39.362 69.1893 39.519 69.103L44.993 66.098C45.1314 66.0228 45.2855 65.981 45.443 65.976C46.6756 65.9353 47.9039 66.1415 49.0557 66.5823C50.2076 67.0232 51.2596 67.6899 52.15 68.5432C53.0404 69.3966 53.7512 70.4193 54.2407 71.5513C54.7301 72.6834 54.9883 73.9018 55 75.135V78.996C55 79.2613 54.8946 79.5156 54.7071 79.7032C54.5196 79.8907 54.2652 79.996 54 79.996H40.045L40 79.997ZM41 77.997H53V75.147C52.9556 73.2468 52.1907 71.4344 50.86 70.077C49.487 68.7415 47.6514 67.9874 45.736 67.972L41 70.572V77.997Z" fill="#FFDBB8"/>
<path d="M43.01 69.3259C42.8145 69.3257 42.6234 69.2684 42.46 69.1609L40.447 67.8339C40.309 67.7427 40.1957 67.6187 40.1173 67.473C40.0389 67.3273 39.998 67.1644 39.998 66.9989V64.3789C39.998 64.1137 40.1034 63.8593 40.2909 63.6718C40.4785 63.4843 40.7328 63.3789 40.998 63.3789C41.2633 63.3789 41.5176 63.4843 41.7052 63.6718C41.8927 63.8593 41.998 64.1137 41.998 64.3789V66.4599L43.563 67.4909C43.7428 67.6093 43.8795 67.7826 43.9529 67.9849C44.0263 68.1873 44.0324 68.4079 43.9704 68.614C43.9084 68.8201 43.7816 69.0007 43.6087 69.1289C43.4359 69.2572 43.2253 69.3263 43.01 69.3259ZM44.99 68.2489C44.7248 68.2489 44.4705 68.1436 44.2829 67.956C44.0954 67.7685 43.99 67.5141 43.99 67.2489V64.3989C43.99 64.1337 44.0954 63.8793 44.2829 63.6918C44.4705 63.5043 44.7248 63.3989 44.99 63.3989C45.2553 63.3989 45.5096 63.5043 45.6972 63.6918C45.8847 63.8793 45.99 64.1337 45.99 64.3989V67.2489C45.99 67.5141 45.8847 67.7685 45.6972 67.956C45.5096 68.1436 45.2553 68.2489 44.99 68.2489Z" fill="#FFDBB8"/>
<path d="M42.991 65.999C39.631 65.999 36.998 62.349 36.998 57.69C36.9988 56.1824 37.5976 54.7366 38.663 53.6699C39.7284 52.6032 41.1734 52.0026 42.681 52H43.301C44.8088 52.0026 46.254 52.6033 47.3194 53.6703C48.3848 54.7372 48.9835 56.1832 48.984 57.691C48.984 62.351 46.352 65.999 42.991 65.999ZM42.681 53.999C41.7036 54.0014 40.7669 54.3913 40.0765 55.0832C39.3861 55.7751 38.9983 56.7126 38.998 57.69C38.998 61.11 40.828 63.999 42.991 63.999C45.154 63.999 46.984 61.11 46.984 57.69C46.9835 56.7129 46.5956 55.7758 45.9055 55.0842C45.2153 54.3925 44.2791 54.0026 43.302 54L42.681 53.999ZM36 79.996C35.7348 79.996 35.4804 79.8906 35.2929 79.7031C35.1054 79.5156 35 79.2612 35 78.996V74.99C35 74.7248 35.1054 74.4704 35.2929 74.2829C35.4804 74.0954 35.7348 73.99 36 73.99C36.2652 73.99 36.5196 74.0954 36.7071 74.2829C36.8946 74.4704 37 74.7248 37 74.99V78.997C37 79.2622 36.8946 79.5166 36.7071 79.7041C36.5196 79.8916 36.2652 79.997 36 79.997V79.996ZM49.98 79.996C49.7148 79.996 49.4604 79.8906 49.2729 79.7031C49.0854 79.5156 48.98 79.2612 48.98 78.996V75.052C48.98 74.7868 49.0854 74.5324 49.2729 74.3449C49.4604 74.1574 49.7148 74.052 49.98 74.052C50.2452 74.052 50.4996 74.1574 50.6871 74.3449C50.8746 74.5324 50.98 74.7868 50.98 75.052V78.996C50.98 79.2612 50.8746 79.5156 50.6871 79.7031C50.4996 79.8906 50.2452 79.996 49.98 79.996Z" fill="#FFDBB8"/>
<path d="M47.98 59.001H36.007C35.7417 59.001 35.4874 58.8956 35.2999 58.7081C35.1123 58.5205 35.007 58.2662 35.007 58.001C35.007 57.7358 35.1123 57.4814 35.2999 57.2939C35.4874 57.1063 35.7417 57.001 36.007 57.001H47.978C48.2432 57.001 48.4975 57.1063 48.6851 57.2939C48.8726 57.4814 48.978 57.7358 48.978 58.001C48.978 58.2662 48.8726 58.5205 48.6851 58.7081C48.4975 58.8956 48.2432 59.001 47.978 59.001H47.98Z" fill="#FFDBB8"/>
<path d="M37.999 59.001C37.8338 59.0013 37.6712 58.9606 37.5256 58.8826C37.3801 58.8046 37.2561 58.6916 37.165 58.554L35.175 55.552C35.0338 55.331 34.985 55.0635 35.0391 54.8069C35.0933 54.5503 35.246 54.3253 35.4645 54.1803C35.6829 54.0353 35.9496 53.9819 36.2071 54.0315C36.4645 54.0812 36.6922 54.2301 36.841 54.446L38.831 57.448C38.9309 57.5985 38.9882 57.7734 38.9967 57.9539C39.0052 58.1344 38.9646 58.3139 38.8793 58.4732C38.7939 58.6325 38.667 58.7657 38.512 58.8586C38.357 58.9516 38.1797 59.0007 37.999 59.001ZM80 79.998H72C71.7348 79.998 71.4804 79.8926 71.2929 79.7051C71.1053 79.5175 71 79.2632 71 78.998V75.156C71.0113 73.9229 71.2692 72.7046 71.7586 71.5727C72.2479 70.4409 72.9589 69.4184 73.8495 68.5656C74.7401 67.7127 75.7923 67.0467 76.9443 66.6068C78.0962 66.1668 79.3246 65.9619 80.557 66.004L80.998 66.003C81.2632 66.003 81.5175 66.1083 81.7051 66.2958C81.8926 66.4834 81.998 66.7377 81.998 67.003C81.998 67.2682 81.8926 67.5225 81.7051 67.7101C81.5175 67.8976 81.2632 68.003 80.998 68.003H80.525C79.5569 67.9652 78.591 68.122 77.6846 68.4642C76.7782 68.8063 75.9497 69.3269 75.248 69.9949C74.5464 70.663 73.9859 71.4651 73.5998 72.3536C73.2136 73.2422 73.0097 74.1992 73 75.168V77.998H79V69.98C79.0002 69.8009 79.0485 69.6251 79.1398 69.471C79.2311 69.317 79.362 69.1902 79.519 69.104L84.993 66.099C85.1314 66.0237 85.2855 65.9819 85.443 65.977C86.6755 65.9362 87.9037 66.1423 89.0555 66.5832C90.2072 67.024 91.2592 67.6906 92.1496 68.5438C93.04 69.397 93.7509 70.4196 94.2403 71.5516C94.7298 72.6835 94.9881 73.9018 95 75.135V78.997C95 79.2622 94.8946 79.5165 94.7071 79.7041C94.5195 79.8916 94.2652 79.997 94 79.997H80.045L80 79.998ZM81 77.998H93V75.146C92.9797 73.2341 92.205 71.4076 90.8445 70.0642C89.484 68.7208 87.6479 67.9692 85.736 67.973L81 70.573V77.998Z" fill="#FFDBB8"/>
<path d="M83.019 69.3299C82.8234 69.3301 82.6322 69.2727 82.469 69.1649L80.45 67.8349C80.3117 67.7439 80.1981 67.62 80.1196 67.4742C80.041 67.3285 79.9999 67.1655 80 66.9999V64.4099C80 64.1447 80.1054 63.8903 80.2929 63.7028C80.4804 63.5153 80.7348 63.4099 81 63.4099C81.2652 63.4099 81.5196 63.5153 81.7071 63.7028C81.8946 63.8903 82 64.1447 82 64.4099V66.4599L83.57 67.4949C83.7496 67.6133 83.8863 67.7865 83.9597 67.9887C84.0331 68.1909 84.0394 68.4114 83.9775 68.6175C83.9156 68.8235 83.789 69.0042 83.6163 69.1325C83.4436 69.2608 83.2341 69.3301 83.019 69.3299ZM85 68.2499C84.7348 68.2499 84.4804 68.1445 84.2929 67.957C84.1054 67.7695 84 67.5151 84 67.2499V64.3999C84 64.1347 84.1054 63.8803 84.2929 63.6928C84.4804 63.5053 84.7348 63.3999 85 63.3999C85.2652 63.3999 85.5196 63.5053 85.7071 63.6928C85.8946 63.8803 86 64.1347 86 64.3999V67.2499C86 67.5151 85.8946 67.7695 85.7071 67.957C85.5196 68.1445 85.2652 68.2499 85 68.2499Z" fill="#FFDBB8"/>
<path d="M82.97 66C79.604 66 76.967 62.35 76.967 57.691C76.9686 56.1821 77.5687 54.7355 78.6356 53.6686C79.7025 52.6017 81.1491 52.0016 82.658 52H83.281C84.79 52.0013 86.2369 52.6013 87.304 53.6683C88.3712 54.7352 88.9714 56.182 88.973 57.691C88.973 62.351 86.336 66 82.97 66ZM82.658 54C81.6795 54.0013 80.7414 54.3906 80.0495 55.0825C79.3576 55.7744 78.9683 56.7125 78.967 57.691C78.967 61.111 80.8 64 82.97 64C85.14 64 86.973 61.111 86.973 57.691C86.9717 56.7121 86.5821 55.7738 85.8898 55.0818C85.1974 54.3899 84.2589 54.0008 83.28 54H82.658ZM76 79.997C75.7348 79.997 75.4804 79.8916 75.2929 79.7041C75.1054 79.5166 75 79.2622 75 78.997V74.99C75 74.7248 75.1054 74.4704 75.2929 74.2829C75.4804 74.0954 75.7348 73.99 76 73.99C76.2652 73.99 76.5196 74.0954 76.7071 74.2829C76.8946 74.4704 77 74.7248 77 74.99V78.997C77 79.2622 76.8946 79.5166 76.7071 79.7041C76.5196 79.8916 76.2652 79.997 76 79.997ZM90 79.997C89.7348 79.997 89.4804 79.8916 89.2929 79.7041C89.1054 79.5166 89 79.2622 89 78.997V75.053C89 74.7878 89.1054 74.5334 89.2929 74.3459C89.4804 74.1584 89.7348 74.053 90 74.053C90.2652 74.053 90.5196 74.1584 90.7071 74.3459C90.8946 74.5334 91 74.7878 91 75.053V78.997C91 79.2622 90.8946 79.5166 90.7071 79.7041C90.5196 79.8916 90.2652 79.997 90 79.997Z" fill="#FFDBB8"/>
<path d="M87.968 59.002H75.973C75.7078 59.002 75.4535 58.8966 75.2659 58.7091C75.0784 58.5215 74.973 58.2672 74.973 58.002C74.973 57.7367 75.0784 57.4824 75.2659 57.2948C75.4535 57.1073 75.7078 57.002 75.973 57.002H87.968C88.2332 57.002 88.4876 57.1073 88.6751 57.2948C88.8627 57.4824 88.968 57.7367 88.968 58.002C88.968 58.2672 88.8627 58.5215 88.6751 58.7091C88.4876 58.8966 88.2332 59.002 87.968 59.002Z" fill="#FFDBB8"/>
<path d="M77.9679 59.002C77.8029 59.0022 77.6404 58.9616 77.4949 58.8838C77.3494 58.806 77.2254 58.6934 77.1339 58.556L75.1399 55.554C75.0672 55.4446 75.0167 55.3219 74.9913 55.193C74.966 55.0641 74.9663 54.9315 74.9922 54.8027C75.0181 54.6739 75.0691 54.5515 75.1423 54.4424C75.2156 54.3333 75.3096 54.2397 75.4189 54.167C75.5283 54.0942 75.651 54.0437 75.7799 54.0184C75.9088 53.993 76.0414 53.9933 76.1702 54.0192C76.299 54.0451 76.4215 54.0961 76.5305 54.1694C76.6396 54.2426 76.7332 54.3366 76.8059 54.446L78.7999 57.448C78.9002 57.5986 78.9576 57.7735 78.9663 57.9542C78.9749 58.1349 78.9344 58.3145 78.849 58.474C78.7637 58.6334 78.6366 58.7668 78.4815 58.8597C78.3263 58.9527 78.1488 59.0019 77.9679 59.002ZM72.9939 52C72.7287 52 72.4744 51.8946 72.2868 51.7071C72.0993 51.5195 71.9939 51.2652 71.9939 51V50.214C72.0192 49.0161 71.8051 47.8253 71.3641 46.7112C70.9232 45.5972 70.2643 44.5824 69.4261 43.7263C68.5878 42.8702 67.5871 42.1901 66.4826 41.7257C65.3781 41.2614 64.1921 41.0222 62.9939 41.0222C61.7958 41.0222 60.6097 41.2614 59.5052 41.7257C58.4008 42.1901 57.4001 42.8702 56.5618 43.7263C55.7236 44.5824 55.0647 45.5972 54.6238 46.7112C54.1828 47.8253 53.9687 49.0161 53.9939 50.214V51C53.9939 51.2652 53.8886 51.5195 53.7011 51.7071C53.5135 51.8946 53.2592 52 52.9939 52C52.7287 52 52.4744 51.8946 52.2868 51.7071C52.0993 51.5195 51.9939 51.2652 51.9939 51V50.214C51.9661 48.7518 52.23 47.2987 52.7703 45.9397C53.3105 44.5807 54.1163 43.3431 55.1405 42.2991C56.1647 41.2552 57.3868 40.426 58.7353 39.8599C60.0837 39.2938 61.5315 39.0022 62.9939 39.0022C64.4564 39.0022 65.9042 39.2938 67.2526 39.8599C68.6011 40.426 69.8231 41.2552 70.8473 42.2991C71.8716 43.3431 72.6774 44.5807 73.2176 45.9397C73.7579 47.2987 74.0218 48.7518 73.9939 50.214V51C73.9939 51.2652 73.8886 51.5195 73.7011 51.7071C73.5135 51.8946 73.2592 52 72.9939 52Z" fill="#FFDBB8"/>
<path d="M62.994 41C62.4007 41 61.8207 40.8241 61.3273 40.4944C60.834 40.1648 60.4494 39.6962 60.2224 39.1481C59.9953 38.5999 59.9359 37.9967 60.0517 37.4147C60.1674 36.8328 60.4531 36.2982 60.8727 35.8787C61.2923 35.4591 61.8268 35.1734 62.4087 35.0576C62.9907 34.9419 63.5939 35.0013 64.1421 35.2284C64.6902 35.4554 65.1588 35.8399 65.4884 36.3333C65.8181 36.8266 65.994 37.4067 65.994 38C65.9932 38.7954 65.6769 39.558 65.1145 40.1204C64.552 40.6829 63.7894 40.9992 62.994 41ZM62.994 37C62.7962 37 62.6029 37.0587 62.4384 37.1685C62.274 37.2784 62.1458 37.4346 62.0701 37.6173C61.9945 37.8 61.9746 38.0011 62.0132 38.1951C62.0518 38.3891 62.1471 38.5673 62.2869 38.7071C62.4268 38.847 62.6049 38.9422 62.7989 38.9808C62.9929 39.0194 63.194 38.9996 63.3767 38.9239C63.5594 38.8482 63.7156 38.72 63.8255 38.5556C63.9354 38.3911 63.994 38.1978 63.994 38C63.994 37.7348 63.8887 37.4804 63.7011 37.2929C63.5136 37.1054 63.2592 37 62.994 37ZM56.994 48C56.8755 48.0001 56.7579 47.9788 56.647 47.937C56.5239 47.8916 56.4109 47.8223 56.3146 47.7331C56.2182 47.644 56.1405 47.5367 56.0856 47.4174C56.0308 47.2981 56.0001 47.1692 55.9952 47.0381C55.9903 46.9069 56.0113 46.776 56.057 46.653C56.3608 45.8309 56.839 45.0844 57.4587 44.4647C58.0784 43.845 58.825 43.3668 59.647 43.063C59.8929 42.9817 60.1609 42.9989 60.3943 43.1111C60.6278 43.2234 60.8086 43.4218 60.8986 43.6647C60.9887 43.9076 60.981 44.1759 60.8772 44.4132C60.7734 44.6505 60.5815 44.8383 60.342 44.937C59.7902 45.141 59.289 45.462 58.873 45.878C58.457 46.294 58.136 46.7952 57.932 47.347C57.8611 47.5386 57.7332 47.704 57.5655 47.8207C57.3978 47.9375 57.1984 48 56.994 48ZM74.994 52H50.994C50.7288 52 50.4744 51.8946 50.2869 51.7071C50.0994 51.5196 49.994 51.2652 49.994 51C49.994 50.7348 50.0994 50.4804 50.2869 50.2929C50.4744 50.1054 50.7288 50 50.994 50H74.994C75.2592 50 75.5136 50.1054 75.7011 50.2929C75.8887 50.4804 75.994 50.7348 75.994 51C75.994 51.2652 75.8887 51.5196 75.7011 51.7071C75.5136 51.8946 75.2592 52 74.994 52Z" fill="#FFDBB8"/>
</g>
<defs>
<clipPath id="clip0_1237_57584">
<rect width="64" height="64" fill="white" transform="translate(31 35)"/>
</clipPath>
</defs>
</svg>
