<svg width="106" height="106" viewBox="0 0 106 106" fill="none" xmlns="http://www.w3.org/2000/svg">
<ellipse cx="52.5" cy="60.2294" rx="51.5" ry="41" fill="#FFDBB8"/>
<mask id="mask0_1237_53091" style="mask-type:luminance" maskUnits="userSpaceOnUse" x="18" y="6" width="69" height="69">
<path d="M85 73V8H20V73H85Z" fill="white" stroke="white" strokeWidth="4"/>
</mask>
<g mask="url(#mask0_1237_53091)">
<path d="M80.8642 11.0705C76.1703 6.92336 69.1746 7.02295 64.5912 11.2919C62.763 12.9947 61.5832 15.1175 61.0504 17.3627L58.7307 26.5645C58.2844 28.3342 57.3673 29.9502 56.0767 31.2407L20.8763 66.4411L26.5939 72.1588L61.8114 36.9412C63.1022 35.6505 64.7183 34.7334 66.4883 34.2871L75.6622 31.9745C77.7744 31.4732 79.7784 30.3993 81.4261 28.7515C86.3432 23.8344 86.1559 15.7459 80.8642 11.0705Z" stroke="#D27722" strokeWidth="4" strokeMiterlimit="10"/>
<path d="M48.9298 49.7944L63.7283 64.5929L76.593 51.7283L61.7944 36.9297" stroke="#D27722" strokeWidth="4" strokeMiterlimit="10"/>
<path d="M73.0193 55.3017L83.2223 64.0976C83.3186 64.1798 83.4117 64.2655 83.5015 64.3547C85.4752 66.3282 85.4752 69.528 83.5015 71.5016C81.528 73.4754 78.3282 73.4754 76.3545 71.5016C76.2642 71.4113 76.1795 71.3176 76.0975 71.2225L67.3016 61.0195" stroke="#D27722" strokeWidth="4" strokeMiterlimit="10"/>
<path d="M56.0701 31.2057L41.2716 16.4072L28.4069 29.2718L43.2055 44.0704" stroke="#D27722" strokeWidth="4" strokeMiterlimit="10"/>
<path d="M31.9804 25.6985L21.7774 16.9026C21.6812 16.8204 21.588 16.7346 21.4982 16.6455C19.5247 14.672 19.5247 11.4722 21.4982 9.49858C23.4718 7.52481 26.6716 7.52481 28.6452 9.49858C28.7355 9.58888 28.8203 9.68254 28.9024 9.77768L37.6981 19.9807" stroke="#D27722" strokeWidth="4" strokeMiterlimit="10"/>
</g>
</svg>
