<svg width="106" height="106" viewBox="0 0 106 106" fill="none" xmlns="http://www.w3.org/2000/svg">
<ellipse cx="52.5" cy="60.2294" rx="51.5" ry="41" fill="#FFDBB8"/>
<path d="M62.2568 27.1093C57.6262 49.6761 42.0405 68.4991 21 78.3303" stroke="#D27722" strokeWidth="4" strokeMiterlimit="10" strokeLinecap="round" strokeLinejoin="round"/>
<path d="M57.8328 14.5546C57.8328 19.4668 59.5258 23.9096 62.2568 27.1093C64.9877 23.9096 66.6807 19.4668 66.6807 14.5546C66.6807 9.6425 64.9877 5.19967 62.2568 2.00001C59.5258 5.19967 57.8328 9.6425 57.8328 14.5546Z" stroke="#D27722" strokeWidth="4" strokeMiterlimit="10" strokeLinecap="round" strokeLinejoin="round"/>
<path d="M68.103 29.2529C63.6444 31.7089 60.4583 35.3292 58.9196 39.1857C63.1895 39.8426 68.0683 39.0201 72.527 36.564C76.9856 34.1079 80.1716 30.4877 81.7103 26.6313C77.4405 25.9742 72.5615 26.7968 68.103 29.2529Z" stroke="#D27722" strokeWidth="4" strokeMiterlimit="10" strokeLinecap="round" strokeLinejoin="round"/>
<path d="M53.7106 26.8399C57.0244 30.599 58.7262 35.0389 58.7948 39.1648C54.546 38.3936 50.2532 36.0332 46.9393 32.274C43.6255 28.5149 41.9237 24.0751 41.8551 19.9491C46.1039 20.7205 50.3967 23.0808 53.7106 26.8399Z" stroke="#D27722" strokeWidth="4" strokeMiterlimit="10" strokeLinecap="round" strokeLinejoin="round"/>
<path d="M59.0629 49.0441C54.2115 50.688 50.3902 53.6968 48.144 57.2232C52.218 58.608 57.1725 58.6433 62.0239 56.9994C66.8754 55.3556 70.6967 52.3465 72.9429 48.8204C68.8689 47.4356 63.9145 47.4002 59.0629 49.0441Z" stroke="#D27722" strokeWidth="4" strokeMiterlimit="10" strokeLinecap="round" strokeLinejoin="round"/>
<path d="M48.3099 64.9785C43.1654 65.1645 38.5764 66.9469 35.3286 69.6719C38.7831 72.1546 43.5002 73.6005 48.6449 73.4145C53.7894 73.2287 58.3784 71.4462 61.6262 68.7213C58.1717 66.2384 53.4546 64.7926 48.3099 64.9785Z" stroke="#D27722" strokeWidth="4" strokeMiterlimit="10" strokeLinecap="round" strokeLinejoin="round"/>
<path d="M33.8794 56.4288C36.0003 60.9048 36.3761 65.6184 35.2693 69.6074C31.3992 67.7654 27.9382 64.3828 25.8172 59.9068C23.6963 55.4308 23.3203 50.7172 24.4273 46.7282C28.2974 48.5702 31.7584 51.9528 33.8794 56.4288Z" stroke="#D27722" strokeWidth="4" strokeMiterlimit="10" strokeLinecap="round" strokeLinejoin="round"/>
<path d="M45.2397 44.1809C47.7841 48.4511 48.6137 53.1117 47.8969 57.1813C43.8654 55.6874 40.0924 52.6235 37.548 48.3533C35.0034 44.0829 34.1738 39.4224 34.8907 35.353C38.9221 36.8467 42.6953 39.9106 45.2397 44.1809Z" stroke="#D27722" strokeWidth="4" strokeMiterlimit="10" strokeLinecap="round" strokeLinejoin="round"/>
</svg>
