<svg width="106" height="106" viewBox="0 0 106 106" fill="none" xmlns="http://www.w3.org/2000/svg">
<ellipse cx="52.5" cy="60.2294" rx="51.5" ry="41" fill="#FFDBB8"/>
<path d="M76.0415 16.9585C69.6198 10.5365 61.0816 7 51.9997 7C42.9178 7 34.38 10.5367 27.9583 16.9585C21.5367 23.3803 18 31.9184 18 41.0003C18 50.0821 21.5365 58.6201 27.9583 65.0419C34.38 71.4635 42.918 75 51.9997 75C61.0815 75 69.6196 71.4635 76.0415 65.0417C82.4635 58.6201 86 50.082 86 41.0001C86 31.9183 82.4635 23.3803 76.0415 16.9585ZM65.2441 16.7892C65.731 16.3118 66.2259 15.8262 66.6867 15.3475C68.5991 16.4476 70.383 17.7572 72.0055 19.2521C71.9975 19.263 71.989 19.2753 71.982 19.2842C71.6887 19.2558 71.2928 19.126 70.8758 18.9891C70.0685 18.7244 69.0634 18.3953 67.8983 18.4885C66.7627 18.5798 65.8099 19.049 65.0442 19.4259C64.6896 19.6005 64.1005 19.8906 63.8978 19.8917C63.6907 19.7924 63.2612 19.2427 63.0904 19.023C63.6205 18.3816 64.4448 17.5732 65.2441 16.7892ZM42.6705 12.9442C43.1981 14.5548 43.8007 16.0747 44.3906 17.521C44.8754 18.7093 45.4248 20.0559 45.3125 21.1598C45.2668 21.6075 45.1887 21.8256 45.15 21.9106C44.9525 21.9739 44.4808 22.0135 44.1586 22.0404C43.1462 22.1248 41.7596 22.2405 40.4765 23.1415C40.2245 23.3183 39.9986 23.4949 39.7799 23.6657C39.4113 23.9535 39.0303 24.2513 38.7907 24.3184C38.554 24.3846 38.0799 24.3306 37.6217 24.2784C37.2841 24.24 36.9014 24.1963 36.4982 24.183C35.2618 24.1413 32.2389 24.6674 30.7968 26.5508C30.0529 27.5221 29.8391 28.6973 30.1946 29.8606C30.4584 30.7232 31.0133 31.3115 31.4672 31.7278C33.4519 33.5474 36.1717 34.8355 38.9297 35.2622C39.3146 35.3219 39.6812 35.3666 40.0357 35.4101C41.9492 35.6442 42.4886 35.8003 42.9812 36.688C43.1311 36.9583 43.2652 37.3134 43.4073 37.6896C43.5848 38.1602 43.7862 38.6933 44.0792 39.2308C45.0236 40.9628 46.6525 41.9796 48.3271 41.8824C49.5734 41.8107 50.4616 41.1829 51.1104 40.7245C51.3369 40.5645 51.5711 40.3989 51.7089 40.3415C51.9713 40.2322 52.6024 40.3476 53.3693 40.8586C54.1178 41.3577 54.631 41.9383 54.8143 42.4936C54.9467 42.8954 54.8599 43.3529 54.6849 43.5007L50.6237 46.9695C49.5799 47.8611 47.637 49.5206 47.5768 52.0254C47.5595 52.7462 47.6988 53.395 47.8217 53.9674C47.8456 54.0786 47.8744 54.213 47.8998 54.3427C47.5192 54.4361 47.054 54.5555 46.5682 54.8007C44.1023 56.0457 43.8806 58.8853 43.7482 60.5819C43.7094 61.0777 43.6105 61.4626 43.5111 61.7249C43.456 61.6214 43.4049 61.4985 43.3698 61.3618C43.2746 60.99 43.2261 60.54 43.1747 60.0635C43.0909 59.2862 42.9958 58.4051 42.6684 57.4976C42.2469 56.3292 41.5475 55.411 40.9303 54.6011C40.3929 53.8958 39.9289 53.2866 39.7957 52.7239C39.6957 52.3006 39.7432 51.7022 39.7934 51.0684C39.8698 50.1072 39.9565 49.0176 39.6344 47.8462C39.1764 46.1797 38.102 45.0525 37.1543 44.0581C36.6181 43.4957 36.1117 42.9643 35.8421 42.4495C35.5728 41.9357 35.5923 41.3854 35.6499 40.4572C35.705 39.5681 35.7737 38.4618 35.379 37.3053C34.9513 36.0526 33.9809 35.3579 33.3305 34.8921C31.6186 33.666 30.0268 32.2805 28.5764 30.754C27.8553 29.9946 27.1535 29.1762 26.9034 28.3357C26.8441 28.1361 26.7873 27.9357 26.7331 27.7347C26.5829 27.185 26.4545 26.8415 26.2376 26.5094C29.816 20.1723 35.6637 15.2803 42.6705 12.9442ZM51.9997 70.5653C35.6975 70.5653 22.4348 57.3023 22.4348 41.0003C22.4348 37.8591 22.929 34.8315 23.8406 31.9892C24.3139 32.6665 24.8484 33.2687 25.361 33.8083C27.0073 35.5406 28.8141 37.1128 30.7571 38.5041C30.9012 38.6073 31.1064 38.7541 31.2133 38.8503C31.2863 39.1769 31.257 39.6472 31.2239 40.1828C31.1535 41.318 31.057 42.8725 31.9143 44.5084C32.4728 45.5741 33.2546 46.3943 33.9445 47.1181C34.6162 47.823 35.1964 48.4315 35.3585 49.0219C35.4741 49.4426 35.4249 50.0617 35.3727 50.7172C35.301 51.6201 35.2196 52.6437 35.4801 53.7448C35.8301 55.2247 36.6657 56.3214 37.4028 57.2889C37.8675 57.8988 38.3064 58.4751 38.4969 59.0026C38.6437 59.4097 38.703 59.9585 38.7656 60.5394C38.8284 61.1218 38.8997 61.7818 39.0737 62.4616C39.5951 64.4984 41.2857 66.4529 43.5669 66.4527C43.6884 66.4527 43.8121 66.4471 43.9369 66.4357C46.2991 66.2199 47.9212 64.1092 48.1698 60.9271C48.21 60.412 48.316 59.0543 48.5787 58.7548C48.66 58.7224 48.858 58.6739 49.0049 58.638C49.6298 58.485 50.574 58.2537 51.3541 57.4547C52.791 55.9831 52.3949 54.1382 52.158 53.036C52.0869 52.7041 52.006 52.3277 52.0106 52.1315C52.0232 51.6063 53.0992 50.6873 53.5042 50.3414L57.5572 46.8795C59.1351 45.5451 59.7253 43.2239 59.0259 41.1039C58.5266 39.5903 57.4213 38.2294 55.8293 37.168C53.8651 35.8588 51.7415 35.5232 50.004 36.2472C49.4131 36.4933 48.9353 36.8309 48.5514 37.1022C48.4352 37.1844 48.282 37.2927 48.1575 37.3717C48.086 37.291 48.0241 37.2023 47.973 37.1074C47.8269 36.8394 47.6957 36.4914 47.5566 36.123C47.3736 35.6382 47.1661 35.0886 46.8592 34.5355C45.2167 31.5758 42.5336 31.2474 40.5746 31.0079C40.2398 30.9669 39.9234 30.9282 39.608 30.8794C37.9589 30.6243 36.2812 29.9002 34.9933 28.9038C35.4653 28.7341 36.0423 28.6033 36.3528 28.6154C36.5775 28.6228 36.8409 28.6528 37.12 28.6846C37.92 28.7758 38.9151 28.8891 39.9877 28.5884C41.0705 28.2849 41.8689 27.6614 42.5102 27.1604C42.6933 27.0175 42.8661 26.8824 43.0254 26.7706C43.3256 26.56 43.9096 26.5112 44.5278 26.4596C46.0675 26.331 49.2714 26.0636 49.7249 21.6087C49.9494 19.4046 49.1443 17.4312 48.4973 15.8456C47.9593 14.5265 47.4372 13.2172 46.9817 11.8624C48.6393 11.578 50.3181 11.4349 52 11.4349C55.6702 11.4349 59.1853 12.1092 62.4309 13.3368C62.3336 13.4324 62.2362 13.5279 62.1391 13.6231C61.1535 14.5897 60.1343 15.5894 59.4329 16.4974C59.1363 16.8814 58.6401 17.5238 58.4938 18.449C58.2458 20.0185 59.1844 21.2244 59.5852 21.7391C60.1808 22.5045 61.1779 23.7856 62.8249 24.1964C63.1728 24.2834 63.5301 24.3274 63.8888 24.3274C65.1298 24.3274 66.1854 23.8077 67.0038 23.4046C67.475 23.1726 67.9623 22.9326 68.2535 22.9092C68.5308 22.8865 69.0204 23.0479 69.4947 23.2033C70.1871 23.4304 70.9719 23.6875 71.8965 23.7211C71.9522 23.7232 72.0074 23.7241 72.0626 23.7241C73.2106 23.724 74.23 23.2869 75.0379 22.4927C77.0011 24.9317 78.5858 27.687 79.7017 30.6697C79.5437 30.6738 79.3827 30.6761 79.239 30.6778C78.8045 30.6833 78.3117 30.6895 77.775 30.7307C76.5365 30.8259 75.5665 30.4664 74.3381 30.0111C73.4947 29.6986 72.5387 29.3442 71.4179 29.1215C68.3975 28.5213 65.2994 30.1679 63.5248 33.3167C63.0081 34.2336 60.5368 38.9547 62.6396 41.8512C63.428 42.9371 64.4828 43.5694 65.3306 44.0773C66.468 44.759 67.6439 45.4638 68.9763 46.0015C69.26 46.1159 69.5409 46.2197 69.8124 46.3198C70.6204 46.6181 71.456 46.9266 71.7549 47.3358C71.9224 47.5651 72.0971 48.0814 71.978 49.2384C71.8982 50.0123 71.5885 50.8568 71.2605 51.7509C70.4528 53.9537 69.3463 56.971 71.939 59.9332C72.3921 60.4521 72.9159 60.9046 73.4951 61.2775C68.1007 66.9925 60.4599 70.5653 51.9997 70.5653ZM75.276 57.0127C74.5165 56.1447 74.6181 55.4759 75.424 53.2777C75.8123 52.2187 76.2523 51.0186 76.389 49.693C76.6036 47.6105 76.259 45.9837 75.3352 44.7195C74.247 43.2299 72.6395 42.6364 71.3478 42.1597C71.0956 42.0666 70.8575 41.9786 70.635 41.8889C69.6251 41.4814 68.6463 40.8948 67.6099 40.2736C67.0785 39.9552 66.5297 39.6263 66.2601 39.288C66.103 38.7433 66.5594 36.9644 67.388 35.4939C68.0567 34.3069 69.2942 33.2205 70.5529 33.4711C71.328 33.6252 72.0412 33.8895 72.7965 34.1695C74.2544 34.7097 75.9066 35.3216 78.1149 35.1524C78.5096 35.122 78.9087 35.1169 79.2945 35.1122C79.8427 35.1054 80.4014 35.0981 80.9566 35.0175C81.3621 36.9859 81.566 38.9905 81.5651 41.0003C81.5652 47.2235 79.631 53.0023 76.3343 57.7709C75.938 57.6121 75.5798 57.3597 75.276 57.0127Z" fill="#D27722"/>
</svg>
