<svg width="125" height="125" viewBox="0 0 125 125" fill="none" xmlns="http://www.w3.org/2000/svg">
<path d="M41 6.14471C41 6.14471 25.6931 4.79206 19.0357 10.3578C13.186 15.2482 11 28 11 28" stroke="#D17721" strokeWidth="6" strokeLinecap="round"/>
<rect x="11" y="15" width="104" height="104" rx="52" fill="#D17721"/>
<path d="M93.2362 80.3648H91.9764V74.0959C91.9765 73.6946 91.8397 73.3053 91.5887 72.9923C91.3376 72.6793 90.9873 72.4614 90.5956 72.3744L73.1946 68.5072C71.2932 68.0867 69.3098 68.2395 67.4952 68.9461C65.6806 69.6528 64.1163 70.8816 63 72.4772C61.8837 70.8816 60.3194 69.6528 58.5048 68.9461C56.6902 68.2395 54.7068 68.0867 52.8054 68.5072L35.4044 72.3744C35.0127 72.4614 34.6624 72.6793 34.4113 72.9923C34.1603 73.3053 34.0235 73.6946 34.0236 74.0959V80.3648H32.7638C32.296 80.3648 31.8474 80.5507 31.5166 80.8814C31.1858 81.2122 31 81.6608 31 82.1286V89.1837C31 89.6515 31.1858 90.1001 31.5166 90.4309C31.8474 90.7617 32.296 90.9475 32.7638 90.9475H55.8884C56.6242 92.177 57.6661 93.1947 58.9125 93.9013C60.1589 94.6079 61.5672 94.9794 63 94.9794C64.4328 94.9794 65.8411 94.6079 67.0875 93.9013C68.3339 93.1947 69.3758 92.177 70.1116 90.9475H93.2362C93.704 90.9475 94.1526 90.7617 94.4834 90.4309C94.8142 90.1001 95 89.6515 95 89.1837V82.1286C95 81.6608 94.8142 81.2122 94.4834 80.8814C94.1526 80.5507 93.704 80.3648 93.2362 80.3648ZM67.1212 73.1868C67.8558 72.5945 68.7145 72.1756 69.6335 71.9613C70.5524 71.747 71.5079 71.7429 72.4287 71.9491L88.4539 75.5089V80.3648H64.7638V78.0971C64.7622 77.1541 64.9734 76.2228 65.3815 75.3726C65.7897 74.5225 66.3843 73.7753 67.1212 73.1868ZM37.5512 75.5109L53.5764 71.9511C54.4965 71.7475 55.4506 71.753 56.3684 71.9672C57.2861 72.1813 58.1441 72.5987 58.8792 73.1884C59.6142 73.7782 60.2076 74.5254 60.6155 75.3749C61.0234 76.2245 61.2355 77.1547 61.2362 78.0971V80.3648H37.5512V75.5109ZM91.4724 87.42H69.0472C68.7196 87.4198 68.3984 87.5111 68.1198 87.6834C67.8412 87.8557 67.6161 88.1024 67.4699 88.3956L67.2573 88.8209C66.8618 89.6114 66.2541 90.2762 65.5022 90.7408C64.7503 91.2054 63.8839 91.4515 63 91.4515C62.1161 91.4515 61.2497 91.2054 60.4978 90.7408C59.7459 90.2762 59.1382 89.6114 58.7427 88.8209L58.5301 88.3946C58.3837 88.1016 58.1586 87.8551 57.88 87.683C57.6014 87.5108 57.2803 87.4197 56.9528 87.42H34.5276V83.8924H91.4724V87.42ZM73.8346 45.8452C73.8364 43.9873 73.3605 42.1602 72.4525 40.5393C71.5445 38.9185 70.2349 37.5583 68.6496 36.5896C67.0643 35.6208 65.2566 35.076 63.4 35.0074C61.5434 34.9388 59.7003 35.3488 58.0479 36.1979C56.3954 37.0471 54.9891 38.3069 53.964 39.8564C52.9389 41.4058 52.3294 43.1928 52.1941 45.0458C52.0588 46.8987 52.4023 48.7553 53.1915 50.4372C53.9807 52.1191 55.1892 53.5698 56.7008 54.6499V56.4278C56.7008 58.0985 57.3645 59.7007 58.5458 60.882C59.7271 62.0634 61.3293 62.727 63 62.727C64.6707 62.727 66.2729 62.0634 67.4542 60.882C68.6355 59.7007 69.2992 58.0985 69.2992 56.4278V54.6499C70.6987 53.6466 71.8397 52.3251 72.6282 50.7942C73.4168 49.2634 73.8303 47.5671 73.8346 45.8452ZM65.7717 56.4278C65.7717 57.1629 65.4796 57.8679 64.9599 58.3877C64.4401 58.9075 63.7351 59.1995 63 59.1995C62.2649 59.1995 61.5599 58.9075 61.0401 58.3877C60.5204 57.8679 60.2283 57.1629 60.2283 56.4278V55.4562H65.7717V56.4278ZM67.0315 51.9287H64.7638V46.853C64.7638 46.3852 64.578 45.9366 64.2472 45.6058C63.9164 45.2751 63.4678 45.0892 63 45.0892C62.5322 45.0892 62.0836 45.2751 61.7528 45.6058C61.422 45.9366 61.2362 46.3852 61.2362 46.853V51.9287H58.9685C57.6587 51.0622 56.6628 49.7967 56.1286 48.3199C55.5944 46.843 55.5503 45.2333 56.0027 43.7294C56.4551 42.2255 57.38 40.9073 58.6404 39.9703C59.9008 39.0333 61.4295 38.5273 63 38.5273C64.5705 38.5273 66.0992 39.0333 67.3596 39.9703C68.62 40.9073 69.5449 42.2255 69.9973 43.7294C70.4497 45.2333 70.4056 46.843 69.8714 48.3199C69.3372 49.7967 68.3413 51.0622 67.0315 51.9287Z" fill="#FFDBB8"/>
<path d="M79.7192 36.2548L76.2278 38.2705C75.3842 38.7575 75.0951 39.8362 75.5822 40.6798C76.0692 41.5234 77.1479 41.8125 77.9915 41.3255L81.483 39.3098C82.3266 38.8227 82.6156 37.744 82.1286 36.9004C81.6415 36.0568 80.5628 35.7678 79.7192 36.2548Z" fill="#FFDBB8"/>
<path d="M77.9912 50.3655C77.1476 49.8785 76.0689 50.1675 75.5818 51.0111C75.0948 51.8547 75.3838 52.9334 76.2274 53.4205L79.7188 55.4362C80.5624 55.9233 81.6411 55.6342 82.1282 54.7906C82.6152 53.947 82.3262 52.8683 81.4826 52.3813L77.9912 50.3655Z" fill="#FFDBB8"/>
<path d="M46.2804 36.2547C45.4368 35.7676 44.3581 36.0567 43.871 36.9003C43.384 37.7439 43.673 38.8226 44.5166 39.3096L48.008 41.3254C48.8516 41.8124 49.9303 41.5234 50.4174 40.6798C50.9044 39.8362 50.6154 38.7575 49.7718 38.2704L46.2804 36.2547Z" fill="#FFDBB8"/>
<path d="M48.0079 50.3649L44.5165 52.3806C43.6729 52.8676 43.3838 53.9463 43.8709 54.7899C44.3579 55.6336 45.4366 55.9226 46.2802 55.4356L49.7716 53.4199C50.6153 52.9328 50.9043 51.8541 50.4173 51.0105C49.9302 50.1669 48.8515 49.8779 48.0079 50.3649Z" fill="#FFDBB8"/>
</svg>
