<svg width="125" height="125" viewBox="0 0 125 125" fill="none" xmlns="http://www.w3.org/2000/svg">
<path d="M41 6.14471C41 6.14471 25.6931 4.79206 19.0357 10.3578C13.186 15.2482 11 28 11 28" stroke="#D17721" strokeWidth="6" strokeLinecap="round"/>
<rect x="11" y="15" width="104" height="104" rx="52" fill="#D17721"/>
<path d="M54.3375 67.9249C55.2625 68.6624 57.05 69.5124 59.15 69.5124C60.6 69.5124 62.2 69.0999 63.7875 67.9749C64.575 67.4124 64.75 66.3249 64.1875 65.5374C63.625 64.7499 62.5375 64.5749 61.75 65.1374C59.1 67.0374 56.75 65.3749 56.475 65.1749C55.7125 64.5874 54.625 64.7124 54.025 65.4749C53.4375 66.2374 53.575 67.3249 54.3375 67.9249Z" fill="#FFDBB8"/>
<path d="M57.1623 60.4997C57.2406 59.3979 56.4109 58.4413 55.3091 58.363C54.2073 58.2847 53.2506 59.1144 53.1723 60.2162C53.094 61.318 53.9237 62.2747 55.0255 62.353C56.1273 62.4313 57.084 61.6015 57.1623 60.4997Z" fill="#FFDBB8"/>
<path d="M65.0249 60.3624C65.0249 59.2624 64.1249 58.3749 63.0249 58.3624C61.9249 58.3624 61.0249 59.2499 61.0249 60.3624C61.0249 61.4624 61.9249 62.3624 63.0249 62.3624C64.1249 62.3499 65.0249 61.4624 65.0249 60.3624ZM76.8999 65.4749C77.8249 66.2124 79.6124 67.0624 81.7249 67.0624C83.1749 67.0624 84.7749 66.6499 86.3624 65.5124C87.1499 64.9499 87.3249 63.8624 86.7624 63.0874C86.1999 62.2999 85.1124 62.1249 84.3249 62.6874C81.6749 64.5874 79.3124 62.9249 79.0499 62.7249C78.2874 62.1374 77.1999 62.2624 76.5999 63.0249C76.0124 63.7749 76.1499 64.8749 76.8999 65.4749ZM79.7249 57.9124C79.7249 56.8124 78.8249 55.9124 77.7249 55.9124C76.6249 55.9124 75.7249 56.8124 75.7249 57.9124C75.7249 59.0124 76.6249 59.9124 77.7249 59.9124C78.8249 59.9124 79.7249 59.0124 79.7249 57.9124ZM87.5874 57.9124C87.5874 56.8124 86.6874 55.9124 85.5874 55.9124C84.4874 55.9124 83.5874 56.8124 83.5874 57.9124C83.5874 59.0124 84.4874 59.8999 85.5874 59.9124C86.6999 59.8999 87.5874 59.0124 87.5874 57.9124Z" fill="#FFDBB8"/>
<path d="M38.275 80.9249C38.3875 81.9999 39.0625 82.85 40.0625 83.2C40.425 83.325 40.8125 83.375 41.2 83.375C41.3625 83.375 41.525 83.3624 41.7 83.3499C41.3 84.0999 40.9125 84.8499 40.5375 85.6124L40.475 85.7374C40.05 86.5999 40.4 87.65 41.2625 88.075C42.125 88.5 43.175 88.1499 43.6 87.2874L43.6625 87.1624C45 84.4749 46.4 81.7125 48.575 80.2C49.6875 80.8 50.875 81.2625 52.1 81.5875C53.0375 81.825 53.9875 81.275 54.225 80.3375C54.4625 79.4 53.9125 78.45 52.975 78.2125C47.45 76.775 43.5875 71.775 43.5875 66.0625C43.5875 59.1375 49.2125 53.5125 56.1375 53.5125C63.0625 53.5125 68.6875 59.1375 68.6875 66.0625C68.6875 70.35 66.5 74.3375 62.8875 76.65C62.875 76.6625 62.8625 76.6624 62.85 76.6749C62.3375 76.9999 61.8 77.2874 61.2375 77.5374C60.3625 77.9374 59.975 78.9749 60.375 79.8499C60.775 80.7124 61.7875 81.0999 62.65 80.7249C63.0125 80.5624 63.375 80.3875 63.725 80.2C66.075 81.7 68.3 84.475 69.8125 87.8375C70.2125 88.7125 71.2375 89.1125 72.125 88.7125C73 88.3125 73.4 87.2875 73 86.4C71.4625 82.975 69.2125 80.025 66.75 78.075C67.4375 77.4625 68.0625 76.8 68.6375 76.0875C70.4 77.525 72.4625 78.5625 74.6625 79.125C75.6 79.3625 76.55 78.8125 76.7875 77.875C77.025 76.9375 76.475 75.9875 75.5375 75.75C73.6875 75.2625 71.9875 74.3499 70.5375 73.0999C71.6125 70.9124 72.175 68.5 72.175 66.0625C72.175 62.3 70.8625 58.8375 68.675 56.0875C71.0375 52.925 74.7 51.05 78.7 51.05C85.625 51.05 91.25 56.675 91.25 63.6C91.25 67.8875 89.0625 71.875 85.45 74.1875C85.4375 74.2 85.425 74.2 85.4125 74.2125C84.9 74.5375 84.3625 74.825 83.8 75.075C82.925 75.4625 82.525 76.5 82.9125 77.375C83.3 78.25 84.3375 78.65 85.2125 78.2625C85.5625 78.1 85.9125 77.9375 86.25 77.75C88.4125 79.3625 89.9125 82.7 91.1375 85.45L91.5 86.25C91.8875 87.125 92.925 87.525 93.8 87.125C94.675 86.725 95.075 85.7 94.675 84.825L94.325 84.0374C93.075 81.2374 91.5875 77.925 89.225 75.7125C92.725 72.6625 94.7375 68.2499 94.75 63.6124C94.75 54.7624 87.55 47.575 78.7125 47.575C73.7625 47.575 69.2125 49.7875 66.2 53.5875C63.45 51.3625 59.95 50.0375 56.15 50.0375C47.3125 50.0375 40.1125 57.2375 40.1125 66.075C40.1125 68.6 40.7125 71 41.775 73.15C40.25 74.8375 38.05 78.8249 38.275 80.9249ZM43.75 76.2374C44.275 76.8874 44.8625 77.4874 45.4875 78.0374C44.875 78.5624 43.0625 79.4749 41.925 79.7874C42.2625 78.7749 43.075 77.2374 43.75 76.2374Z" fill="#FFDBB8"/>
<path d="M36.775 71.2623C37.1125 71.5748 37.5375 71.7248 37.9625 71.7248C38.925 71.7248 39.7125 70.9498 39.7125 69.9873C39.7125 69.4998 39.5125 69.0373 39.15 68.6998L36.8 66.5373C36.075 65.9123 34.975 65.9873 34.3375 66.7123C33.7375 67.4123 33.775 68.4498 34.4375 69.0998L36.775 71.2623ZM32.7125 75.1498C33.3625 75.2248 35.2375 75.4498 36.125 75.6623C37.0625 75.8748 38 75.2998 38.225 74.3623C38.4375 73.4248 37.8625 72.4873 36.925 72.2623C35.6625 71.9748 33.2125 71.6998 33.1125 71.6873C32.1625 71.5748 31.2875 72.2498 31.175 73.2123C31.0625 74.1748 31.7375 75.0373 32.7 75.1498C32.6875 75.1373 32.7 75.1373 32.7125 75.1498ZM35.925 80.6623C36.3125 80.4373 36.6875 80.2123 37.0375 80.0623C37.9125 79.6498 38.275 78.5998 37.85 77.7373C37.45 76.8998 36.4625 76.5248 35.6125 76.8748C35.075 77.1123 34.6125 77.3873 34.15 77.6623C33.725 77.9123 33.325 78.1498 32.9375 78.3123C32.05 78.6873 31.625 79.6998 32 80.5998C32.375 81.4873 33.3875 81.9123 34.2875 81.5373C34.9 81.2748 35.425 80.9623 35.925 80.6623Z" fill="#FFDBB8"/>
</svg>
