<svg width="205" height="112" viewBox="0 0 205 112" fill="none" xmlns="http://www.w3.org/2000/svg">
<path d="M27.4372 96.5191C25.5874 97.5871 23.6742 98.1374 21.6977 98.17C19.742 98.1906 17.8657 97.6527 16.0688 96.5563C14.2598 95.4391 12.7073 93.7581 11.4113 91.5134C9.58732 88.3541 8.5509 85.239 8.30205 82.168C8.07399 79.085 8.56923 76.3187 9.78777 73.8693C11.0271 71.4079 12.8523 69.4812 15.2633 68.0892C17.1131 67.0212 19.0159 66.4769 20.9716 66.4562C22.9481 66.4236 24.8408 66.9659 26.6497 68.0831C28.4467 69.1795 29.9932 70.8501 31.2892 73.0949C33.1132 76.2541 34.1392 79.3752 34.3673 82.4583C34.6161 85.5293 34.1209 88.2955 32.8816 90.7569C31.663 93.2064 29.8482 95.1271 27.4372 96.5191ZM25.625 92.6602C27.2462 91.7242 28.3819 90.4034 29.0322 88.6977C29.7033 86.98 29.8614 85.0459 29.5065 82.8952C29.1396 80.7237 28.3082 78.5156 27.0122 76.2709C25.5842 73.7975 23.9846 72.2269 22.2133 71.559C20.4301 70.8704 18.7175 71 17.0755 71.948C15.4751 72.872 14.3497 74.1869 13.6994 75.8925C13.0372 77.5774 12.8791 79.5116 13.2252 81.6951C13.5593 83.8578 14.3803 86.0719 15.6883 88.3374C17.1163 90.8108 18.7219 92.3918 20.5052 93.0804C22.2764 93.7483 23.983 93.6082 25.625 92.6602ZM45.4151 86.1395C44.4798 86.6795 43.4648 86.6975 42.37 86.1933C41.284 85.6563 40.3691 84.7435 39.6251 83.4549C38.7251 81.896 38.007 80.4123 37.4708 79.0037C36.9227 77.5742 36.4676 75.994 36.1057 74.2631C35.9535 73.5196 35.9865 72.9047 36.2046 72.4185C36.4227 71.9323 36.9371 71.4552 37.7477 70.9872C38.205 70.7232 38.5587 70.616 38.809 70.6655C39.0801 70.7029 39.2996 70.8672 39.4676 71.1582C39.5636 71.3245 39.7733 71.9516 40.0967 73.0397C40.3328 73.9288 40.5685 74.721 40.8038 75.4166C41.6481 77.839 42.2803 79.4139 42.7003 80.1413C42.9523 80.5778 43.1842 80.8596 43.3962 80.9867C43.5961 81.0929 43.8104 81.0801 44.039 80.9481C44.3508 80.7681 44.5553 80.2343 44.6525 79.3468C44.7706 78.4472 44.7234 77.2135 44.511 75.6457C44.3194 74.0658 43.9391 72.207 43.3699 70.0691C43.1762 69.3496 43.1676 68.7587 43.3441 68.2965C43.5415 67.8223 43.9831 67.3872 44.669 66.9912C45.147 66.7152 45.5156 66.5856 45.7746 66.6023C46.0217 66.5982 46.2352 66.752 46.4152 67.0638C46.7152 67.5834 47.2774 69.1572 48.1018 71.7851C49.0558 74.7815 49.7129 76.5915 50.0729 77.215C50.3009 77.6099 50.564 77.8737 50.8623 78.0063C51.1485 78.1182 51.4268 78.0961 51.697 77.9401C52.1127 77.7001 52.4571 77.1687 52.7303 76.3458C53.0123 75.4902 53.3013 74.2148 53.5974 72.5197C53.6788 72.0847 53.8754 71.7772 54.1872 71.5972C54.4574 71.4412 54.7372 71.4459 55.0267 71.6113C55.337 71.7647 55.6181 72.0597 55.8701 72.4962C56.3501 73.3276 56.5247 74.0859 56.3938 74.7711C56.136 76.3887 55.6915 77.8509 55.0603 79.1575C54.4499 80.4522 53.4899 81.4775 52.1805 82.2335C51.1828 82.8095 50.223 82.851 49.3009 82.358C48.3997 81.853 47.547 80.9042 46.743 79.5116C47.2057 81.129 47.3057 82.5261 47.043 83.7032C46.7683 84.8594 46.2257 85.6715 45.4151 86.1395ZM63.2196 61.976C63.6768 61.712 64.1574 61.6563 64.6611 61.8088C65.1737 61.9286 65.568 62.2275 65.844 62.7056C66 62.9758 66.1056 63.3027 66.1609 63.6865C66.2723 64.6475 66.1767 65.5619 65.8739 66.4295C65.5712 67.2971 65.0561 67.9409 64.3286 68.3609C63.7466 68.6969 63.1278 68.7771 62.4721 68.6014C61.8372 68.4137 61.3158 67.9665 60.9078 67.2598C60.6798 66.8649 60.4545 66.4268 60.2321 65.9456C60.0817 65.589 59.9705 65.3484 59.8985 65.2237C59.8025 65.0574 59.6889 64.9567 59.5578 64.9215C59.4474 64.8744 59.3403 64.8808 59.2363 64.9408C58.9454 65.1088 58.7545 65.6902 58.6636 66.6848C58.5608 67.6587 58.59 68.8613 58.7511 70.2924C58.9123 71.7236 59.203 73.1631 59.6232 74.6109C59.9706 75.7406 60.0948 76.5557 59.9958 77.0563C59.8968 77.5568 59.5148 77.9991 58.8497 78.3831C58.0599 78.8391 57.2587 78.7474 56.4461 78.108C55.6544 77.4566 54.7305 76.2164 53.6745 74.3874C52.1145 71.6854 51.017 68.8965 50.382 66.0207C50.2211 65.3099 50.2705 64.6994 50.5301 64.1892C50.7986 63.6463 51.3174 63.1528 52.0864 62.7088C52.5021 62.4688 52.8231 62.3527 53.0494 62.3607C53.2756 62.3686 53.4728 62.518 53.6408 62.809C53.8328 63.1416 54.1089 63.9798 54.4691 65.3238C54.7413 66.2751 54.995 67.0986 55.2303 67.7941C55.4656 68.4897 55.8057 69.3187 56.2505 70.2812C55.9044 68.0977 55.8334 66.1988 56.0376 64.5845C56.2418 62.9701 56.6112 61.6899 57.1458 60.7438C57.6804 59.7978 58.2802 59.1328 58.9453 58.7488C59.5481 58.4008 60.1073 58.3134 60.6231 58.4868C61.1477 58.6273 61.6019 59.0302 61.9859 59.6953C62.2139 60.0902 62.5316 60.9044 62.939 62.138L63.2196 61.976ZM92.9499 58.6953C90.4765 60.1233 88.0673 60.9184 85.7223 61.0807C83.3652 61.2222 81.2183 60.7435 79.2814 59.6448C77.3445 58.546 75.7401 56.895 74.4681 54.6919C72.7041 51.6365 71.7097 48.5941 71.4848 45.5647C71.2808 42.5232 71.794 39.7882 73.0245 37.3595C74.2431 34.9101 76.0578 32.9894 78.4689 31.5974C80.7136 30.3014 82.7539 29.8994 84.5899 30.3913C86.4138 30.8625 87.8718 32.0437 88.9638 33.9351C89.6958 35.203 90.0552 36.3534 90.0419 37.3865C90.0494 38.4075 89.6375 39.158 88.8061 39.638C88.2241 39.974 87.6889 40.1029 87.2003 40.0247C86.7118 39.9465 86.3175 39.6476 86.0175 39.128C85.9095 38.9409 85.7531 38.574 85.5482 38.0272C85.3129 37.3316 85.0873 36.7968 84.8713 36.4227C83.7793 34.5313 82.2252 34.1676 80.2091 35.3316C78.8373 36.1236 77.7859 37.3264 77.0548 38.9402C76.3237 40.5539 76.0777 42.4557 76.3166 44.6456C76.5436 46.8148 77.3471 49.0944 78.7271 51.4847C80.1671 53.9788 81.9794 55.5098 84.164 56.0776C86.3365 56.6246 88.7842 56.1121 91.507 54.5401C92.858 53.7601 94.1234 52.8078 95.3032 51.6833C96.4917 50.5259 97.7238 49.1079 98.9993 47.4292C99.2391 47.1245 99.4629 46.9122 99.6708 46.7922C100.003 46.6002 100.325 46.5809 100.635 46.7343C100.945 46.8877 101.214 47.1619 101.442 47.5568C102.174 48.8246 102.029 50.1559 101.005 51.5507C99.901 53.047 98.639 54.4131 97.2186 55.6488C95.8069 56.8518 94.384 57.8673 92.9499 58.6953ZM114.896 36.5471C115.166 36.3911 115.446 36.3958 115.735 36.5613C116.045 36.7147 116.327 37.0096 116.579 37.4461C117.059 38.2775 117.233 39.0358 117.102 39.7211C116.782 41.3746 116.317 42.8488 115.706 44.1435C115.117 45.4261 114.178 46.4395 112.889 47.1835C111.829 47.7955 110.855 47.9561 109.966 47.6653C109.066 47.3538 108.28 46.6161 107.608 45.4521C107.272 44.8702 106.817 43.7469 106.244 42.0824C105.758 40.617 105.372 39.6349 105.084 39.136C104.892 38.8035 104.681 38.7032 104.453 38.8352C104.182 38.9912 104.002 39.5665 103.911 40.5612C103.808 41.5351 103.837 42.7376 103.999 44.1688C104.16 45.5999 104.45 47.0395 104.871 48.4873C105.436 50.3781 104.939 51.7735 103.38 52.6735C102.757 53.0335 102.215 53.0552 101.755 52.7388C101.304 52.3895 100.742 51.6329 100.07 50.469C99.6864 49.8038 99.3908 49.2678 99.1836 48.8609L97.7747 46.3488C95.9267 43.1479 94.3229 39.626 92.9632 35.783C91.6243 31.928 90.9108 28.4601 90.8227 25.3795C90.7433 22.266 91.5974 20.1933 93.3849 19.1613C94.3409 18.6093 95.35 18.581 96.4119 19.0764C97.4827 19.539 98.3961 20.425 99.1521 21.7344C100.364 23.8337 101.011 26.37 101.093 29.3436C101.162 32.2963 100.685 36.0775 99.6607 40.6873C100.222 41.8041 100.833 42.9341 101.493 44.0772C101.159 41.9146 101.09 40.0424 101.285 38.4608C101.489 36.8465 101.859 35.5663 102.393 34.6202C102.949 33.6622 103.569 32.9851 104.255 32.5891C105.606 31.8091 106.672 32.0946 107.452 33.4456C107.92 34.2562 108.537 35.8536 109.304 38.2376C109.953 40.2738 110.445 41.583 110.781 42.1649C111.261 42.9963 111.803 43.238 112.406 42.89C112.821 42.65 113.166 42.1186 113.439 41.2958C113.721 40.4401 114.01 39.1648 114.306 37.4696C114.387 37.0346 114.584 36.7271 114.896 36.5471ZM94.5121 22.6258C94.138 22.8418 94.0343 23.6222 94.2011 24.967C94.3558 26.291 94.7429 27.9935 95.3625 30.0746C95.9908 32.1228 96.7878 34.2954 97.7536 36.5922C98.1663 34.3309 98.2723 32.0665 98.0717 29.7991C97.8918 27.5196 97.3819 25.6524 96.5419 24.1975C96.1579 23.5324 95.7912 23.0651 95.4417 22.7958C95.0922 22.5265 94.7823 22.4698 94.5121 22.6258ZM127.147 29.474C127.417 29.318 127.697 29.3227 127.986 29.4881C128.297 29.6415 128.578 29.9365 128.83 30.3729C129.31 31.2043 129.484 31.9626 129.353 32.6479C129.124 34.0272 128.531 35.5198 127.574 37.1256C126.637 38.7194 125.369 39.9783 123.768 40.9023C121.586 42.1623 119.55 42.548 117.66 42.0592C115.771 41.5705 114.232 40.2973 113.044 38.2396C112.216 36.8055 111.75 35.3013 111.644 33.727C111.527 32.1319 111.788 30.6646 112.428 29.3252C113.089 27.9737 114.095 26.908 115.446 26.128C116.652 25.432 117.828 25.2377 118.976 25.5452C120.111 25.8319 121.033 26.5883 121.741 27.8146C122.569 29.2488 122.763 30.7855 122.324 32.4247C121.894 34.0311 120.626 35.8437 118.521 37.8625C119.593 38.5186 120.856 38.4266 122.311 37.5866C123.247 37.0466 124.121 36.1125 124.933 34.7841C125.755 33.423 126.296 31.9605 126.557 30.3965C126.638 29.9615 126.835 29.654 127.147 29.474ZM116.68 29.4893C115.911 29.9333 115.514 30.7582 115.49 31.9639C115.486 33.1577 115.851 34.3885 116.583 35.6563L116.619 35.7187C117.677 34.7197 118.391 33.7252 118.762 32.7353C119.133 31.7453 119.096 30.8658 118.652 30.0968C118.424 29.7018 118.13 29.4561 117.769 29.3594C117.417 29.23 117.054 29.2733 116.68 29.4893ZM136.59 21.6523C137.172 21.3163 137.715 21.5847 138.219 22.4577C139.167 24.0997 138.353 25.6647 135.775 27.1527C135.277 27.4407 134.505 27.7611 133.462 28.1141C134.476 29.2467 135.523 30.5549 136.601 32.0385C137.688 33.4893 138.525 34.724 139.113 35.7424C140.409 37.9872 141.036 39.9119 140.992 41.5166C140.949 43.1213 140.335 44.2657 139.15 44.9497C137.654 45.8137 135.971 45.3717 134.103 43.6237C132.255 41.8636 130.095 38.8428 127.623 34.5612C125.319 30.5705 123.412 26.2819 121.9 21.6954C120.397 17.076 119.619 12.9937 119.568 9.4485C119.525 5.8705 120.408 3.5595 122.216 2.5155C123.193 1.9515 124.204 1.94998 125.248 2.51093C126.313 3.05989 127.272 4.07222 128.124 5.54792C130.944 10.4323 131.096 17.4392 128.579 26.5685C129.547 28.7254 130.475 30.5729 131.363 32.1109C132.599 34.2517 133.938 36.4025 135.38 38.5633C136.833 40.7448 137.726 41.7395 138.059 41.5475C138.682 41.1875 138.37 39.9267 137.122 37.7651C136.186 36.1439 135.166 34.6407 134.061 33.2554C132.977 31.8582 131.762 30.4257 130.416 28.9582C130.239 28.7 130.124 28.309 130.072 27.7854C130.039 27.2497 130.079 26.7419 130.19 26.2622C130.301 25.7824 130.471 25.4765 130.699 25.3445C131.115 25.1045 131.626 24.8373 132.232 24.5429C132.431 24.4556 132.655 24.34 132.904 24.196C133.736 23.716 134.619 23.1093 135.553 22.3758C135.707 22.259 135.872 22.1362 136.047 22.0074C136.222 21.8787 136.403 21.7603 136.59 21.6523ZM123.343 5.98002C122.969 6.19602 122.868 7.09995 123.039 8.69181C123.23 10.2717 123.662 12.2672 124.333 14.6785C124.993 17.0689 125.797 19.5421 126.746 22.098C127.317 19.2466 127.461 16.5444 127.179 13.9915C126.885 11.4179 126.232 9.23129 125.221 7.43181C124.489 6.16395 123.863 5.68002 123.343 5.98002Z" fill="#D27722"/>
<path d="M156.027 24.1155C155.396 24.653 155.321 25.5997 155.859 26.2301C156.396 26.8605 157.343 26.9359 157.973 26.3984L156.027 24.1155ZM182.991 15.8238L183.584 14.4458L182.991 15.8238ZM194.125 39.218C194.797 39.7015 195.735 39.5481 196.218 38.8754L204.097 27.9131C204.58 27.2404 204.427 26.3031 203.754 25.8196C203.082 25.3361 202.144 25.4895 201.661 26.1622L194.657 35.9065L184.913 28.9031C184.24 28.4196 183.303 28.573 182.82 29.2457C182.336 29.9184 182.489 30.8557 183.162 31.3392L194.125 39.218ZM157 25.257C157.973 26.3984 157.973 26.3986 157.973 26.3987C157.973 26.3987 157.973 26.3987 157.973 26.3987C157.973 26.3985 157.973 26.3982 157.974 26.3977C157.975 26.3966 157.978 26.3947 157.981 26.392C157.987 26.3866 157.997 26.3781 158.011 26.3664C158.039 26.343 158.082 26.3073 158.139 26.2602C158.253 26.166 158.423 26.0263 158.646 25.8488C159.091 25.4937 159.741 24.9879 160.553 24.3928C162.18 23.2003 164.442 21.66 166.998 20.2545C169.562 18.8444 172.368 17.599 175.089 16.9574C177.819 16.3136 180.324 16.3094 182.399 17.2017L183.584 14.4458C180.698 13.2046 177.474 13.3127 174.4 14.0375C171.317 14.7645 168.246 16.1442 165.552 17.6258C162.85 19.112 160.475 20.7301 158.779 21.9731C157.93 22.5957 157.247 23.1269 156.774 23.5044C156.538 23.6932 156.353 23.8436 156.227 23.948C156.164 24.0002 156.115 24.041 156.082 24.0692C156.065 24.0833 156.052 24.0943 156.043 24.1021C156.038 24.1059 156.034 24.109 156.032 24.1112C156.03 24.1124 156.029 24.1133 156.029 24.114C156.028 24.1143 156.028 24.1147 156.028 24.1149C156.027 24.1152 156.027 24.1155 157 25.257ZM182.399 17.2017C184.293 18.0165 185.971 19.6381 187.433 21.7719C188.887 23.8955 190.056 26.4233 190.969 28.887C191.88 31.3437 192.52 33.6905 192.932 35.4266C193.137 36.293 193.286 37.0034 193.382 37.4945C193.43 37.7399 193.465 37.9302 193.488 38.0576C193.499 38.1212 193.507 38.1691 193.513 38.2002C193.515 38.2158 193.517 38.2272 193.518 38.2342C193.519 38.2377 193.519 38.2402 193.52 38.2415C193.52 38.2422 193.52 38.2426 193.52 38.2427C193.52 38.2428 193.52 38.2427 193.52 38.2427C193.52 38.2425 193.52 38.2423 195 38C196.48 37.7577 196.48 37.7573 196.48 37.7569C196.48 37.7566 196.48 37.7561 196.48 37.7556C196.48 37.7546 196.48 37.7533 196.479 37.7518C196.479 37.7487 196.478 37.7445 196.477 37.7392C196.475 37.7287 196.473 37.7137 196.47 37.6945C196.463 37.6562 196.453 37.6008 196.441 37.5295C196.415 37.3869 196.377 37.1803 196.326 36.9178C196.223 36.3929 196.067 35.6434 195.851 34.7337C195.42 32.9174 194.747 30.4471 193.782 27.8443C192.82 25.2485 191.55 22.4746 189.908 20.0767C188.273 17.689 186.196 15.5694 183.584 14.4458L182.399 17.2017Z" fill="#D27722"/>
</svg>
