<svg width="213" height="127" viewBox="0 0 213 127" fill="none" xmlns="http://www.w3.org/2000/svg">
<path d="M35.4372 105.519C33.5874 106.587 31.6742 107.137 29.6977 107.17C27.742 107.191 25.8657 106.653 24.0688 105.556C22.2598 104.439 20.7073 102.758 19.4113 100.513C17.5873 97.3541 16.5509 94.239 16.3021 91.168C16.074 88.085 16.5692 85.3187 17.7878 82.8693C19.0271 80.4079 20.8523 78.4812 23.2633 77.0892C25.1131 76.0212 27.0159 75.4769 28.9716 75.4562C30.9481 75.4236 32.8408 75.9659 34.6497 77.0831C36.4467 78.1795 37.9932 79.8501 39.2892 82.0949C41.1132 85.2541 42.1392 88.3752 42.3673 91.4583C42.6161 94.5293 42.1209 97.2955 40.8816 99.7569C39.663 102.206 37.8482 104.127 35.4372 105.519ZM33.625 101.66C35.2462 100.724 36.3819 99.4034 37.0322 97.6977C37.7033 95.98 37.8614 94.0459 37.5065 91.8952C37.1396 89.7237 36.3082 87.5156 35.0122 85.2709C33.5842 82.7975 31.9846 81.2269 30.2133 80.559C28.4301 79.8704 26.7175 80 25.0755 80.948C23.4751 81.872 22.3497 83.1869 21.6994 84.8925C21.0372 86.5774 20.8791 88.5116 21.2252 90.6951C21.5593 92.8578 22.3803 95.0719 23.6883 97.3374C25.1163 99.8108 26.7219 101.392 28.5052 102.08C30.2764 102.748 31.983 102.608 33.625 101.66ZM53.4151 95.1395C52.4798 95.6795 51.4648 95.6975 50.37 95.1933C49.284 94.6563 48.3691 93.7435 47.6251 92.4549C46.7251 90.896 46.007 89.4123 45.4708 88.0037C44.9227 86.5742 44.4676 84.994 44.1057 83.2631C43.9535 82.5196 43.9865 81.9047 44.2046 81.4185C44.4227 80.9323 44.9371 80.4552 45.7477 79.9872C46.205 79.7232 46.5587 79.616 46.809 79.6655C47.0801 79.7029 47.2996 79.8672 47.4676 80.1582C47.5636 80.3245 47.7733 80.9516 48.0967 82.0397C48.3328 82.9288 48.5685 83.721 48.8038 84.4166C49.6481 86.839 50.2803 88.4139 50.7003 89.1413C50.9523 89.5778 51.1842 89.8596 51.3962 89.9867C51.5961 90.0929 51.8104 90.0801 52.039 89.9481C52.3508 89.7681 52.5553 89.2343 52.6525 88.3468C52.7706 87.4472 52.7234 86.2135 52.511 84.6457C52.3194 83.0658 51.9391 81.207 51.3699 79.0691C51.1762 78.3496 51.1676 77.7587 51.3441 77.2965C51.5415 76.8223 51.9831 76.3872 52.669 75.9912C53.147 75.7152 53.5156 75.5856 53.7746 75.6023C54.0217 75.5982 54.2352 75.752 54.4152 76.0638C54.7152 76.5834 55.2774 78.1572 56.1018 80.7851C57.0558 83.7815 57.7129 85.5915 58.0729 86.215C58.3009 86.6099 58.564 86.8737 58.8623 87.0063C59.1485 87.1182 59.4268 87.0961 59.697 86.9401C60.1127 86.7001 60.4571 86.1687 60.7303 85.3458C61.0123 84.4902 61.3013 83.2148 61.5974 81.5197C61.6788 81.0847 61.8754 80.7772 62.1872 80.5972C62.4574 80.4412 62.7372 80.4459 63.0267 80.6113C63.337 80.7647 63.6181 81.0597 63.8701 81.4962C64.3501 82.3276 64.5247 83.0859 64.3938 83.7711C64.136 85.3887 63.6915 86.8509 63.0603 88.1575C62.4499 89.4522 61.4899 90.4775 60.1805 91.2335C59.1828 91.8095 58.223 91.851 57.3009 91.358C56.3997 90.853 55.547 89.9042 54.743 88.5116C55.2057 90.129 55.3057 91.5261 55.043 92.7032C54.7683 93.8594 54.2257 94.6715 53.4151 95.1395ZM71.2196 70.976C71.6768 70.712 72.1574 70.6563 72.6611 70.8088C73.1737 70.9286 73.568 71.2275 73.844 71.7056C74 71.9758 74.1056 72.3027 74.1609 72.6865C74.2723 73.6475 74.1767 74.5619 73.8739 75.4295C73.5712 76.2971 73.0561 76.9409 72.3286 77.3609C71.7466 77.6969 71.1278 77.7771 70.4721 77.6014C69.8372 77.4137 69.3158 76.9665 68.9078 76.2598C68.6798 75.8649 68.4545 75.4268 68.2321 74.9456C68.0817 74.589 67.9705 74.3484 67.8985 74.2237C67.8025 74.0574 67.6889 73.9567 67.5578 73.9215C67.4474 73.8744 67.3403 73.8808 67.2363 73.9408C66.9454 74.1088 66.7545 74.6902 66.6636 75.6848C66.5608 76.6587 66.59 77.8613 66.7511 79.2924C66.9123 80.7236 67.203 82.1631 67.6232 83.6109C67.9706 84.7406 68.0948 85.5557 67.9958 86.0563C67.8968 86.5568 67.5148 86.9991 66.8497 87.3831C66.0599 87.8391 65.2587 87.7474 64.4461 87.108C63.6544 86.4566 62.7305 85.2164 61.6745 83.3874C60.1145 80.6854 59.017 77.8965 58.382 75.0207C58.2211 74.3099 58.2705 73.6994 58.5301 73.1892C58.7986 72.6463 59.3174 72.1528 60.0864 71.7088C60.5021 71.4688 60.8231 71.3527 61.0494 71.3607C61.2756 71.3686 61.4728 71.518 61.6408 71.809C61.8328 72.1416 62.1089 72.9798 62.4691 74.3238C62.7413 75.2751 62.995 76.0986 63.2303 76.7941C63.4656 77.4897 63.8057 78.3187 64.2505 79.2812C63.9044 77.0977 63.8334 75.1988 64.0376 73.5845C64.2418 71.9701 64.6112 70.6899 65.1458 69.7438C65.6804 68.7978 66.2802 68.1328 66.9453 67.7488C67.5481 67.4008 68.1073 67.3134 68.6231 67.4868C69.1477 67.6273 69.6019 68.0302 69.9859 68.6953C70.2139 69.0902 70.5316 69.9044 70.939 71.138L71.2196 70.976ZM100.95 67.6953C98.4765 69.1233 96.0673 69.9184 93.7223 70.0807C91.3652 70.2222 89.2183 69.7435 87.2814 68.6448C85.3445 67.546 83.7401 65.895 82.4681 63.6919C80.7041 60.6365 79.7097 57.5941 79.4848 54.5647C79.2808 51.5232 79.794 48.7882 81.0245 46.3595C82.2431 43.9101 84.0578 41.9894 86.4689 40.5974C88.7136 39.3014 90.7539 38.8994 92.5899 39.3913C94.4138 39.8625 95.8718 41.0437 96.9638 42.9351C97.6958 44.203 98.0552 45.3534 98.0419 46.3865C98.0494 47.4075 97.6375 48.158 96.8061 48.638C96.2241 48.974 95.6889 49.1029 95.2003 49.0247C94.7118 48.9465 94.3175 48.6476 94.0175 48.128C93.9095 47.9409 93.7531 47.574 93.5482 47.0272C93.3129 46.3316 93.0873 45.7968 92.8713 45.4227C91.7793 43.5313 90.2252 43.1676 88.2091 44.3316C86.8373 45.1236 85.7859 46.3264 85.0548 47.9402C84.3237 49.5539 84.0777 51.4557 84.3166 53.6456C84.5436 55.8148 85.3471 58.0944 86.7271 60.4847C88.1671 62.9788 89.9794 64.5098 92.164 65.0776C94.3365 65.6246 96.7842 65.1121 99.507 63.5401C100.858 62.7601 102.123 61.8078 103.303 60.6833C104.492 59.5259 105.724 58.1079 106.999 56.4292C107.239 56.1245 107.463 55.9122 107.671 55.7922C108.003 55.6002 108.325 55.5809 108.635 55.7343C108.945 55.8877 109.214 56.1619 109.442 56.5568C110.174 57.8246 110.029 59.1559 109.005 60.5507C107.901 62.047 106.639 63.4131 105.219 64.6488C103.807 65.8518 102.384 66.8673 100.95 67.6953ZM122.896 45.5471C123.166 45.3911 123.446 45.3958 123.735 45.5613C124.045 45.7147 124.327 46.0096 124.579 46.4461C125.059 47.2775 125.233 48.0358 125.102 48.7211C124.782 50.3746 124.317 51.8488 123.706 53.1435C123.117 54.4261 122.178 55.4395 120.889 56.1835C119.829 56.7955 118.855 56.9561 117.966 56.6653C117.066 56.3538 116.28 55.6161 115.608 54.4521C115.272 53.8702 114.817 52.7469 114.244 51.0824C113.758 49.617 113.372 48.6349 113.084 48.136C112.892 47.8035 112.681 47.7032 112.453 47.8352C112.182 47.9912 112.002 48.5665 111.911 49.5612C111.808 50.5351 111.837 51.7376 111.999 53.1688C112.16 54.5999 112.45 56.0395 112.871 57.4873C113.436 59.3781 112.939 60.7735 111.38 61.6735C110.757 62.0335 110.215 62.0552 109.755 61.7388C109.304 61.3895 108.742 60.6329 108.07 59.469C107.686 58.8038 107.391 58.2678 107.184 57.8609L105.775 55.3488C103.927 52.1479 102.323 48.626 100.963 44.783C99.6243 40.928 98.9108 37.4601 98.8227 34.3795C98.7433 31.266 99.5974 29.1933 101.385 28.1613C102.341 27.6093 103.35 27.581 104.412 28.0764C105.483 28.539 106.396 29.425 107.152 30.7344C108.364 32.8337 109.011 35.37 109.093 38.3436C109.162 41.2963 108.685 45.0775 107.661 49.6873C108.222 50.8041 108.833 51.9341 109.493 53.0772C109.159 50.9146 109.09 49.0424 109.285 47.4608C109.489 45.8465 109.859 44.5663 110.393 43.6202C110.949 42.6622 111.569 41.9851 112.255 41.5891C113.606 40.8091 114.672 41.0946 115.452 42.4456C115.92 43.2562 116.537 44.8536 117.304 47.2376C117.953 49.2738 118.445 50.583 118.781 51.1649C119.261 51.9963 119.803 52.238 120.406 51.89C120.821 51.65 121.166 51.1186 121.439 50.2958C121.721 49.4401 122.01 48.1648 122.306 46.4696C122.387 46.0346 122.584 45.7271 122.896 45.5471ZM102.512 31.6258C102.138 31.8418 102.034 32.6222 102.201 33.967C102.356 35.291 102.743 36.9935 103.362 39.0746C103.991 41.1228 104.788 43.2954 105.754 45.5922C106.166 43.3309 106.272 41.0665 106.072 38.7991C105.892 36.5196 105.382 34.6524 104.542 33.1975C104.158 32.5324 103.791 32.0651 103.442 31.7958C103.092 31.5265 102.782 31.4698 102.512 31.6258ZM135.147 38.474C135.417 38.318 135.697 38.3227 135.986 38.4881C136.297 38.6415 136.578 38.9365 136.83 39.3729C137.31 40.2043 137.484 40.9626 137.353 41.6479C137.124 43.0272 136.531 44.5198 135.574 46.1256C134.637 47.7194 133.369 48.9783 131.768 49.9023C129.586 51.1623 127.55 51.548 125.66 51.0592C123.771 50.5705 122.232 49.2973 121.044 47.2396C120.216 45.8055 119.75 44.3013 119.644 42.727C119.527 41.1319 119.788 39.6646 120.428 38.3252C121.089 36.9737 122.095 35.908 123.446 35.128C124.652 34.432 125.828 34.2377 126.976 34.5452C128.111 34.8319 129.033 35.5883 129.741 36.8146C130.569 38.2488 130.763 39.7855 130.324 41.4247C129.894 43.0311 128.626 44.8437 126.521 46.8625C127.593 47.5186 128.856 47.4266 130.311 46.5866C131.247 46.0466 132.121 45.1125 132.933 43.7841C133.755 42.423 134.296 40.9605 134.557 39.3965C134.638 38.9615 134.835 38.654 135.147 38.474ZM124.68 38.4893C123.911 38.9333 123.514 39.7582 123.49 40.9639C123.486 42.1577 123.851 43.3885 124.583 44.6563L124.619 44.7187C125.677 43.7197 126.391 42.7252 126.762 41.7353C127.133 40.7453 127.096 39.8658 126.652 39.0968C126.424 38.7018 126.13 38.4561 125.769 38.3594C125.417 38.23 125.054 38.2733 124.68 38.4893ZM144.59 30.6523C145.172 30.3163 145.715 30.5847 146.219 31.4577C147.167 33.0997 146.353 34.6647 143.775 36.1527C143.277 36.4407 142.505 36.7611 141.462 37.1141C142.476 38.2467 143.523 39.5549 144.601 41.0385C145.688 42.4893 146.525 43.724 147.113 44.7424C148.409 46.9872 149.036 48.9119 148.992 50.5166C148.949 52.1213 148.335 53.2657 147.15 53.9497C145.654 54.8137 143.971 54.3717 142.103 52.6237C140.255 50.8636 138.095 47.8428 135.623 43.5612C133.319 39.5705 131.412 35.2819 129.9 30.6954C128.397 26.076 127.619 21.9937 127.568 18.4485C127.525 14.8705 128.408 12.5595 130.216 11.5155C131.193 10.9515 132.204 10.95 133.248 11.5109C134.313 12.0599 135.272 13.0722 136.124 14.5479C138.944 19.4323 139.096 26.4392 136.579 35.5685C137.547 37.7254 138.475 39.5729 139.363 41.1109C140.599 43.2517 141.938 45.4025 143.38 47.5633C144.833 49.7448 145.726 50.7395 146.059 50.5475C146.682 50.1875 146.37 48.9267 145.122 46.7651C144.186 45.1439 143.166 43.6407 142.061 42.2554C140.977 40.8582 139.762 39.4257 138.416 37.9582C138.239 37.7 138.124 37.309 138.072 36.7854C138.039 36.2497 138.079 35.7419 138.19 35.2622C138.301 34.7824 138.471 34.4765 138.699 34.3445C139.115 34.1045 139.626 33.8373 140.232 33.5429C140.431 33.4556 140.655 33.34 140.904 33.196C141.736 32.716 142.619 32.1093 143.553 31.3758C143.707 31.259 143.872 31.1362 144.047 31.0074C144.222 30.8787 144.403 30.7603 144.59 30.6523ZM131.343 14.98C130.969 15.196 130.868 16.0999 131.039 17.6918C131.23 19.2717 131.662 21.2672 132.333 23.6785C132.993 26.0689 133.797 28.5421 134.746 31.098C135.317 28.2466 135.461 25.5444 135.179 22.9915C134.885 20.4179 134.232 18.2313 133.221 16.4318C132.489 15.1639 131.863 14.68 131.343 14.98Z" fill="#D27722"/>
<path d="M164.027 33.1155C163.396 33.653 163.321 34.5997 163.859 35.2301C164.396 35.8605 165.343 35.9359 165.973 35.3984L164.027 33.1155ZM190.991 24.8238L191.584 23.4458L190.991 24.8238ZM202.125 48.218C202.797 48.7015 203.735 48.5481 204.218 47.8754L212.097 36.9131C212.58 36.2404 212.427 35.3031 211.754 34.8196C211.082 34.3361 210.144 34.4895 209.661 35.1622L202.657 44.9065L192.913 37.9031C192.24 37.4196 191.303 37.573 190.82 38.2457C190.336 38.9184 190.489 39.8557 191.162 40.3392L202.125 48.218ZM165 34.257C165.973 35.3984 165.973 35.3986 165.973 35.3987C165.973 35.3987 165.973 35.3987 165.973 35.3987C165.973 35.3985 165.973 35.3982 165.974 35.3977C165.975 35.3966 165.978 35.3947 165.981 35.392C165.987 35.3866 165.997 35.3781 166.011 35.3664C166.039 35.343 166.082 35.3073 166.139 35.2602C166.253 35.166 166.423 35.0263 166.646 34.8488C167.091 34.4937 167.741 33.9879 168.553 33.3928C170.18 32.2003 172.442 30.66 174.998 29.2545C177.562 27.8444 180.368 26.599 183.089 25.9574C185.819 25.3136 188.324 25.3094 190.399 26.2017L191.584 23.4458C188.698 22.2046 185.474 22.3127 182.4 23.0375C179.317 23.7645 176.246 25.1442 173.552 26.6258C170.85 28.112 168.475 29.7301 166.779 30.9731C165.93 31.5957 165.247 32.1269 164.774 32.5044C164.538 32.6932 164.353 32.8436 164.227 32.948C164.164 33.0002 164.115 33.041 164.082 33.0692C164.065 33.0833 164.052 33.0943 164.043 33.1021C164.038 33.1059 164.034 33.109 164.032 33.1112C164.03 33.1124 164.029 33.1133 164.029 33.114C164.028 33.1143 164.028 33.1147 164.028 33.1149C164.027 33.1152 164.027 33.1155 165 34.257ZM190.399 26.2017C192.293 27.0165 193.971 28.6381 195.433 30.7719C196.887 32.8955 198.056 35.4233 198.969 37.887C199.88 40.3437 200.52 42.6905 200.932 44.4266C201.137 45.293 201.286 46.0034 201.382 46.4945C201.43 46.7399 201.465 46.9302 201.488 47.0576C201.499 47.1212 201.507 47.1691 201.513 47.2002C201.515 47.2158 201.517 47.2272 201.518 47.2342C201.519 47.2377 201.519 47.2402 201.52 47.2415C201.52 47.2422 201.52 47.2426 201.52 47.2427C201.52 47.2428 201.52 47.2427 201.52 47.2427C201.52 47.2425 201.52 47.2423 203 47C204.48 46.7577 204.48 46.7573 204.48 46.7569C204.48 46.7566 204.48 46.7561 204.48 46.7556C204.48 46.7546 204.48 46.7533 204.479 46.7518C204.479 46.7487 204.478 46.7445 204.477 46.7392C204.475 46.7287 204.473 46.7137 204.47 46.6945C204.463 46.6562 204.453 46.6008 204.441 46.5295C204.415 46.3869 204.377 46.1803 204.326 45.9178C204.223 45.3929 204.067 44.6434 203.851 43.7337C203.42 41.9174 202.747 39.4471 201.782 36.8443C200.82 34.2485 199.55 31.4746 197.908 29.0767C196.273 26.689 194.196 24.5694 191.584 23.4458L190.399 26.2017Z" fill="#D27722"/>
</svg>
