<svg width="106" height="106" viewBox="0 0 106 106" fill="none" xmlns="http://www.w3.org/2000/svg">
<ellipse cx="52.5" cy="60" rx="51.5" ry="41" fill="#FFDBB8"/>
<path d="M28.1818 63.8182C28.1818 68.3369 31.845 72 36.3636 72H69.3636C73.8823 72 77.5455 68.3369 77.5455 63.8182M28.1818 63.8182V28.3636M28.1818 63.8182H77.5455M28.1818 28.3636H77.5455M28.1818 28.3636C28.1818 23.845 31.845 20.1818 36.3636 20.1818H69.3636C73.8823 20.1818 77.5455 23.845 77.5455 28.3636M77.5455 28.3636V63.8182M24.0909 28.3636H81.6364M28.1818 44.7273H23.8864C21.74 44.7273 20 42.9873 20 40.8409C20 38.4686 21.9231 36.5455 24.2955 36.5455H28.1818V44.7273ZM81.8409 44.7273H77.5455V36.5455H81.4318C83.8041 36.5455 85.7273 38.4686 85.7273 40.8409C85.7273 42.9873 83.9873 44.7273 81.8409 44.7273ZM47.4091 12H58.3182V20.1818H47.4091V12Z" stroke="#D27722" strokeWidth="4" strokeMiterlimit="10" strokeLinecap="round" strokeLinejoin="round"/>
<path d="M44.6819 12H61.0455M52.8637 38.3369C50.4752 35.9483 46.6026 35.9483 44.214 38.3369C41.8255 40.7254 41.8255 44.598 44.214 46.9865L52.8637 55.6364L61.5134 46.9867C63.9019 44.5981 63.9019 40.7255 61.5134 38.337C59.1248 35.9483 55.2522 35.9483 52.8637 38.3369Z" stroke="#D27722" strokeWidth="4" strokeMiterlimit="10" strokeLinecap="round" strokeLinejoin="round"/>
</svg>
