<svg width="125" height="125" viewBox="0 0 125 125" fill="none" xmlns="http://www.w3.org/2000/svg">
<path d="M41 6.14471C41 6.14471 25.6931 4.79206 19.0357 10.3578C13.186 15.2482 11 28 11 28" stroke="#D17721" strokeWidth="6" strokeLinecap="round"/>
<rect x="11" y="15" width="104" height="104" rx="52" fill="#D17721"/>
<path d="M89.6299 42.2699C82.2369 34.8351 70.0358 35.2047 62.997 42.9328C55.9575 35.205 43.757 34.835 36.364 42.27C29.0123 49.5913 29.2627 61.6473 36.8375 68.7137C32.9622 72.4148 35.1823 79.0657 40.457 79.714C40.141 83.3258 43.2152 86.638 46.8515 86.5766C47.0744 90.5527 51.0652 93.3988 54.8912 92.348C56.1464 97.085 62.1805 98.7037 65.6423 95.2173C67.6084 93.263 69.1719 92.0306 69.2716 89.0706C72.5203 88.9801 75.3312 86.1311 75.3807 82.8843C78.6605 82.8337 81.5182 79.9751 81.5686 76.6962C84.9712 76.6445 87.9214 73.5735 87.763 70.1067L89.6297 68.2402C96.7899 61.0801 96.7899 49.4298 89.6299 42.2699ZM39.652 71.7022L41.4053 69.949C41.6209 69.733 41.8771 69.5618 42.1592 69.4451C42.4412 69.3285 42.7435 69.2687 43.0487 69.2693C45.0897 69.2557 46.1551 71.7792 44.6919 73.2355L42.9386 74.9888C40.6691 77.0781 37.5624 73.9726 39.652 71.7022ZM44.5407 80.1525C44.5407 79.5317 44.7825 78.948 45.2215 78.5091L46.9757 76.755C47.1909 76.5388 47.4469 76.3674 47.7288 76.2507C48.0107 76.134 48.3129 76.0744 48.618 76.0752C50.6764 76.0717 51.7198 78.5893 50.2613 80.0425L48.7143 81.5895C48.2414 82.1254 47.5919 82.4881 46.8646 82.4764C45.6157 82.5021 44.5149 81.4017 44.5407 80.1525ZM51.6158 87.7775C50.7143 86.9125 50.7143 85.3561 51.6158 84.4911L53.1628 82.9439C54.0648 81.8732 55.6481 81.7338 56.6558 82.7377C57.5618 83.6439 57.5618 85.1179 56.6558 86.0242L54.9024 87.7776C53.9964 88.6841 52.522 88.684 51.6158 87.7775ZM64.4942 90.5625L62.7409 92.3158C62.5256 92.5322 62.2695 92.7039 61.9874 92.8207C61.7054 92.9376 61.4029 92.9973 61.0976 92.9965C60.7923 92.9973 60.4898 92.9376 60.2077 92.8207C59.9256 92.7039 59.6695 92.5323 59.4542 92.3158C58.5528 91.4506 58.5524 89.8942 59.4543 89.0292L61.2074 87.2759C62.1135 86.3698 63.588 86.3698 64.494 87.2758C65.3957 88.1409 65.3958 89.6974 64.4942 90.5625ZM82.9813 71.9206C82.1162 72.8222 80.5597 72.8223 79.6947 71.9206L70.5637 62.7896L67.6621 65.6911L76.7932 74.8222C77.6992 75.7283 77.6992 77.2026 76.7932 78.1087C75.887 79.0152 74.4128 79.0149 73.5066 78.1087L64.5304 69.1325L64.3756 68.9777L61.474 71.8792L61.6289 72.034L70.6051 81.0103C71.5113 81.9164 71.5113 83.3908 70.6051 84.297C69.6989 85.2032 68.2246 85.2032 67.3184 84.297L67.3166 84.2988C65.6494 82.6869 63.3193 82.1562 61.2148 82.7066C60.5449 79.9691 57.793 77.8966 55.0256 77.9569C54.8915 75.0104 52.4004 72.3486 49.4566 72.0306C49.8451 66.9752 44.2929 63.4937 39.9112 65.9841C33.8089 60.5331 33.433 50.9641 39.2658 45.1714C45.065 39.3315 54.647 39.7185 60.0957 45.8344L55.023 50.907L59.0878 54.9717C62.2101 58.0943 67.0215 58.5239 70.6088 56.261L82.9817 68.6341C83.8873 69.5401 83.8873 71.0145 82.9813 71.9206ZM86.7284 65.3386L86.1032 65.9637C86.0317 65.8849 85.9582 65.8078 85.883 65.7325L70.7701 50.6195L69.3192 52.0702C67.2984 54.091 64.0102 54.0913 61.989 52.0702L60.8258 50.907L66.5615 45.1714C80.4941 32.3478 99.5493 51.415 86.7284 65.3386Z" fill="#FFDBB8"/>
</svg>
