<svg width="82" height="65" viewBox="0 0 82 65" fill="none" xmlns="http://www.w3.org/2000/svg">
<path d="M77 0.199991V13.8H69.2C63.0667 13.8 60 16.8667 60 23V29.4H63.4C68.7333 29.4 73.1333 31 76.6 34.2C80.2 37.4 82 41.4667 82 46.4C82 51.7333 80.2 56.0667 76.6 59.4C73.1333 62.7333 68.7333 64.4 63.4 64.4C57.9333 64.4 53.4667 62.7333 50 59.4C46.5333 55.9333 44.8 51.3333 44.8 45.6V22.6C44.8 7.66666 52.2667 0.199991 67.2 0.199991H77ZM33 0.199991V13.8H25.2C19.0667 13.8 16 16.8667 16 23V29.4H19.4C24.7333 29.4 29.1333 31 32.6 34.2C36.2 37.4 38 41.4667 38 46.4C38 51.7333 36.2 56.0667 32.6 59.4C29.1333 62.7333 24.7333 64.4 19.4 64.4C13.9333 64.4 9.46667 62.7333 6 59.4C2.53333 55.9333 0.8 51.3333 0.8 45.6V22.6C0.8 7.66666 8.26667 0.199991 23.2 0.199991H33Z" fill="#FFDBB8"/>
</svg>