<svg width="14" height="13" viewBox="0 0 14 13" fill="none" xmlns="http://www.w3.org/2000/svg">
<path d="M6.55378 0.882676C6.73875 0.516783 7.26125 0.516782 7.44622 0.882676L9.04542 4.04607C9.1191 4.19182 9.25932 4.2924 9.421 4.31548L12.978 4.82312C13.3917 4.88216 13.5547 5.39246 13.2519 5.68042L10.6943 8.11282C10.5729 8.22822 10.5174 8.39671 10.5464 8.56164L11.152 12.0092C11.2234 12.4161 10.7986 12.7292 10.4311 12.5405L7.22839 10.8959C7.08503 10.8223 6.91497 10.8223 6.77161 10.8959L3.56889 12.5405C3.20139 12.7292 2.77657 12.4161 2.84804 12.0092L3.45362 8.56164C3.48259 8.39671 3.42707 8.22822 3.30573 8.11282L0.748073 5.68042C0.445283 5.39246 0.608336 4.88216 1.022 4.82312L4.579 4.31548C4.74068 4.2924 4.8809 4.19182 4.95458 4.04607L6.55378 0.882676Z" fill="#D3CD39"/>
</svg>
