<svg width="320" height="219" viewBox="0 0 320 219" fill="none" xmlns="http://www.w3.org/2000/svg">
<g clipPath="url(#clip0_409_26580)">
<g clipPath="url(#clip1_409_26580)">
<mask id="mask0_409_26580" style="mask-type:luminance" maskUnits="userSpaceOnUse" x="-67" y="-66" width="468" height="285">
<path d="M400.3 -65.7002H-66.5862V219H400.3V-65.7002Z" fill="white"/>
</mask>
<g mask="url(#mask0_409_26580)">
<path d="M400.3 -65.7002H-66.5862V219H400.3V-65.7002Z" fill="white"/>
<path fillRule="evenodd" clipRule="evenodd" d="M158.656 43.6334C205.051 43.6334 242.662 6.12635 242.662 -40.1408C242.662 -86.408 205.051 -123.915 158.656 -123.915C112.26 -123.915 74.6499 -86.408 74.6499 -40.1408C74.6499 6.12635 112.26 43.6334 158.656 43.6334Z" fill="white"/>
<path fillRule="evenodd" clipRule="evenodd" d="M102.804 92.5108C102.481 97.7694 102.158 103.028 101.836 108.288C103.911 107.691 117.12 103.817 116.304 107.745C115.719 110.562 112.006 113.61 110.113 115.572C108.372 117.378 106.579 119.137 104.74 120.845C108.12 119.556 111.528 118.333 114.959 117.191C117.556 116.327 120.172 115.483 122.834 114.835C123.822 114.594 126.489 113.613 127.422 114.281C129.874 116.041 116.57 128.999 114.747 130.826C117.323 129.63 119.962 128.545 122.647 127.614C124.584 126.942 130.57 124.371 132.285 126.567C134.121 128.914 129.574 134.305 128.314 136.014C126.506 138.463 124.548 140.814 122.494 143.06C131.032 150.707 141.067 157.511 151.746 161.741C159.575 164.842 167.266 165.632 175.529 163.93C184.017 162.181 192.157 158.828 199.895 154.993C204.44 152.742 208.924 150.305 213.197 147.567C211.435 145.432 209.726 143.252 208.064 141.039C205.693 137.878 202.779 134.424 201.426 130.662C200.103 126.979 205.068 127.698 207.449 127.898C210.897 128.188 214.336 128.803 217.715 129.537C215.326 127.881 212.98 126.158 210.681 124.379C207.684 122.06 203.688 119.439 201.726 116.104C200.001 113.17 203.787 113.911 205.537 114.295C209.71 115.211 213.77 116.773 217.75 118.296C220.666 119.412 223.563 120.58 226.431 121.811C224.651 120.268 222.93 118.65 221.276 116.973C219.052 114.72 216.055 111.968 215.057 108.865C213.027 102.546 226.682 107.312 229.013 108.288C228.583 101.741 228.153 95.1942 227.723 88.6475C209.642 93.443 191.561 98.2397 173.481 103.036C171.527 103.555 169.081 104.684 167.044 104.744C165.198 104.798 162.969 103.971 161.169 103.628L128.45 97.3965C119.901 95.768 111.353 94.1394 102.804 92.5108Z" fill="#D27722"/>
<path fillRule="evenodd" clipRule="evenodd" d="M297.13 317.686C295.178 318.8 292.891 319.66 290.723 320.236C289.449 320.575 287.344 321.622 286.226 320.663C285.688 320.203 285.565 319.156 285.248 318.55C284.748 317.59 284.034 316.761 283.367 315.913C281.747 313.858 280.063 311.875 278.3 309.94C277.465 309.024 275.939 306.884 274.467 307.025C272.632 307.2 272.677 309.732 273.136 311.025C274.601 315.142 279.031 318.732 281.925 321.834C281.19 322.963 277.148 322.828 276.026 322.564C274.312 322.161 274.139 320.945 273.357 319.553C271.529 316.302 267.817 314.483 264.767 312.571C263.655 311.873 261.292 309.942 259.843 310.429C258.469 310.889 258.529 312.638 258.966 313.78C259.627 315.506 261.507 316.704 262.896 317.795C264.75 319.249 266.445 320.83 267.99 322.611C265.763 322.792 263.545 323.105 261.325 323.288C258.639 323.508 256.4 322.039 253.928 321.206C251.63 320.432 249.341 319.778 247.082 318.887C244.545 317.885 241.888 317.536 239.33 316.658C229.289 313.211 219.451 308.875 209.774 304.504C205.163 302.421 200.648 300.336 195.844 298.706C192.342 297.518 186.841 295.151 186.004 290.993C185.562 288.797 187.172 286.434 187.409 284.239C187.688 281.658 187.468 278.817 186.68 276.339C185.984 274.157 184.832 272.136 183.924 270.04C182.865 267.599 183.813 267.638 185.868 267.361C188.328 267.029 191.199 265.648 193.512 264.748C196.175 263.711 198.817 262.264 201.257 260.775C203.464 259.429 205.384 257.694 207.14 255.809C208.928 253.89 210.084 251.618 211.813 249.654C218.189 257.472 224.25 265.41 231.026 272.89C234.225 276.421 237.702 279.34 241.644 282.025C243.289 283.146 244.922 284.427 246.714 285.312C248.956 286.422 251.462 287.11 253.767 288.123C262.602 292.003 271.035 296.247 279.278 301.254C283.266 303.676 286.612 306.454 290.124 309.493C291.217 310.438 300.17 315.952 297.13 317.686ZM193.481 253.638C192.053 254.283 190.692 255.12 189.169 255.533C189.601 252.915 192.053 248.963 195.196 249.398C196.397 249.564 197.304 250.494 196.776 251.776C196.296 252.94 194.498 253.178 193.481 253.638ZM94.0935 182.587C92.4749 183.478 90.9661 183.998 90.0169 182.085C90.7201 181.944 93.9138 181.52 94.0935 182.587ZM91.3979 177.181C90.1471 176.803 91.1482 176.406 91.5776 175.949C91.9129 175.594 93.0237 174.348 93.4121 174.142C95.1284 173.236 96.4539 176.608 97.2753 177.702C95.3322 177.53 93.2891 177.753 91.3979 177.181ZM104.772 188.856C102.402 189.255 102.665 186.299 102.737 184.8C103.236 185.409 106.621 188.543 104.772 188.856ZM112.63 183.747C109.74 184.233 107.83 179.255 108.349 177.077C108.805 175.158 111.044 174.087 112.828 173.804C114.556 173.53 116.963 173.904 117.476 175.891C117.93 177.648 114.558 183.423 112.63 183.747ZM181.057 258.906C178.98 259.544 176.944 259.623 174.856 260.248C172.487 260.957 170.295 260.894 167.921 261.377C166.955 261.571 164.35 262.975 163.408 262.661C162.475 262.351 161.125 259.464 160.588 258.714C164.789 256.973 168.371 254.726 171.139 251.059C173.34 248.144 175.7 243.775 174.316 240.011C172.754 235.768 167.371 234.847 163.782 236.618C162.083 237.457 160.4 238.5 158.999 239.777C157.399 241.237 156.769 242.831 155.732 244.631C154.684 246.454 153.948 245.441 152.9 243.894C152.004 242.571 152.121 241.236 151.002 239.931C150.431 239.266 149.547 238.623 149.249 237.763C149.06 237.219 149.458 236.253 149.1 235.823C148.595 235.221 147.983 235.929 147.561 235.39C147.254 234.999 147.354 234.108 147.038 233.619C146.763 233.341 146.458 233.104 146.12 232.907C145.71 232.705 145.636 232.452 145.895 232.149C145.569 231.546 145.884 231.344 145.186 230.612C144.098 229.471 143.106 228.379 142.332 227.033C141.977 226.416 142.012 225.503 141.573 224.969C140.969 224.238 139.964 224.348 139.446 223.442C138.984 222.634 139.293 221.222 138.53 220.488C138.129 220.374 137.727 220.262 137.324 220.151C137.022 219.858 136.845 219.503 136.796 219.084C136.373 218.435 136.288 217.671 135.754 216.985C134.731 215.673 133.355 214.459 132.452 213.076C131.502 211.621 132.005 211.377 133.655 210.856C135.144 210.386 136.502 209.95 137.882 209.15C144.257 205.451 150.302 195.638 140.182 192.641C136.426 191.528 133.34 188.537 129.176 189.713C127.371 190.223 125.659 191.308 124.312 192.596C123.382 193.486 122.519 195.868 121.377 196.324C119.323 197.144 120.191 195.095 119.609 194.154C119.33 193.704 118.21 193.187 117.795 192.778C117.306 192.299 116.836 191.693 116.497 191.1C115.87 190.001 115.485 189.387 114.579 188.49C114.238 188.152 112.533 186.404 114.07 186.633C113.448 184.741 114.356 184.456 115.613 183.074C117.088 181.45 118.61 179.195 118.619 176.92C118.637 172.554 113.446 170.597 110.186 173.189C109.522 173.717 105.599 178.809 106.402 175.561C106.835 173.81 110.842 169.238 112.7 170.422C110.619 167.397 105.835 174.742 104.719 176.244C103.768 174.5 103.701 173.135 102.127 171.785C100.848 173.832 101.524 171.594 101.242 171.139C100.632 170.157 100.967 171.281 100.636 170.932C100.224 170.498 99.5753 170.155 99.1375 169.579C98.3873 170.594 98.6864 169.502 98.4573 169.123C97.9193 168.236 98.1268 167.722 97.2053 166.951C96.5347 166.39 95.214 165.519 94.3119 165.44C93.271 165.348 92.9827 165.745 91.9213 165.452C90.5729 165.078 88.8747 164.503 89.5284 166.752C90.0024 168.387 91.9298 169.316 92.3519 170.986C92.7777 172.667 91.1096 174.362 90.3015 175.739C89.2619 177.509 88.4128 177.363 86.5312 177.762C85.3275 178.017 83.7222 178.562 84.7534 180.016C85.4903 181.056 87.2175 180.837 88.1896 181.453C89.5525 182.316 89.5332 184.444 91.2749 184.814C93.1914 185.221 94.2889 183.094 95.9051 182.58C97.0546 182.215 100.615 182.256 101.52 183.116C102.752 184.288 101.687 186.527 101.997 187.982C102.458 190.143 103.923 190.274 105.777 190.344C108.058 190.428 108.86 192.612 110.088 194.344C112.961 198.402 115.459 202.727 118.403 206.73C119.705 208.503 121.612 210.08 122.68 212.003C123.997 214.379 122.167 215.749 120.589 217.454C118.527 219.683 116.987 222.219 115.197 224.654C113.607 226.819 111.632 226.28 109.092 226.28C109.657 225.116 110.339 224.391 111.732 224.532C110.275 222.759 109.11 224.787 108.165 225.91C106.799 227.535 105.017 227.927 103.261 228.995C102.64 229.373 99.2569 231.823 100.285 232.659C100.402 232.754 106.002 229.082 106.64 228.745C106.64 230.101 106.342 231.509 106.532 232.857C106.672 233.846 107.369 234.877 107.221 235.905C106.94 237.845 104.424 239.374 103.344 240.886C102.532 242.024 102.728 242.921 102.313 244.143C101.937 245.257 102.135 244.92 101.195 245.264C99.2798 245.965 96.0583 245.586 94.3251 244.591C93.2493 243.972 92.4243 242.994 91.5499 242.132C90.8913 241.483 89.2353 240.374 89.0532 239.464C88.7384 237.899 91.855 234.991 92.4725 233.377C94.2142 228.821 91.2266 225.28 86.5783 225.021C88.0111 223.918 89.7865 224.749 91.2966 225.169C88.7155 221.603 84.3059 224.538 82.1156 226.961C80.6201 223.19 79.8976 219.213 78.9846 215.28C78.361 212.602 75.991 207.824 77.0488 205.067C77.5589 203.734 79.0027 202.991 80.0001 202.067C81.1339 201.016 82.1048 199.761 82.9346 198.461C84.8873 195.399 86.015 191.533 83.3266 188.515C84.1431 188.382 84.9609 188.248 85.7774 188.114C84.4483 186.869 82.352 187.475 80.6273 187.107C79.5322 186.872 76.383 187.024 75.6533 186.407C74.774 185.664 75.3373 182.248 75.3686 181.237C75.441 178.875 75.6388 176.603 75.9005 174.254C76.149 172.036 76.0983 169.639 76.5591 167.459C76.9318 165.691 78.1246 165.152 79.502 164.11C82.7911 161.617 85.4723 158.586 84.3494 154.291C84.7474 154.227 85.1454 154.165 85.5434 154.102C84.2565 153.174 82.5896 153.512 81.158 153.021C82.4739 149.331 85.3818 142.845 90.1037 142.495C90.2654 144.146 90.1544 146.107 91.2713 147.473C92.5413 149.027 94.7726 149.183 96.4937 148.361C98.0556 147.614 99.5223 146.032 100.242 144.468C100.73 143.41 100.642 141.62 101.497 140.781C102.644 139.656 110.549 140.335 110.307 142.234C110.164 143.351 108.051 145.227 107.46 146.217C106.378 148.028 105.513 149.986 105.115 152.067C104.513 155.226 104.862 159.395 108.08 161.056C111.739 162.945 116.198 160.543 119.199 158.467C120.848 157.328 122.443 156.071 123.948 154.751C124.751 154.048 125.556 153.324 126.263 152.525C126.784 151.935 127.201 150.984 127.844 150.542C129.362 149.498 130.849 151.269 132.132 152.163C134.225 153.62 136.305 155.003 138.551 156.216C143.106 158.677 147.271 161.935 151.3 165.17C155.351 168.426 159.529 171.774 162.811 175.83C160.823 177.048 161.178 177.365 160.292 179.539C159.665 181.082 158.8 182.396 158.701 184.111C158.529 187.07 160.433 189.591 163.326 190.246C164.943 190.613 166.485 190.32 167.983 189.66C169.148 189.148 170.308 187.886 171.525 187.574C173.786 186.991 175.597 191.25 176.864 192.752C182.494 199.415 188.447 205.815 193.749 212.75C194.336 213.519 196.08 215.02 196.221 216.036C196.425 217.498 194.12 218.889 193.165 219.726C192.662 220.165 187.339 225.157 189.127 225.951C189.636 226.177 191.128 223.115 191.501 222.853C192.897 221.872 191.841 223.794 191.757 224.766C191.55 227.181 193.213 228.497 195.553 228.19C198.049 227.865 200.271 225.9 201.816 224.044C203.752 226.279 206.778 229.658 207.338 232.644C207.695 234.552 206.04 239.22 209.13 239.609C209.602 239.669 211.31 238.406 211.628 239.123C211.893 239.72 210.048 240.744 209.782 240.941C208.644 241.788 207.957 242.695 207.039 243.72C205.961 244.924 204.488 245.938 203.275 247.09C201.997 248.305 199.469 251.604 197.784 250.01C196.936 249.209 197.16 248.162 195.802 247.691C194.566 247.264 193.001 247.807 191.851 248.282C190.559 248.816 186.3 250.766 185.827 252.371C185.176 254.586 188.695 251.924 189.321 251.534C188.607 253.341 188.213 255.956 186.395 257.009C184.885 257.884 182.713 258.399 181.057 258.906ZM156.916 245.246C158.125 241.373 165.252 234.469 169.757 236.628C164.506 237.725 160.341 241.307 156.916 245.246ZM159.582 256.336C157.825 255.36 157.92 252.525 157.306 250.867C156.954 249.915 156.251 249.22 156.457 248.164C156.699 246.926 158.283 245.549 159.127 244.657C161.781 241.846 166.45 238.005 170.72 238.65C176.158 239.47 172.472 246.746 170.62 249.251C169.043 251.387 162.964 258.214 159.582 256.336ZM146.9 251.599C141.021 251.208 135.162 250.685 129.363 249.609C127.306 249.227 125.584 249.284 126.76 246.928C127.148 246.149 129.491 241.274 130.02 241.415C130.334 241.498 130.261 244.848 130.353 245.232C130.769 246.956 131.934 248.563 133.9 248.454C137.116 248.276 139.188 244.131 140.881 241.906C142.237 243.725 143.219 245.744 144.583 247.531C145.234 248.387 147.503 250.374 146.9 251.599ZM112.433 228.593C111.446 230.85 109.462 232.996 108.083 235.04C107.303 233.394 106.754 229.616 108.604 228.399C109.305 227.938 113.056 227.167 112.433 228.593ZM132.822 235.312C133.093 234.444 133.395 233.583 133.73 232.737C134.305 234.541 134.598 234.595 132.822 235.312ZM137.855 237.161C138.568 238.367 139.758 239.553 139.571 241.066C139.43 242.214 138.389 243.39 137.646 244.19C136.417 245.513 133.693 248.051 131.911 246.295C130.423 244.827 130.942 240.793 131.634 239.143C132.623 236.784 136.153 234.289 137.855 237.161ZM134.363 234.69C134.772 234.528 133.913 231.896 134.711 231.634C135.407 233.215 136.061 233.643 134.363 234.69ZM123.13 199.272C122.864 198.3 122.256 198.341 122.476 197.141C122.619 196.354 123.247 195.513 123.722 194.889C124.669 193.646 125.918 192.622 127.27 191.846C130.123 190.209 134.041 189.528 136.596 192.091C134.208 192.468 126.887 194.817 126.84 198.074C129.495 197.564 131.584 194.905 134.247 194.066C136.433 193.378 138.804 193.426 140.979 194.153C146.932 196.141 144.457 201.271 141.097 204.603C139.102 206.58 136.71 208.057 134.096 209.076C132.886 209.548 132.144 209.6 130.954 209.363C130.732 209.319 130.471 208.906 130.203 208.818C129.54 208.599 129.733 209.342 129.185 209.008C128.709 208.717 127.691 206.841 127.367 206.303C126.85 205.448 126.609 204.617 125.976 203.836C125.342 203.055 125.033 202.008 124.445 201.301C124.163 200.961 123.391 200.975 123.184 200.643C122.873 200.144 123.268 199.782 123.13 199.272ZM113.987 237.527C115.34 235.182 117.655 233.193 119.446 231.145C119.556 234.511 117.134 236.817 113.987 237.527ZM115.816 238.609C118.61 237.629 120.149 235.283 120.434 232.44C120.796 228.839 123.064 226.949 124.43 223.713C124.953 222.474 125.563 218.393 127.593 219.56C128.29 219.961 128.703 221.468 129.066 222.149C129.944 223.796 130.942 225.392 131.873 227.008C132.631 228.324 133.767 229.648 133.433 231.232C133.141 232.614 132.202 234.087 131.653 235.389C130.355 238.466 128.65 241.301 127.226 244.31C126.65 245.524 125.97 248.399 124.215 248.384C122.827 248.372 122.982 246.859 122.067 246.339C120.913 245.685 119.6 246.931 118.652 247.447C119.744 245.609 121.653 244.569 123.799 244.915C121.23 242.364 119.493 245.805 117.288 246.573C115.199 247.299 111.493 243.874 109.733 242.903C110.406 241.766 111.014 240.377 112.172 239.629C113.27 238.921 114.617 239.029 115.816 238.609ZM93.0985 261.919C93.4037 260.45 94.2684 259.582 94.8172 258.248C95.4528 259.866 93.9645 260.82 93.0985 261.919ZM137.492 270.932C137.342 275.877 136.937 280.81 136.791 285.757C136.724 288.039 136.318 290.216 136.049 292.471C135.821 294.378 135.937 296.25 134.734 297.88C132.835 300.449 129.143 301.188 126.277 302.139C124.173 302.838 122.045 303.472 119.966 304.248C118.096 304.946 116.589 306.005 114.811 306.835C113.221 307.578 111.504 308.018 109.92 308.81C108.282 309.629 106.988 310.627 105.306 311.356C103.293 312.228 101.633 313.781 99.8419 315.014C98.2655 316.097 96.5974 316.936 95.2418 318.3C93.9693 319.58 92.3604 320.141 90.9191 321.278C89.3945 322.481 87.8 323.262 86.1163 324.204C82.6668 326.137 78.0136 329.436 73.8634 327.56C75.0514 326.048 77.4805 324.596 77.6651 322.513C77.9051 319.801 75.5363 320.799 74.1649 321.665C72.088 322.977 70.9386 324.561 69.3574 326.31C67.5084 328.354 65.1734 326.979 62.9107 326.404C64.4581 325.016 65.9923 323.615 67.5361 322.224C68.8399 321.051 70.8336 319.782 71.6273 318.159C72.1953 316.998 72.1676 315.407 70.7987 314.806C69.2669 314.132 67.5349 315.553 66.4 316.398C63.3895 318.644 61.4055 321.492 59.4286 324.618C58.3769 326.28 57.8921 326.153 55.9574 325.821C53.9073 325.468 51.8565 325.093 49.7893 324.847C52.5279 322.042 55.5884 319.005 57.7509 315.725C58.4517 314.661 59.3659 311.86 57.2311 311.601C56.3518 311.496 54.5994 313.289 53.9212 313.772C50.9554 315.886 48.1042 318.551 46.1386 321.636C45.4896 322.655 45.2859 323.788 44.0293 323.872C42.3867 323.983 39.3341 322.421 37.7493 321.937C40.7781 318.131 43.7857 314.297 47.3242 310.941C50.5754 307.856 53.8185 305.615 57.6207 303.25C61.6961 300.714 65.4918 297.795 69.2331 294.8C72.8153 291.931 76.5567 289.226 79.853 286.024C86.4384 279.629 92.3037 272.273 97.1607 264.495C98.2969 262.676 99.3667 260.808 100.292 258.871C101.16 257.053 101.561 254.878 102.733 253.224C103.138 252.653 103.709 252.228 104.069 251.632C104.411 251.07 104.295 250.392 104.813 249.894C106.015 248.745 108.201 249.438 109.324 250.244C111.129 251.539 112.589 253.111 114.573 254.196C116.568 255.286 118.727 256.08 120.937 256.615C126.101 257.867 131.22 258.894 136.481 259.654C135.94 261.656 137.27 261.971 137.71 263.773C138.245 265.957 137.559 268.705 137.492 270.932ZM87.7675 237.555C86.5964 235.822 85.5519 234.008 84.4012 232.263C83.7005 231.2 82.8321 230.058 83.4303 228.758C84.4398 226.567 87.9991 226.176 89.93 227.132C94.3215 229.304 90.2424 235.515 87.7675 237.555ZM76.1442 197.893C75.7401 194.504 77.0403 192.1 80.1159 190.322C82.3086 189.055 84.0732 190.786 83.774 193.096C83.3193 196.614 79.5478 200.526 76.67 202.362C76.4819 200.874 76.3227 199.383 76.1442 197.893ZM75.675 188.195C76.5832 187.477 79.0123 188.394 80.064 188.456C78.6179 189.716 77.1718 190.975 75.7269 192.234C75.6316 191.37 74.8379 188.858 75.675 188.195ZM80.5537 155.46C87.87 154.512 79.4477 162.339 77.3286 163.566C77.6735 161.9 78.5202 155.725 80.5537 155.46ZM100.031 141.758C99.0483 145.769 91.4112 150.145 91.3316 143.574C91.3014 141.125 92.6812 141.324 94.6954 141.089C95.8436 140.955 100.592 139.464 100.031 141.758ZM73.6511 147.971C72.7936 150.214 72.1061 152.515 71.2666 154.76C70.894 155.755 70.4561 156.438 69.7626 157.227C69.1813 157.885 68.4914 158.052 68.5143 159.093C69.2416 158.953 69.8097 158.521 70.3982 158.104C70.2547 160.169 69.5238 162.391 69.1692 164.449C68.7447 166.917 68.3913 169.385 68.2598 171.888C67.9752 177.329 67.9727 182.75 68.0922 188.195C68.1537 190.97 68.1814 193.746 68.331 196.516C68.4069 197.896 68.4914 199.28 68.6614 200.65C68.7314 201.204 69.1342 202.381 68.8858 202.899C67.9076 204.935 63.5801 199.344 61.6998 200.164C61.9699 198.616 61.3464 198.954 60.3043 198.193C59.8001 197.824 59.4721 197.196 58.945 196.867C58.7858 196.695 58.6109 196.544 58.4203 196.41C58.202 196.115 57.9729 196.146 57.7316 196.504C55.6137 195.243 55.0673 192.553 53.9301 190.743C53.3452 189.813 52.7804 189.668 52.6807 188.382C52.5942 187.261 52.7633 186.118 52.7177 184.992C52.666 183.723 52.5914 182.323 52.2342 181.094C51.8194 179.666 51.2489 179.783 50.1378 179.022C50.4802 178.873 50.7059 178.622 50.8152 178.27C50.4603 178.334 49.382 178.772 49.1141 178.456C48.5872 177.837 49.8304 177.755 50.1572 177.507C48.763 176.89 49.0633 176.384 49.5664 175.253C49.7088 174.933 49.8447 174.455 49.9658 174.185C50.2305 173.596 50.3824 173.969 50.4699 173.236C50.553 172.539 49.9321 171.165 49.7492 170.422C49.4424 169.174 49.2728 168.096 49.5483 166.795C49.7715 165.743 50.3719 164.79 50.4138 163.708C50.4257 163.404 49.9611 163.302 49.9549 163.01C49.9459 162.581 50.3473 162.392 50.4518 161.996C50.7183 160.981 50.5981 159.909 51.0541 158.946C51.4646 158.082 52.2935 156.964 52.8802 156.21C53.2869 155.686 54.2846 155.097 54.3931 154.407C54.4655 153.95 53.7519 154.003 53.7837 153.657C53.827 153.192 54.2194 153.04 54.3268 152.694C54.6235 151.742 54.6983 150.828 55.4653 150.099C56.4327 149.182 56.8524 149.567 56.8922 148.054C56.9115 147.315 56.3193 147.201 56.6365 146.349C56.809 145.887 57.3179 145.614 57.6424 145.287C58.6097 144.315 59.261 143.453 59.9485 142.252C60.5564 141.192 61.5273 140.575 62.1508 139.658C62.9626 138.464 61.7492 137.872 63.3955 137.535C63.1616 136.794 62.9131 136.195 63.5294 135.567C63.9178 135.172 64.9044 135.413 65.2481 134.956C65.6425 134.431 65.0588 133.185 65.6534 132.844C66.137 132.566 66.8607 133.42 67.6194 132.998C68.1983 132.676 69.0715 130.896 68.8858 130.243C70.3814 131.081 70.0087 130.504 70.7239 129.427C70.8843 129.185 71.3716 129.132 71.5091 128.888C71.7853 128.402 71.7226 127.906 72.1206 127.51C72.7839 126.851 73.8694 127.02 74.6003 126.55C75.2034 126.162 75.1708 125.742 75.6521 125.375C76.0646 125.062 76.74 125.002 77.1392 124.677C77.9232 124.041 77.9304 123.37 78.911 122.821C80.0713 122.173 81.0989 121.622 82.1542 120.762C82.8429 120.202 83.4954 119.208 84.3011 118.839C85.4144 118.328 86.2816 118.292 87.3719 117.562C88.1583 117.035 88.9024 116.164 89.6756 115.72C90.2581 115.385 90.6682 115.457 91.4027 115.25C92.7246 114.876 93.0466 113.633 94.1261 113.128C94.8667 112.781 95.9449 113.098 96.7579 112.916C99.2895 112.35 101.79 111.128 104.329 110.451C107.43 109.626 110.551 108.902 113.675 108.173C110.804 112.05 107.147 115.551 103.44 118.631C102.223 119.642 95.5529 124.253 99.1472 126.222C100.591 127.012 103.726 124.46 104.892 123.835C107.238 122.58 109.668 121.573 112.125 120.558C116.099 118.914 121.275 115.992 125.69 116.227C123.002 119.515 119.646 122.154 116.572 125.059C113.746 127.728 109.488 130.231 110.821 134.599C106.852 133.594 103.288 132.403 99.1616 132.667C97.3127 132.785 95.4637 132.563 93.6244 132.821C91.6234 133.103 89.7395 133.77 87.8169 134.356C86.296 134.819 84.6147 134.857 83.2156 135.626C82.539 135.999 81.7031 136.531 81.0953 136.993C80.2848 137.608 80.1014 138.016 79.4646 138.828C77.1959 141.726 74.9996 144.442 73.6511 147.971ZM61.239 202.796C61.1148 202.296 61.0026 201.837 60.8603 201.265C62.1231 202.041 62.1231 202.041 61.239 202.796ZM51.6927 186.829C51.5369 187.043 50.8828 187.112 50.6928 186.926C50.4562 186.697 51.078 185.799 51.1779 185.609C51.4244 185.798 51.9915 186.415 51.6927 186.829ZM48.9883 181.017C49.1556 180.405 49.3232 179.793 49.4904 179.18C49.6957 179.748 50.6215 180.375 50.642 180.916C50.6548 181.275 49.1712 181.097 48.9883 181.017ZM49.5251 181.857C50.9744 182.808 51.126 183.93 51.1692 185.572C49.4348 185 49.6837 183.325 49.5251 181.857ZM74.7294 117.07C74.5835 117.464 73.9623 118.695 73.5076 117.833C73.3617 117.558 74.4267 117.183 74.7294 117.07ZM74.3133 115.729C74.6715 115.407 75.394 115.808 75.7992 115.547C76.0827 115.365 75.9886 115.18 76.1225 115.072C76.149 115.05 76.5349 114.271 76.6929 114.094C76.9728 113.784 77.5819 113.589 77.922 113.309C78.8712 112.524 79.4067 111.494 80.0037 110.445C80.7165 109.191 80.9433 109.047 82.0927 108.473C82.8851 108.078 83.499 107.594 84.1443 106.922C84.8873 106.148 84.8318 105.594 85.4421 104.748C85.7436 104.331 86.1766 104.279 86.5288 103.942C86.9485 103.54 87.1632 102.975 87.5516 102.569C87.7204 102.393 88.2596 102.394 88.3609 102.243C88.4912 102.053 88.5925 101.29 88.7143 101.151C88.9459 101.463 89.1786 101.776 89.4102 102.089C90.3269 100.483 90.995 99.1565 92.5268 98.0873C94.1346 96.9651 95.524 95.3233 97.186 94.3189C97.5599 94.0928 98.321 93.9978 98.6068 93.6658C99.0893 93.1017 98.6707 92.6014 99.0229 92.1226C99.4222 91.5814 100.196 92.0192 100.704 91.7859C101.347 91.49 101.53 90.6264 102.358 90.7214C99.6368 93.9304 99.6718 98.9232 99.5271 102.932C99.4644 104.659 100.556 105.529 98.9445 106.797C97.5744 107.876 95.6422 107.556 94.0224 108.264C91.9889 109.155 89.8131 109.629 87.7373 110.406C85.5905 111.21 83.8645 112.616 81.7984 113.546C79.9772 114.366 78.7325 115.531 77.0669 116.544C76.4469 116.921 75.4868 117.467 74.7487 117.017C74.2855 116.735 73.7102 116.272 74.3133 115.729ZM105.044 88.8222C105.163 88.3651 107.485 87.1671 108.057 86.7762C108.914 86.1893 110.183 84.7544 111.141 85.3245C111.472 84.0002 112.767 82.5268 113.91 82.2453C115.178 81.9338 117.355 80.8489 118.602 79.9035C118.966 79.6269 119.087 79.2227 119.516 78.9629C120.263 78.5119 121.003 78.7585 121.722 78.1426C121.833 78.0488 122.828 76.4106 122.868 76.4263C122.918 76.6019 122.964 76.7787 123.005 76.9579C123.76 76.5405 124.433 76.2086 124.904 75.6757C125.011 75.5542 124.319 75.2403 124.537 75.001C124.805 74.7087 125.402 75.0358 125.672 74.758C124.831 78.9184 125.457 84.2745 129.692 86.3841C124.656 86.9266 119.738 85.4171 114.64 86.3444C112.199 86.7883 109.719 87.5172 107.498 88.6358C106.139 89.3214 104.4 91.7774 103.045 90.5855C103.583 89.871 104.402 89.4272 105.044 88.8222ZM129.48 76.8508C131.362 74.5535 134.219 73.6454 137.096 74.4681C140.464 75.4303 139.043 77.777 138.535 80.3822C137.563 78.9617 135.457 77.5521 133.665 77.51C131.124 77.4498 132.084 79.5607 133.609 80.3173C134.998 81.0041 137.377 81.1953 138.37 82.445C139.337 83.661 138.967 85.6504 139.123 87.0842C138.371 86.9723 137.62 86.8616 136.867 86.7498C137.498 83.4024 134.721 83.2412 132.133 82.2971C129.517 81.3444 127.336 79.4633 129.48 76.8508ZM137.914 68.6081V71.7149C136.867 71.1195 135.82 70.5242 134.772 69.9288C135.82 69.4886 136.867 69.0484 137.914 68.6081ZM146.333 93.4289C149.829 94.3731 153.302 95.3726 156.663 96.6752C157.884 97.1491 159.221 97.3163 160.418 97.8515C161.556 98.3591 161.728 98.3062 161.322 99.3021C160.187 102.09 157.499 101.609 155.143 101.182C151.456 100.514 147.845 99.5883 144.204 98.7175C140.645 97.8672 137.011 97.3091 133.506 96.2422C129.908 95.1489 126.403 94.1133 122.703 93.3904C121.623 93.1799 113.081 92.3981 113.147 91.508C118.526 90.8116 124.064 91.4984 129.468 91.5706C135.085 91.6463 140.886 91.9567 146.333 93.4289ZM141.585 82.6423C141.653 80.7262 141.68 78.803 141.918 76.8965C143.519 78.8655 144.964 79.4561 146.98 77.6098C148.913 75.8429 149.343 74.9216 151.792 76.5826C153.916 78.0235 155.924 77.9574 158.178 76.6957C159.553 75.9271 161.763 72.783 163.209 73.4301C163.897 73.7392 164.403 74.9817 165.097 75.44C165.971 76.0125 167.313 76.4094 168.33 76.6319C170.732 77.1563 172.163 75.6168 173.671 73.969C175.857 71.5802 175.793 72.9682 177.821 74.6245C180.082 76.472 181.972 75.5687 184.02 73.993C185.267 77.6351 185.734 81.6139 186.086 85.4339C186.206 86.7233 186.65 88.5552 185.488 89.4669C184.669 90.1092 182.93 90.1344 181.943 90.4905C178.419 91.7606 175.032 93.5636 172.083 95.8705C170.935 96.7702 169.934 97.8708 168.365 97.6663C166.868 97.4714 165.415 96.223 164.211 95.399C162.906 94.5042 161.585 93.489 160.06 92.9911C159.166 92.7 157.734 92.8046 156.953 92.2706C155.499 91.2747 157.209 88.6658 156.848 86.9146C156.574 85.5843 155.806 82.8107 153.969 83.5913C151.234 84.7507 152.825 89.278 154.329 90.6913C151.252 90.1465 147.848 89.3514 144.881 88.3411C142.589 87.5605 141.503 84.9817 141.585 82.6423ZM193.173 91.9807C199.487 90.2126 205.396 89.0207 211.968 88.6995C214.876 88.5564 217.692 88.6466 220.569 88.673C222.225 88.6875 223.487 87.3572 222.164 85.8248C220.333 83.7043 214.748 84.5126 212.273 84.4164C205.641 84.1614 199.56 84.9131 193.278 87.0926C193.943 85.8729 195.537 85.7142 196.633 85.0839C197.974 84.3093 198.886 83.0344 199.458 81.6187C200.95 77.937 199.449 74.4669 197.889 71.1039C200.953 71.9266 204.124 73.726 207.204 74.1831C207.851 74.2781 208.264 74.2167 208.836 74.4513C209.186 74.5944 209.297 75.0924 209.732 75.2006C209.942 75.2535 210.446 74.7796 210.684 74.847C211.622 75.1116 210.88 75.1814 211.474 75.5651C211.944 75.8682 211.906 76.2591 212.769 76.1159C213.153 76.0522 213.568 75.4616 213.769 75.446C214.027 75.4255 213.967 75.1128 214.36 75.2042C215.076 75.3702 215.013 76.2891 215.251 76.7414C215.506 77.2225 215.144 77.8636 215.916 78.127C216.494 78.3243 216.638 77.7156 217.129 77.7601C217.427 77.7866 218.046 78.2148 218.309 78.4746C219.157 79.3154 220.317 80.2427 221.458 80.7888C221.346 80.6769 221.995 80.4063 221.839 80.3425C221.735 80.3004 222.417 80.464 222.407 80.4616C223.065 80.6107 223.413 81.6187 223.745 81.9855C224.357 82.6591 225.308 83.3699 226.165 83.667C227.648 84.1818 227.603 83.5672 228.143 85.3233C229.198 83.6718 229.602 86.4383 230.909 86.7426C231.587 86.9001 231.507 86.6115 232.122 86.9651C232.545 87.2068 232.827 87.949 233.145 88.3062C233.282 87.7902 233.418 87.2742 233.554 86.7582C234.496 88.5359 236.528 91.3565 238.757 90.8465C238.757 91.3312 238.557 91.9122 238.933 92.3259C239.196 92.6158 239.622 92.2862 239.828 92.4546C240.008 92.6014 240.439 93.1871 240.576 93.2833C240.847 93.4722 241.34 93.6105 241.576 93.7993C241.783 93.9665 241.886 94.7616 242.116 95.0478C242.549 95.5879 243.297 95.6949 243.65 96.342C243.731 95.7045 243.812 95.0659 243.893 94.4272C244.595 94.9672 244.655 95.387 244.828 96.1784C245.074 97.3055 244.747 97.0408 245.527 97.5159C246.293 97.9838 246.692 97.9321 247.394 98.7428C248.083 99.5378 248.089 100.029 249.082 99.1998C249.267 99.8133 249.326 100.606 249.82 101.075C250.191 101.43 251.734 101.445 251.881 102.284C248.984 99.847 250.891 103.548 251.883 102.29C252.092 103.637 253.081 104.072 254.211 105.031C255.264 105.925 255.437 105.86 255.796 107.362C255.788 107.329 256.326 107.661 256.364 107.728C255.338 107.873 256.929 109.017 257.198 109.226C257.394 109.378 257.65 109.013 257.975 109.261C258.348 109.544 258.652 110.185 258.955 110.572C259.777 111.622 260.386 112.524 261.251 113.378C262.186 114.3 262.64 115.464 263.537 116.54C264.531 117.736 265.07 119.111 265.901 120.41C266.692 121.644 267.743 122.635 268.658 123.766C270.119 125.565 270.614 129.527 273.337 129.63C273.176 129.795 273.398 131.023 273.425 131.249C273.554 132.366 273.468 133.438 274.129 134.448C274.281 133.295 274.885 133.74 275.411 134.345C276.284 135.352 275.517 135.098 275.563 136.119C275.62 137.356 275.761 136.4 276.234 137.48C276.604 138.325 276.807 138.874 277.004 139.813C275.468 139.935 274.763 138.683 274.195 137.469C273.958 136.961 273.876 136.127 273.456 135.731C273.008 135.309 272.393 135.275 271.934 134.804C271.051 133.899 270.669 132.487 269.628 131.607C268.453 130.611 268.192 130.14 267.222 128.951C266.147 127.635 264.662 126.71 263.536 125.437C262.406 124.163 262.497 124.858 261.079 124.397C259.571 123.905 257.132 119.178 255.232 120.998C255.308 119.807 253.518 118.687 252.613 118.256C252.222 118.069 251.766 118.238 251.376 117.959C250.951 117.654 250.921 117.07 250.493 116.706C250.494 116.706 249.837 116.865 249.704 116.798C249.433 116.661 249.43 116.176 249.191 116.017C248.529 115.576 247.739 115.114 247.037 114.737C245.328 113.825 243.819 112.7 242.171 111.601C240.759 110.658 239.049 108.957 237.417 108.46C235.992 108.026 235.096 108.247 233.928 107.379C233.292 106.905 233.479 106.746 232.458 106.453C231.484 106.172 230.938 106.317 230.423 105.287C229.521 103.488 230.09 99.9757 229.916 97.9574C229.731 95.8164 229.511 93.6213 228.95 91.5393C228.288 89.0772 227.413 87.7902 224.765 88.3699C219.517 89.5198 214.333 90.6143 209.063 91.6235C198.559 93.6345 188.236 96.917 177.963 99.8313C177.182 100.054 172.815 101.05 173.708 98.8005C174.118 97.7625 176.881 97.3752 177.806 97.0493C182.883 95.2583 187.983 93.4325 193.173 91.9807ZM191.409 87.4005C190.642 87.6916 189.875 87.9826 189.108 88.2749V86.1484C189.875 86.5658 190.642 86.9831 191.409 87.4005ZM188.221 76.1556C188.888 76.6993 190.243 75.3919 190.809 75.1272C191.778 74.675 193.011 74.2865 194.092 74.3791C196.086 74.5511 197.546 76.5092 197.18 78.4938C196.561 81.8532 191.762 83.4409 189.116 84.7544C189.03 83.5636 188.644 82.1323 189.481 81.1039C190.208 80.2102 191.618 80.274 192.288 79.3238C193.977 76.9338 189.402 76.7173 188.379 78.6177C187.976 77.4029 187.573 76.1893 187.169 74.9745C188.143 74.8145 187.716 75.7443 188.221 76.1556ZM192.942 69.5824C191.989 70.1958 191.037 70.8104 190.085 71.4239C189.613 69.2985 191.222 69.0195 192.942 69.5824ZM279.719 143.532C278.472 144.126 278.161 142.708 277.264 142.648C278.323 141.999 278.323 141.999 279.719 143.532ZM284.792 174.473C284.947 176.51 284.826 178.571 285.097 180.599C285.305 182.142 285.932 183.578 285.998 185.138C286.145 188.556 284.988 192.037 282.649 194.542C280.437 196.913 277.273 198.953 274.287 199.949C272.942 200.398 271.538 201.392 270.231 201.76C268.785 202.168 267.412 201.282 266.219 202.871C265.424 196.056 266.006 188.935 265.943 182.078C265.88 175.206 265.954 168.331 264.788 161.533C263.749 155.478 261.702 148.668 257.928 143.715C256.395 141.704 254.508 140.056 252.518 138.514C251.485 137.714 250.452 136.859 249.301 136.228C247.531 135.255 246.023 135.389 244.098 135.112C241.342 134.716 238.781 134.38 236.015 135.154C233.441 135.874 230.605 136.694 228.299 137.945C226.001 139.193 223.333 139.706 220.949 140.824C219.327 141.583 215.957 144.12 214.156 143.663C212.415 143.221 209.835 140.273 208.723 138.953C207.301 137.266 206.125 135.309 204.863 133.494C204.42 132.856 203.518 131.871 203.402 131.052C203.202 129.632 203.774 130.096 205.136 130.255C208.636 130.664 211.928 131.312 215.284 132.41C216.953 132.956 220.218 135.168 221.889 133.843C224.438 131.819 220.564 128.342 219.145 127.174C216.728 125.184 213.917 123.705 211.34 121.936C208.602 120.056 204.981 118.056 203.22 115.161C208.364 116.675 213.505 118.41 218.499 120.362C220.785 121.255 223.044 122.198 225.191 123.387C226.396 124.053 228.832 125.857 230.284 124.992C233.439 123.115 226.191 117.66 225.145 116.545C223.52 114.813 221.928 113.097 220.142 111.526C218.936 110.465 217.044 109.721 216.484 108.156C218.484 108.877 220.1 110.292 221.973 111.252C222.954 111.756 223.848 112.046 224.932 112.2C226.086 112.364 226.223 112.547 227.133 113.005C227.842 113.361 228.569 113.839 229.364 114.081C229.931 114.254 230.921 114.284 231.417 114.604C231.67 114.965 231.931 115.318 232.202 115.667C232.504 115.755 232.801 115.857 233.095 115.973C233.534 116.364 233.794 116.902 234.221 117.305C237.323 120.229 241.472 122.322 244.951 124.772C248.24 127.09 251.731 129.187 254.891 131.716C258.528 134.627 262.302 137.756 265.395 141.247C267.143 143.221 268.581 145.457 270.049 147.639C271.112 149.218 272.659 150.529 273.577 152.157C275.581 155.709 277.244 159.549 279.401 163.041C281.598 166.602 284.462 170.139 284.792 174.473ZM255.232 195.079C255.831 192.614 259.212 189.736 261.372 188.65C260.284 191.335 257.382 193.167 255.232 195.079ZM260.806 203.675C258.963 207.487 250.861 207.924 251.961 202.282C252.499 199.52 254.785 197.824 256.748 196.015C257.655 195.179 259.876 192.19 261.281 192.671C261.215 194.82 261.088 196.979 261.093 199.129C261.096 200.565 261.459 202.327 260.806 203.675ZM258.465 159.746C259.213 161.42 259.957 162.814 258.57 164.312C257.944 164.988 255.905 166.466 254.982 166.137C252.02 165.085 257.667 160.499 258.465 159.746ZM240.551 144.852C241.264 144.813 241.957 144.919 242.661 144.876C243.363 144.832 243.438 144.707 244.088 144.796C244.157 144.896 244.226 144.996 244.295 145.095C244.384 145.763 244.736 145.836 245.35 145.314C246.204 145.502 246.76 145.629 247.578 146.089C245.372 147.675 242.688 149.519 239.984 150.05C235.711 150.891 236.89 145.053 240.551 144.852ZM175.036 180.502C174.592 181.391 173.317 179.171 173.002 178.757C173.59 178.756 175.483 179.606 175.036 180.502ZM209.373 157.109C212.693 155.178 216.637 153.482 220.204 152.044C220.83 155.056 217.772 158.944 215.888 161.005C214.365 162.672 212.529 164.401 210.464 165.359C208.231 166.396 205.791 165.941 205.899 163.031C205.939 161.967 206.181 160.257 206.616 159.284C207.176 158.032 208.234 157.771 209.373 157.109ZM164.49 102.323C164.984 102.295 170.353 101.603 170.324 102.268C170.239 104.271 165.029 102.699 164.49 102.323ZM126.527 140.969C129.363 137.481 133.94 133.716 134.007 128.843C134.106 121.669 126.122 125.249 122.107 125.547C124.23 123.467 134.896 114.745 128.587 111.646C126.773 110.756 124.196 111.626 122.376 112.093C119.147 112.92 116.145 114.354 112.973 115.351C115.239 112.947 119.155 110.213 119.028 106.569C118.871 102.136 115.22 103.208 112.062 103.858C110.849 104.108 105.43 106.258 104.412 104.799C104.039 104.264 104.642 103.585 104.77 103.109C104.996 102.267 104.926 101.973 104.933 101.112C104.949 99.3767 106.105 97.1491 105.162 95.535C104.946 95.9018 104.762 96.2831 104.608 96.68C104.297 95.7406 104.506 94.7435 104.195 93.8041C112.077 95.814 120.095 96.9146 128.026 98.6297C132.042 99.4981 135.82 100.993 139.891 101.666C143.995 102.344 148.029 103.382 152.141 104.029C155.894 104.62 159.488 105.602 163.204 106.355C166.826 107.09 170.541 105.481 174.076 104.665C181.995 102.839 189.91 100.969 197.839 99.1974C206.988 97.1527 216.507 95.4038 225.264 91.9939C225.435 96.5393 225.799 101.076 226.356 105.59C222.488 103.768 216.748 101.391 212.838 104.653C211.274 105.957 210.791 108.211 211.41 110.127C212.083 112.213 214.145 113.181 215.506 114.752C211.365 113.693 200.683 106.231 198.781 113.774C197.438 119.1 203.989 122.541 207.192 125.54C204.012 124.918 199.752 122.384 197.883 126.457C196.269 129.98 198.214 133.813 200.205 136.718C201.285 138.292 202.498 139.774 203.646 141.299C204.252 142.106 204.845 142.924 205.482 143.707C206.121 144.492 207.327 145.314 207.776 146.159C208.678 147.863 206.857 147.968 205.442 148.583C203.674 149.353 202.157 150.643 200.539 151.671C196.838 154.028 193.603 156.216 189.229 156.97C184.726 157.744 180.39 158.554 175.945 159.635C171.515 160.713 167.899 161.748 163.37 160.356C161.305 159.721 159.624 159.155 157.434 159.276C155.134 159.401 153.789 159.282 151.898 157.861C143.76 151.751 134.927 146.738 126.527 140.969ZM111.856 134.835C115.002 133.262 118.168 131.681 121.417 130.329C124.106 129.209 128.189 127.906 131.133 128.396C130.304 130.522 128.789 132.265 127.165 133.831C125.729 135.214 123.934 137.303 122.195 138.269C120.617 139.146 118.78 137.756 117.223 137.174C115.513 136.536 113.159 136.237 111.856 134.835ZM112.647 142.771C114.214 142.123 117.583 144.301 119.008 144.867C121.809 145.981 124.626 147.144 127.095 148.9C124.081 152.374 120.667 155.549 116.609 157.78C113.94 159.248 109.441 160.932 106.924 158.266C103.761 154.918 107.563 148.093 109.803 145.225C109.877 145.715 109.952 146.206 110.026 146.697C110.74 145.557 111.286 143.335 112.647 142.771ZM170.186 172.497C168.231 172.908 167.566 172.536 166.276 171.042C165.403 170.032 164.545 168.982 163.562 168.074C162.557 167.147 160.078 164.911 163.238 166.199C166.117 167.371 168.584 167.958 171.753 167.498C175.375 166.973 178.752 165.446 182.324 164.674C180.366 166.382 178.423 168.106 176.46 169.81C174.388 171.609 172.82 171.944 170.186 172.497ZM170.634 186.235C166.348 189.45 157.722 189.101 160.625 182.029C161.067 180.955 161.683 179.943 162.397 179.028C162.636 178.722 163.059 178.09 163.398 177.884C164.346 177.311 164.083 177.242 164.995 178.197C165.78 179.022 171.924 185.756 170.634 186.235ZM169.364 173.945C169.755 173.817 171.409 172.861 171.787 173.39C172.168 173.925 168.924 175.779 169.364 173.945ZM200.558 222.973C199.595 225.27 191.884 228.597 193.321 223.965C193.956 221.912 194.557 220.359 196.957 220.203C198.342 220.114 201.406 220.949 200.558 222.973ZM214.389 191.828C215.659 189.985 219.85 187.494 221.64 190.241C222.502 191.566 220.41 192.244 219.145 191.904C218.466 191.72 217.91 191.315 217.171 191.285C216.221 191.246 215.294 191.989 214.389 191.828ZM217.755 193.657C216.892 194.528 211.686 198.895 210.842 198.222C212.542 195.799 214.494 193.093 217.755 193.657ZM209.252 237.848C207.445 237.95 208.348 235.234 208.522 234.148C208.96 234.904 211.26 237.735 209.252 237.848ZM213.846 232.98C213.261 231.943 211.685 230.399 212.042 229.065C212.314 228.044 214.774 226.671 215.804 227.257C217.171 228.035 215.189 233.153 213.846 232.98ZM256.739 222.103C255.966 224.759 255.164 224.073 252.74 224.588C250.307 225.104 248.626 227.163 246.484 228.267C247.228 226.7 247.69 224.789 248.934 223.518C249.223 223.223 250.988 222.643 249.983 221.962C249.103 221.368 247.839 223.299 247.462 223.824C245.607 226.414 244.309 229.575 243.238 232.554C242.711 234.018 242.29 235.508 242.04 237.044C241.818 238.414 242.057 239.847 241.832 241.181C241.466 243.328 238.54 243.338 236.78 243.893C235.187 244.394 233.601 244.938 231.948 245.208C230.513 245.442 229.025 245.015 227.636 245.297C226.132 245.602 225.455 246.492 223.746 246.29C222.352 246.126 221.047 245.488 219.633 245.423C218.311 245.364 216.992 245.82 215.677 245.449C214.35 245.074 214.414 244.929 214.716 243.629C214.905 243.981 215.095 244.331 215.283 244.681C215.812 244.268 216.178 243.008 216.502 242.416C217.004 241.499 217.414 241.182 217.227 240.04C216.953 238.354 215.427 237.155 215.082 235.55C214.721 233.877 215.963 232.509 216.696 231.112C217.699 229.2 217.685 227.782 216.845 225.804C217.479 225.97 218.112 226.137 218.747 226.305C217.878 224.425 214.932 225.187 213.454 225.744C212.711 226.023 211.535 227.124 210.736 227.095C209.638 227.056 209.065 225.618 208.594 224.825C207.228 222.533 205.67 220.269 204.055 218.14C203.611 217.555 203.029 217.179 203.183 216.511C203.313 215.946 204.586 215.143 204.999 214.794C206.548 213.489 208.52 212.765 209.975 211.39C212.173 209.313 214.71 207.825 216.958 205.789C219.3 203.668 221.714 201.721 224.154 199.716C226.626 197.687 228.767 195.294 231.221 193.243C231.857 194.392 233.09 198.506 234.498 198.824C236.141 199.195 236.092 197.257 236.011 196.092C235.894 194.429 234.969 192.815 234.865 191.23C234.755 189.533 236.392 188.775 237.627 187.794C239.535 186.278 243.759 182.826 241.489 179.985C239.533 177.537 233.173 182.23 231.42 183.64C229.931 184.84 228.78 185.925 227.103 186.87C225.923 187.535 223.945 190.091 222.546 189.855C220.884 189.575 220.234 187.764 218.199 187.824C216.211 187.881 214.523 189.309 213.29 190.743C210.503 193.982 209.545 198.317 207.005 201.693C205.753 203.358 204.129 204.733 202.77 206.308C201.28 208.037 200.962 210.028 199.492 211.721C195.283 206.131 190.697 200.839 186.259 195.433C184.043 192.732 181.872 190.001 179.704 187.263C178.891 186.237 177.974 185.275 177.229 184.197C176.209 182.721 176.393 181.536 175.992 179.89C175.815 179.161 174.984 178.287 175.207 177.589C175.506 176.652 177.607 175.917 178.365 175.534C181.458 173.968 184.265 172.011 187.15 170.098C192.493 166.556 197.898 163.235 203.58 160.21C203.482 161.514 202.631 162.865 203.202 164.172C203.469 163.419 203.89 160.068 204.897 159.924C204.704 159.951 204.863 164.221 205.019 164.831C205.484 166.651 206.833 167.895 208.764 167.883C212.44 167.859 215.735 163.873 217.776 161.231C219.158 159.443 220.485 157.363 220.971 155.125C221.409 153.116 220.927 151.718 223.022 150.697C227.322 148.604 231.656 146.899 236.255 145.789C236.048 147.764 235.474 150.196 237.275 151.616C239.263 153.185 241.864 151.787 243.736 150.75C245.59 149.722 248.448 146.899 250.627 147.719C252.769 148.526 254.259 151.204 255.458 152.983C256.515 154.55 257.664 155.679 256.441 157.427C255.07 159.385 254.177 161.295 253.079 163.422C252.655 164.239 252.252 164.772 252.552 165.611C252.648 165.882 253.749 167.5 254.048 167.732C255.956 169.213 258.531 166.397 259.894 165.329C260.374 169.931 260.482 174.512 260.676 179.129C260.817 182.51 262.131 185.838 259.347 188.31C256.566 190.78 254.243 193.317 252.547 196.662C251.641 198.449 250.828 200.283 249.849 202.033C249.194 203.204 247.813 204.918 248.658 206.294C249.55 205.451 249.815 204.168 250.558 203.217C251.003 205.191 251.452 207.381 253.545 208.217C255.955 209.18 258.351 207.515 260.485 206.587C259.72 211.865 258.228 216.993 256.739 222.103ZM254.275 228.169C252.622 231.692 251.128 235.941 248.074 238.536C247.403 239.106 244.554 241.33 243.47 240.957C242.549 240.641 243.056 238.787 243.216 237.992C244.03 233.959 245.438 231.422 248.717 228.85C250.075 227.785 251.818 226.424 253.568 226.161C255.453 225.878 254.911 226.815 254.275 228.169ZM300.926 311.812C296.639 305.999 290.578 301.481 284.85 297.115C282.256 295.136 279.397 293.653 276.776 291.675C273.813 289.438 270.803 287.28 267.483 285.594C261.191 282.397 254.325 280.169 248.386 276.389C245.49 274.545 242.321 272.763 239.598 270.693C238.403 269.784 237.346 268.621 236.265 267.581C235.261 266.612 233.104 265.208 232.705 263.792C234.377 263.519 235.327 261.902 236.819 261.737C237.31 261.683 240.388 262.495 239.967 261.006C241.084 260.979 241.214 260.962 242.15 260.718C242.538 260.616 242.997 260.775 243.389 260.637C243.988 260.425 244.397 259.817 245.003 259.582C245.433 259.416 247.031 259.601 247.274 259.396C247.936 258.832 247.233 258.882 246.837 258.177C248.124 258.145 249.007 258.793 250.296 258.104C250.688 257.895 251.02 257.411 251.401 257.161C252.075 256.716 252.319 257.405 252.781 256.482C253.214 257.755 253.202 257.403 254.244 257.029C255.282 256.656 256.031 256.386 257.214 256.294C260.038 256.07 262.872 256.413 265.684 256.212C266.713 256.138 267.591 255.906 268.613 256.04C269.513 256.158 269.242 256.782 269.99 255.941C270.163 255.746 269.601 255.211 269.871 254.931C269.99 254.807 270.377 254.894 270.524 254.831C271.839 254.259 271.843 255.057 272.077 256.099C272.848 255.918 273.634 255.756 274.304 255.305C273.966 255.004 273.399 254.672 273.726 254.123C274.838 254.542 275.564 254.349 275.009 255.565C276.127 255.933 276.336 255.453 277.341 255.348C277.935 255.286 278.765 255.654 279.26 255.18C279.8 254.664 278.947 254.102 279.941 253.658C280.145 253.762 280.295 253.918 280.394 254.126C280.93 254.287 280.834 254.498 280.104 254.758C282.058 255.767 281.598 254.639 282.419 253.445C282.608 253.17 283.457 252.316 283.843 252.729C284.429 253.354 283.233 253.552 283.488 254.176C283.933 255.254 285.485 253.871 285.961 253.325C286.322 252.913 286.469 252.121 286.857 251.812C287.396 251.384 288.172 252.045 288.847 251.928C291.934 251.387 294.846 247.252 292.522 244.483C291.897 243.74 291.369 243.888 290.625 243.418C289.889 242.955 289.477 242.151 288.886 241.489C287.537 239.975 285.887 238.841 284.002 238.117C279.63 236.436 274.919 235.209 270.327 234.307C268.201 233.888 265.937 233.248 263.76 233.253C262.478 233.255 260.546 234.25 259.347 233.774C257.017 232.848 260.438 228.108 261.003 226.576C262.662 222.078 263.914 217.281 264.735 212.559C264.895 211.635 264.833 210.439 265.168 209.557C265.551 208.545 265.633 208.688 266.453 208.606C267.936 208.456 269.557 209.231 271.099 208.964C272.811 208.667 274.66 208.805 276.386 208.277C277.179 208.035 277.916 207.772 278.438 207.103C278.602 206.894 278.419 206.712 278.524 206.566C278.555 206.519 279.146 205.885 279.166 205.847C279.16 205.519 279.189 205.193 279.251 204.871C279.85 205.366 279.555 206.404 280.564 206.428C280.743 205.321 280.746 205.098 281.474 204.475C281.419 204.523 282.024 204.011 281.946 204.065C281.983 203.868 282.056 203.684 282.164 203.513C282.505 203.349 282.865 203.262 283.244 203.252C284.032 202.444 283.706 202.013 283.706 200.924C284.341 201.254 284.977 201.584 285.614 201.913C285.767 198.691 287.735 196.926 289.043 194.315C289.6 193.203 290.168 192.333 290.301 190.991C290.378 190.216 290.178 189.533 290.498 188.803C290.79 188.141 291.443 187.784 291.717 187.062C292.253 185.643 291.853 183.832 291.882 182.357C291.923 180.314 292.128 178.276 292.194 176.232C292.326 172.221 291.922 168.099 291.32 164.135C291.031 162.239 290.55 160.399 290.171 158.523C289.86 156.981 289.116 155.534 288.85 154.1C288.74 153.503 288.91 152.968 288.73 152.309C288.493 151.442 288.096 150.59 287.8 149.739C287.11 147.75 286.428 145.766 285.652 143.808C284.148 140.014 282.388 136.335 280.717 132.615C279.108 129.036 277.776 125.347 275.692 122.007C273.641 118.716 271.431 115.481 269.169 112.332C266.814 109.052 263.835 106.233 261.55 102.922C257.261 96.7065 251.278 91.585 245.018 87.3548C232.102 78.6274 218.142 69.9132 202.655 66.9206C200.32 66.4696 197.956 66.1568 195.576 66.0979C194.101 66.0618 191.655 66.7739 190.257 66.2747C188.691 65.7178 188.835 63.9654 188.443 62.5894C187.939 60.8225 186.803 59.6642 185.512 58.4157C184.153 57.0999 182.92 55.5639 181.226 54.6702C179.508 53.7642 177.483 53.4252 175.58 53.1513C173.882 52.9063 171.343 53.1352 169.792 52.3973C168.378 51.7247 169.076 51.0247 170.4 51.6006C170.496 51.0185 170.574 50.6428 170.95 50.193C171.136 49.967 172.024 49.6499 172.046 49.4389C172.07 49.192 171.326 48.4887 171.22 48.1702C170.991 47.4844 171.121 46.5347 171.392 45.8911C172.727 47.0735 173.113 47.5972 174.604 46.4668C175.232 45.9896 175.425 45.7792 176.154 45.5384C176.352 45.473 176.796 45.6749 176.968 45.5616C177.627 45.1293 177.02 45.2313 177.334 44.7204C177.255 44.8493 177.808 43.4914 177.781 43.7754C177.849 43.0521 178.063 43.2744 177.625 42.3858C176.768 40.6473 174.582 40.5762 175.696 38.5923C176.135 37.8117 176.519 37.8894 176.644 36.7577C176.71 36.1491 176.627 35.4515 176.624 34.8325C176.619 33.5666 176.858 32.6804 175.668 32.0358C174.524 31.4159 173.469 32.0959 173.006 30.5585C172.519 28.9452 173.008 26.8769 171.256 25.7721C169.975 24.9651 168.125 25.6551 166.709 25.2603C165.29 24.865 163.987 23.418 162.547 24.5291C161.524 25.3186 160.981 27.2599 159.054 26.2101C158.184 25.7367 157.705 24.1471 157.156 23.2555C156.282 21.8347 155.581 21.3213 154.236 22.7053C153.408 23.5589 151.659 25.6366 151.553 26.8182C151.436 28.1225 152.577 28.6675 151.144 29.4391C149.718 30.2068 148.919 29.6438 147.761 31.2021C146.614 32.7481 147.501 33.6022 146.172 35.0814C144.51 36.9302 143.625 37.7283 143.648 40.2193C143.665 41.9279 142.15 43.4038 143.034 45.0247C144.024 46.8413 146.913 47.5967 148.665 48.3361C148.08 49.4133 147.278 50.1038 147.961 51.2129C148.579 52.2171 150.327 52.4257 151.411 52.2432C152.139 52.121 152.166 52.231 152.74 51.72C153.115 51.3854 152.6 50.9679 153.374 50.7826C154.197 50.5845 155.512 52.1939 156.048 52.5964C154.853 54.1428 151.57 54.4319 149.833 55.2163C148.774 55.6938 147.802 56.401 146.724 56.8292C145.745 57.2165 144.556 57.1263 143.67 57.7265C142.138 58.7621 141.501 61.3289 140.563 62.8384C139.501 64.5463 138.471 65.3402 136.433 65.6938C133.89 66.1364 131.844 66.3144 129.472 67.4174C126.577 68.7657 123.723 70.1886 120.879 71.6428C116.292 73.9858 112.032 76.3914 107.772 79.2264C103.317 82.1924 98.9819 85.2884 94.6833 88.3868C90.4306 91.4515 86.8605 95.2222 83.1662 98.9292C80.1798 101.925 77.5601 105.16 74.5859 108.155C71.0737 111.692 68.4914 116.157 65.2349 119.908C63.4534 121.961 61.7492 123.98 60.6311 126.397C59.7253 128.358 58.1502 130.281 57.0984 132.338C55.7548 134.967 54.4836 137.554 52.9744 140.096C52.3554 141.14 51.6195 142.035 50.9663 143.031C50.1294 144.306 50.1787 145.537 49.9535 147.008C49.7185 146.649 49.4837 146.29 49.2486 145.932C48.8224 146.86 48.3071 147.773 47.938 148.723C47.7023 149.33 47.7393 150.19 47.5028 150.72C47.2059 151.386 46.8444 151.297 46.4744 151.852C46.0786 152.445 45.9514 153.241 45.5342 153.877C43.7314 156.627 43.0379 160.115 42.1116 163.252C40.869 167.459 41.0651 172.296 41.1325 176.635C41.2043 181.218 41.4556 185.801 42.1467 190.335C42.7728 194.443 44.1115 198.382 46.2073 201.983C48.0334 205.12 50.5516 206.948 53.7771 208.555C55.2579 209.293 56.6329 209.065 58.1875 209.183C59.8906 209.313 61.0521 209.773 62.854 209.368C63.7188 209.173 64.1277 208.545 64.8151 208.336C65.2397 208.207 65.4689 208.419 65.8765 208.37C66.4603 208.299 67.6748 208.014 68.3081 208.082C70.2776 208.296 69.9472 211.265 70.1413 212.782C70.4393 215.116 70.6576 217.477 71.0604 219.797C71.9071 224.678 73.7331 229.237 74.8126 234.034C69.8097 234.642 65.5183 235.573 60.8289 237.46C56.1239 239.354 51.3682 239.997 46.4173 240.938C41.7857 241.818 37.3308 243.465 33.6236 246.445C31.8859 247.842 30.0807 249.476 31.3567 251.777C32.1729 253.248 33.6435 253.621 34.9133 254.476C35.1698 254.153 34.4278 253.467 34.292 253.277C35.3594 253.496 35.3266 253.993 36.1061 254.425C36.7874 254.802 37.3451 254.789 38.0909 255.056C39.9117 255.708 40.8062 257.335 42.6061 257.792C43.1724 257.935 43.9129 258.279 44.492 258.377C45.1874 258.494 45.7081 258.19 46.4131 258.319C46.7936 258.568 47.205 258.747 47.6472 258.854C47.937 258.721 48.2235 258.579 48.5056 258.43C49.5184 258.534 50.1441 259.17 50.9668 259.692C51.0219 259.034 50.9425 258.35 51.5668 257.922C51.8105 258.561 51.4167 258.966 52.0817 259.405C52.9244 259.963 54.0313 259.267 54.7851 258.915C54.9986 261.04 59.934 260.915 61.4983 260.883C63.6645 260.843 65.8283 259.985 68.0125 260.464C69.1282 260.707 70.3174 260.962 71.4283 261.278C72.7634 261.659 74.3796 261.998 75.6955 262.48C76.2177 262.67 76.8594 263.282 77.4154 263.241C77.8593 263.207 77.9775 262.555 78.4937 262.575C79.0774 262.596 79.274 263.245 79.7794 263.439C80.5356 263.73 81.2304 263.176 81.9492 263.456C82.2073 263.557 82.5583 263.989 82.8888 264.13C83.3905 264.343 84.3843 264.345 84.9428 264.449C85.734 264.595 86.4432 264.497 87.1222 264.545C87.6698 264.584 87.6577 264.951 87.9195 264.974C88.2198 265.002 88.742 263.972 89.1461 263.822C89.7334 263.602 90.7997 264.125 91.3991 264.218C87.0583 270.084 81.8238 275.268 76.1502 279.807C70.0304 284.705 63.7634 289.595 57.2009 293.89C51.2429 297.79 45.4749 301.164 40.8551 306.669C36.9598 311.31 30.7591 316.278 31.7149 323.006C32.6702 329.729 39.993 332.465 45.8606 333.748C53.2403 335.363 60.8374 334.713 68.2369 335.621C71.3921 336.008 74.8983 335.802 78.0752 335.471C81.8274 335.082 85.0429 332.641 88.268 330.876C94.0694 327.701 99.0302 323.454 104.745 320.18C111.901 316.079 118.981 311.736 126.825 308.99C130.474 307.713 134.231 306.255 137.175 303.628C137.613 303.237 137.939 302.647 138.434 302.324C139.276 301.777 139.501 302.333 139.99 302.167C140.365 302.039 140.729 301.634 141.054 301.512C141.877 301.206 142.244 301.332 143.165 301.332C142.375 300.877 141.651 299.706 142.472 298.751C143.877 297.115 144.12 299.729 144.648 300.335C145.095 299.761 144.924 299.251 144.809 298.599C145.188 298.848 145.566 299.097 145.944 299.346C145.684 298.085 145.932 296.924 146.602 295.824C147.22 294.812 147.372 294.954 147.544 293.55C149.463 295.298 149.838 291.057 150.011 289.511C150.178 288.012 150.013 286.936 151.002 285.625C152.064 284.216 153.678 283.328 155.026 282.234C157.155 280.506 159.497 278.324 162.442 279.981C164.766 281.29 166.031 284.497 168.212 286.144C169.535 287.144 170.93 287.245 171.773 288.795C172.455 290.049 172.677 291.549 173.321 292.836C174.879 295.954 177.124 299.524 179.684 301.917C182.068 304.143 185.127 304.132 187.916 305.513C190.678 306.881 193.546 308.362 196.469 309.353C199.661 310.436 203.103 310.897 206.21 312.208C207.81 312.882 209.239 313.898 210.851 314.543C212.591 315.24 214.423 315.732 216.185 316.369C223.168 318.898 230.001 321.998 237.336 323.4C240.591 324.021 243.602 325.71 246.879 326.065C248.286 326.218 249.433 326.41 250.808 326.761C252.966 327.311 252.509 327.603 253.304 329.398C254.612 332.351 257.807 330.602 260.268 330.675C264.209 330.794 268.09 330.159 272.025 330.129C278.906 330.076 285.533 329.303 292.189 327.051C298.872 324.79 306.481 319.34 300.926 311.812Z" fill="black"/>
<path fillRule="evenodd" clipRule="evenodd" d="M221.383 81.0762C221.699 81.2277 221.477 81.17 221.383 81.0762Z" fill="black"/>
<path fillRule="evenodd" clipRule="evenodd" d="M100.171 206.855C101.667 205.346 108.025 205.651 108.505 208.352C109.042 211.367 103.36 215.921 101.281 217.197C98.6043 218.84 95.3382 219.148 95.8122 215.022C96.1716 211.907 98.0435 209.006 100.171 206.855ZM105.422 203.747C105.617 204.582 104.187 204.298 103.794 204.101C103.608 203.721 105.23 202.909 105.422 203.747ZM94.4565 209.277C95.7253 209.39 97.1787 207.362 98.1351 206.67C98.5585 207.322 95.77 210.904 95.4624 211.722C94.6965 213.764 94.2695 216.344 95.3152 218.382C98.3679 224.334 106.182 215.833 108.136 212.865C109.504 210.787 110.45 208.212 108.519 206.177C107.831 205.452 106.695 205.251 106.056 204.562C105.215 203.656 105.877 202.487 104.186 202.684C103.02 202.82 101.62 203.87 100.486 204.249C99.1193 204.707 97.8903 205.181 96.6975 206.028C96.4285 206.219 92.8898 209.136 94.4565 209.277Z" fill="black"/>
<path fillRule="evenodd" clipRule="evenodd" d="M184.099 211.275C183.301 215.364 179.236 219.56 174.959 219.723C170.699 219.885 169.319 215.435 170.072 211.889C170.713 208.864 173.335 203.611 177.075 204.189C180.017 204.644 184.781 207.769 184.099 211.275ZM181.386 204.439C178.684 202.355 174.953 201.391 171.823 203.044C170.796 203.586 166.699 205.976 167.945 207.595C169.626 206.296 171.079 204.495 173.263 204.063C172.895 205.75 170.798 207.269 170.058 208.914C169.193 210.833 168.721 213.032 168.863 215.143C169.115 218.899 171.638 221.818 175.546 221.301C179.123 220.828 182.25 218.096 183.958 215.023C186.236 210.919 184.951 207.189 181.386 204.439Z" fill="black"/>
<path fillRule="evenodd" clipRule="evenodd" d="M156.304 220.571C154.38 223.411 151.448 226.081 148.058 226.957C143.669 228.092 144.901 224.476 146.213 221.881C147.372 219.587 149.363 215.639 152.392 215.661C153.42 215.667 155.335 216.164 156.236 216.711C158.013 217.792 157.316 219.078 156.304 220.571ZM152.207 214.333C152.897 213.567 155.953 210.281 156.363 212.842C157.24 211.828 156.547 210.986 155.425 210.879C154.069 210.75 152.588 212.254 151.61 213.002C149.597 214.539 148.047 216.115 146.713 218.27C145.242 220.648 141.491 226.02 144.773 228.378C148.322 230.928 153.485 226.219 155.706 223.791C157.126 222.238 159.008 219.958 158.468 217.679C157.804 214.882 154.54 214.588 152.207 214.333Z" fill="black"/>
<path fillRule="evenodd" clipRule="evenodd" d="M137.071 168.585C135.086 170.843 131.054 174.132 127.731 173.745C124.7 173.391 125.883 170.001 126.956 168.36C128.567 165.893 130.726 163.578 133.845 163.443C135.191 163.385 136.935 163.412 137.978 164.428C139.401 165.816 138.119 167.392 137.071 168.585ZM136.86 162.313C134.535 161.511 133.621 161.206 131.361 162.48C129.546 163.502 127.937 164.947 126.691 166.587C124.828 169.045 122.947 174.569 127.733 175.261C132.983 176.018 145.47 165.28 136.86 162.313Z" fill="black"/>
<path fillRule="evenodd" clipRule="evenodd" d="M144.015 176.41C142.505 177.947 140.619 179.201 138.468 179.63C139.378 177.605 141.411 173.181 143.821 172.564C144.93 172.28 146.197 172.653 146.105 173.914C146.04 174.826 144.611 175.802 144.015 176.41ZM145.959 171.057C144.708 170.432 145.103 170.005 143.648 170.496C142.501 170.882 141.055 171.552 140.101 172.323C139.58 172.745 137.959 174.237 138.157 174.998C138.516 176.378 139.726 174.261 140.044 173.855C140.588 174.298 137.802 178.273 137.637 178.927C137.019 181.363 138.937 181.62 140.816 180.824C143.351 179.749 150.858 173.504 145.959 171.057Z" fill="black"/>
<path fillRule="evenodd" clipRule="evenodd" d="M155.119 201.025C155.676 199.885 156.316 199.506 157.447 199.008C156.692 199.718 155.921 200.374 155.119 201.025ZM155.936 198.216C155.134 199.017 153.297 200.239 153.555 201.616C153.79 202.873 154.753 202.801 155.626 202.409C157.457 201.588 158.477 197.996 160.392 197.659C158.267 196.317 157.771 196.378 155.936 198.216Z" fill="black"/>
<path fillRule="evenodd" clipRule="evenodd" d="M156.217 126.851C156.319 130.678 156.409 134.504 156.493 138.331C156.523 139.676 156.201 141.593 156.606 142.881C156.785 143.449 158.401 145.909 158.975 146.068C160.982 146.624 160.265 141.609 160.279 140.374C160.328 136.207 160.266 132.035 160.249 127.868C160.24 125.72 160.848 107.714 158.054 107.802C157.571 107.818 156.386 109.877 156.207 110.289C155.645 111.585 155.853 113.507 155.866 114.888C155.903 118.874 156.111 122.866 156.217 126.851Z" fill="black"/>
<path fillRule="evenodd" clipRule="evenodd" d="M173.14 138.007C173.298 139.064 173.215 140.828 174.41 141.377C175.45 141.854 175.848 141.287 176.236 140.4C177.131 138.36 176.808 135.243 176.791 133.134C176.758 128.954 176.287 124.793 175.96 120.63C175.816 118.803 176.114 116.968 175.885 115.056C175.785 114.218 175.685 110.843 174.125 111C172.714 111.141 172.842 114.679 172.765 115.59C172.126 123.176 172.015 130.434 173.14 138.007Z" fill="black"/>
<path fillRule="evenodd" clipRule="evenodd" d="M239.712 225.117C239.114 228.164 229.362 238.774 226.905 232.84C225.449 229.32 228.607 225.488 231.069 223.449C232.594 222.188 234.497 220.951 236.575 221.332C238.339 221.657 240.091 223.183 239.712 225.117ZM234.676 219.653C233.987 219.815 228.229 223.846 228.176 223.793C227.677 223.293 231.308 217.896 231.681 217.424C234.76 213.536 236.803 216.48 238.729 219.536C238.319 217.71 237.192 215.061 235.307 214.289C232.926 213.313 231.069 215.72 229.925 217.45C228.306 219.895 227.414 222.549 226.514 225.307C226.086 226.623 225.596 227.816 224.871 229.002C224.154 230.174 222.899 231.464 223.085 232.945C224.104 232.381 224.646 231.274 225.287 230.364C226.003 230.654 225.758 232.931 225.902 233.51C226.268 234.966 227.267 236.106 228.81 236.356C231.687 236.823 234.793 234.169 236.716 232.366C238.744 230.468 240.926 227.864 240.908 224.942C240.89 221.888 237.877 218.898 234.676 219.653Z" fill="black"/>
<path fillRule="evenodd" clipRule="evenodd" d="M242.476 170.698C240.844 173.189 237.979 176.175 234.948 176.753C232.724 177.178 231.256 175.534 232.15 173.316C232.905 171.439 235.477 170.256 237.163 169.431C238.5 168.776 244.735 167.252 242.476 170.698ZM241.274 166.625C237.931 166.5 235.234 168.909 232.741 170.832C233.303 168.622 234.577 166.219 236.372 164.781C238.812 162.824 241.126 164.039 243.695 165.018C243.061 163.023 240.215 162.307 238.403 162.588C236.111 162.944 234.462 164.895 233.303 166.782C231.921 169.034 231.448 171.686 229.821 173.798C229.076 174.764 224.462 178.381 225.507 179.859C227.23 178.035 228.954 176.212 230.676 174.389C231.124 176.544 231.616 178.998 234.377 178.788C236.581 178.621 239.095 176.752 240.708 175.324C242.789 173.481 246.886 166.836 241.274 166.625Z" fill="black"/>
<path fillRule="evenodd" clipRule="evenodd" d="M194.435 187.891C193.018 188.54 189.9 189.422 189.109 187.471C188.008 184.762 191.549 180.01 193.234 178.205C194.27 177.093 194.973 176.52 196.418 177.238C197.572 177.813 199.267 179.444 199.709 180.697C200.66 183.389 196.651 186.874 194.435 187.891ZM197.684 174.878C198.839 175.138 198.98 176.598 197.537 176.037C196.457 175.616 196.206 174.546 197.684 174.878ZM199.133 176.935C198.702 175.625 199.578 173.57 197.458 173.475C196.255 173.422 194.053 174.641 193.003 175.135C191.549 175.822 190.18 176.87 189.421 178.345C188.717 179.712 189.22 180.073 190.292 178.937C190.424 179.026 187.867 185.599 187.844 186.259C187.745 189.269 189.882 191.251 192.884 190.717C195.642 190.227 198.129 187.977 199.647 185.708C200.415 184.559 201.046 183.243 201.104 181.836C201.192 179.677 199.748 178.81 199.133 176.935Z" fill="black"/>
<path fillRule="evenodd" clipRule="evenodd" d="M216.315 170.936C213.899 169.835 211.202 173.596 212.366 175.831C213.893 178.761 221.343 173.226 216.315 170.936ZM213.435 175.139C212.932 174.249 216.344 172.936 216.883 172.914C216.614 173.405 214.124 176.361 213.435 175.139Z" fill="black"/>
<path fillRule="evenodd" clipRule="evenodd" d="M51.9457 168.783C51.8109 167.831 49.6706 169.213 49.6832 169.827C50.037 169.121 52.2266 170.766 51.9457 168.783Z" fill="black"/>
<path fillRule="evenodd" clipRule="evenodd" d="M168.996 96.8545C171.72 96.6549 168.249 82.9515 166.263 84.1627C164.111 85.4762 166.495 97.0374 168.996 96.8545Z" fill="black"/>
<path fillRule="evenodd" clipRule="evenodd" d="M174.084 90.4556C176.636 90.82 176.231 84.9769 174.858 83.9305C172.323 82 170.984 90.013 174.084 90.4556Z" fill="black"/>
<g style="mix-blend-mode:overlay">
<path fillRule="evenodd" clipRule="evenodd" d="M166.917 195.064C213.346 195.064 250.984 157.53 250.984 111.23C250.984 64.9297 213.346 27.3955 166.917 27.3955C120.489 27.3955 82.8513 64.9297 82.8513 111.23C82.8513 157.53 120.489 195.064 166.917 195.064Z" fill="white" fillOpacity="0.5"/>
</g>
</g>
</g>
</g>
<defs>
<clipPath id="clip0_409_26580">
<rect width="320" height="219" fill="white"/>
</clipPath>
<clipPath id="clip1_409_26580">
<rect width="466.887" height="284.7" fill="white" transform="translate(-66.5862 -65.7002)"/>
</clipPath>
</defs>
</svg>
