<svg width="282" height="156" viewBox="0 0 282 156" fill="none" xmlns="http://www.w3.org/2000/svg">
<g clipPath="url(#clip0_409_27133)">
<rect width="282" height="156" fill="#FFDBB8"/>
<ellipse cx="250.5" cy="147" rx="59.5" ry="55" fill="#FFF1AB"/>
<ellipse cx="123.5" cy="86" rx="59.5" ry="55" fill="#FFF1AB"/>
<ellipse cx="229.5" cy="18" rx="59.5" ry="55" fill="#FFF1AB"/>
<ellipse cx="-0.5" cy="147" rx="59.5" ry="55" fill="#FFF1AB"/>
<ellipse cx="10.5" cy="10" rx="59.5" ry="55" fill="#FFF1AB"/>
<path d="M98.994 92.42C94.99 92.42 91.854 91.454 89.586 89.522C87.346 87.562 86.156 84.734 86.016 81.038C85.988 80.282 85.974 79.05 85.974 77.342C85.974 75.606 85.988 74.346 86.016 73.562C86.156 69.922 87.374 67.122 89.67 65.162C91.966 63.174 95.074 62.18 98.994 62.18C101.458 62.18 103.67 62.6 105.63 63.44C107.59 64.252 109.13 65.428 110.25 66.968C111.398 68.48 111.986 70.258 112.014 72.302V72.386C112.014 72.61 111.916 72.806 111.72 72.974C111.552 73.114 111.356 73.184 111.132 73.184H105.462C105.098 73.184 104.818 73.114 104.622 72.974C104.426 72.806 104.258 72.512 104.118 72.092C103.726 70.664 103.11 69.67 102.27 69.11C101.43 68.522 100.324 68.228 98.952 68.228C95.648 68.228 93.94 70.076 93.828 73.772C93.8 74.528 93.786 75.69 93.786 77.258C93.786 78.826 93.8 80.016 93.828 80.828C93.94 84.524 95.648 86.372 98.952 86.372C100.324 86.372 101.444 86.078 102.312 85.49C103.18 84.874 103.782 83.88 104.118 82.508C104.23 82.088 104.384 81.808 104.58 81.668C104.776 81.5 105.07 81.416 105.462 81.416H111.132C111.384 81.416 111.594 81.5 111.762 81.668C111.958 81.836 112.042 82.046 112.014 82.298C111.986 84.342 111.398 86.134 110.25 87.674C109.13 89.186 107.59 90.362 105.63 91.202C103.67 92.014 101.458 92.42 98.994 92.42ZM127.602 92.42C123.654 92.42 120.546 91.454 118.278 89.522C116.01 87.59 114.806 84.748 114.666 80.996C114.638 80.184 114.624 78.98 114.624 77.384C114.624 75.76 114.638 74.542 114.666 73.73C114.806 70.034 116.024 67.192 118.32 65.204C120.644 63.188 123.738 62.18 127.602 62.18C131.466 62.18 134.56 63.188 136.884 65.204C139.208 67.192 140.426 70.034 140.538 73.73C140.594 75.354 140.622 76.572 140.622 77.384C140.622 78.168 140.594 79.372 140.538 80.996C140.398 84.748 139.194 87.59 136.926 89.522C134.658 91.454 131.55 92.42 127.602 92.42ZM127.602 86.372C129.142 86.372 130.36 85.91 131.256 84.986C132.18 84.062 132.67 82.648 132.726 80.744C132.782 79.12 132.81 77.972 132.81 77.3C132.81 76.572 132.782 75.424 132.726 73.856C132.67 71.952 132.18 70.538 131.256 69.614C130.332 68.69 129.114 68.228 127.602 68.228C126.09 68.228 124.872 68.69 123.948 69.614C123.052 70.538 122.562 71.952 122.478 73.856C122.45 74.64 122.436 75.788 122.436 77.3C122.436 78.784 122.45 79.932 122.478 80.744C122.562 82.648 123.052 84.062 123.948 84.986C124.844 85.91 126.062 86.372 127.602 86.372ZM156.663 92.42C152.715 92.42 149.607 91.454 147.339 89.522C145.071 87.59 143.867 84.748 143.727 80.996C143.699 80.184 143.685 78.98 143.685 77.384C143.685 75.76 143.699 74.542 143.727 73.73C143.867 70.034 145.085 67.192 147.381 65.204C149.705 63.188 152.799 62.18 156.663 62.18C160.527 62.18 163.621 63.188 165.945 65.204C168.269 67.192 169.487 70.034 169.599 73.73C169.655 75.354 169.683 76.572 169.683 77.384C169.683 78.168 169.655 79.372 169.599 80.996C169.459 84.748 168.255 87.59 165.987 89.522C163.719 91.454 160.611 92.42 156.663 92.42ZM156.663 86.372C158.203 86.372 159.421 85.91 160.317 84.986C161.241 84.062 161.731 82.648 161.787 80.744C161.843 79.12 161.871 77.972 161.871 77.3C161.871 76.572 161.843 75.424 161.787 73.856C161.731 71.952 161.241 70.538 160.317 69.614C159.393 68.69 158.175 68.228 156.663 68.228C155.151 68.228 153.933 68.69 153.009 69.614C152.113 70.538 151.623 71.952 151.539 73.856C151.511 74.64 151.497 75.788 151.497 77.3C151.497 78.784 151.511 79.932 151.539 80.744C151.623 82.648 152.113 84.062 153.009 84.986C153.905 85.91 155.123 86.372 156.663 86.372ZM174.761 92C174.481 92 174.229 91.902 174.005 91.706C173.809 91.482 173.711 91.23 173.711 90.95V63.65C173.711 63.342 173.809 63.09 174.005 62.894C174.229 62.698 174.481 62.6 174.761 62.6H180.053C180.361 62.6 180.613 62.698 180.809 62.894C181.005 63.09 181.103 63.342 181.103 63.65V72.974L188.873 63.398C189.209 62.866 189.755 62.6 190.511 62.6H196.559C196.811 62.6 197.021 62.698 197.189 62.894C197.357 63.062 197.441 63.258 197.441 63.482C197.441 63.678 197.399 63.846 197.315 63.986L187.235 76.67L198.071 90.614C198.183 90.726 198.239 90.894 198.239 91.118C198.239 91.342 198.155 91.552 197.987 91.748C197.819 91.916 197.609 92 197.357 92H191.099C190.427 92 189.867 91.72 189.419 91.16L181.103 80.786V90.95C181.103 91.258 181.005 91.51 180.809 91.706C180.613 91.902 180.361 92 180.053 92H174.761Z" fill="#D27722"/>
</g>
<defs>
<clipPath id="clip0_409_27133">
<rect width="282" height="156" fill="white"/>
</clipPath>
</defs>
</svg>
