<svg xmlns="http://www.w3.org/2000/svg" version="1.1" xmlns:xlink="http://www.w3.org/1999/xlink" xmlns:svgjs="http://svgjs.com/svgjs" width="512" height="512" x="0" y="0" viewBox="0 0 512 512" style="enable-background:new 0 0 512 512" xml:space="preserve" class=""><g><path d="m318.85 354.884 108.434 45.656C449.532 409.908 464 431.698 464 455.839V497H48v-41.161c0-24.141 14.468-45.93 36.717-55.298l107.846-45.409" style="strokeWidth:30;strokeLinecap:round;strokeLinejoin:round;strokeMiterlimit:10;" fill="none" stroke="#ffffff" strokeWidth="30" strokeLinecap="round" strokeLinejoin="round" strokeMiterlimit="10" data-original="#000000" class=""></path><path d="M235.746 375.147 200 416v81" style="strokeWidth:30;strokeLinecap:round;strokeLinejoin:round;strokeMiterlimit:10;" fill="none" stroke="#ffffff" strokeWidth="30" strokeLinecap="round" strokeLinejoin="round" strokeMiterlimit="10" data-original="#000000" class=""></path><path d="M256 376h0c-53.019 0-96-42.981-96-96v-56h192v56c0 53.019-42.981 96-96 96z" style="strokeWidth:30;strokeLinecap:round;strokeLinejoin:round;strokeMiterlimit:10;" fill="none" stroke="#ffffff" strokeWidth="30" strokeLinecap="round" strokeLinejoin="round" strokeMiterlimit="10" data-original="#000000" class=""></path><path d="M240 320h0a35.778 35.778 0 0 0 32 0h0M392 71c0-30.928-25.072-56-56-56-15.674 0-29.835 6.447-40 16.824C285.835 21.447 271.674 15 256 15s-29.835 6.447-40 16.824C205.835 21.447 191.674 15 176 15c-30.928 0-56 25.072-56 56 0 25.366 16.871 46.782 40 53.668V224h192v-99.332c23.129-6.886 40-28.302 40-53.668zM160 168h192M256 432h0" style="strokeWidth:30;strokeLinecap:round;strokeLinejoin:round;strokeMiterlimit:10;" fill="none" stroke="#ffffff" strokeWidth="30" strokeLinecap="round" strokeLinejoin="round" strokeMiterlimit="10" data-original="#000000" class=""></path></g></svg>