<svg xmlns="http://www.w3.org/2000/svg" version="1.1" xmlns:xlink="http://www.w3.org/1999/xlink" xmlns:svgjs="http://svgjs.com/svgjs" width="512" height="512" x="0" y="0" viewBox="0 0 512 512" style="enable-background:new 0 0 512 512" xml:space="preserve" className=""><g><path d="M497 482V347c0-24.813-20.187-45-45-45V165c0-24.813-20.187-45-45-45h-94.989C330.587 102.09 346 83.227 346 57.273 346 26.026 324.065 0 293.5 0c-14.758 0-27.699 6.229-37.764 18.094C246.925 8.067 234.33 0 217.5 0 186.895 0 165 26.07 165 57.273c0 24.481 13.685 42.694 34.767 62.727H105c-24.813 0-45 20.187-45 45v137c-24.813 0-45 20.187-45 45v135c-8.284 0-15 6.716-15 15s6.716 15 15 15h482c8.284 0 15-6.716 15-15s-6.716-15-15-15zM195 57.273C195 44.052 202.886 30 217.5 30c16.806 0 24.071 22.863 24.118 23.011a15 15 0 0 0 14.38 10.739l.208-.001a14.997 14.997 0 0 0 14.287-11.134C270.554 52.389 276.986 30 293.5 30c14.614 0 22.5 14.052 22.5 27.273 0 19.413-17.74 35.573-48.714 62.727h-22.579l-1.168-1.022C211.644 91.082 195 75.668 195 57.273zM90 165c0-8.271 6.729-15 15-15h302c8.271 0 15 6.729 15 15v15c0 16.542-13.458 30-30 30-16.804 0-31-13.738-31-30 0-8.284-6.716-15-15-15s-15 6.716-15 15c0 16.542-13.458 30-30 30s-30-13.458-30-30c0-8.284-6.716-15-15-15s-15 6.716-15 15c0 16.262-14.196 30-31 30-16.542 0-30-13.458-30-30 0-8.284-6.716-15-15-15s-15 6.716-15 15c0 16.542-13.458 30-30 30s-30-13.458-30-30v-15zm0 66.928A59.608 59.608 0 0 0 120 240c17.901 0 33.997-7.881 45-20.354C176.003 232.119 192.099 240 210 240c16.003 0 31.19-6.185 42.765-17.415a62.336 62.336 0 0 0 3.04-3.162C266.813 232.026 282.992 240 301 240s34.188-7.974 45.195-20.577a62.336 62.336 0 0 0 3.04 3.162C360.81 233.815 375.997 240 392 240a59.608 59.608 0 0 0 30-8.072V302H90v-70.072zM467 482H45v-68.072A59.608 59.608 0 0 0 75 422c17.901 0 33.997-7.881 45-20.354C131.003 414.119 147.099 422 165 422c18.008 0 34.188-7.974 45.195-20.577a62.336 62.336 0 0 0 3.04 3.162C224.81 415.815 239.997 422 256 422c17.901 0 33.997-7.881 45-20.354C312.003 414.119 328.099 422 346 422c16.003 0 31.19-6.185 42.765-17.415a62.336 62.336 0 0 0 3.04-3.162C402.813 414.026 418.992 422 437 422a59.608 59.608 0 0 0 30-8.072V482zm0-120c0 16.542-13.458 30-30 30s-30-13.458-30-30c0-8.284-6.716-15-15-15s-15 6.716-15 15c0 16.262-14.196 30-31 30-16.542 0-30-13.458-30-30 0-8.284-6.716-15-15-15s-15 6.716-15 15c0 16.542-13.458 30-30 30-16.804 0-31-13.738-31-30 0-8.284-6.716-15-15-15s-15 6.716-15 15c0 16.542-13.458 30-30 30s-30-13.458-30-30c0-8.284-6.716-15-15-15s-15 6.716-15 15c0 16.542-13.458 30-30 30s-30-13.458-30-30v-15c0-8.271 6.729-15 15-15h392c8.271 0 15 6.729 15 15v15z" fill="#d27722" data-original="#000000" className=""></path></g></svg>