<svg xmlns="http://www.w3.org/2000/svg" version="1.1" xmlns:xlink="http://www.w3.org/1999/xlink" xmlns:svgjs="http://svgjs.com/svgjs" width="512" height="512" x="0" y="0" viewBox="0 0 48 48" style="enable-background:new 0 0 512 512" xml:space="preserve"><g><path d="M11 45a1 1 0 0 0 1 1h24a1 1 0 0 0 1-1v-7H11zM8.67 24.69 10.8 36h7.1l-.9-9.91a1 1 0 1 1 2-.18L19.91 36h8.18L29 25.91a1 1 0 1 1 2 .18L30.1 36h7.1l2.13-11.31a9 9 0 1 0-6.79-16.51 9 9 0 0 0-17.08 0 9 9 0 1 0-6.79 16.51z" fill="#d27722" data-original="#000000"></path></g></svg>