<svg xmlns="http://www.w3.org/2000/svg" version="1.1" xmlns:xlink="http://www.w3.org/1999/xlink" xmlns:svgjs="http://svgjs.com/svgjs" width="512" height="512" x="0" y="0" viewBox="0 0 682.667 682.667" style="enable-background:new 0 0 512 512" xml:space="preserve" className=""><g><defs><clipPath id="a" clipPathUnits="userSpaceOnUse"><path d="M0 512h512V0H0Z" fill="#d27722" data-original="#000000"></path></clipPath></defs><g clipPath="url(#a)" transform="matrix(1.33333 0 0 -1.33333 0 682.667)"><path d="M0 0v-163.809c0-18.886-15.311-34.198-34.198-34.198h-238.285c-18.887 0-34.199 15.312-34.199 34.198V1.941" style="strokeWidth:30;strokeLinecap:round;strokeLinejoin:round;strokeMiterlimit:10;stroke-dasharray:none;stroke-opacity:1" transform="translate(403.942 213.007)" fill="none" stroke="#d27722" strokeWidth="30" strokeLinecap="round" strokeLinejoin="round" strokeMiterlimit="10" stroke-dasharray="none" stroke-opacity="" data-original="#000000" className=""></path><path d="M0 0c-7.242 0-14.315-.722-21.155-2.089-21.132 42.93-65.307 72.475-116.389 72.475-50.606 0-94.434-28.995-115.794-71.275-4.539.585-9.166.889-13.864.889-59.293 0-107.359-48.066-107.359-107.358 0-59.293 48.066-107.36 107.359-107.36 31.742 0 60.263 13.781 79.917 35.68 15.318-6.369 32.117-9.892 49.741-9.892 19.832 0 38.621 4.459 55.429 12.42C-62.421-199.871-32.947-214.718 0-214.718c59.292 0 107.359 48.067 107.359 107.36C107.359-48.066 59.292 0 0 0Z" style="strokeWidth:30;strokeLinecap:round;strokeLinejoin:round;strokeMiterlimit:10;stroke-dasharray:none;stroke-opacity:1" transform="translate(389.427 426.748)" fill="none" stroke="#d27722" strokeWidth="30" strokeLinecap="round" strokeLinejoin="round" strokeMiterlimit="10" stroke-dasharray="none" stroke-opacity="" data-original="#000000" className=""></path><path d="M0 0h-306.682" style="strokeWidth:30;strokeLinecap:round;strokeLinejoin:round;strokeMiterlimit:10;stroke-dasharray:none;stroke-opacity:1" transform="translate(403.942 95.357)" fill="none" stroke="#d27722" strokeWidth="30" strokeLinecap="round" strokeLinejoin="round" strokeMiterlimit="10" stroke-dasharray="none" stroke-opacity="" data-original="#000000" className=""></path><path d="M0 0v76.011" style="strokeWidth:30;strokeLinecap:round;strokeLinejoin:round;strokeMiterlimit:10;stroke-dasharray:none;stroke-opacity:1" transform="translate(207.457 95.357)" fill="none" stroke="#d27722" strokeWidth="30" strokeLinecap="round" strokeLinejoin="round" strokeMiterlimit="10" stroke-dasharray="none" stroke-opacity="" data-original="#000000" className=""></path><path d="M0 0v76.011" style="strokeWidth:30;strokeLinecap:round;strokeLinejoin:round;strokeMiterlimit:10;stroke-dasharray:none;stroke-opacity:1" transform="translate(293.747 95.357)" fill="none" stroke="#d27722" strokeWidth="30" strokeLinecap="round" strokeLinejoin="round" strokeMiterlimit="10" stroke-dasharray="none" stroke-opacity="" data-original="#000000" className=""></path></g></g></svg>