<svg xmlns="http://www.w3.org/2000/svg" version="1.1" xmlns:xlink="http://www.w3.org/1999/xlink" xmlns:svgjs="http://svgjs.com/svgjs" width="512" height="512" x="0" y="0" viewBox="0 0 64 64" style="enable-background:new 0 0 512 512" xml:space="preserve" className=""><g><g fill="#636a74"><circle cx="31.99" cy="3" r="2" fill="#d17721" data-original="#636a74" className=""></circle><path d="M41.99 15.21V16h-20v-.79A10.108 10.108 0 0 1 31.99 5a9.823 9.823 0 0 1 7.07 2.99 10.29 10.29 0 0 1 2.93 7.22zM16.98 22.69c0 .1 0 .21-.01.31H7.01C7 22.9 7 22.79 7 22.69A4.678 4.678 0 0 1 11.68 18h.62a4.682 4.682 0 0 1 4.68 4.69z" fill="#d17721" data-original="#636a74" className=""></path></g><path fill="#d17721" d="M10 29.39C8.3 28.32 7.09 25.87 7.01 23h9.96c-.08 2.87-1.29 5.32-2.99 6.39a3.551 3.551 0 0 1-3.98 0z" data-original="#efc5b8" className=""></path><path fill="#d17721" d="M13.99 29.4v2.83l-1.98 1.1H12L10 32v-2.61a3.551 3.551 0 0 0 3.98 0z" data-original="#e5b6a9" className=""></path><path fill="#d17721" d="M15.31 32a1.605 1.605 0 0 1 .3.03 1.859 1.859 0 0 1 .33.04c.11.02.23.04.35.06.25.05.51.11.78.19a7.98 7.98 0 0 1 .81.29.284.284 0 0 1 .12.04c.16.07.32.14.47.22.16.08.31.17.47.26.15.09.3.18.44.28a7.31 7.31 0 0 1 1.18.96A8.451 8.451 0 0 1 23 40.15V44H9v-9.02l3-1.65h.01l1.98-1.1.48-.26h.21c.12 0 .24 0 .35.01a.915.915 0 0 1 .17.01.375.375 0 0 1 .11.01z" data-original="#e6ecf4" className=""></path><path fill="#d17721" d="m12 33.33-3 1.65V44H1v-3.84A8.254 8.254 0 0 1 9.53 32H10z" data-original="#d8e0eb" className=""></path><path fill="#d17721" d="M55.13 31.99c.16.01.33.02.53.05a1.487 1.487 0 0 1 .36.05 2.002 2.002 0 0 1 .24.04 2.678 2.678 0 0 1 .49.11 2.116 2.116 0 0 1 .31.09 3.056 3.056 0 0 1 .43.13c.17.06.33.12.5.19a7.823 7.823 0 0 1 2.57 1.72A8.451 8.451 0 0 1 63 40.15V44H49v-9.02l3.01-1.65h.01L54 32.24l.47-.26c.11 0 .34-.01.66.01z" data-original="#e6ecf4" className=""></path><path fill="#d17721" d="M46.98 23h9.98c-.08 2.86-1.28 5.3-2.98 6.38a3.576 3.576 0 0 1-3.98.03c-1.72-1.07-2.94-3.52-3.02-6.41z" data-original="#efc5b8" className=""></path><path fill="#d17721" d="M56.97 22.69c0 .1 0 .21-.01.31h-9.98c-.01-.1-.01-.21-.01-.31a4.729 4.729 0 0 1 1.37-3.32A4.67 4.67 0 0 1 51.66 18h.62a4.69 4.69 0 0 1 4.69 4.69z" data-original="#636a74" className=""></path><path fill="#d17721" d="M54 29.4v2.84l-1.98 1.09h-.01L50 32v-2.59a3.576 3.576 0 0 0 3.98-.03z" data-original="#e5b6a9" className=""></path><path fill="#d17721" d="M52.01 33.33 49 34.98V44h-8v-3.84A8.254 8.254 0 0 1 49.53 32H50z" data-original="#d8e0eb" className=""></path><path fill="#d17721" d="m32.42 23.95.78-.28a11.96 11.96 0 0 1 4.63-.65l.57.03a3.766 3.766 0 0 1 3.1 2.04l.06.12a3.977 3.977 0 0 1 .09 3.45A3.786 3.786 0 0 1 40 30.43a.01.01 0 0 1-.01.01 3.24 3.24 0 0 1-.91.35 7.834 7.834 0 0 1-4.66-.33l-1.61-.63c-1.18.36-3.07.74-3.72.86a3.934 3.934 0 0 1-.48.06 12.042 12.042 0 0 1-4.5-.34 1.173 1.173 0 0 1-.11-.05 3.544 3.544 0 0 1-1.81-2.03 3.449 3.449 0 0 1 1.24-3.92 7.172 7.172 0 0 1 3.88-1.39 11.047 11.047 0 0 1 5.11.93z" data-original="#e6ecf4" className=""></path><path fill="#d17721" d="M40 30.43V34H24v-3.64a1.173 1.173 0 0 0 .11.05 12.042 12.042 0 0 0 4.5.34 3.934 3.934 0 0 0 .48-.06c.65-.12 2.54-.5 3.72-.86l1.61.63a7.834 7.834 0 0 0 4.66.33 3.24 3.24 0 0 0 .91-.35.01.01 0 0 0 .01-.01z" data-original="#d8e0eb" className=""></path><path fill="#d17721" d="M35 44.09v3.45c-1.03.51-2.07 1.02-3.1 1.53L29 47.62v-3.53a5.4 5.4 0 0 0 6 0z" data-original="#e5b6a9" className=""></path><path fill="#d17721" d="M31.9 49.07c-1.3.64-2.6 1.29-3.9 1.93v12H18v-4.96a11 11 0 0 1 3.09-7.44 10.638 10.638 0 0 1 7.72-3.08l.19.1z" data-original="#d8e0eb" className=""></path><path fill="#d17721" d="m34.28 38.32.64 1.57c.2.48-.01 1.11-.36 1.11h-5.11c-.34 0-.55-.6-.37-1.08l.58-1.57c.07-.22.22-.35.37-.35h3.89c.14 0 .28.12.36.32z" data-original="#a05454" className=""></path><path fill="#d17721" d="M34.56 41c.35 0 .56-.63.36-1.11l-.64-1.57c-.08-.2-.22-.32-.36-.32h-3.89c-.15 0-.3.13-.37.35l-.58 1.57c-.18.48.03 1.08.37 1.08zM39 35.57c0 3.76-1.64 7.01-4 8.52a5.4 5.4 0 0 1-6 0c-2.36-1.51-4-4.75-4-8.52a11.61 11.61 0 0 1 .1-1.57h13.8a11.61 11.61 0 0 1 .1 1.57z" data-original="#efc5b8" className=""></path><path fill="#d17721" d="M35.84 47.53A10.6 10.6 0 0 1 46 58.04V63H28V51c1.3-.64 2.6-1.29 3.9-1.93 1.03-.51 2.07-1.02 3.1-1.53.01-.01.03-.01.04-.02h.42c.13 0 .25 0 .38.01z" data-original="#e6ecf4" className=""></path><path d="M45.999 64h-28a1 1 0 0 1-1-1v-4.958a11.918 11.918 0 0 1 3.376-8.145 11.626 11.626 0 0 1 8.463-3.377 1 1 0 0 1-.065 1.998 9.604 9.604 0 0 0-6.976 2.786 10.048 10.048 0 0 0-2.798 6.75V62h8V51.001a1.001 1.001 0 0 1 .557-.896l7.038-3.483a.988.988 0 0 1 .412-.102 11.617 11.617 0 0 1 11.993 11.508V63a1 1 0 0 1-1 1zm-17-2h16v-3.958a9.981 9.981 0 0 0-2.838-6.733 9.843 9.843 0 0 0-6.857-2.794h-.025L29 51.622z" fill="#ffdbb8" data-original="#000000" className=""></path><path d="M28.999 48.621a1 1 0 0 1-1-1v-3.53a1 1 0 0 1 2 0v3.53a1 1 0 0 1-1 1zM34.999 48.541a1 1 0 0 1-1-1v-3.45a1 1 0 0 1 2 0v3.45a1 1 0 0 1-1 1z" fill="#ffdbb8" data-original="#000000" className=""></path><path d="M31.999 46.001c-4.411 0-8-4.68-8-10.435a13.715 13.715 0 0 1 .105-1.706 1 1 0 0 1 1.985.248 11.795 11.795 0 0 0-.09 1.458c0 4.65 2.691 8.435 6 8.435s6-3.784 6-8.435a11.735 11.735 0 0 0-.09-1.458 1 1 0 0 1 1.984-.248 13.833 13.833 0 0 1 .106 1.706c0 5.754-3.589 10.435-8 10.435z" fill="#ffdbb8" data-original="#000000" className=""></path><path d="M34.56 42.001h-5.108a1.346 1.346 0 0 1-1.108-.605 2.038 2.038 0 0 1-.204-1.823l.577-1.57A1.418 1.418 0 0 1 30.03 37h3.886a1.412 1.412 0 0 1 1.29.938l.644 1.573a2.07 2.07 0 0 1-.167 1.863 1.35 1.35 0 0 1-1.124.626zm-4.447-2h3.76l-.396-1H30.48zM40 35H24a1 1 0 0 1-1-1l-.001-3.64a1 1 0 1 1 2 0L25 33h14v-2.565a1 1 0 0 1 2 0V34a1 1 0 0 1-1 1z" fill="#ffdbb8" data-original="#000000" className=""></path><path d="M26.992 31.815a8.84 8.84 0 0 1-3.283-.487 1.694 1.694 0 0 1-.179-.084 4.517 4.517 0 0 1-2.285-2.58 4.435 4.435 0 0 1 1.593-5.06 8.143 8.143 0 0 1 4.42-1.583 12.062 12.062 0 0 1 5.566 1.016 1 1 0 1 1-.81 1.828 10.106 10.106 0 0 0-4.649-.846 6.158 6.158 0 0 0-3.344 1.198 2.447 2.447 0 0 0-.888 2.786 2.524 2.524 0 0 0 1.296 1.454l.032.017c.036.014.07.03.103.047a10.742 10.742 0 0 0 3.97.233 2.867 2.867 0 0 0 .37-.046c.575-.105 2.461-.482 3.614-.834a9.85 9.85 0 0 0 .506-.152 27.048 27.048 0 0 0 3.213-1.292 1 1 0 1 1 .864 1.802 28.638 28.638 0 0 1-3.45 1.39c-.194.064-.38.118-.577.173-1.221.373-3.162.762-3.804.879a4.716 4.716 0 0 1-.601.075c-.512.038-1.089.066-1.677.066z" fill="#ffdbb8" data-original="#000000" className=""></path><path d="M37.29 32.001a8.823 8.823 0 0 1-3.235-.61l-1.61-.628a1 1 0 1 1 .728-1.864l1.61.63a6.785 6.785 0 0 0 4.07.288 2.3 2.3 0 0 0 .64-.245 2.862 2.862 0 0 0 1.25-1.334 2.982 2.982 0 0 0-.074-2.57l-.065-.133a2.768 2.768 0 0 0-2.266-1.486l-.562-.03a10.802 10.802 0 0 0-4.247.596l-.633.228-1.301.96a1 1 0 0 1-1.192-1.605l1.422-1.051a1.008 1.008 0 0 1 .256-.137l.78-.28a12.877 12.877 0 0 1 5.025-.707l.565.029a4.786 4.786 0 0 1 3.936 2.579l.067.136a4.995 4.995 0 0 1 .105 4.308 4.861 4.861 0 0 1-2.103 2.25 4.172 4.172 0 0 1-1.162.443 8.87 8.87 0 0 1-2.005.233zM31.897 50.071a1.001 1.001 0 0 1-.446-.105l-3.11-1.562a1 1 0 1 1 .934-1.767l.19.1 2.88 1.44a1 1 0 0 1-.448 1.894zM22.999 64a1 1 0 0 1-1-1v-4.999a1 1 0 0 1 2 0V63a1 1 0 0 1-1 1zM40.999 64a1 1 0 0 1-1-1v-4.92a1 1 0 0 1 2 0V63a1 1 0 0 1-1 1zM31.019 56.001a1 1 0 0 1-.01-2h.01a1 1 0 0 1 0 2zM31.019 61.001a1 1 0 0 1-.01-2h.01a1 1 0 0 1 0 2zM35.019 56.001a1 1 0 0 1-.01-2h.01a1 1 0 1 1 0 2zM35.019 61.001a1 1 0 0 1-.01-2h.01a1 1 0 1 1 0 2zM9 44.997H1a1 1 0 0 1-1-1v-3.842a9.242 9.242 0 0 1 9.557-9.152l.441-.001a1 1 0 0 1 0 2h-.473A7.459 7.459 0 0 0 4.14 35.1 7.467 7.467 0 0 0 2 40.167v2.83h6v-8.018a1.001 1.001 0 0 1 .519-.876l5.474-3.005a1.008 1.008 0 0 1 .45-.122A9.252 9.252 0 0 1 24 40.135v3.861a1 1 0 0 1-1 1H9.045L9 44.997zm1-2h12v-2.85a7.492 7.492 0 0 0-2.14-5.07 7.434 7.434 0 0 0-5.124-2.105L10 35.572z" fill="#ffdbb8" data-original="#000000" className=""></path><path d="M12.01 34.326a1.002 1.002 0 0 1-.55-.165l-2.013-1.327a1 1 0 0 1-.449-.835v-2.62a1 1 0 1 1 2 0v2.081l1.565 1.031a1 1 0 0 1-.552 1.835zM13.99 33.249a1 1 0 0 1-1-1v-2.85a1 1 0 0 1 2 0v2.85a1 1 0 0 1-1 1z" fill="#ffdbb8" data-original="#000000" className=""></path><path d="M11.991 30.999c-3.36 0-5.993-3.65-5.993-8.309A5.693 5.693 0 0 1 11.681 17h.62a5.693 5.693 0 0 1 5.683 5.691c0 4.66-2.632 8.309-5.993 8.309zm-.31-12a3.692 3.692 0 0 0-3.683 3.691c0 3.42 1.83 6.309 3.993 6.309s3.993-2.889 3.993-6.309A3.692 3.692 0 0 0 12.302 19zM5 44.996a1 1 0 0 1-1-1V39.99a1 1 0 0 1 2 0v4.007a1 1 0 0 1-1 1zM18.98 44.996a1 1 0 0 1-1-1v-3.944a1 1 0 0 1 2 0v3.944a1 1 0 0 1-1 1z" fill="#ffdbb8" data-original="#000000" className=""></path><path d="M16.98 24.001H5.007a1 1 0 1 1 0-2h11.971a1 1 0 0 1 0 2z" fill="#ffdbb8" data-original="#000000" className=""></path><path d="M6.999 24.001a.998.998 0 0 1-.834-.447l-1.99-3.002a1 1 0 0 1 1.666-1.106l1.99 3.002a1 1 0 0 1-.832 1.553zM49 44.998h-8a1 1 0 0 1-1-1v-3.842a9.242 9.242 0 0 1 9.557-9.152l.441-.001a1 1 0 0 1 0 2h-.473A7.243 7.243 0 0 0 42 40.168v2.83h6V34.98a1.001 1.001 0 0 1 .519-.876l5.474-3.005a1.008 1.008 0 0 1 .45-.122A9.252 9.252 0 0 1 64 40.135v3.862a1 1 0 0 1-1 1H49.045l-.045.001zm1-2h12v-2.852a7.25 7.25 0 0 0-7.264-7.173L50 35.573z" fill="#ffdbb8" data-original="#000000" className=""></path><path d="M52.019 34.33a.996.996 0 0 1-.55-.165l-2.019-1.33A.999.999 0 0 1 49 32v-2.59a1 1 0 0 1 2 0v2.05l1.57 1.035a1 1 0 0 1-.551 1.835zM54 33.25a1 1 0 0 1-1-1V29.4a1 1 0 0 1 2 0v2.85a1 1 0 0 1-1 1z" fill="#ffdbb8" data-original="#000000" className=""></path><path d="M51.97 31c-3.366 0-6.003-3.65-6.003-8.309A5.697 5.697 0 0 1 51.658 17h.623a5.697 5.697 0 0 1 5.692 5.691c0 4.66-2.637 8.309-6.003 8.309zm-.312-12a3.696 3.696 0 0 0-3.691 3.691c0 3.42 1.833 6.309 4.003 6.309s4.003-2.889 4.003-6.309A3.696 3.696 0 0 0 52.28 19zM45 44.997a1 1 0 0 1-1-1V39.99a1 1 0 0 1 2 0v4.007a1 1 0 0 1-1 1zM59 44.997a1 1 0 0 1-1-1v-3.944a1 1 0 0 1 2 0v3.944a1 1 0 0 1-1 1z" fill="#ffdbb8" data-original="#000000" className=""></path><path d="M56.968 24.002H44.973a1 1 0 0 1 0-2h11.995a1 1 0 0 1 0 2z" fill="#ffdbb8" data-original="#000000" className=""></path><path d="M46.968 24.002a1 1 0 0 1-.834-.446l-1.994-3.002a1 1 0 1 1 1.666-1.108l1.994 3.002a1 1 0 0 1-.832 1.554zM41.994 17a1 1 0 0 1-1-1v-.786a9.002 9.002 0 1 0-18 0V16a1 1 0 0 1-2 0v-.786a11.002 11.002 0 1 1 22 0V16a1 1 0 0 1-1 1z" fill="#ffdbb8" data-original="#000000" className=""></path><path d="M31.994 6a3 3 0 1 1 3-3 3.003 3.003 0 0 1-3 3zm0-4a1 1 0 1 0 1 1 1 1 0 0 0-1-1zM25.994 13a.982.982 0 0 1-.347-.063.998.998 0 0 1-.59-1.284 6.071 6.071 0 0 1 3.59-3.59 1 1 0 0 1 .695 1.874 4.076 4.076 0 0 0-2.41 2.41 1 1 0 0 1-.938.653zM43.994 17h-24a1 1 0 0 1 0-2h24a1 1 0 0 1 0 2z" fill="#ffdbb8" data-original="#000000" className=""></path></g></svg>