<svg width="150" height="42" viewBox="0 0 150 42" fill="none" xmlns="http://www.w3.org/2000/svg">
<path d="M17.492 41.06C12.1533 41.06 7.972 39.772 4.948 37.196C1.96133 34.5827 0.374667 30.812 0.188 25.884C0.150667 24.876 0.132 23.2333 0.132 20.956C0.132 18.6413 0.150667 16.9613 0.188 15.916C0.374667 11.0627 1.99867 7.32933 5.06 4.716C8.12133 2.06533 12.2653 0.739998 17.492 0.739998C20.7773 0.739998 23.7267 1.3 26.34 2.42C28.9533 3.50267 31.0067 5.07067 32.5 7.124C34.0307 9.14 34.8147 11.5107 34.852 14.236V14.348C34.852 14.6467 34.7213 14.908 34.46 15.132C34.236 15.3187 33.9747 15.412 33.676 15.412H26.116C25.6307 15.412 25.2573 15.3187 24.996 15.132C24.7347 14.908 24.5107 14.516 24.324 13.956C23.8013 12.052 22.98 10.7267 21.86 9.98C20.74 9.196 19.2653 8.804 17.436 8.804C13.0307 8.804 10.7533 11.268 10.604 16.196C10.5667 17.204 10.548 18.7533 10.548 20.844C10.548 22.9347 10.5667 24.5213 10.604 25.604C10.7533 30.532 13.0307 32.996 17.436 32.996C19.2653 32.996 20.7587 32.604 21.916 31.82C23.0733 30.9987 23.876 29.6733 24.324 27.844C24.4733 27.284 24.6787 26.9107 24.94 26.724C25.2013 26.5 25.5933 26.388 26.116 26.388H33.676C34.012 26.388 34.292 26.5 34.516 26.724C34.7773 26.948 34.8893 27.228 34.852 27.564C34.8147 30.2893 34.0307 32.6787 32.5 34.732C31.0067 36.748 28.9533 38.316 26.34 39.436C23.7267 40.5187 20.7773 41.06 17.492 41.06ZM55.6363 41.06C50.3723 41.06 46.2283 39.772 43.2043 37.196C40.1803 34.62 38.575 30.8307 38.3883 25.828C38.351 24.7453 38.3323 23.14 38.3323 21.012C38.3323 18.8467 38.351 17.2227 38.3883 16.14C38.575 11.212 40.199 7.42267 43.2603 4.772C46.359 2.084 50.4843 0.739998 55.6363 0.739998C60.7883 0.739998 64.9136 2.084 68.0123 4.772C71.111 7.42267 72.735 11.212 72.8843 16.14C72.959 18.3053 72.9963 19.9293 72.9963 21.012C72.9963 22.0573 72.959 23.6627 72.8843 25.828C72.6976 30.8307 71.0923 34.62 68.0683 37.196C65.0443 39.772 60.9003 41.06 55.6363 41.06ZM55.6363 32.996C57.6896 32.996 59.3136 32.38 60.5083 31.148C61.7403 29.916 62.3936 28.0307 62.4683 25.492C62.543 23.3267 62.5803 21.796 62.5803 20.9C62.5803 19.9293 62.543 18.3987 62.4683 16.308C62.3936 13.7693 61.7403 11.884 60.5083 10.652C59.2763 9.42 57.6523 8.804 55.6363 8.804C53.6203 8.804 51.9963 9.42 50.7643 10.652C49.5696 11.884 48.9163 13.7693 48.8043 16.308C48.767 17.3533 48.7483 18.884 48.7483 20.9C48.7483 22.8787 48.767 24.4093 48.8043 25.492C48.9163 28.0307 49.5696 29.916 50.7643 31.148C51.959 32.38 53.583 32.996 55.6363 32.996ZM94.3835 41.06C89.1195 41.06 84.9755 39.772 81.9515 37.196C78.9275 34.62 77.3222 30.8307 77.1355 25.828C77.0982 24.7453 77.0795 23.14 77.0795 21.012C77.0795 18.8467 77.0982 17.2227 77.1355 16.14C77.3222 11.212 78.9462 7.42267 82.0075 4.772C85.1062 2.084 89.2315 0.739998 94.3835 0.739998C99.5355 0.739998 103.661 2.084 106.76 4.772C109.858 7.42267 111.482 11.212 111.632 16.14C111.706 18.3053 111.744 19.9293 111.744 21.012C111.744 22.0573 111.706 23.6627 111.632 25.828C111.445 30.8307 109.84 34.62 106.816 37.196C103.792 39.772 99.6475 41.06 94.3835 41.06ZM94.3835 32.996C96.4368 32.996 98.0608 32.38 99.2555 31.148C100.488 29.916 101.141 28.0307 101.216 25.492C101.29 23.3267 101.328 21.796 101.328 20.9C101.328 19.9293 101.29 18.3987 101.216 16.308C101.141 13.7693 100.488 11.884 99.2555 10.652C98.0235 9.42 96.3995 8.804 94.3835 8.804C92.3675 8.804 90.7435 9.42 89.5115 10.652C88.3168 11.884 87.6635 13.7693 87.5515 16.308C87.5142 17.3533 87.4955 18.884 87.4955 20.9C87.4955 22.8787 87.5142 24.4093 87.5515 25.492C87.6635 28.0307 88.3168 29.916 89.5115 31.148C90.7062 32.38 92.3302 32.996 94.3835 32.996ZM118.515 40.5C118.141 40.5 117.805 40.3693 117.507 40.108C117.245 39.8093 117.115 39.4733 117.115 39.1V2.7C117.115 2.28933 117.245 1.95333 117.507 1.692C117.805 1.43066 118.141 1.3 118.515 1.3H125.571C125.981 1.3 126.317 1.43066 126.579 1.692C126.84 1.95333 126.971 2.28933 126.971 2.7V15.132L137.331 2.364C137.779 1.65466 138.507 1.3 139.515 1.3H147.579C147.915 1.3 148.195 1.43066 148.419 1.692C148.643 1.916 148.755 2.17733 148.755 2.476C148.755 2.73733 148.699 2.96133 148.587 3.148L135.147 20.06L149.595 38.652C149.744 38.8013 149.819 39.0253 149.819 39.324C149.819 39.6227 149.707 39.9027 149.483 40.164C149.259 40.388 148.979 40.5 148.643 40.5H140.299C139.403 40.5 138.656 40.1267 138.059 39.38L126.971 25.548V39.1C126.971 39.5107 126.84 39.8467 126.579 40.108C126.317 40.3693 125.981 40.5 125.571 40.5H118.515Z" fill="#FFDBB8"/>
</svg>
