<svg width="381" height="286" viewBox="0 0 381 286" fill="none" xmlns="http://www.w3.org/2000/svg">
<path fillRule="evenodd" clipRule="evenodd" d="M274.707 210.786C273.027 212.731 270.545 214.175 268.641 215.954C266.641 217.822 264.471 219.455 262.479 221.3C253.693 210.553 241.657 203.962 231.231 195.044C226.288 190.815 222.646 185.08 219.981 179.194C218.615 176.176 217.605 173.071 216.815 169.856C216.46 168.408 216.112 166.965 215.879 165.497C215.598 163.72 215.525 163.568 214.327 162.181C213.811 161.584 212.812 159.84 211.802 160.032C210.952 160.194 209.397 162.784 208.859 163.424C206.276 166.501 203.771 169.672 201.051 172.63C196.889 177.156 193.1 181.61 189.236 186.407C181.332 196.221 172.806 205.46 164.202 214.695C163.564 215.38 162.076 217.388 161.159 217.658C160.045 217.986 158.233 216.618 157.11 215.853C154.401 214.006 152.265 211.721 149.948 209.433C145.428 204.967 142.367 198.698 140.308 192.734C139.075 189.164 138.274 185.463 137.002 181.905C136.472 180.422 135.27 178.6 135.88 177.308C136.062 176.923 137.218 175.9 137.626 175.822C138.108 175.729 138.912 176.391 139.08 176.345C140.679 175.907 139.792 174.231 140.743 173.329C141.283 172.817 144.027 172.892 144.846 172.611C147.842 171.582 150.529 169.621 153.361 168.449C165.216 163.547 177.216 158.779 187.451 150.773C190.105 148.698 191.868 147.138 195.036 145.796C198.236 144.44 201.453 143.23 204.719 142.047C207.6 141.003 210.497 140.025 213.474 139.277C216.692 138.467 221.258 137.442 224.474 138.484C230.789 140.53 232.828 145.738 235.343 151.232C238.746 158.665 242.86 165.699 247.32 172.541C255.9 185.704 266.335 197.516 274.707 210.786Z" fill="#D27722"/>
<path fillRule="evenodd" clipRule="evenodd" d="M84.5195 94.4134C84.172 94.2369 81.4588 95.3422 81.0034 95.5113C79.1844 96.1868 77.471 97.3092 75.7572 98.2223C77.0706 99.8221 78.3844 101.422 79.6975 103.022C80.9848 99.862 82.6394 97.2541 84.5195 94.4134ZM85.4151 114.078C84.9682 114.128 88.741 123.202 89.1815 124.221C90.7848 127.927 92.468 131.596 94.0925 135.293C95.6664 138.875 97.6629 142.17 99.6743 145.517C101.395 148.378 103.164 152.82 105.76 154.939C104.121 147.663 104.337 139.298 99.6367 133.188C94.7648 126.855 89.948 120.671 85.4151 114.078ZM274.707 211.109C267.427 199.571 258.314 189.363 250.722 178.03C246.471 171.684 242.333 165.258 238.755 158.503C236.153 153.59 234.535 146.579 230.515 142.823C228.744 141.168 226.851 139.548 224.474 138.807C221.221 137.792 216.742 138.798 213.474 139.6C207.384 141.094 201.435 143.415 195.667 145.852C189.816 148.324 184.824 152.765 179.538 156.332C173.867 160.16 167.729 162.948 161.375 165.389C155.844 167.514 150.922 170.565 145.42 172.704C144.323 173.13 142.085 173.068 141.166 173.624C140.175 174.222 140.565 175.99 139.362 176.642C138.819 176.936 138.638 175.869 138.221 175.887C137.711 175.908 137.247 176.507 136.756 176.886C134.756 178.43 135.981 179.46 136.773 181.585C139.354 188.509 140.741 195.553 144.365 202.089C147.344 207.462 151.609 212.276 156.629 215.833C157.393 216.374 159.883 218.472 160.779 218.332C161.586 218.207 163.228 216.06 163.785 215.476C166.314 212.83 168.625 209.984 171.151 207.333C175.056 203.237 178.814 199.031 182.604 194.879C187.002 190.06 190.895 184.598 194.857 179.449C196.679 177.079 199.025 175.15 201.051 172.953C203.775 169.999 206.276 166.824 208.86 163.747C209.641 162.816 210.951 160.435 212.166 160.463C213.017 160.482 214.518 162.489 214.963 163.117C216.618 165.454 216.611 169.674 217.434 172.591C219.442 179.704 223.064 186.651 228.03 192.139C232.969 197.598 239.296 201.479 245.137 205.866C251.466 210.62 257.461 215.484 262.479 221.623C264.471 219.778 266.641 218.145 268.641 216.277C270.545 214.498 273.027 213.055 274.707 211.109ZM180.994 243.753C182.41 243.768 184.807 244.639 186.073 244.115C182.317 239.955 178.868 236.387 174.116 233.339C169.185 230.176 164.271 227.041 159.481 223.667C149.829 216.868 142.73 208.804 138.699 197.481C137.66 194.565 136.965 191.507 136.204 188.51C135.795 186.895 134.98 179.343 133.596 178.691C132.777 178.305 126.608 182.644 125.63 183.185C123.345 184.45 121.051 185.431 118.689 186.421C113.61 188.549 108.375 190.172 102.989 191.527C96.5329 193.152 92.135 190.464 88.1353 185.385C83.5975 179.622 79.8266 173.12 75.6776 167.069C73.7908 164.317 72.2278 161.569 70.8344 158.533C69.9224 156.547 66.3055 151.187 67.5553 149.071C71.1209 151.788 72.4038 157.19 74.8326 160.828C77.8598 165.362 81.2713 169.637 84.3141 174.167C86.8728 177.976 89.4833 182.592 93.2635 185.33C96.5887 187.738 99.7476 186.998 103.326 185.915C107.663 184.604 112.159 183.957 116.41 182.33C121.01 180.57 125.362 178.073 129.85 176.036C131.942 175.087 134.447 174.547 136.418 173.363C138.118 172.344 137.864 171.805 137.989 169.634C138.135 167.1 138.303 164.565 138.415 162.029C138.49 160.326 137.569 158.016 138.194 156.744C133.099 157.628 128.119 158.812 123.06 159.86C120.29 160.433 117.618 161.142 114.82 161.593C113.753 161.765 112.295 161.76 111.34 162.225C110.578 162.006 110.19 162.145 110.175 162.642C110.138 162.912 110.081 163.179 110.001 163.44C108.439 164.152 107.531 162.626 106.175 161.162C104.503 159.356 103.251 157.322 102.025 155.2C99.2818 150.455 96.1203 145.992 93.582 141.113C90.995 136.14 88.8939 130.815 86.7006 125.655C84.6884 120.921 83.3999 115.802 81.1764 111.18C80.1841 109.117 78.9265 107.411 77.458 105.668C76.2461 104.23 74.3817 101.127 72.5719 100.467C72.0935 100.292 70.8403 100.586 70.2967 100.547C69.2133 100.469 68.2477 100.071 67.139 100.158C64.7384 100.346 62.1212 101.866 60.2028 103.202C61.4426 104.308 64.5438 105.652 62.3162 107.644C60.1545 109.579 58.9605 106.109 58.1356 104.589C54.2512 107.781 54.8127 112.183 54.3639 116.694C54.1295 119.049 53.513 121.369 53.1153 123.688C52.8288 125.358 53.0297 127.084 52.9478 128.789C52.7391 133.12 52.3042 137.266 52.3254 141.537C52.3477 146.102 52.6584 150.51 53.0234 155.042C53.6377 162.671 55.0452 170.304 56.2522 177.873C56.9312 182.127 57.8607 186.261 58.7629 190.446C59.7869 195.197 61.6811 199.697 62.7433 204.435C63.8257 203.058 64.6398 203.051 66.3904 203.234C67.7369 203.374 68.6414 203.054 68.5625 204.924C68.5115 206.137 67.4422 207.064 66.259 207.276C64.7161 207.552 64.1918 206.781 63.3967 205.612C63.2107 207.827 64.6989 210.143 65.2876 212.306C65.8445 214.356 66.2136 216.365 67.1498 218.327C68.0632 220.242 68.8453 222.13 69.7695 224.025C70.1952 224.898 70.5933 225.784 71.0238 226.653C71.2414 227.094 71.4978 227.701 71.8226 228.072C72.5846 228.943 72.4633 228.521 73.3552 229.017C75.2981 230.097 74.5685 229.828 74.6139 232.058C74.6581 234.259 75.7855 235.875 77.5934 237.112C81.4291 239.737 85.2123 240.467 89.573 241.793C93.636 243.028 97.9155 244.089 102.218 244.064C107.487 244.035 112.686 243.343 117.956 243.273C123.769 243.196 129.638 243.228 135.439 243.429C137.829 243.512 140.048 243.618 142.356 244.229C145.035 244.939 147.627 244.657 150.388 244.55C156.28 244.32 162.374 243.864 168.188 243.823C172.375 243.793 176.792 243.501 180.994 243.753ZM333.762 246.039C334.809 246.593 337.157 246.366 338.21 246.212C340.065 245.941 340.264 245.205 341.44 243.55C343.466 240.699 345.11 237.969 346.302 234.667C348.583 228.347 349.514 221.882 350.516 215.271C351.628 207.925 349.596 200.311 348.869 193.015C348.702 191.341 348.474 189.682 348.209 188.021C348.051 187.028 348.01 183.649 347.357 182.789C346.102 181.137 340.268 182.469 337.975 182.619C331.572 183.038 325.127 183.136 318.728 183.208C315.315 183.247 311.884 183.39 308.506 183.416C306.954 183.429 305.437 183.352 303.88 183.2C303.359 183.15 302.851 183.03 302.326 183.001C300.53 182.902 300.665 182.641 300.2 184.233C299.387 187.022 300.013 190.571 299.799 193.466C299.514 197.334 299.359 201.258 299.43 205.134C299.495 208.717 299.373 212.291 299.507 215.881C299.563 217.368 299.725 218.58 300.117 220C300.56 221.606 301.047 225.356 302.151 226.467C302.276 226.594 303.214 226.299 303.463 226.614C303.847 227.099 303.776 228.126 304.04 228.439C304.892 229.455 306.654 229.535 307.932 229.991C311.439 231.243 314.656 232.602 317.961 234.289C320.914 235.797 325.675 237.081 327.451 240.055C328.265 241.419 328.375 243.217 329.123 244.624C329.976 246.227 328.27 245.389 330.359 246.039C331.299 246.332 332.798 246.039 333.762 246.039ZM22.4303 227.912C22.1646 231.613 20.0814 235.138 19.3562 238.778C19.0169 240.482 18.4413 242.157 18.0424 243.851C17.66 245.476 16.2781 247.4 16.418 249.008C21.5183 247.19 26.6845 246.732 32.0152 246.242C37.0675 245.777 42.4049 245.592 47.4148 245.589C52.52 245.587 57.9786 245.088 63.2352 245.01C68.7326 244.93 74.3129 244.787 79.7306 244.216C76.8976 242.116 73.3529 240.144 71.2611 237.222C68.987 234.046 67.8061 230.067 65.8051 226.715C61.7897 219.989 59.2369 211.644 57.1321 204.087C52.8827 188.833 48.134 173.861 46.9895 158.038C44.8114 159.155 43.0824 163.486 41.9919 165.643C40.5999 168.397 39.8711 171.382 38.9662 174.309C37.1029 180.338 35.8133 186.589 33.5317 192.56C29.1711 203.975 26.3683 216.274 22.4303 227.912ZM299.292 139.007C300.235 145.829 302.213 152.74 302.289 159.645C302.306 161.164 302.049 162.85 302.365 164.348C302.703 165.947 303.802 167.361 304.436 168.881C305.443 171.293 307.993 176.238 305.534 178.282C305.484 176.342 303.71 173.879 302.817 172.182C301.47 169.627 299.701 167.29 298.242 164.797C295.186 159.58 291.762 154.475 287.825 149.876C283.989 145.396 279.569 141.422 275.502 137.157C274.28 135.875 264.478 123.539 264.088 123.711C267.129 135.447 272.297 145.658 279.371 155.484C282.839 160.301 287.001 163.471 291.223 167.551C294.739 170.95 301.365 174.584 300.149 180.152C305.645 179.623 311.105 178.778 316.651 178.778C315.739 171.753 315.04 164.839 313.412 157.929C311.564 150.083 310.312 142.003 308.748 134.087C307.151 126.006 304.444 118.183 302.76 110.117C301.147 102.394 299.761 94.6838 298.579 86.8743C297.602 91.2015 297.962 95.9544 297.615 100.37C297.261 104.88 297.295 109.308 297.413 113.845C297.632 122.273 298.529 130.599 299.292 139.007ZM323.107 98.8263C323.138 95.2189 323.836 91.6603 324.052 88.0615C324.118 86.9573 325.217 79.4241 324.192 79.0309C323.349 80.8698 323.153 83.2229 322.387 85.1523C321.623 87.0798 320.6 88.9161 319.866 90.8571C318.277 95.0618 317.728 99.8195 317.557 104.29C317.17 114.401 316.97 124.49 317.649 134.601C317.94 138.935 318.163 143.276 318.083 147.619C317.996 152.397 317.265 156.544 318.152 161.283C319.031 165.976 319.583 170.65 319.876 175.411C320.082 178.753 320.164 178.517 323.35 178.282C325.65 178.112 327.972 178.293 330.275 178.188C329.199 165.163 329.023 152.111 327.302 139.136C326.425 132.517 326.401 125.802 325.311 119.207C324.769 115.931 323.86 112.721 323.338 109.441C322.777 105.92 323.053 102.375 323.107 98.8263ZM90.1508 90.6295C96.2836 91.1613 102.807 92.9965 109.093 91.7847C108.057 91.3646 105.345 90.7852 106.566 89.1273C107.807 87.4414 109.898 89.5797 111.135 89.3589C111.898 89.2226 113.585 86.0301 114.055 85.3691C115.122 83.8668 115.251 83.605 117.171 83.22C119.03 82.8476 119.452 83.2509 119.687 81.4004C119.958 79.2726 119.222 76.8803 119.295 74.7044C119.452 70.02 120.962 65.9121 122.367 61.5048C116.396 62.8049 110.558 64.3466 104.453 65.1845C101.843 65.5427 97.7834 66.3691 95.4126 64.5935C94.7961 64.1317 94.8947 63.5083 94.3902 62.9732C93.5441 62.0753 91.9747 61.1466 90.7747 60.8907C83.3903 59.3174 82.6699 69.8536 86.3705 73.7961C87.2974 74.7841 88.587 75.2719 89.5361 76.1772C90.803 77.3845 90.9068 78.6563 91.0918 80.4992C91.4385 83.9551 90.9675 87.4243 89.4945 90.5856L90.1508 90.6295ZM179.762 140.37C181.942 140.785 184.217 140.69 186.403 141.043C187.179 141.169 189.507 141.607 190.19 141.152C191.233 140.459 191.603 137.914 192.096 136.729C192.963 134.645 194.19 132.827 195.017 130.705C198.395 122.036 201.545 113.333 205.631 104.96C204.065 104.553 202.863 104.537 201.284 104.326C199.64 104.107 198.15 103.134 196.581 102.716C195.09 102.318 193.528 102.42 192.051 101.957C191.237 101.703 190.539 101.137 189.737 100.94C188.458 100.625 186.966 100.441 186.205 101.281C185.426 102.143 185.152 104.506 184.728 105.619C183.598 108.584 182.286 111.446 181.34 114.48C180.486 117.216 179.675 119.923 178.923 122.683C178.129 125.598 176.564 128.001 175.611 130.785C174.886 132.904 174.202 135.071 174.094 137.331C173.988 139.536 173.668 139.676 175.871 140.028C176.983 140.206 178.716 140.867 179.762 140.37ZM323.191 243.567C323.759 243.832 324.295 243.797 324.797 243.462C319.874 241.381 315.086 238.495 309.951 237.067C305.134 235.728 300.452 234.128 295.811 232.479C292.04 231.139 288.65 230.096 285.24 227.738C283.171 226.307 281.332 224.697 279.91 222.605C278.327 220.277 277.975 216.962 276.26 214.865C273.946 217.409 271.227 219.335 268.489 221.356C267.542 222.056 265.27 223.58 264.946 224.663C264.537 226.028 265.632 227.335 266.174 228.717C267.561 232.256 268.239 235.793 268.992 239.473C269.294 240.947 269.945 243.164 271.156 243.782C272.258 244.344 275.449 243.936 276.821 243.831C283.976 243.289 291.004 242.733 298.202 243.227C306.347 243.786 315.067 244.172 323.191 243.567ZM337.482 177.984C338.783 177.988 340.053 177.826 341.348 177.826C340.601 174.331 342.349 169.808 342.969 166.32C343.662 162.417 344.19 158.382 344.653 154.448C345.628 146.163 346.069 137.978 346.082 129.632C346.094 121.556 347.563 114.176 349.62 106.412C351.83 98.0741 355.448 90.5759 358.439 82.5348C355.158 84.2709 353.341 88.3333 351.617 91.4391C349.438 95.366 347.986 99.7141 347.096 104.123C345.379 112.627 343.495 121.157 341.514 129.647C339.451 138.488 338.238 147.409 335.875 156.177C334.722 160.453 333.155 165.713 333.068 170.123C333.032 171.947 332.482 175.767 333.308 177.351C334.081 178.833 335.789 178.135 337.482 177.984ZM141.196 167.015C141.128 167.923 141.063 168.787 140.902 169.684C142.703 169.666 144.984 167.796 146.529 166.956C148.411 165.933 150.295 164.805 152.136 163.777C155.689 161.791 159.723 160.483 163.517 158.852C167.876 156.978 171.882 154.714 176.05 152.458C177.505 151.67 187.969 147.13 187.793 145.89C185.496 145.813 183.199 145.737 180.901 145.661C178.932 145.595 175.882 146.041 173.996 145.431C172.963 145.097 171.803 143.868 171.413 142.905C171.027 141.953 171.895 137.572 171.39 137.292C168.819 139.919 167.203 143.411 164.904 146.246C162.364 149.378 159.082 151.208 155.464 152.872C151.469 154.711 147.334 156.134 143.252 157.71C141.53 158.374 141.564 158.754 141.414 160.644C141.246 162.756 141.264 164.898 141.196 167.015ZM348.792 246.47C353.122 246.935 357.56 246.67 361.925 247.032C363.513 247.164 365.714 247.361 364.117 249.494C363.11 250.838 359.888 250.407 358.426 250.5C354.501 250.75 350.345 250.615 346.411 250.557C345.583 250.545 344.668 250.299 343.831 250.354C342.864 250.418 341.707 251.114 340.826 251.108C340.284 251.105 340.089 250.532 339.621 250.479C338.601 250.365 337.582 250.281 336.553 250.281C321.004 250.285 305.669 249.972 290.159 249.955C282.743 249.947 275.207 249.819 267.794 249.47C266.237 249.397 257.371 249.716 257.617 246.91C257.743 245.465 260.636 245.262 261.692 245.108C262.475 244.995 263.287 245.013 264.071 244.97C266.153 244.859 267.066 245.36 266.626 243.079C264.96 234.428 261.974 227.278 255.593 221.057C250.376 215.971 244.094 211.357 238.185 207.109C231.01 201.952 225.189 196.527 220.929 188.635C218.442 184.026 216.359 179.314 215.081 174.219C214.621 172.385 214.611 170.3 214.047 168.533C213.613 167.172 212.625 166.22 212.043 164.81C204.905 176.744 195.443 186.728 186.768 197.488C182.623 202.629 177.894 207.512 172.942 211.984C171.472 213.311 170.101 214.697 168.729 216.125C167.581 217.32 165.76 218.383 164.791 219.709C163.861 220.981 164.09 220.92 165.505 221.93C167.375 223.265 169.436 224.375 171.335 225.677C174.371 227.758 177.685 229.516 180.4 232.021C183.336 234.73 185.901 237.868 188.467 240.922C190.177 242.958 192.422 245.57 192.852 248.144C192.994 248.996 193.535 251.102 192.821 251.726C192.211 252.259 192.273 252.057 191.515 251.732C190.522 251.306 190.23 250.328 189.018 249.862C185.915 248.671 182.16 249.08 178.932 249.065C175.702 249.051 172.446 249.414 169.218 249.4C161.846 249.37 154.632 249.968 147.263 250.288C139.436 250.629 131.513 249.812 123.712 249.927C117.933 250.013 111.999 249.581 106.059 249.902C103.004 250.067 100.004 249.685 97.0252 249.642C93.1251 249.586 89.1198 250.117 85.1862 250.192C78.7301 250.317 72.3528 250.316 65.8572 250.471C51.8852 250.806 37.9888 251.152 24.0086 251.373C22.1438 251.403 20.1022 251.34 18.2594 251.55C16.3034 251.773 17.3132 252.189 15.9711 252.894C12.214 254.867 13.0816 247.554 13.1717 246.116C13.6546 238.409 15.6095 230.85 17.9587 223.533C20.1874 216.594 21.9968 209.33 23.8843 202.241C25.9504 194.481 28.6424 187.039 31.0869 179.356C33.5916 171.483 35.6309 163.303 40.1803 156.324C41.2165 154.734 42.2873 153.024 43.9542 152.022C45.8227 150.898 45.9031 151.554 45.9016 149.498C45.9005 147.562 46.0195 144.975 45.563 143.127C45.1504 141.457 45.214 142.447 44.2849 141.248C43.5289 140.273 42.7379 139.606 42.1954 138.422C38.8631 141.804 31.2353 140.019 28.0158 137.584C24.0752 134.604 21.0737 129.575 19.9739 124.786C19.0906 120.94 20.1744 113.61 24.4272 111.76C26.5003 110.859 34.1151 110.177 34.4199 107.239C34.5769 105.722 31.8969 103.59 31.2785 102.286C30.1325 99.8694 29.0319 96.6556 28.7134 94.0072C28.0913 88.8376 30.4361 83.0569 34.1713 79.5649C41.0234 73.1589 53.0796 69.8714 61.8935 73.9358C60.0309 66.8144 58.9066 60.671 59.8445 53.2633C60.6527 46.8816 64.4147 43.3111 69.5913 40.1323C78.425 34.7071 90.4377 32.5658 100.538 34.1433C102.834 34.5019 105.036 35.2709 107.161 35.8828C110.249 36.7717 113.945 36.4756 116.86 37.9199C118.974 38.9667 120.579 41.0521 122.435 42.4445C124.603 44.07 126.403 46.4962 127.909 48.7398C131.13 53.5378 129.871 62.4425 127.176 67.2587C126.598 68.2917 125.884 69.1613 124.928 69.8662C123.932 70.5998 122.414 70.8281 121.901 71.7796C120.587 74.2169 121.855 79.4934 122.03 82.1277C122.234 85.1866 120.689 87.4843 117.224 87.7282C115.219 87.8697 115.155 86.7056 114.195 89.1008C113.573 90.6534 113.008 92.3448 112.11 93.7681C110.259 96.7014 106.869 96.4151 103.78 96.3357C100.206 96.2434 96.6843 95.6781 93.1076 95.3213C94.0523 98.3508 96.6382 100.702 98.253 103.401C100.436 107.051 101.75 110.077 102.105 114.33C102.378 117.597 101.79 120.177 99.556 122.609C98.6314 123.616 97.8117 123.665 98.0413 124.826C98.1812 125.535 99.4049 126.703 99.838 127.268C100.984 128.764 102.314 130.137 103.322 131.734C107.202 137.879 108.348 147.247 108.358 154.401C108.358 154.729 108.533 155.426 108.388 155.766C108.281 156.016 107.467 156.81 107.455 156.878C107.296 157.798 108.192 159.375 109.598 159.531C111.075 159.694 113.779 158.461 115.153 158.056C117.351 157.407 119.592 156.928 121.785 156.262C125.327 155.186 128.854 154.328 132.455 153.485C134.082 153.104 135.719 152.787 137.351 152.431C139.211 152.026 140.075 151.243 141.035 153.136C141.858 154.761 141.346 155.056 143.341 154.237C145.321 153.423 147.257 152.415 149.19 151.497C152.601 149.877 156.662 148.434 159.604 146.044C164.511 142.056 166.328 135.705 171.025 131.473C172.333 130.295 173.113 130.274 173.94 128.642C174.825 126.895 175.282 124.655 175.747 122.775C176.562 119.485 177.142 116.183 177.881 112.895C178.802 108.8 180.792 105.091 182.245 101.184C182.81 99.6624 183.104 97.7278 184.016 96.36C184.258 95.9972 184.72 95.7928 184.909 95.4926C185.558 94.4622 185.551 94.1792 185.72 92.9395C186.507 87.1469 189.961 90.1942 193.736 91.5225C195.327 92.0822 202.88 95.712 199.996 98.1259C203.434 99.1242 208.94 98.5817 208.894 103.513C208.87 106.04 207.36 108.742 206.55 111.108C205.83 113.208 205.134 115.316 204.403 117.412C202.801 122.005 200.858 126.46 199.295 131.067C198.582 133.167 197.994 135.316 197.002 137.297C196.128 139.045 194.009 140.972 193.66 142.883C202.822 138.971 211.297 133.315 221.552 133.676C226.042 133.833 230.117 135.723 232.597 139.674C235.706 144.627 237.751 150.172 240.79 155.171C251.845 173.355 265.029 189.874 277.165 207.305C278.097 208.645 279.296 209.911 279.619 211.567C279.83 212.646 279.421 213.727 279.674 214.764C280.199 216.921 282.851 219.613 284.65 220.852C288.097 223.227 293.702 226.577 298.004 226.28C295.304 219.786 295.34 212.67 295.465 205.742C295.585 199.161 296.296 192.634 297.139 186.121C297.33 184.647 297.496 183.281 297.919 181.853C298.405 180.215 299.072 180.37 297.617 178.897C295.379 176.629 292.716 174.763 290.46 172.467C285.579 167.501 280.577 163.609 276.736 157.68C273.083 152.04 269.229 146.237 266.525 140.061C263.741 133.703 262.628 126.913 261.246 120.18C260.686 117.447 258.641 114.397 259.051 111.544C259.571 107.938 261.241 110.564 261.921 112.504C263.997 118.428 268.857 123.73 272.882 128.494C277.23 133.64 282.549 137.946 287.088 142.943C292.031 148.385 295.417 154.64 299.813 160.449C299.813 153.239 297.353 145.898 296.347 138.766C295.462 132.488 295.184 126.191 294.625 119.886C293.354 105.565 294.452 90.8213 296.235 76.6021C297.083 69.8491 296.602 63.2551 296.628 56.479C296.636 54.3224 295.744 49.3521 296.881 47.4383C299.058 43.7728 300.328 51.7879 300.438 52.9829C301.096 60.1016 299.915 67.141 300.519 74.2292C301.149 81.6313 302.517 88.8256 303.68 96.1421C304.941 104.064 306.994 111.807 308.959 119.577C311.023 127.735 312.758 136.064 315.052 144.157C315.671 141.613 314.803 138.488 314.632 135.897C314.387 132.189 313.909 128.481 313.867 124.764C313.801 118.839 313.755 112.805 314.09 106.908C314.42 101.096 314.32 95.0052 316.101 89.4055C316.947 86.7477 318.186 84.1547 319.399 81.6511C320.896 78.5639 321.425 75.5706 322.253 72.2872C322.963 69.4752 324.002 66.7374 324.475 63.8692C324.769 62.0854 325.589 56.8197 327.63 60.8092C328.815 63.1247 328.303 66.5575 328.336 69.0451C328.378 72.2343 327.89 75.3352 327.816 78.511C327.67 84.7419 327.565 90.9654 327.101 97.1859C326.614 103.712 327.039 109.561 328.28 115.992C329.638 123.031 330.035 130.085 330.739 137.21C331.101 140.889 331.713 144.547 332.008 148.231C332.165 150.182 331.363 155.777 332.76 157.166C332.895 153.787 333.862 150.405 334.596 147.112C335.465 143.211 335.815 139.111 336.456 135.154C337.493 128.743 339.505 122.622 340.836 116.283C343.58 103.217 345.86 86.4237 357.36 77.8712C358.865 76.7522 360.518 75.9262 362.145 75.0053C363.066 74.4839 364.434 73.1351 365.488 72.8998C366.638 72.6428 367.117 72.8424 367.583 74.1778C368.234 76.0394 367.045 76.909 365.935 78.2611C362.094 82.9399 360.453 88.9377 358.082 94.425C352.651 106.99 350.248 120.243 350.22 133.825C350.206 140.935 349.716 147.793 348.958 154.86C348.143 162.465 347.07 170.509 344.761 177.825C347.076 178.345 349.589 177.57 350.217 180.264C350.372 180.926 350.092 181.708 350.263 182.57C350.429 183.407 350.828 184.239 351.065 185.063C351.553 186.766 351.811 188.446 352.048 190.195C352.966 196.953 354.542 203.381 354.71 210.233C354.865 216.567 353.626 222.985 352.484 229.197C351.334 235.454 348.036 240.788 345.439 246.447C346.557 246.447 347.674 246.458 348.792 246.47Z" fill="#252422"/>
<path fillRule="evenodd" clipRule="evenodd" d="M201.824 232.086C200.592 232.435 194.647 233.093 194.648 234.96C194.649 236.08 200.586 236.058 201.637 236.179C201.699 234.815 201.761 233.451 201.824 232.086ZM214.947 244.971C218.373 245.623 223.023 244.706 225.214 241.683C226.237 240.27 226.722 238.122 227.056 236.436C227.374 234.83 228.356 230.821 227.688 229.315C226.868 227.466 218.996 229.398 216.703 229.611C212.704 229.98 208.568 230.024 204.566 229.763C204.566 233.898 204.355 237.929 206.785 241.489C208.539 244.057 211.832 244.664 214.947 244.971ZM214.258 250.079C210.536 248.716 206.627 249.602 204.203 245.602C203.588 244.587 203.07 243.496 202.698 242.369C202.516 241.875 202.375 241.369 202.274 240.851C202.464 239.736 202.056 239.422 201.05 239.908C199.077 239.524 196.914 240.88 194.835 240.48C189.794 239.511 190.71 232.284 194.093 229.782C194.761 229.288 195.429 229.15 196.194 228.906C197.88 228.368 198.793 228.969 200.335 228.816C201.581 228.693 201.924 227.385 203.263 226.809C204.14 226.432 205.358 226.461 206.28 226.423C211.105 226.224 215.945 226.226 220.801 225.912C223.066 225.765 225.511 226.124 227.73 225.737C228.768 225.555 228.619 224.863 229.603 225.47C230.621 226.099 230.182 228.423 230.13 229.35C229.833 234.71 229.514 240.458 226.645 245.144C224.021 249.431 218.856 249.87 214.258 250.079Z" fill="#252422"/>
<path fillRule="evenodd" clipRule="evenodd" d="M17.6609 251.556C18.8586 251.543 20.0559 251.531 21.2495 251.518C20.0503 251.531 18.8556 251.544 17.6609 251.556Z" fill="#252422"/>
<path fillRule="evenodd" clipRule="evenodd" d="M350.228 137.277C350.226 136.125 350.223 134.974 350.22 133.824C350.223 134.977 350.225 136.127 350.228 137.277Z" fill="#252422"/>
<path fillRule="evenodd" clipRule="evenodd" d="M45.5668 142.005C45.5631 143.127 45.5594 144.249 45.5557 145.368C45.559 144.245 45.5627 143.125 45.5668 142.005Z" fill="#252422"/>
<path fillRule="evenodd" clipRule="evenodd" d="M145.121 250.285C146.074 250.286 147.027 250.287 147.975 250.29C147.021 250.289 146.071 250.287 145.121 250.285Z" fill="#252422"/>
<path fillRule="evenodd" clipRule="evenodd" d="M87.2654 250.056C88.2183 250.059 89.1708 250.062 90.1192 250.066C89.1648 250.063 88.2153 250.059 87.2654 250.056Z" fill="#252422"/>
<path fillRule="evenodd" clipRule="evenodd" d="M295.591 203.473C295.55 204.23 295.507 204.986 295.466 205.742C295.508 204.984 295.55 204.228 295.591 203.473Z" fill="#252422"/>
<path fillRule="evenodd" clipRule="evenodd" d="M348.792 246.469C348.056 246.462 347.319 246.454 346.583 246.446C347.323 246.138 348.059 246.151 348.792 246.469Z" fill="#252422"/>
<path fillRule="evenodd" clipRule="evenodd" d="M283.417 249.822C283.945 249.814 284.474 249.805 284.997 249.796C284.467 249.804 283.942 249.813 283.417 249.822Z" fill="#252422"/>
<path fillRule="evenodd" clipRule="evenodd" d="M349.941 146.619C349.954 146.047 349.967 145.475 349.98 144.904C349.967 145.477 349.954 146.048 349.941 146.619Z" fill="#252422"/>
<path fillRule="evenodd" clipRule="evenodd" d="M300.519 74.2292C300.475 73.639 300.432 73.0491 300.388 72.4603C300.432 73.0509 300.475 73.6401 300.519 74.2292Z" fill="#252422"/>
<path fillRule="evenodd" clipRule="evenodd" d="M350.202 139.531C350.209 138.939 350.216 138.348 350.223 137.758C350.216 138.35 350.209 138.941 350.202 139.531Z" fill="#252422"/>
<path fillRule="evenodd" clipRule="evenodd" d="M184.004 249.088C184.474 249.095 184.944 249.102 185.41 249.108C184.939 249.1 184.471 249.094 184.004 249.088Z" fill="#252422"/>
<path fillRule="evenodd" clipRule="evenodd" d="M305.041 250.053C305.5 250.062 305.959 250.071 306.414 250.081C305.953 250.072 305.497 250.062 305.041 250.053Z" fill="#252422"/>
<path fillRule="evenodd" clipRule="evenodd" d="M354.657 208.453C354.624 207.933 354.591 207.415 354.559 206.897C354.592 207.416 354.625 207.934 354.657 208.453Z" fill="#252422"/>
<path fillRule="evenodd" clipRule="evenodd" d="M346.411 250.557C346.785 250.555 347.159 250.553 347.528 250.552C347.153 250.555 346.782 250.556 346.411 250.557Z" fill="#252422"/>
<path fillRule="evenodd" clipRule="evenodd" d="M295.468 250.076C295.838 250.067 296.208 250.058 296.575 250.05C296.203 250.059 295.835 250.068 295.468 250.076Z" fill="#252422"/>
<path fillRule="evenodd" clipRule="evenodd" d="M212.24 249.793C212.648 249.791 213.056 249.789 213.459 249.786C213.051 249.788 212.646 249.791 212.24 249.793Z" fill="#252422"/>
<path fillRule="evenodd" clipRule="evenodd" d="M118.252 249.792C118.64 249.795 119.027 249.798 119.41 249.801C119.022 249.799 118.637 249.795 118.252 249.792Z" fill="#252422"/>
<path fillRule="evenodd" clipRule="evenodd" d="M95.3879 249.854C95.7831 249.833 96.1775 249.81 96.5689 249.789C96.1726 249.811 95.7805 249.833 95.3879 249.854Z" fill="#252422"/>
<path fillRule="evenodd" clipRule="evenodd" d="M204.853 99.1764C204.265 99.1258 203.677 99.0751 203.089 99.0241C203.678 99.0655 204.3 98.7169 204.853 99.1764Z" fill="#252422"/>
<path fillRule="evenodd" clipRule="evenodd" d="M354.713 246.693C354.133 246.635 353.554 246.576 352.974 246.517C353.554 246.576 354.133 246.635 354.713 246.693Z" fill="#252422"/>
<path fillRule="evenodd" clipRule="evenodd" d="M314.28 102.749C314.241 103.257 314.202 103.766 314.163 104.273C314.202 103.764 314.241 103.256 314.28 102.749Z" fill="#252422"/>
<path fillRule="evenodd" clipRule="evenodd" d="M350.348 123.943C350.387 123.461 350.427 122.979 350.466 122.499C350.427 122.981 350.387 123.462 350.348 123.943Z" fill="#252422"/>
<path fillRule="evenodd" clipRule="evenodd" d="M314.049 110.634C314.007 111.141 313.965 111.649 313.924 112.154C313.966 111.646 314.007 111.14 314.049 110.634Z" fill="#252422"/>
<path fillRule="evenodd" clipRule="evenodd" d="M350.102 143.396C350.098 142.905 350.095 142.415 350.091 141.926C350.408 142.415 350.395 142.904 350.102 143.396Z" fill="#252422"/>
<path fillRule="evenodd" clipRule="evenodd" d="M295.599 213.828C295.595 214.319 295.591 214.811 295.586 215.301C295.261 214.805 295.326 214.315 295.599 213.828Z" fill="#252422"/>
<path fillRule="evenodd" clipRule="evenodd" d="M332.547 156.954C332.491 156.457 332.434 155.959 332.377 155.463C332.434 155.961 332.491 156.458 332.547 156.954Z" fill="#252422"/>
<path fillRule="evenodd" clipRule="evenodd" d="M26.6067 111.287C26.2224 111.796 25.6988 111.448 25.2419 111.509C25.6974 111.435 26.152 111.362 26.6067 111.287Z" fill="#252422"/>
<path fillRule="evenodd" clipRule="evenodd" d="M216.657 226.264C216.172 226.265 215.686 226.265 215.201 226.266C215.687 226.265 216.172 226.265 216.657 226.264Z" fill="#252422"/>
<path fillRule="evenodd" clipRule="evenodd" d="M294.233 113.376C294.278 113.79 294.323 114.203 294.369 114.615C294.323 114.201 294.278 113.788 294.233 113.376Z" fill="#252422"/>
<path fillRule="evenodd" clipRule="evenodd" d="M54.2672 72.323C53.779 72.3327 53.2909 72.3423 52.8027 72.352C53.2857 72.0675 53.7724 71.9852 54.2672 72.323Z" fill="#252422"/>
<path fillRule="evenodd" clipRule="evenodd" d="M314.037 117.784C314.005 118.218 313.973 118.651 313.942 119.082C313.974 118.649 314.005 118.217 314.037 117.784Z" fill="#252422"/>
<path fillRule="evenodd" clipRule="evenodd" d="M300.65 64.5757C300.688 64.1806 300.725 63.7855 300.763 63.3926C300.725 63.7884 300.688 64.1821 300.65 64.5757Z" fill="#252422"/>
<path fillRule="evenodd" clipRule="evenodd" d="M296.814 63.3378C296.776 63.7664 296.737 64.1954 296.699 64.6225C296.738 64.1932 296.776 63.7653 296.814 63.3378Z" fill="#252422"/>
<path fillRule="evenodd" clipRule="evenodd" d="M84.7737 34.7036C84.277 34.7639 83.7803 34.8243 83.2839 34.8842C83.7806 34.8239 84.277 34.7639 84.7737 34.7036Z" fill="#252422"/>
<path fillRule="evenodd" clipRule="evenodd" d="M48.897 72.6641C48.3873 72.7162 47.8775 72.7683 47.3682 72.8205C47.8779 72.7683 48.3876 72.7162 48.897 72.6641Z" fill="#252422"/>
<path fillRule="evenodd" clipRule="evenodd" d="M328.223 73.9206C328.254 73.5218 328.285 73.1226 328.316 72.726C328.285 73.1252 328.254 73.5229 328.223 73.9206Z" fill="#252422"/>
<path fillRule="evenodd" clipRule="evenodd" d="M32.1667 139.744C32.4603 139.748 32.7535 139.752 33.0426 139.757C32.7479 139.752 32.4573 139.748 32.1667 139.744Z" fill="#252422"/>
<path fillRule="evenodd" clipRule="evenodd" d="M296.829 188.969C296.799 189.411 296.77 189.852 296.74 190.293C296.77 189.851 296.8 189.41 296.829 188.969Z" fill="#252422"/>
<path fillRule="evenodd" clipRule="evenodd" d="M326.775 103.02C326.763 102.594 326.752 102.169 326.74 101.744C326.752 102.17 326.764 102.595 326.775 103.02Z" fill="#252422"/>
<path fillRule="evenodd" clipRule="evenodd" d="M97.2774 33.6964C96.8246 33.6964 96.3717 33.6968 95.9197 33.6968C96.3725 33.3855 96.8249 33.3933 97.2774 33.6964Z" fill="#252422"/>
<path fillRule="evenodd" clipRule="evenodd" d="M218.167 133.88C217.671 133.892 217.175 133.905 216.68 133.918C217.167 133.573 217.663 133.564 218.167 133.88Z" fill="#252422"/>
<path fillRule="evenodd" clipRule="evenodd" d="M261.51 249.071C261.803 249.077 262.098 249.083 262.388 249.09C262.093 249.084 261.801 249.077 261.51 249.071Z" fill="#252422"/>
<path fillRule="evenodd" clipRule="evenodd" d="M272.581 249.588C272.875 249.577 273.168 249.567 273.458 249.557C273.163 249.567 272.872 249.578 272.581 249.588Z" fill="#252422"/>
<path fillRule="evenodd" clipRule="evenodd" d="M99.3096 249.792C99.6158 249.8 99.922 249.808 100.224 249.815C99.9168 249.808 99.6132 249.8 99.3096 249.792Z" fill="#252422"/>
<path fillRule="evenodd" clipRule="evenodd" d="M354.403 203.528C354.359 203.107 354.316 202.686 354.272 202.267C354.316 202.688 354.359 203.108 354.403 203.528Z" fill="#252422"/>
<path fillRule="evenodd" clipRule="evenodd" d="M314.412 132.587C314.447 132.988 314.481 133.389 314.515 133.788C314.481 133.386 314.446 132.987 314.412 132.587Z" fill="#252422"/>
<path fillRule="evenodd" clipRule="evenodd" d="M329.802 125.701C329.754 125.276 329.707 124.851 329.659 124.427C329.707 124.852 329.754 125.277 329.802 125.701Z" fill="#252422"/>
<path fillRule="evenodd" clipRule="evenodd" d="M101.794 250.046C102.103 250.041 102.412 250.036 102.717 250.032C102.407 250.037 102.101 250.041 101.794 250.046Z" fill="#252422"/>
<path fillRule="evenodd" clipRule="evenodd" d="M214.258 250.079C214.559 250.066 214.859 250.052 215.156 250.039C214.855 250.053 214.556 250.066 214.258 250.079Z" fill="#252422"/>
<path fillRule="evenodd" clipRule="evenodd" d="M327.29 94.6473C327.276 94.2165 327.263 93.7856 327.249 93.3555C327.263 93.7867 327.276 94.2168 327.29 94.6473Z" fill="#252422"/>
<path fillRule="evenodd" clipRule="evenodd" d="M72.511 250.327C72.8124 250.325 73.1134 250.323 73.4107 250.321C73.1078 250.323 72.8098 250.326 72.511 250.327Z" fill="#252422"/>
<path fillRule="evenodd" clipRule="evenodd" d="M327.164 250.323C327.474 250.326 327.784 250.329 328.089 250.333C327.778 250.33 327.471 250.326 327.164 250.323Z" fill="#252422"/>
<path fillRule="evenodd" clipRule="evenodd" d="M333.852 250.286C334.151 250.308 334.45 250.329 334.745 250.35C334.445 250.329 334.149 250.308 333.852 250.286Z" fill="#252422"/>
<path fillRule="evenodd" clipRule="evenodd" d="M336.553 250.281C336.858 250.29 337.162 250.299 337.463 250.306C337.157 250.297 336.855 250.289 336.553 250.281Z" fill="#252422"/>
<path fillRule="evenodd" clipRule="evenodd" d="M350.422 127.409C350.402 126.986 350.382 126.561 350.363 126.139C350.383 126.563 350.402 126.986 350.422 127.409Z" fill="#252422"/>
<path fillRule="evenodd" clipRule="evenodd" d="M146.032 244.726C146.958 244.678 147.884 244.629 148.811 244.581C147.884 244.629 146.958 244.677 146.032 244.726Z" fill="#252422"/>
<path fillRule="evenodd" clipRule="evenodd" d="M90.1509 90.6295C90.9549 90.6995 91.759 90.7695 92.5623 90.8388C91.7582 90.7692 90.9546 90.6992 90.1509 90.6295Z" fill="#252422"/>
<path fillRule="evenodd" clipRule="evenodd" d="M317.168 125.617C317.193 126.385 317.219 127.153 317.244 127.918C317.219 127.15 317.193 126.384 317.168 125.617Z" fill="#252422"/>
<path fillRule="evenodd" clipRule="evenodd" d="M333.762 246.039C334.601 246.09 335.44 246.141 336.28 246.192C335.435 246.23 334.578 246.471 333.762 246.039Z" fill="#252422"/>
<path fillRule="evenodd" clipRule="evenodd" d="M328.795 155.209C328.801 154.477 328.808 153.744 328.814 153.014C328.807 153.747 328.801 154.478 328.795 155.209Z" fill="#252422"/>
<path fillRule="evenodd" clipRule="evenodd" d="M326.646 178.223C327.383 178.233 328.12 178.243 328.856 178.253C328.119 178.243 327.383 178.233 326.646 178.223Z" fill="#252422"/>
<path fillRule="evenodd" clipRule="evenodd" d="M141.25 165.346C141.231 165.904 141.213 166.462 141.196 167.018C141.214 166.459 141.232 165.903 141.25 165.346Z" fill="#252422"/>
<path fillRule="evenodd" clipRule="evenodd" d="M338.904 141.708C338.874 142.264 338.843 142.819 338.814 143.372C338.844 142.816 338.874 142.262 338.904 141.708Z" fill="#252422"/>
<path fillRule="evenodd" clipRule="evenodd" d="M323.191 243.567C323.727 243.53 324.263 243.494 324.798 243.46C324.395 243.783 323.989 243.809 323.191 243.567Z" fill="#252422"/>
<path fillRule="evenodd" clipRule="evenodd" d="M319.606 170.95C319.643 171.549 319.679 172.148 319.716 172.745C319.679 172.146 319.643 171.548 319.606 170.95Z" fill="#252422"/>
<path fillRule="evenodd" clipRule="evenodd" d="M119.278 76.4349C119.283 75.8566 119.289 75.2782 119.295 74.7021C119.289 75.2812 119.284 75.8581 119.278 76.4349Z" fill="#252422"/>
<path fillRule="evenodd" clipRule="evenodd" d="M320.254 178.344L322.251 178.301C321.592 178.62 320.927 178.631 320.254 178.344Z" fill="#252422"/>
<path fillRule="evenodd" clipRule="evenodd" d="M338.677 182.612C338.206 182.617 337.736 182.62 337.268 182.625C337.74 182.621 338.209 182.617 338.677 182.612Z" fill="#252422"/>
<path fillRule="evenodd" clipRule="evenodd" d="M166.233 243.797C166.885 243.806 167.537 243.814 168.189 243.822C167.532 244.152 166.879 244.199 166.233 243.797Z" fill="#252422"/>
<path fillRule="evenodd" clipRule="evenodd" d="M317.398 130.549C317.43 131.15 317.463 131.751 317.495 132.35C317.463 131.748 317.43 131.149 317.398 130.549Z" fill="#252422"/>
<path fillRule="evenodd" clipRule="evenodd" d="M106.233 92.0405C106.79 91.7653 107.353 91.7191 107.92 92.0107C107.357 92.0208 106.795 92.0308 106.233 92.0405Z" fill="#252422"/>
<path fillRule="evenodd" clipRule="evenodd" d="M299.154 137.489C299.2 137.996 299.247 138.503 299.293 139.008C299.246 138.501 299.2 137.995 299.154 137.489Z" fill="#252422"/>
<path fillRule="evenodd" clipRule="evenodd" d="M346.268 125.659C345.982 125.163 345.992 124.669 346.282 124.181C346.278 124.674 346.273 125.167 346.268 125.659Z" fill="#252422"/>
<path fillRule="evenodd" clipRule="evenodd" d="M317.49 108.439C317.49 108.941 317.49 109.443 317.49 109.943C317.49 109.44 317.49 108.939 317.49 108.439Z" fill="#252422"/>
<path fillRule="evenodd" clipRule="evenodd" d="M337.482 177.984C338.056 177.808 338.63 177.559 339.202 177.99C338.629 177.988 338.056 177.986 337.482 177.984Z" fill="#252422"/>
<path fillRule="evenodd" clipRule="evenodd" d="M72.7729 244.5C73.302 244.267 73.83 244.145 74.3513 244.518C73.8248 244.512 73.2991 244.506 72.7729 244.5Z" fill="#252422"/>
<path fillRule="evenodd" clipRule="evenodd" d="M180.994 243.753C181.56 243.506 182.125 243.37 182.683 243.771C182.12 243.765 181.557 243.759 180.994 243.753Z" fill="#252422"/>
<path fillRule="evenodd" clipRule="evenodd" d="M55.053 170.494C55.0954 171.005 55.1382 171.516 55.1802 172.026C55.1374 171.514 55.095 171.004 55.053 170.494Z" fill="#252422"/>
<path fillRule="evenodd" clipRule="evenodd" d="M186.403 141.043C186.959 140.84 187.514 140.735 188.061 141.073C187.508 141.063 186.955 141.053 186.403 141.043Z" fill="#252422"/>
<path fillRule="evenodd" clipRule="evenodd" d="M317.389 156.263C317.42 156.763 317.451 157.262 317.482 157.761C317.451 157.261 317.42 156.762 317.389 156.263Z" fill="#252422"/>
<path fillRule="evenodd" clipRule="evenodd" d="M54.6932 111.169C54.6471 111.571 54.6009 111.974 54.5552 112.375C54.6013 111.971 54.6471 111.57 54.6932 111.169Z" fill="#252422"/>
<path fillRule="evenodd" clipRule="evenodd" d="M22.4302 227.912C22.4015 228.304 22.3732 228.696 22.345 229.085C22.3744 228.693 22.4023 228.302 22.4302 227.912Z" fill="#252422"/>
<path fillRule="evenodd" clipRule="evenodd" d="M329.042 158.908C329.011 158.502 328.979 158.097 328.948 157.694C328.979 158.1 329.011 158.504 329.042 158.908Z" fill="#252422"/>
<path fillRule="evenodd" clipRule="evenodd" d="M141.062 168.794C141.155 169.089 141.247 169.384 141.34 169.679C140.721 169.829 140.629 169.534 141.062 168.794Z" fill="#252422"/>
<path fillRule="evenodd" clipRule="evenodd" d="M178.251 140.376C178.755 140.374 179.259 140.372 179.762 140.37C179.259 140.609 178.756 140.773 178.251 140.376Z" fill="#252422"/>
<path fillRule="evenodd" clipRule="evenodd" d="M55.3354 172.915C55.3526 173.361 55.3697 173.809 55.386 174.254C55.3686 173.807 55.3518 173.361 55.3354 172.915Z" fill="#252422"/>
<path fillRule="evenodd" clipRule="evenodd" d="M300.377 177.626C300.395 178.038 300.413 178.449 300.432 178.858C300.414 178.446 300.395 178.036 300.377 177.626Z" fill="#252422"/>
<path fillRule="evenodd" clipRule="evenodd" d="M50.3416 245.491C50.8197 245.173 51.2989 245.201 51.7789 245.486C51.2996 245.487 50.8204 245.489 50.3416 245.491Z" fill="#252422"/>
<path fillRule="evenodd" clipRule="evenodd" d="M62.9316 105.42C62.9573 105.84 62.9834 106.261 63.0101 106.678C62.9845 106.257 62.9581 105.839 62.9316 105.42Z" fill="#252422"/>
<path fillRule="evenodd" clipRule="evenodd" d="M47.8538 245.534C48.3508 245.536 48.8479 245.538 49.3446 245.54C48.8461 245.88 48.3494 245.896 47.8538 245.534Z" fill="#252422"/>
<path fillRule="evenodd" clipRule="evenodd" d="M323.107 98.826C323.111 98.3993 323.115 97.9729 323.118 97.5472C323.114 97.9744 323.111 98.4 323.107 98.826Z" fill="#252422"/>
<path fillRule="evenodd" clipRule="evenodd" d="M94.8979 91.3632C95.3735 91.4253 95.849 91.4875 96.3241 91.5494C95.8486 91.4872 95.3731 91.4253 94.8979 91.3632Z" fill="#252422"/>
<path fillRule="evenodd" clipRule="evenodd" d="M52.9375 128.193C52.9438 128.591 52.9502 128.99 52.9576 129.387C52.9513 128.987 52.9446 128.59 52.9375 128.193Z" fill="#252422"/>
<path fillRule="evenodd" clipRule="evenodd" d="M326.308 128.135C326.282 127.73 326.256 127.324 326.23 126.92C326.256 127.326 326.283 127.731 326.308 128.135Z" fill="#252422"/>
<path fillRule="evenodd" clipRule="evenodd" d="M215.405 245.058C215.991 245.111 216.578 245.165 217.164 245.217C216.578 245.164 215.991 245.111 215.405 245.058Z" fill="#252422"/>
<path fillRule="evenodd" clipRule="evenodd" d="M213.444 229.856C213.127 229.861 212.81 229.866 212.496 229.872C212.814 229.868 213.129 229.862 213.444 229.856Z" fill="#252422"/>
<path fillRule="evenodd" clipRule="evenodd" d="M213.471 244.826C213.963 244.874 214.455 244.923 214.947 244.971C214.455 244.923 213.963 244.874 213.471 244.826Z" fill="#252422"/>
<path fillRule="evenodd" clipRule="evenodd" d="M124.91 211.657C125.551 215.278 119.928 218.819 119.482 213.672C119.319 211.789 120.577 210.466 121.985 209.315C123.984 207.682 125.101 209.246 124.91 211.657Z" fill="#252422"/>
<path fillRule="evenodd" clipRule="evenodd" d="M62.9335 167.477C64.258 168.019 74.378 171.32 69.1214 172.98C67.7298 173.42 65.6265 173.485 64.4203 172.711C62.9692 171.779 61.5055 169.03 62.9335 167.477Z" fill="#252422"/>
<path fillRule="evenodd" clipRule="evenodd" d="M65.4241 118.438C68.8591 118.039 72.0239 123.686 67.789 123.502C64.7064 123.369 60.5608 118.438 65.4241 118.438Z" fill="#252422"/>
<path fillRule="evenodd" clipRule="evenodd" d="M77.7117 132.284C80.58 134.788 75.2635 140.394 73.1528 138.224C72.0749 137.116 73.0691 134.729 73.9587 133.801C74.8717 132.85 76.4962 132.671 77.7117 132.284Z" fill="#252422"/>
<path fillRule="evenodd" clipRule="evenodd" d="M86.2507 197.217C84.5574 197.487 77.1108 199.922 78.6638 195.498C79.2561 193.811 80.9081 194.312 82.4184 194.389C84.8524 194.514 86.2507 194.397 86.2507 197.217Z" fill="#252422"/>
<path fillRule="evenodd" clipRule="evenodd" d="M81.3457 208.612C83.8807 209.969 80.1752 217.565 78.0741 215.949C75.159 213.706 79.1461 209.294 81.3457 208.612Z" fill="#252422"/>
<path fillRule="evenodd" clipRule="evenodd" d="M92.4015 202.505C93.6341 202.002 99.4448 207.596 97.2328 209.152C96.0991 209.95 93.9511 208.582 93.2676 207.758C91.9862 206.212 91.8701 204.304 92.4015 202.505Z" fill="#252422"/>
<path fillRule="evenodd" clipRule="evenodd" d="M58.8767 156.781C60.1366 156.988 62.3117 157.053 62.3932 158.825C62.4646 160.383 60.5139 160.887 59.1405 161.009C57.7155 161.136 55.8291 160.733 55.802 158.94C55.7733 157.006 58.8321 157.122 58.8767 156.781Z" fill="#252422"/>
<path fillRule="evenodd" clipRule="evenodd" d="M89.9439 233.886C91.2856 234.701 97.5438 237.637 94.8612 239.757C93.8573 240.551 90.8142 238.912 90.1292 238.079C89.3118 237.084 88.5129 234.755 89.9439 233.886Z" fill="#252422"/>
<path fillRule="evenodd" clipRule="evenodd" d="M107.341 212.587C107.147 209.347 112.609 208.058 111.476 212.657C111.157 213.953 110.848 215.921 109.247 215.997C107.354 216.086 107.285 213.844 107.341 212.587Z" fill="#252422"/>
<path fillRule="evenodd" clipRule="evenodd" d="M90.4707 156.248C90.5087 158.705 85.8035 160.873 85.767 156.977C85.7346 153.496 90.6463 152.477 90.4707 156.248Z" fill="#252422"/>
<path fillRule="evenodd" clipRule="evenodd" d="M87.3635 143.447C88.5229 143.821 90.0637 144.013 90.1656 145.488C90.2739 147.048 88.8258 147.742 87.5228 147.655C86.4542 147.583 84.8729 146.791 84.6787 145.631C84.394 143.928 86.055 143.816 87.3635 143.447Z" fill="#252422"/>
<path fillRule="evenodd" clipRule="evenodd" d="M65.805 188.445C65.7853 186.416 69.8461 183.979 70.5939 186.332C70.8332 187.085 68.9192 190.462 68.2826 190.715C66.5983 191.384 66.3631 189.824 65.805 188.445Z" fill="#252422"/>
<path fillRule="evenodd" clipRule="evenodd" d="M99.0811 222.2C97.7089 223.429 93.5927 226.882 93.9004 222.247C94.0969 219.285 99.4431 219.44 99.0811 222.2Z" fill="#252422"/>
<path fillRule="evenodd" clipRule="evenodd" d="M166.144 235.448C166.594 233.499 173.034 236.881 170.885 239.342C170.164 240.169 168.278 239.421 167.553 238.931C166.118 237.962 166.086 237.067 166.144 235.448Z" fill="#252422"/>
<path fillRule="evenodd" clipRule="evenodd" d="M130.264 193.726C130.515 192.857 130.794 191.321 131.622 190.766C133.121 189.763 134.426 191.276 134.426 192.871C134.426 195.847 131.042 196.785 130.264 193.726Z" fill="#252422"/>
<path fillRule="evenodd" clipRule="evenodd" d="M114.303 228.515C115.975 228.898 119.698 232.966 117.539 234.626C115.461 236.223 112.697 229.73 114.303 228.515Z" fill="#252422"/>
<path fillRule="evenodd" clipRule="evenodd" d="M115.895 197.722C118.044 197.894 120.999 201.378 117.658 201.932C115.044 202.365 112.004 198.576 115.895 197.722Z" fill="#252422"/>
<path fillRule="evenodd" clipRule="evenodd" d="M135.358 213.756C135.897 211.939 141.229 213.886 140.929 215.888C140.77 216.951 138.59 217.201 137.444 216.92C135.757 216.506 135.319 215.398 135.358 213.756Z" fill="#252422"/>
<path fillRule="evenodd" clipRule="evenodd" d="M72.5088 112.239C72.5475 109.889 77.0588 108.931 77.3892 111.299C77.688 113.439 72.4522 115.715 72.5088 112.239Z" fill="#252422"/>
<path fillRule="evenodd" clipRule="evenodd" d="M133.867 237.969C134.192 236.787 134.333 235.365 135.807 235.21C137.496 235.031 137.446 236.327 137.247 237.67C136.707 241.324 134.644 241.506 133.867 237.969Z" fill="#252422"/>
<path fillRule="evenodd" clipRule="evenodd" d="M62.6246 140.197C60.2728 140.728 55.9653 136.194 58.5981 135.221C60.4532 134.535 62.6246 138.829 62.6246 140.197Z" fill="#252422"/>
<path fillRule="evenodd" clipRule="evenodd" d="M92.6218 175.412C91.4248 175.976 91.1491 176.318 90.2297 175.392C89.429 174.586 89.4644 172.34 90.1516 171.501C92.7836 168.29 92.7218 174.112 92.6218 175.412Z" fill="#252422"/>
<path fillRule="evenodd" clipRule="evenodd" d="M102.387 168.898C103.635 169.057 107.345 172.579 105.413 173.978C103.046 175.693 101.707 170.321 102.387 168.898Z" fill="#252422"/>
<path fillRule="evenodd" clipRule="evenodd" d="M129.395 169.825C128.487 173.323 126.223 170.969 126.351 168.323C126.557 164.085 128.904 167.776 129.395 169.825Z" fill="#252422"/>
<path fillRule="evenodd" clipRule="evenodd" d="M143.166 225.992C144.701 226.628 146.785 232.502 144.592 232.817C142.129 233.17 142.949 227.215 143.166 225.992Z" fill="#252422"/>
<path fillRule="evenodd" clipRule="evenodd" d="M123.995 222.693C125.751 222.099 126.395 225.808 125.374 226.497C123.128 228.013 123.602 223.568 123.995 222.693Z" fill="#252422"/>
<path fillRule="evenodd" clipRule="evenodd" d="M107.341 212.587C107.319 213.08 107.297 213.572 107.274 214.061C107.296 213.568 107.318 213.078 107.341 212.587Z" fill="#252422"/>
<path fillRule="evenodd" clipRule="evenodd" d="M166.144 235.448C166.126 235.953 166.108 236.458 166.089 236.96C166.106 236.455 166.125 235.951 166.144 235.448Z" fill="#252422"/>
<path fillRule="evenodd" clipRule="evenodd" d="M135.358 213.756C135.348 214.185 135.338 214.613 135.326 215.039C135.336 214.609 135.347 214.183 135.358 213.756Z" fill="#252422"/>
<path fillRule="evenodd" clipRule="evenodd" d="M329.652 206.386C333.293 206.269 337.356 204.897 340.935 205.334C341.92 205.454 344.188 205.703 342.609 207.165C341.854 207.864 338.241 207.503 337.147 207.735C330.46 209.152 322.87 210.066 316.014 209.947C312.804 209.892 309.571 209.635 306.363 209.465C303.157 209.295 302.842 207.992 306.449 207.577C310.196 207.146 314.04 207.306 317.805 207.302C321.763 207.296 325.701 206.651 329.652 206.386Z" fill="#252422"/>
<path fillRule="evenodd" clipRule="evenodd" d="M337.647 197.604C337.296 198.603 336.988 200.896 335.645 201.046C333.764 201.256 333.453 198.024 333.522 196.841C333.606 195.414 334.119 193.044 335.891 193.538C337.388 193.955 337.538 196.462 337.647 197.604Z" fill="#252422"/>
<path fillRule="evenodd" clipRule="evenodd" d="M326.258 196.873C326.533 195.803 326.668 193.392 328.179 193.31C329.869 193.219 330.351 195.731 330.34 196.935C330.329 198.078 329.907 200.237 328.562 200.501C326.738 200.859 326.575 198.095 326.258 196.873Z" fill="#252422"/>
<path fillRule="evenodd" clipRule="evenodd" d="M307.291 198.792C306.744 200.077 306.382 201.848 304.688 200.971C303.379 200.293 303.196 197.56 303.443 196.308C303.699 195.011 304.241 193.524 305.73 194.107C307.447 194.78 307.273 197.376 307.291 198.792Z" fill="#252422"/>
<path fillRule="evenodd" clipRule="evenodd" d="M321.654 197.604C320.04 202.502 317.095 199.189 318.214 195.532C319.383 191.709 321.506 195.422 321.654 197.604Z" fill="#252422"/>
<path fillRule="evenodd" clipRule="evenodd" d="M313.788 197.847C313.34 198.709 312.863 200.57 311.655 200.374C310.173 200.133 310.125 197.28 310.288 196.217C310.43 195.287 310.847 193.736 312.087 193.756C313.879 193.785 313.759 196.73 313.788 197.847Z" fill="#252422"/>
<path fillRule="evenodd" clipRule="evenodd" d="M345.992 198.787C344.79 201.486 343.137 199.161 343.666 197.244C344.451 194.402 345.924 196.92 345.992 198.787Z" fill="#252422"/>
<path fillRule="evenodd" clipRule="evenodd" d="M316.56 207.305C315.247 207.3 313.934 207.295 312.622 207.29C313.935 207.042 315.249 206.946 316.56 207.305Z" fill="#252422"/>
<path fillRule="evenodd" clipRule="evenodd" d="M342.642 205.323C341.503 205.33 340.365 205.337 339.228 205.345C340.364 205.004 341.502 204.996 342.642 205.323Z" fill="#252422"/>
<path fillRule="evenodd" clipRule="evenodd" d="M307.291 198.792C307.283 198.137 307.274 197.482 307.266 196.829C307.603 197.48 307.58 198.134 307.291 198.792Z" fill="#252422"/>
<path fillRule="evenodd" clipRule="evenodd" d="M314.433 209.934C314.962 209.938 315.49 209.943 316.014 209.948C315.484 209.943 314.959 209.938 314.433 209.934Z" fill="#252422"/>
<path fillRule="evenodd" clipRule="evenodd" d="M305.561 209.465C306.096 209.465 306.631 209.465 307.163 209.465C306.625 209.465 306.093 209.465 305.561 209.465Z" fill="#252422"/>
<path fillRule="evenodd" clipRule="evenodd" d="M309.948 207.362C309.204 207.423 308.46 207.484 307.716 207.545C308.46 207.484 309.204 207.423 309.948 207.362Z" fill="#252422"/>
<path fillRule="evenodd" clipRule="evenodd" d="M320.009 207.297C319.274 207.298 318.54 207.3 317.805 207.301C318.539 206.991 319.274 206.982 320.009 207.297Z" fill="#252422"/>
<path fillRule="evenodd" clipRule="evenodd" d="M313.789 197.847C313.77 197.165 313.752 196.482 313.735 195.801C313.754 196.483 313.771 197.165 313.789 197.847Z" fill="#252422"/>
<path fillRule="evenodd" clipRule="evenodd" d="M303.444 196.308C303.439 196.974 303.435 197.639 303.43 198.302C303.434 197.636 303.439 196.972 303.444 196.308Z" fill="#252422"/>
<path fillRule="evenodd" clipRule="evenodd" d="M333.827 206.139C333.177 206.197 332.528 206.256 331.879 206.315C332.529 206.256 333.178 206.197 333.827 206.139Z" fill="#252422"/>
<path fillRule="evenodd" clipRule="evenodd" d="M345.992 198.787C345.971 198.206 345.95 197.625 345.929 197.044C345.95 197.626 345.971 198.206 345.992 198.787Z" fill="#252422"/>
<path fillRule="evenodd" clipRule="evenodd" d="M318.359 209.953C318.811 209.944 319.263 209.936 319.71 209.928C319.257 209.937 318.808 209.945 318.359 209.953Z" fill="#252422"/>
<path fillRule="evenodd" clipRule="evenodd" d="M337.647 197.604C337.607 197.187 337.567 196.768 337.528 196.352C337.567 196.771 337.607 197.187 337.647 197.604Z" fill="#252422"/>
<path fillRule="evenodd" clipRule="evenodd" d="M321.654 197.604C321.625 197.175 321.596 196.746 321.567 196.318C321.596 196.747 321.625 197.176 321.654 197.604Z" fill="#252422"/>
<path fillRule="evenodd" clipRule="evenodd" d="M88.5018 71.5372C86.7237 71.0702 86.3903 68.5692 86.676 67.033C87.0001 66.2927 87.3242 65.5528 87.6482 64.8124C87.5214 64.5387 87.3949 64.265 87.2684 63.9913C87.431 62.4667 87.0154 61.8042 88.7659 62.4216C92.0178 63.5694 92.5376 71.4195 88.5018 71.5372Z" fill="#252422"/>
<path fillRule="evenodd" clipRule="evenodd" d="M114.823 66.7016C116.288 66.5861 118.948 68.2936 117.49 69.9455C116.587 70.9689 113.61 70.4848 112.395 70.6985C110.785 70.9819 109.105 71.3696 109.976 68.955C110.66 67.0587 113.104 66.6521 114.823 66.7016Z" fill="#252422"/>
<path fillRule="evenodd" clipRule="evenodd" d="M113.281 78.059C111.793 76.8647 112.458 71.4251 114.722 72.4038C117.052 73.4111 114.523 77.274 113.281 78.059Z" fill="#252422"/>
<path fillRule="evenodd" clipRule="evenodd" d="M86.676 67.0331C86.676 67.6055 86.6756 68.1782 86.6745 68.748C86.3642 68.1745 86.3739 67.6036 86.676 67.0331Z" fill="#252422"/>
<path fillRule="evenodd" clipRule="evenodd" d="M88.5017 71.5372C88.8049 71.5286 89.1086 71.5197 89.4081 71.5118C89.1033 71.5215 88.8027 71.5293 88.5017 71.5372Z" fill="#252422"/>
<path fillRule="evenodd" clipRule="evenodd" d="M272.223 228.192C272.084 230.666 269.429 228.837 269.618 227.182C269.96 224.178 271.657 227.146 272.223 228.192Z" fill="#252422"/>
</svg>
