<svg xmlns="http://www.w3.org/2000/svg" version="1.1" xmlns:xlink="http://www.w3.org/1999/xlink" xmlns:svgjs="http://svgjs.com/svgjs" width="512" height="512" x="0" y="0" viewBox="0 0 512 512" style="enable-background:new 0 0 512 512" xml:space="preserve" className=""><g><path d="M75 276H43.5C27.76 276 15 263.24 15 247.5v0c0-17.397 14.103-31.5 31.5-31.5H75v60zM468.5 276H437v-60h28.5c17.397 0 31.5 14.103 31.5 31.5v0c0 15.74-12.76 28.5-28.5 28.5zM377 476H135c-33.137 0-60-26.863-60-60V156h362v260c0 33.137-26.863 60-60 60zM437 416H75M377 96H135c-33.137 0-60 26.863-60 60v0h362v0c0-33.137-26.863-60-60-60zM45 156h422M216 36h80v60h-80z" style="strokeWidth:30;strokeLinecap:round;strokeLinejoin:round;strokeMiterlimit:10;" fill="none" stroke="#d27722" strokeWidth="30" strokeLinecap="round" strokeLinejoin="round" strokeMiterlimit="10" data-original="#000000"></path><path d="M256 229.137h0c-17.516-17.516-45.915-17.516-63.431 0h0c-17.516 17.516-17.516 45.915 0 63.431L256 356l63.431-63.431c17.516-17.516 17.516-45.915 0-63.431h0c-17.516-17.517-45.915-17.517-63.431-.001h0zM196 36h120" style="strokeWidth:30;strokeLinecap:round;strokeLinejoin:round;strokeMiterlimit:10;" fill="none" stroke="#d27722" strokeWidth="30" strokeLinecap="round" strokeLinejoin="round" strokeMiterlimit="10" data-original="#000000"></path></g></svg>