<svg width="87" height="24" viewBox="0 0 87 24" fill="none" xmlns="http://www.w3.org/2000/svg">
<path d="M10.424 23.32C7.37333 23.32 4.984 22.584 3.256 21.112C1.54933 19.6187 0.642667 17.464 0.536 14.648C0.514667 14.072 0.504 13.1333 0.504 11.832C0.504 10.5093 0.514667 9.54933 0.536 8.952C0.642667 6.17867 1.57067 4.04533 3.32 2.552C5.06933 1.03733 7.43733 0.279999 10.424 0.279999C12.3013 0.279999 13.9867 0.599999 15.48 1.24C16.9733 1.85867 18.1467 2.75467 19 3.928C19.8747 5.08 20.3227 6.43467 20.344 7.992V8.056C20.344 8.22667 20.2693 8.376 20.12 8.504C19.992 8.61067 19.8427 8.664 19.672 8.664H15.352C15.0747 8.664 14.8613 8.61067 14.712 8.504C14.5627 8.376 14.4347 8.152 14.328 7.832C14.0293 6.744 13.56 5.98667 12.92 5.56C12.28 5.112 11.4373 4.888 10.392 4.888C7.87467 4.888 6.57333 6.296 6.488 9.112C6.46667 9.688 6.456 10.5733 6.456 11.768C6.456 12.9627 6.46667 13.8693 6.488 14.488C6.57333 17.304 7.87467 18.712 10.392 18.712C11.4373 18.712 12.2907 18.488 12.952 18.04C13.6133 17.5707 14.072 16.8133 14.328 15.768C14.4133 15.448 14.5307 15.2347 14.68 15.128C14.8293 15 15.0533 14.936 15.352 14.936H19.672C19.864 14.936 20.024 15 20.152 15.128C20.3013 15.256 20.3653 15.416 20.344 15.608C20.3227 17.1653 19.8747 18.5307 19 19.704C18.1467 20.856 16.9733 21.752 15.48 22.392C13.9867 23.0107 12.3013 23.32 10.424 23.32ZM32.2208 23.32C29.2128 23.32 26.8448 22.584 25.1168 21.112C23.3888 19.64 22.4714 17.4747 22.3648 14.616C22.3434 13.9973 22.3328 13.08 22.3328 11.864C22.3328 10.6267 22.3434 9.69867 22.3648 9.08C22.4714 6.264 23.3994 4.09867 25.1488 2.584C26.9194 1.048 29.2768 0.279999 32.2208 0.279999C35.1648 0.279999 37.5221 1.048 39.2928 2.584C41.0634 4.09867 41.9914 6.264 42.0768 9.08C42.1194 10.3173 42.1408 11.2453 42.1408 11.864C42.1408 12.4613 42.1194 13.3787 42.0768 14.616C41.9701 17.4747 41.0528 19.64 39.3248 21.112C37.5968 22.584 35.2288 23.32 32.2208 23.32ZM32.2208 18.712C33.3941 18.712 34.3221 18.36 35.0048 17.656C35.7088 16.952 36.0821 15.8747 36.1248 14.424C36.1674 13.1867 36.1888 12.312 36.1888 11.8C36.1888 11.2453 36.1674 10.3707 36.1248 9.176C36.0821 7.72533 35.7088 6.648 35.0048 5.944C34.3008 5.24 33.3728 4.888 32.2208 4.888C31.0688 4.888 30.1408 5.24 29.4368 5.944C28.7541 6.648 28.3808 7.72533 28.3168 9.176C28.2954 9.77333 28.2848 10.648 28.2848 11.8C28.2848 12.9307 28.2954 13.8053 28.3168 14.424C28.3808 15.8747 28.7541 16.952 29.4368 17.656C30.1194 18.36 31.0474 18.712 32.2208 18.712ZM54.362 23.32C51.354 23.32 48.986 22.584 47.258 21.112C45.53 19.64 44.6127 17.4747 44.506 14.616C44.4847 13.9973 44.474 13.08 44.474 11.864C44.474 10.6267 44.4847 9.69867 44.506 9.08C44.6127 6.264 45.5407 4.09867 47.29 2.584C49.0607 1.048 51.418 0.279999 54.362 0.279999C57.306 0.279999 59.6633 1.048 61.434 2.584C63.2047 4.09867 64.1327 6.264 64.218 9.08C64.2607 10.3173 64.282 11.2453 64.282 11.864C64.282 12.4613 64.2607 13.3787 64.218 14.616C64.1113 17.4747 63.194 19.64 61.466 21.112C59.738 22.584 57.37 23.32 54.362 23.32ZM54.362 18.712C55.5353 18.712 56.4633 18.36 57.146 17.656C57.85 16.952 58.2233 15.8747 58.266 14.424C58.3087 13.1867 58.33 12.312 58.33 11.8C58.33 11.2453 58.3087 10.3707 58.266 9.176C58.2233 7.72533 57.85 6.648 57.146 5.944C56.442 5.24 55.514 4.888 54.362 4.888C53.21 4.888 52.282 5.24 51.578 5.944C50.8953 6.648 50.522 7.72533 50.458 9.176C50.4367 9.77333 50.426 10.648 50.426 11.8C50.426 12.9307 50.4367 13.8053 50.458 14.424C50.522 15.8747 50.8953 16.952 51.578 17.656C52.2607 18.36 53.1887 18.712 54.362 18.712ZM68.1513 23C67.9379 23 67.7459 22.9253 67.5753 22.776C67.4259 22.6053 67.3513 22.4133 67.3513 22.2V1.4C67.3513 1.16533 67.4259 0.973332 67.5753 0.823999C67.7459 0.674665 67.9379 0.599998 68.1513 0.599998H72.1833C72.4179 0.599998 72.6099 0.674665 72.7593 0.823999C72.9086 0.973332 72.9833 1.16533 72.9833 1.4V8.504L78.9033 1.208C79.1593 0.802665 79.5753 0.599998 80.1513 0.599998H84.7593C84.9513 0.599998 85.1113 0.674665 85.2393 0.823999C85.3673 0.951999 85.4313 1.10133 85.4313 1.272C85.4313 1.42133 85.3993 1.54933 85.3353 1.656L77.6553 11.32L85.9113 21.944C85.9966 22.0293 86.0393 22.1573 86.0393 22.328C86.0393 22.4987 85.9753 22.6587 85.8473 22.808C85.7193 22.936 85.5593 23 85.3673 23H80.5993C80.0873 23 79.6606 22.7867 79.3193 22.36L72.9833 14.456V22.2C72.9833 22.4347 72.9086 22.6267 72.7593 22.776C72.6099 22.9253 72.4179 23 72.1833 23H68.1513Z" fill="#FFDBB8"/>
</svg>
