<svg xmlns="http://www.w3.org/2000/svg" version="1.1" xmlns:xlink="http://www.w3.org/1999/xlink" xmlns:svgjs="http://svgjs.com/svgjs" width="512" height="512" x="0" y="0" viewBox="0 0 512 512" style="enable-background:new 0 0 512 512" xml:space="preserve" className=""><g><path d="M437.018 74.982C388.666 26.628 324.379 0 255.998 0S123.332 26.629 74.981 74.982C26.63 123.334.001 187.621.001 256.002s26.628 132.667 74.98 181.019C123.332 485.372 187.618 512 255.998 512s132.667-26.628 181.02-74.98c48.353-48.351 74.981-112.638 74.981-181.019s-26.628-132.667-74.981-181.019zm-81.298-1.275c3.666-3.595 7.392-7.251 10.862-10.855a223.814 223.814 0 0 1 40.047 29.399c-.06.082-.124.175-.177.242-2.208-.214-5.189-1.191-8.329-2.222-6.078-1.993-13.646-4.471-22.419-3.769-8.55.687-15.724 4.22-21.489 7.058-2.67 1.314-7.106 3.499-8.632 3.507-1.559-.748-4.793-4.887-6.079-6.541 3.991-4.829 10.198-10.916 16.216-16.819zM185.755 44.756c3.972 12.127 8.509 23.571 12.951 34.461 3.65 8.947 7.787 19.086 6.941 27.398-.344 3.371-.932 5.013-1.223 5.653-1.487.477-5.039.775-7.465.977-7.623.636-18.063 1.507-27.724 8.291-1.897 1.331-3.598 2.661-5.245 3.947-2.775 2.167-5.644 4.409-7.448 4.914-1.782.499-5.352.092-8.802-.301-2.542-.289-5.423-.618-8.459-.718-9.309-.314-32.07 3.647-42.928 17.828-5.601 7.313-7.211 16.162-4.534 24.921 1.986 6.495 6.164 10.924 9.582 14.059 14.943 13.7 35.422 23.399 56.188 26.612 2.898.449 5.658.786 8.327 1.113 14.408 1.763 18.469 2.938 22.178 9.622 1.129 2.035 2.138 4.709 3.208 7.542 1.337 3.543 2.853 7.557 5.059 11.604 7.111 13.041 19.376 20.697 31.984 19.965 9.384-.54 16.072-5.267 20.957-8.718 1.705-1.205 3.469-2.452 4.506-2.884 1.976-.823 6.728.046 12.502 3.893 5.636 3.758 9.5 8.13 10.88 12.311.997 3.025.343 6.47-.974 7.583l-30.579 26.118c-7.859 6.713-22.488 19.208-22.941 38.068-.13 5.427.919 10.312 1.844 14.622.18.837.397 1.849.588 2.826-2.866.703-6.368 1.602-10.026 3.448-18.567 9.374-20.236 30.755-21.233 43.529-.292 3.733-1.037 6.631-1.785 8.606-.415-.779-.8-1.704-1.064-2.734-.717-2.799-1.082-6.187-1.469-9.775-.631-5.853-1.347-12.487-3.812-19.32-3.174-8.797-8.44-15.711-13.087-21.809-4.046-5.31-7.54-9.897-8.543-14.134-.753-3.187-.395-7.693-.017-12.465.575-7.237 1.228-15.441-1.197-24.261-3.449-12.548-11.538-21.035-18.674-28.522-4.037-4.235-7.85-8.236-9.88-12.112-2.028-3.869-1.881-8.012-1.447-15.001.415-6.694.932-15.024-2.04-23.732-3.22-9.432-10.527-14.663-15.424-18.17a250.963 250.963 0 0 1-35.795-31.157c-5.43-5.718-10.714-11.88-12.597-18.209a186.063 186.063 0 0 1-1.282-4.525c-1.131-4.139-2.098-6.725-3.731-9.226 26.943-47.714 70.973-84.548 123.73-102.138zm70.243 433.853c-122.746 0-222.606-99.862-222.606-222.607 0-23.651 3.721-46.447 10.585-67.848 3.564 5.1 7.588 9.634 11.448 13.697a284.699 284.699 0 0 0 40.629 35.356c1.085.777 2.63 1.883 3.435 2.607.55 2.459.329 6 .08 10.033-.53 8.547-1.257 20.252 5.198 32.569 4.205 8.024 10.092 14.2 15.286 19.65 5.058 5.307 9.426 9.889 10.647 14.334.87 3.168.5 7.829.107 12.765-.54 6.798-1.153 14.505.808 22.796 2.636 11.143 8.927 19.4 14.477 26.685 3.499 4.592 6.804 8.931 8.238 12.903 1.105 3.065 1.552 7.197 2.023 11.571.473 4.385 1.01 9.355 2.32 14.473 3.926 15.336 16.655 30.052 33.831 30.051.915 0 1.846-.042 2.786-.128 17.786-1.625 29.999-17.517 31.871-41.477.303-3.878 1.101-14.101 3.079-16.356.612-.244 2.103-.609 3.209-.879 4.705-1.152 11.814-2.894 17.688-8.91 10.819-11.08 7.836-24.971 6.053-33.27-.536-2.499-1.145-5.333-1.11-6.81.095-3.955 8.196-10.874 11.246-13.479l30.516-26.066c11.881-10.047 16.325-27.524 11.059-43.487-3.76-11.396-12.082-21.643-24.069-29.635-14.789-9.857-30.778-12.384-43.861-6.933-4.449 1.853-8.046 4.395-10.937 6.438-.875.619-2.028 1.434-2.966 2.029a10.552 10.552 0 0 1-1.389-1.99c-1.1-2.018-2.088-4.638-3.135-7.412-1.378-3.65-2.94-7.788-5.251-11.953-12.367-22.285-32.569-24.757-47.319-26.561-2.521-.308-4.903-.6-7.278-.967-12.417-1.921-25.049-7.373-34.746-14.875 3.554-1.278 7.898-2.263 10.236-2.172 1.692.056 3.675.282 5.777.521 6.023.687 13.516 1.54 21.592-.724 8.153-2.285 14.164-6.98 18.993-10.752 1.378-1.076 2.679-2.093 3.879-2.935 2.26-1.586 6.657-1.953 11.312-2.342 11.593-.968 35.716-2.981 39.131-36.524 1.69-16.596-4.372-31.454-9.243-43.393-4.051-9.932-7.982-19.79-11.412-29.991A223.467 223.467 0 0 1 256 33.392c27.634 0 54.101 5.077 78.538 14.32-.732.72-1.466 1.439-2.197 2.156-7.421 7.278-15.095 14.805-20.376 21.642-2.233 2.891-5.969 7.728-7.071 14.694-1.867 11.818 5.2 20.897 8.218 24.773 4.484 5.763 11.992 15.409 24.393 18.502a33 33 0 0 0 8.01.986c9.344 0 17.292-3.913 23.454-6.948 3.548-1.747 7.217-3.554 9.41-3.73 2.088-.171 5.774 1.044 9.345 2.214 5.214 1.71 11.123 3.646 18.084 3.899.42.016.835.023 1.251.023 8.644-.001 16.319-3.292 22.402-9.272 14.782 18.364 26.714 39.11 35.116 61.568-1.19.031-2.402.048-3.484.061-3.272.041-6.982.088-11.023.398-9.325.717-16.629-1.99-25.878-5.418-6.35-2.353-13.548-5.021-21.987-6.698-22.742-4.519-46.069 7.879-59.43 31.587-3.891 6.904-22.498 42.451-6.665 64.26 5.936 8.176 13.878 12.937 20.261 16.761 8.564 5.133 17.418 10.44 27.45 14.488 2.136.862 4.251 1.643 6.295 2.397 6.084 2.246 12.376 4.569 14.626 7.65 1.261 1.726 2.577 5.614 1.68 14.325-.601 5.827-2.933 12.186-5.402 18.918-6.082 16.586-14.413 39.304 5.108 61.608a55.297 55.297 0 0 0 11.717 10.122c-40.617 43.03-98.147 69.931-161.847 69.931zm175.256-102.043c-5.719-6.535-4.954-11.571 1.114-28.122 2.924-7.974 6.237-17.01 7.266-26.991 1.616-15.68-.979-27.929-7.934-37.447-8.194-11.216-20.297-15.685-30.023-19.274-1.899-.701-3.692-1.364-5.367-2.039-7.604-3.068-14.974-7.485-22.777-12.162-4.001-2.398-8.133-4.874-10.163-7.421-1.183-4.102 2.253-17.496 8.492-28.568 5.035-8.937 14.353-17.117 23.83-15.23 5.836 1.16 11.206 3.15 16.893 5.258 10.977 4.068 23.417 8.675 40.044 7.401 2.972-.229 5.977-.267 8.882-.303 4.127-.051 8.334-.106 12.514-.713a222.715 222.715 0 0 1 4.582 45.047c.001 46.857-14.563 90.368-39.385 126.273-2.984-1.196-5.681-3.096-7.968-5.709z" fill="#d27722" data-original="#000000" className=""></path></g></svg>