<svg width="27" height="26" viewBox="0 0 27 26" fill="none" xmlns="http://www.w3.org/2000/svg">
<g clipPath="url(#clip0_634_45489)">
<path d="M26.4 1.625V10.1298C26.4 10.5608 26.2288 10.9741 25.9241 11.2789C25.6193 11.5836 25.206 11.7548 24.775 11.7548C24.344 11.7548 23.9307 11.5836 23.626 11.2789C23.3212 10.9741 23.15 10.5608 23.15 10.1298V5.54811L17.1003 11.5979C16.7951 11.9007 16.3824 12.0703 15.9525 12.0694C15.5226 12.0686 15.1106 11.8975 14.8066 11.5935C14.5026 11.2895 14.3314 10.8775 14.3306 10.4476C14.3298 10.0177 14.4993 9.60497 14.8021 9.29982L20.852 3.25H16.2702C15.8392 3.25 15.4259 3.0788 15.1211 2.77405C14.8164 2.4693 14.6452 2.05598 14.6452 1.625C14.6452 1.19402 14.8164 0.780698 15.1211 0.475951C15.4259 0.171205 15.8392 0 16.2702 0L24.775 0C25.206 0 25.6193 0.171205 25.9241 0.475951C26.2288 0.780698 26.4 1.19402 26.4 1.625ZM0.400024 24.375C0.400024 24.806 0.571229 25.2193 0.875976 25.524C1.18072 25.8288 1.59405 26 2.02502 26H10.5299C10.9608 26 11.3742 25.8288 11.6789 25.524C11.9837 25.2193 12.1549 24.806 12.1549 24.375C12.1549 23.944 11.9837 23.5307 11.6789 23.226C11.3742 22.9212 10.9608 22.75 10.5299 22.75H5.94818L11.9979 16.7002C12.3027 16.3955 12.4739 15.9822 12.4739 15.5512C12.4739 15.1202 12.3027 14.7069 11.9979 14.4021C11.6932 14.0974 11.2798 13.9262 10.8489 13.9262C10.4179 13.9262 10.0045 14.0974 9.6998 14.4021L3.65002 20.4519V15.8702C3.65002 15.4392 3.47882 15.0259 3.17407 14.7212C2.86933 14.4164 2.456 14.2452 2.02502 14.2452C1.59405 14.2452 1.18072 14.4164 0.875976 14.7212C0.571229 15.0259 0.400024 15.4392 0.400024 15.8702L0.400024 24.375Z" fill="#D27722"/>
</g>
<defs>
<clipPath id="clip0_634_45489">
<rect width="26" height="26" fill="white" transform="translate(0.400024)"/>
</clipPath>
</defs>
</svg>
