<svg xmlns="http://www.w3.org/2000/svg" version="1.1" xmlns:xlink="http://www.w3.org/1999/xlink" xmlns:svgjs="http://svgjs.com/svgjs" width="512" height="512" x="0" y="0" viewBox="0 0 682.667 682.667" style="enable-background:new 0 0 512 512" xml:space="preserve" className=""><g><defs><clipPath id="a" clipPathUnits="userSpaceOnUse"><path d="M0 512h512V0H0Z" fill="#d27722" data-original="#000000" className=""></path></clipPath></defs><g clipPath="url(#a)" transform="matrix(1.33333 0 0 -1.33333 0 682.667)"><path d="M0 0c27.337-27.337 24.749-74.246 24.749-74.246s-46.91-2.588-74.247 24.749c-27.336 27.336-24.748 74.246-24.748 74.246S-27.336 27.337 0 0z" style="strokeWidth:30;strokeLinecap:round;strokeLinejoin:round;strokeMiterlimit:10;stroke-dasharray:none;stroke-opacity:1" transform="translate(160.185 472.185)" fill="none" stroke="#d27722" strokeWidth="30" strokeLinecap="round" strokeLinejoin="round" strokeMiterlimit="10" stroke-dasharray="none" stroke-opacity="" data-original="#000000" className=""></path><path d="M0 0v63.5c0 33.137 26.863 60 60 60" style="strokeWidth:30;strokeLinecap:round;strokeLinejoin:round;strokeMiterlimit:10;stroke-dasharray:none;stroke-opacity:1" transform="translate(185 333.5)" fill="none" stroke="#d27722" strokeWidth="30" strokeLinecap="round" strokeLinejoin="round" strokeMiterlimit="10" stroke-dasharray="none" stroke-opacity="" data-original="#000000" className=""></path><path d="M0 0v-39.779" style="strokeWidth:30;strokeLinecap:round;strokeLinejoin:round;strokeMiterlimit:10;stroke-dasharray:none;stroke-opacity:1" transform="translate(315 55)" fill="none" stroke="#d27722" strokeWidth="30" strokeLinecap="round" strokeLinejoin="round" strokeMiterlimit="10" stroke-dasharray="none" stroke-opacity="" data-original="#000000" className=""></path><path d="M0 0v37.5" style="strokeWidth:30;strokeLinecap:round;strokeLinejoin:round;strokeMiterlimit:10;stroke-dasharray:none;stroke-opacity:1" transform="translate(225 27.5)" fill="none" stroke="#d27722" strokeWidth="30" strokeLinecap="round" strokeLinejoin="round" strokeMiterlimit="10" stroke-dasharray="none" stroke-opacity="" data-original="#000000" className=""></path><path d="M0 0v-26.429" style="strokeWidth:30;strokeLinecap:round;strokeLinejoin:round;strokeMiterlimit:10;stroke-dasharray:none;stroke-opacity:1" transform="translate(135 70)" fill="none" stroke="#d27722" strokeWidth="30" strokeLinecap="round" strokeLinejoin="round" strokeMiterlimit="10" stroke-dasharray="none" stroke-opacity="" data-original="#000000" className=""></path><path d="M0 0v-30.357" style="strokeWidth:30;strokeLinecap:round;strokeLinejoin:round;strokeMiterlimit:10;stroke-dasharray:none;stroke-opacity:1" transform="translate(185 135.357)" fill="none" stroke="#d27722" strokeWidth="30" strokeLinecap="round" strokeLinejoin="round" strokeMiterlimit="10" stroke-dasharray="none" stroke-opacity="" data-original="#000000" className=""></path><path d="M0 0v-46.212" style="strokeWidth:30;strokeLinecap:round;strokeLinejoin:round;strokeMiterlimit:10;stroke-dasharray:none;stroke-opacity:1" transform="translate(275 151.212)" fill="none" stroke="#d27722" strokeWidth="30" strokeLinecap="round" strokeLinejoin="round" strokeMiterlimit="10" stroke-dasharray="none" stroke-opacity="" data-original="#000000" className=""></path><path d="M0 0c9.77-8.118 14.696-21.497 11.113-34.869C5.694-55.094-16.59-65.612-35.648-56.941l-60.543 27.542" style="strokeWidth:30;strokeLinecap:round;strokeLinejoin:round;strokeMiterlimit:10;stroke-dasharray:none;stroke-opacity:1" transform="translate(484.718 85)" fill="none" stroke="#d27722" strokeWidth="30" strokeLinecap="round" strokeLinejoin="round" strokeMiterlimit="10" stroke-dasharray="none" stroke-opacity="" data-original="#000000" className=""></path><path d="m0 0 60.543 27.542c19.059 8.671 41.343-1.848 46.762-22.072 5.42-20.226-8.619-40.477-29.461-42.498L4.915-44.099" style="strokeWidth:30;strokeLinecap:round;strokeLinejoin:round;strokeMiterlimit:10;stroke-dasharray:none;stroke-opacity:1" transform="translate(388.526 114.4)" fill="none" stroke="#d27722" strokeWidth="30" strokeLinecap="round" strokeLinejoin="round" strokeMiterlimit="10" stroke-dasharray="none" stroke-opacity="" data-original="#000000" className=""></path><path d="M0 0c8.62 25.253 13.63 53.997 13.63 82.04 0 77.32-38.056 120-85 120-17.249 0-33.286-5.781-46.68-16.92-10.487-8.721-26.154-8.721-36.64 0-13.394 11.139-29.431 16.92-46.68 16.92-46.944 0-85-42.68-85-120 0-44.769 12.759-91.332 32.613-122.604" style="strokeWidth:30;strokeLinecap:round;strokeLinejoin:round;strokeMiterlimit:10;stroke-dasharray:none;stroke-opacity:1" transform="translate(321.37 154.96)" fill="none" stroke="#d27722" strokeWidth="30" strokeLinecap="round" strokeLinejoin="round" strokeMiterlimit="10" stroke-dasharray="none" stroke-opacity="" data-original="#000000" className=""></path><path d="M0 0v0a338.747 338.747 0 0 1-59.533-5.273l-230.779-41.211C-301.704-48.519-310-58.427-310-70c0-11.573 8.296-21.481 19.688-23.516l230.779-41.211A338.747 338.747 0 0 1 0-140c38.66 0 70 31.34 70 70S38.66 0 0 0Z" style="strokeWidth:30;strokeLinecap:round;strokeLinejoin:round;strokeMiterlimit:10;stroke-dasharray:none;stroke-opacity:1" transform="translate(325 155)" fill="none" stroke="#d27722" strokeWidth="30" strokeLinecap="round" strokeLinejoin="round" strokeMiterlimit="10" stroke-dasharray="none" stroke-opacity="" data-original="#000000" className=""></path></g></g></svg>