<svg width="24" height="25" viewBox="0 0 24 25" fill="none" xmlns="http://www.w3.org/2000/svg">
<path d="M12 22.5C17.5228 22.5 22 18.0228 22 12.5C22 6.97715 17.5228 2.5 12 2.5C6.47715 2.5 2 6.97715 2 12.5C2 18.0228 6.47715 22.5 12 22.5Z" stroke="#FFDBB8" strokeWidth="2" strokeLinecap="round" strokeLinejoin="round"/>
<path d="M9.09003 9.50002C9.32513 8.83169 9.78918 8.26813 10.4 7.90915C11.0108 7.55018 11.7289 7.41896 12.4272 7.53873C13.1255 7.65851 13.7588 8.02154 14.2151 8.56355C14.6714 9.10555 14.9211 9.79154 14.92 10.5C14.92 12.5 11.92 13.5 11.92 13.5" stroke="#FFDBB8" strokeWidth="2" strokeLinecap="round" strokeLinejoin="round"/>
<path d="M12 17.5H12.01" stroke="#FFDBB8" strokeWidth="2" strokeLinecap="round" strokeLinejoin="round"/>
</svg>
