<svg xmlns="http://www.w3.org/2000/svg" version="1.1" xmlns:xlink="http://www.w3.org/1999/xlink" xmlns:svgjs="http://svgjs.com/svgjs" width="512" height="512" x="0" y="0" viewBox="0 0 682.667 682.667" style="enable-background:new 0 0 512 512" xml:space="preserve"><g><defs><clipPath id="a" clipPathUnits="userSpaceOnUse"><path d="M0 512h512V0H0Z" fill="#ffdbb8" data-original="#000000"></path></clipPath></defs><g clipPath="url(#a)" transform="matrix(1.33333 0 0 -1.33333 0 682.667)"><path d="M0 0c.068-11.131 9.151-20.1 20.286-20.032l11.01.068c11.141.068 20.114 9.155 20.039 20.292l-.001.117a20.154 20.154 0 0 1-8.169 16.066L8.082 42.465A20.154 20.154 0 0 0-.087 58.667v0c0 11.132 9.027 20.156 20.163 20.156h11.027c11.135 0 20.163-9.024 20.163-20.156" style="strokeWidth:30;strokeLinecap:round;strokeLinejoin:round;strokeMiterlimit:10;stroke-dasharray:none;stroke-opacity:1" transform="translate(306.257 355.946)" fill="none" stroke="#ffdbb8" strokeWidth="30" strokeLinecap="round" strokeLinejoin="round" strokeMiterlimit="10" stroke-dasharray="none" stroke-opacity="" data-original="#000000"></path><path d="M0 0v14.401" style="strokeWidth:30;strokeLinecap:round;strokeLinejoin:round;strokeMiterlimit:10;stroke-dasharray:none;stroke-opacity:1" transform="translate(331.88 434.769)" fill="none" stroke="#ffdbb8" strokeWidth="30" strokeLinecap="round" strokeLinejoin="round" strokeMiterlimit="10" stroke-dasharray="none" stroke-opacity="" data-original="#000000"></path><path d="M0 0v14.401" style="strokeWidth:30;strokeLinecap:round;strokeLinejoin:round;strokeMiterlimit:10;stroke-dasharray:none;stroke-opacity:1" transform="translate(331.88 321.512)" fill="none" stroke="#ffdbb8" strokeWidth="30" strokeLinecap="round" strokeLinejoin="round" strokeMiterlimit="10" stroke-dasharray="none" stroke-opacity="" data-original="#000000"></path><path d="M0 0c0-61.667-50.008-111.659-111.695-111.659-61.688 0-111.695 49.992-111.695 111.659 0 61.667 50.007 111.659 111.695 111.659C-50.008 111.659 0 61.667 0 0Z" style="strokeWidth:30;strokeLinecap:round;strokeLinejoin:round;strokeMiterlimit:10;stroke-dasharray:none;stroke-opacity:1" transform="translate(443.576 385.341)" fill="none" stroke="#ffdbb8" strokeWidth="30" strokeLinecap="round" strokeLinejoin="round" strokeMiterlimit="10" stroke-dasharray="none" stroke-opacity="" data-original="#000000"></path><path d="m0 0-50.075 146.463 82.763 28.278L82.762 28.277Z" style="strokeWidth:30;strokeLinecap:round;strokeLinejoin:round;strokeMiterlimit:10;stroke-dasharray:none;stroke-opacity:1" transform="translate(65.075 15)" fill="none" stroke="#ffdbb8" strokeWidth="30" strokeLinecap="round" strokeLinejoin="round" strokeMiterlimit="10" stroke-dasharray="none" stroke-opacity="" data-original="#000000"></path><path d="m0 0 74.964 50.15a33.862 33.862 0 0 0 19.447 6.13c10.152 0 20.176-4.54 26.849-13.13 11.853-15.25 8.602-37.3-7.133-48.5L15.095-75.79a156.49 156.49 0 0 0-90.74-28.99l-151.849-4.7" style="strokeWidth:30;strokeLinecap:round;strokeLinejoin:round;strokeMiterlimit:10;stroke-dasharray:none;stroke-opacity:1" transform="translate(368.597 172.46)" fill="none" stroke="#ffdbb8" strokeWidth="30" strokeLinecap="round" strokeLinejoin="round" strokeMiterlimit="10" stroke-dasharray="none" stroke-opacity="" data-original="#000000"></path><path d="M0 0h84.632a31.867 31.867 0 0 1 22.622 9.372c5.792 5.79 9.375 13.787 9.375 22.615 0 17.667-14.324 31.987-31.997 31.987H37.747" style="strokeWidth:30;strokeLinecap:round;strokeLinejoin:round;strokeMiterlimit:10;stroke-dasharray:none;stroke-opacity:1" transform="translate(251.97 142.68)" fill="none" stroke="#ffdbb8" strokeWidth="30" strokeLinecap="round" strokeLinejoin="round" strokeMiterlimit="10" stroke-dasharray="none" stroke-opacity="" data-original="#000000"></path><path d="M0 0c15.695 31.99 48.596 54.01 86.638 54.01 27.63 0 52.538-11.61 70.113-30.22" style="strokeWidth:30;strokeLinecap:round;strokeLinejoin:round;strokeMiterlimit:10;stroke-dasharray:none;stroke-opacity:1" transform="translate(132.965 182.86)" fill="none" stroke="#ffdbb8" strokeWidth="30" strokeLinecap="round" strokeLinejoin="round" strokeMiterlimit="10" stroke-dasharray="none" stroke-opacity="" data-original="#000000"></path><path d="m0 0-27.179-16.62" style="strokeWidth:30;strokeLinecap:round;strokeLinejoin:round;strokeMiterlimit:10;stroke-dasharray:none;stroke-opacity:1" transform="translate(132.97 182.86)" fill="none" stroke="#ffdbb8" strokeWidth="30" strokeLinecap="round" strokeLinejoin="round" strokeMiterlimit="10" stroke-dasharray="none" stroke-opacity="" data-original="#000000"></path></g></g></svg>