<svg xmlns="http://www.w3.org/2000/svg" version="1.1" xmlns:xlink="http://www.w3.org/1999/xlink" xmlns:svgjs="http://svgjs.com/svgjs" width="512" height="512" x="0" y="0" viewBox="0 0 64 64" style="enable-background:new 0 0 512 512" xml:space="preserve" className=""><g><path d="M62 47.25h-1.25v-6.22a1.749 1.749 0 0 0-1.37-1.708l-17.265-3.837A9.77 9.77 0 0 0 32 39.424a9.77 9.77 0 0 0-10.115-3.939L4.62 39.322a1.749 1.749 0 0 0-1.37 1.708v6.22H2A1.75 1.75 0 0 0 .25 49v7A1.75 1.75 0 0 0 2 57.75h22.944a8.223 8.223 0 0 0 14.112 0H62A1.75 1.75 0 0 0 63.75 56v-7A1.75 1.75 0 0 0 62 47.25Zm-25.911-7.122a6.223 6.223 0 0 1 5.266-1.228l15.9 3.532v4.818H33.75V45a6.222 6.222 0 0 1 2.339-4.872ZM6.75 42.434l15.9-3.532A6.25 6.25 0 0 1 30.25 45v2.25H6.75Zm53.5 11.816H38a1.748 1.748 0 0 0-1.565.968l-.211.422a4.723 4.723 0 0 1-8.448 0l-.211-.423A1.748 1.748 0 0 0 26 54.25H3.75v-3.5h56.5ZM42.75 13a10.75 10.75 0 1 0-17 8.736V23.5a6.25 6.25 0 0 0 12.5 0v-1.764A10.783 10.783 0 0 0 42.75 13Zm-8 10.5a2.75 2.75 0 0 1-5.5 0v-.964h5.5ZM36 19.036h-2.25V14a1.75 1.75 0 0 0-3.5 0v5.036H28a7.25 7.25 0 1 1 8 0Z" fill="#ffdbb8" data-original="#000000" className=""></path><rect width="7.5" height="3.5" x="43.982" y="4.25" rx="1.75" transform="rotate(-29.999 47.732 6.001)" fill="#ffdbb8" data-original="#000000" className=""></rect><rect width="3.5" height="7.5" x="45.982" y="16.25" rx="1.75" transform="rotate(-60 47.732 20.001)" fill="#ffdbb8" data-original="#000000" className=""></rect><rect width="3.5" height="7.5" x="14.518" y="2.25" rx="1.75" transform="rotate(-60 16.268 6)" fill="#ffdbb8" data-original="#000000" className=""></rect><rect width="7.5" height="3.5" x="12.518" y="18.25" rx="1.75" transform="rotate(-29.999 16.268 20)" fill="#ffdbb8" data-original="#000000" className=""></rect></g></svg>