<svg xmlns="http://www.w3.org/2000/svg" version="1.1" xmlns:xlink="http://www.w3.org/1999/xlink" xmlns:svgjs="http://svgjs.com/svgjs" width="512" height="512" x="0" y="0" viewBox="0 0 682.667 682.667" style="enable-background:new 0 0 512 512" xml:space="preserve" className=""><g><defs><clipPath id="a" clipPathUnits="userSpaceOnUse"><path d="M0 512h512V0H0Z" fill="#d27722" data-original="#000000" className=""></path></clipPath></defs><g clipPath="url(#a)" transform="matrix(1.33333 0 0 -1.33333 0 682.667)"><path d="M0 0c-28.478-145.458-124.33-266.785-253.729-330.154" style="strokeWidth:20;strokeLinecap:round;strokeLinejoin:round;strokeMiterlimit:10;stroke-dasharray:none;stroke-opacity:1" transform="translate(323.045 340.154)" fill="none" stroke="#d27722" strokeWidth="20" strokeLinecap="round" strokeLinejoin="round" strokeMiterlimit="10" stroke-dasharray="none" stroke-opacity="" data-original="#000000" className=""></path><path d="M0 0c0-31.662 10.412-60.299 27.208-80.923C44.003-60.299 54.415-31.662 54.415 0S44.003 60.299 27.208 80.923C10.412 60.299 0 31.662 0 0Z" style="strokeWidth:20;strokeLinecap:round;strokeLinejoin:round;strokeMiterlimit:10;stroke-dasharray:none;stroke-opacity:1" transform="translate(295.838 421.077)" fill="none" stroke="#d27722" strokeWidth="20" strokeLinecap="round" strokeLinejoin="round" strokeMiterlimit="10" stroke-dasharray="none" stroke-opacity="" data-original="#000000" className=""></path><path d="M0 0c-27.42-15.831-47.015-39.166-56.478-64.024 26.26-4.234 56.265 1.068 83.686 16.899 27.42 15.831 47.014 39.166 56.477 64.023C57.426 21.133 27.42 15.831 0 0Z" style="strokeWidth:20;strokeLinecap:round;strokeLinejoin:round;strokeMiterlimit:10;stroke-dasharray:none;stroke-opacity:1" transform="translate(358.999 326.337)" fill="none" stroke="#d27722" strokeWidth="20" strokeLinecap="round" strokeLinejoin="round" strokeMiterlimit="10" stroke-dasharray="none" stroke-opacity="" data-original="#000000" className=""></path><path d="M0 0c20.38-24.23 30.846-52.848 31.268-79.442-26.13 4.971-52.531 20.185-72.911 44.416-20.38 24.23-30.846 52.847-31.268 79.442C-46.781 39.444-20.38 24.23 0 0Z" style="strokeWidth:20;strokeLinecap:round;strokeLinejoin:round;strokeMiterlimit:10;stroke-dasharray:none;stroke-opacity:1" transform="translate(270.486 341.89)" fill="none" stroke="#d27722" strokeWidth="20" strokeLinecap="round" strokeLinejoin="round" strokeMiterlimit="10" stroke-dasharray="none" stroke-opacity="" data-original="#000000" className=""></path><path d="M0 0c-29.836-10.596-53.337-29.99-67.151-52.72 25.055-8.926 55.525-9.153 85.361 1.443C48.047-40.682 71.548-21.286 85.362 1.442 60.307 10.368 29.837 10.596 0 0Z" style="strokeWidth:20;strokeLinecap:round;strokeLinejoin:round;strokeMiterlimit:10;stroke-dasharray:none;stroke-opacity:1" transform="translate(303.403 198.769)" fill="none" stroke="#d27722" strokeWidth="20" strokeLinecap="round" strokeLinejoin="round" strokeMiterlimit="10" stroke-dasharray="none" stroke-opacity="" data-original="#000000" className=""></path><path d="M0 0c-31.639-1.199-59.861-12.688-79.835-30.252C-58.59-46.255-29.58-55.575 2.06-54.376c31.639 1.198 59.861 12.687 79.835 30.251C60.65-8.121 31.64 1.198 0 0Z" style="strokeWidth:20;strokeLinecap:round;strokeLinejoin:round;strokeMiterlimit:10;stroke-dasharray:none;stroke-opacity:1" transform="translate(237.272 96.061)" fill="none" stroke="#d27722" strokeWidth="20" strokeLinecap="round" strokeLinejoin="round" strokeMiterlimit="10" stroke-dasharray="none" stroke-opacity="" data-original="#000000" className=""></path><path d="M0 0c13.044-28.851 15.355-59.233 8.548-84.945-23.801 11.873-45.086 33.676-58.13 62.527-13.044 28.851-15.356 59.233-8.548 84.945C-34.329 50.654-13.044 28.851 0 0Z" style="strokeWidth:20;strokeLinecap:round;strokeLinejoin:round;strokeMiterlimit:10;stroke-dasharray:none;stroke-opacity:1" transform="translate(148.524 151.17)" fill="none" stroke="#d27722" strokeWidth="20" strokeLinecap="round" strokeLinejoin="round" strokeMiterlimit="10" stroke-dasharray="none" stroke-opacity="" data-original="#000000" className=""></path><path d="M0 0c15.648-27.524 20.75-57.565 16.342-83.796-24.794 9.629-47.998 29.378-63.646 56.902C-62.953.632-68.055 30.672-63.646 56.902-38.853 47.274-15.648 27.525 0 0Z" style="strokeWidth:20;strokeLinecap:round;strokeLinejoin:round;strokeMiterlimit:10;stroke-dasharray:none;stroke-opacity:1" transform="translate(218.39 230.116)" fill="none" stroke="#d27722" strokeWidth="20" strokeLinecap="round" strokeLinejoin="round" strokeMiterlimit="10" stroke-dasharray="none" stroke-opacity="" data-original="#000000" className=""></path></g></g></svg>