<?xml version="1.0" encoding="utf-8"?>
<!-- Generator: Adobe Illustrator 27.4.1, SVG Export Plug-In . SVG Version: 6.00 Build 0)  -->
<svg version="1.1" id="svg2037" xmlns:svg="http://www.w3.org/2000/svg"
	 xmlns="http://www.w3.org/2000/svg" xmlns:xlink="http://www.w3.org/1999/xlink" x="0px" y="0px" viewBox="0 0 682.7 682.7"
	 style="enable-background:new 0 0 682.7 682.7;" xml:space="preserve">
<style type="text/css">
	.st0{fill:#D27722;stroke:#D27722;strokeWidth:26.6667;strokeLinecap:round;strokeLinejoin:round;strokeMiterlimit:13.3333;}
	.st1{clipPath:url(#SVGID_00000005240681459517442160000004498066552188850603_);}
</style>
<g id="g2043" transform="matrix(1.3333333,0,0,-1.3333333,0,682.66667)">
	<g id="g2045" transform="translate(358.2666,191.1611)">
		<path id="path2047" class="st0" d="M0,0h42.7"/>
	</g>
	<g id="g2049">
		<g>
			<defs>
				<rect id="SVGID_1_" x="-85.3" y="-85.3" width="682.7" height="682.7"/>
			</defs>
			<clipPath id="SVGID_00000113329919564381026920000010324483945726367383_">
				<use xlink:href="#SVGID_1_"  style="overflow:visible;"/>
			</clipPath>
			<g id="g2051" style="clipPath:url(#SVGID_00000113329919564381026920000010324483945726367383_);">
				<g id="g2057" transform="translate(266.2227,108.627)">
					<path id="path2059" class="st0" d="M0,0h-165.2c-50.3,0-91,40.8-91,91v13.1H91V91C91,40.8,50.3,0,0,0z"/>
				</g>
				<g id="g2061" transform="translate(481.4209,170.5703)">
					<path id="path2063" class="st0" d="M0,0h-78.2v41.2H0c11.4,0,20.6-9.2,20.6-20.6v0C20.6,9.2,11.4,0,0,0z"/>
				</g>
				<g id="g2065" transform="translate(229.4653,312.8828)">
					<path id="path2067" class="st0" d="M0,0c-23.1-23.1-20.3-63.5-20.3-63.5s40.4-2.9,63.5,20.3c23.1,23.1,20.3,63.5,20.3,63.5
						S23.1,23.1,0,0z"/>
				</g>
				<g id="g2069" transform="translate(66.8877,259.2021)">
					<path id="path2071" class="st0" d="M0,0c14.8-14.8,45-8.6,45-8.6s6.2,30.2-8.6,45C21.5,51.2-8.6,45-8.6,45S-14.8,14.8,0,0z"/>
				</g>
				<g id="g2073" transform="translate(123.7979,354.8691)">
					<path id="path2075" class="st0" d="M0,0c0-16.9,13.7-30.7,30.7-30.7c16.9,0,30.7,13.7,30.7,30.7S47.6,30.7,30.7,30.7
						C13.7,30.7,0,16.9,0,0z"/>
				</g>
				<g id="g2077" transform="translate(228.8452,385.5361)">
					<path id="path2079" class="st0" d="M0,0c0-9.9,8-17.8,17.8-17.8S35.7-9.9,35.7,0c0,9.9-8,17.8-17.8,17.8S0,9.9,0,0z"/>
				</g>
				<g id="g2081" transform="translate(159.3135,275.751)">
					<path id="path2083" class="st0" d="M0,0v-15.1"/>
				</g>
			</g>
		</g>
	</g>
</g>
</svg>
