<?xml version="1.0" encoding="utf-8"?>
<!-- Generator: Adobe Illustrator 27.4.1, SVG Export Plug-In . SVG Version: 6.00 Build 0)  -->
<svg version="1.1" id="Layer_1" xmlns:svgjs="http://svgjs.com/svgjs"
	 xmlns="http://www.w3.org/2000/svg" xmlns:xlink="http://www.w3.org/1999/xlink" x="0px" y="0px" viewBox="0 0 512 512"
	 style="enable-background:new 0 0 512 512;" xml:space="preserve">
<style type="text/css">
	.st0{fill:#FFDBB8;}
</style>
<g>
	<path className="st0" d="M186.7,263.4c7.4,5.9,21.7,12.7,38.5,12.7c11.6,0,24.4-3.3,37.1-12.3c6.3-4.5,7.7-13.2,3.2-19.5c0,0,0,0,0,0
		c-4.5-6.3-13.2-7.7-19.5-3.2c0,0,0,0,0,0c-21.2,15.2-40,1.9-42.2,0.3c-6.1-4.7-14.8-3.7-19.6,2.4
		C179.5,249.9,180.6,258.6,186.7,263.4L186.7,263.4z"/>
	
		<ellipse transform="matrix(7.088898e-02 -0.9975 0.9975 7.088898e-02 -22.7573 381.2971)" className="st0" cx="193.3" cy="202.9" rx="16" ry="16"/>
	<path className="st0" d="M272.2,202.9c0-8.8-7.2-15.9-16-16c-8.8,0-16,7.1-16,16c0,8.8,7.2,16,16,16C265,218.8,272.2,211.7,272.2,202.9
		z M367.2,243.8c7.4,5.9,21.7,12.7,38.6,12.7c11.6,0,24.4-3.3,37.1-12.4c6.3-4.5,7.7-13.2,3.2-19.4c0,0,0,0,0,0
		c-4.5-6.3-13.2-7.7-19.5-3.2c0,0,0,0,0,0c-21.2,15.2-40.1,1.9-42.2,0.3c-6.1-4.7-14.8-3.7-19.6,2.4
		C360.1,230.2,361.2,239,367.2,243.8L367.2,243.8L367.2,243.8z M389.8,183.3c0-8.8-7.2-16-16-16s-16,7.2-16,16c0,8.8,7.2,16,16,16
		S389.8,192.1,389.8,183.3z M452.7,183.3c0-8.8-7.2-16-16-16c-8.8,0-16,7.2-16,16c0,8.8,7.2,15.9,16,16
		C445.6,199.2,452.7,192.1,452.7,183.3z"/>
	<path className="st0" d="M58.2,367.4c0.9,8.6,6.3,15.4,14.3,18.2c2.9,1,6,1.4,9.1,1.4c1.3,0,2.6-0.1,4-0.2c-3.2,6-6.3,12-9.3,18.1
		l-0.5,1c-3.4,6.9-0.6,15.3,6.3,18.7c6.9,3.4,15.3,0.6,18.7-6.3l0.5-1c10.7-21.5,21.9-43.6,39.3-55.7c8.9,4.8,18.4,8.5,28.2,11.1
		c7.5,1.9,15.1-2.5,17-10c1.9-7.5-2.5-15.1-10-17c0,0,0,0,0,0c-44.2-11.5-75.1-51.5-75.1-97.2c0-55.4,45-100.4,100.4-100.4
		c55.4,0,100.4,45,100.4,100.4c0,34.3-17.5,66.2-46.4,84.7c-0.1,0.1-0.2,0.1-0.3,0.2c-4.1,2.6-8.4,4.9-12.9,6.9
		c-7,3.2-10.1,11.5-6.9,18.5c3.2,6.9,11.3,10,18.2,7c2.9-1.3,5.8-2.7,8.6-4.2c18.8,12,36.6,34.2,48.7,61.1c3.2,7,11.4,10.2,18.5,7
		c7-3.2,10.2-11.4,7-18.5c-12.3-27.4-30.3-51-50-66.6c5.5-4.9,10.5-10.2,15.1-15.9c14.1,11.5,30.6,19.8,48.2,24.3
		c7.5,1.9,15.1-2.5,17-10c1.9-7.5-2.5-15.1-10-17c0,0,0,0,0,0c-14.8-3.9-28.4-11.2-40-21.2c8.6-17.5,13.1-36.8,13.1-56.3
		c0-30.1-10.5-57.8-28-79.8c18.9-25.3,48.2-40.3,80.2-40.3c55.4,0,100.4,45,100.4,100.4c0,34.3-17.5,66.2-46.4,84.7
		c-0.1,0.1-0.2,0.1-0.3,0.2c-4.1,2.6-8.4,4.9-12.9,6.9c-7,3.1-10.2,11.4-7.1,18.4c3.1,7,11.4,10.2,18.4,7.1c2.8-1.3,5.6-2.6,8.3-4.1
		c17.3,12.9,29.3,39.6,39.1,61.6l2.9,6.4c3.1,7,11.4,10.2,18.4,7c0,0,0,0,0,0c7-3.2,10.2-11.4,7-18.4c0,0,0,0,0,0l-2.8-6.3
		c-10-22.4-21.9-48.9-40.8-66.6c28-24.4,44.1-59.7,44.2-96.8c0-70.8-57.6-128.3-128.3-128.3c-39.6,0-76,17.7-100.1,48.1
		c-22-17.8-50-28.4-80.4-28.4c-70.7,0-128.3,57.6-128.3,128.3c0,20.2,4.8,39.4,13.3,56.6C74,318.7,56.4,350.6,58.2,367.4L58.2,367.4
		z M102,329.9c4.2,5.2,8.9,10,13.9,14.4c-4.9,4.2-19.4,11.5-28.5,14C90.1,350.2,96.6,337.9,102,329.9z"/>
	<path className="st0" d="M46.2,290.1c2.7,2.5,6.1,3.7,9.5,3.7c7.7,0,14-6.2,14-13.9c0-3.9-1.6-7.6-4.5-10.3l-18.8-17.3
		c-5.8-5-14.6-4.4-19.7,1.4c-4.8,5.6-4.5,13.9,0.8,19.1L46.2,290.1z M13.7,321.2c5.2,0.6,20.2,2.4,27.3,4.1
		c7.5,1.7,15-2.9,16.8-10.4c1.7-7.5-2.9-15-10.4-16.8c-10.1-2.3-29.7-4.5-30.5-4.6c-7.6-0.9-14.6,4.5-15.5,12.2s4.5,14.6,12.2,15.5
		C13.5,321.1,13.6,321.1,13.7,321.2z M39.4,365.3c3.1-1.8,6.1-3.6,8.9-4.8c7-3.3,9.9-11.7,6.5-18.6c-3.2-6.7-11.1-9.7-17.9-6.9
		c-4.3,1.9-8,4.1-11.7,6.3c-3.4,2-6.6,3.9-9.7,5.2c-7.1,3-10.5,11.1-7.5,18.3c3,7.1,11.1,10.5,18.3,7.5
		C31.2,370.2,35.4,367.7,39.4,365.3z"/>
</g>
</svg>
