<svg xmlns="http://www.w3.org/2000/svg" version="1.1" xmlns:xlink="http://www.w3.org/1999/xlink" xmlns:svgjs="http://svgjs.com/svgjs" width="512" height="512" x="0" y="0" viewBox="0 0 512 512" style="enable-background:new 0 0 512 512" xml:space="preserve" className=""><g><path d="M400.987 90.342c30.772-16.21 55.752-39.487 72.238-67.314A15.253 15.253 0 0 0 460.101 0H51.898a15.253 15.253 0 0 0-13.123 23.027c16.486 27.827 41.466 51.105 72.238 67.314 26.424 13.92 56.216 22.137 86.911 24.073V153.6h-72.087c-26.953 0-49.748 20.174-53.024 46.926L42.009 452.087a53.448 53.448 0 0 0 13.021 41.896A53.45 53.45 0 0 0 95.033 512h321.942a53.452 53.452 0 0 0 40.003-18.016 53.448 53.448 0 0 0 13.021-41.896l-30.803-251.56c-3.276-26.753-26.071-46.926-53.024-46.926h-72.096v-39.186c30.694-1.938 60.487-10.155 86.911-24.074zm-14.815 93.764c11.562 0 21.339 8.653 22.745 20.13l30.803 251.56c.808 6.605-1.174 12.987-5.586 17.972-4.411 4.983-10.505 7.728-17.159 7.728H95.032c-6.655 0-12.749-2.745-17.159-7.729-4.411-4.983-6.395-11.365-5.586-17.971l30.803-251.56c1.405-11.475 11.184-20.129 22.746-20.129h260.336zm-157.744-30.505v-38.732h55.143v38.732h-55.143zm71.531-69.237H212.04c-51.716 0-99.163-20.114-129.937-53.858h347.793c-30.774 33.743-78.221 53.858-129.937 53.858z" fill="#d27722" data-original="#000000" className=""></path><path d="M256.004 207.803c-68.924 0-124.997 56.074-124.997 124.997 0 68.924 56.074 124.998 124.997 124.998S381.001 401.724 381.001 332.8s-56.073-124.997-124.997-124.997zm0 219.489c-52.103 0-94.491-42.389-94.491-94.492 0-52.102 42.389-94.491 94.491-94.491s94.491 42.389 94.491 94.491-42.389 94.492-94.491 94.492z" fill="#d27722" data-original="#000000" className=""></path><path d="M266.789 322.015c-5.956-5.957-15.614-5.957-21.569 0l-36.724 36.724c-5.957 5.956-5.957 15.614 0 21.57 2.978 2.978 6.882 4.468 10.785 4.468s7.807-1.49 10.785-4.468l36.724-36.724c5.955-5.956 5.955-15.614-.001-21.57z" fill="#d27722" data-original="#000000" className=""></path></g></svg>