<svg width="37" height="37" viewBox="0 0 37 37" fill="none" xmlns="http://www.w3.org/2000/svg">
<path fillRule="evenodd" clipRule="evenodd" d="M9.95185 28.0722H5.11967C3.11832 28.0722 1.49561 26.4497 1.49561 24.4481C1.49561 20.4964 1.49561 12.6957 1.49561 8.7437C1.49561 6.74234 3.11832 5.11963 5.11967 5.11963H31.6962C33.6979 5.11963 35.3203 6.74234 35.3203 8.7437V24.4481C35.3203 26.4497 33.6979 28.0722 31.6962 28.0722H26.864V29.0135C26.864 30.4951 25.6632 31.6962 24.1814 31.6962C21.4013 31.6962 15.4146 31.6962 12.6345 31.6962C11.153 31.6962 9.95185 30.4951 9.95185 29.0135V28.0722ZM12.3678 28.0722V29.0135C12.3678 29.1608 12.4872 29.2803 12.6345 29.2803H24.1814C24.3287 29.2803 24.4481 29.1608 24.4481 29.0135V28.0722H12.3678ZM32.9043 8.7437V24.4481C32.9043 25.1152 32.3633 25.6562 31.6962 25.6562C25.8458 25.6562 10.9704 25.6562 5.11967 25.6562C4.45255 25.6562 3.91184 25.1152 3.91184 24.4481C3.91184 20.4964 3.91184 12.6957 3.91184 8.7437C3.91184 8.07658 4.45255 7.53587 5.11967 7.53587H31.6962C32.3633 7.53587 32.9043 8.07658 32.9043 8.7437ZM17.2 15.2844L15.8454 16.6389C15.374 17.1104 14.6083 17.1104 14.1369 16.6389C13.6655 16.1675 13.6655 15.4018 14.1369 14.9304L17.5537 11.5136C18.0257 11.0419 18.7905 11.0419 19.2622 11.5136L22.679 14.9304C23.1504 15.4018 23.1504 16.1675 22.679 16.6389C22.2076 17.1104 21.4422 17.1104 20.9707 16.6389L19.6159 15.2844V20.824C19.6159 21.4908 19.0746 22.0321 18.4081 22.0321C17.7413 22.0321 17.2 21.4908 17.2 20.824V15.2844Z" fill="#D27722"/>
</svg>
