<svg xmlns="http://www.w3.org/2000/svg" version="1.1" xmlns:xlink="http://www.w3.org/1999/xlink" xmlns:svgjs="http://svgjs.com/svgjs" width="512" height="512" x="0" y="0" viewBox="0 0 512 512" style="enable-background:new 0 0 512 512" xml:space="preserve" class=""><g><path d="M434.123 272.161C386.187 242.373 322.929 225.967 256 225.967s-130.188 16.405-178.123 46.194C27.657 303.369 0 345.562 0 390.967c0 40.286 21.821 73.849 81.776 90.518 43.23 12.019 100.913 14.482 174.224 14.482 73.31 0 130.993-2.463 174.224-14.482C490.157 464.822 512 431.273 512 390.967c0-45.405-27.657-87.598-77.877-118.806zM361 271.639c10.422 3.33 20.449 7.169 30 11.497v47.831c0 8.271-6.729 15-15 15s-15-6.729-15-15v-59.328zm-120-15.365c4.972-.197 9.972-.306 15-.306s10.028.109 15 .306v73.533c0 8.271-6.729 15-15 15s-15-6.729-15-15v-73.533zm-120 26.862c9.551-4.328 19.578-8.167 30-11.497v59.328c0 8.271-6.729 15-15 15s-15-6.729-15-15v-47.831zm135 182.831c-146.572 0-226-11.952-226-75 0-33.878 21.64-66.31 61-91.601v31.601c0 24.813 20.187 45 45 45s45-20.187 45-45v-67.271a343.84 343.84 0 0 1 30-5.017v71.128c0 24.813 20.187 45 45 45s45-20.187 45-45v-71.128a343.84 343.84 0 0 1 30 5.017v67.271c0 24.813 20.187 45 45 45s45-20.187 45-45v-31.601c39.361 25.291 61 57.723 61 91.601 0 63.048-79.428 75-226 75zM190.07 104.514c14.236-9.491 22.735-25.558 22.735-42.981 0-17.423-8.499-33.49-22.735-42.98-6.893-4.595-16.206-2.733-20.801 4.16-4.596 6.893-2.733 16.206 4.16 20.801 5.958 3.972 9.376 10.54 9.376 18.019 0 7.48-3.418 14.048-9.376 18.02a50.952 50.952 0 0 0-22.735 42.48 50.955 50.955 0 0 0 22.735 42.481c6.881 4.587 16.198 2.745 20.801-4.16 4.596-6.893 2.733-16.206-4.16-20.801-5.958-3.972-9.376-10.358-9.376-17.52 0-7.161 3.418-13.547 9.376-17.519zM265.07 104.514c14.236-9.491 22.735-25.558 22.735-42.981 0-17.423-8.499-33.49-22.735-42.98-6.894-4.595-16.207-2.733-20.801 4.16-4.596 6.893-2.733 16.206 4.16 20.801 5.958 3.972 9.376 10.54 9.376 18.019 0 7.48-3.418 14.048-9.376 18.02a50.952 50.952 0 0 0-22.735 42.48 50.955 50.955 0 0 0 22.735 42.481c6.881 4.587 16.198 2.745 20.801-4.16 4.596-6.893 2.733-16.206-4.16-20.801-5.958-3.972-9.376-10.358-9.376-17.52 0-7.161 3.418-13.547 9.376-17.519zM340.07 104.514c14.236-9.491 22.735-25.558 22.735-42.981 0-17.423-8.499-33.49-22.735-42.98-6.894-4.595-16.207-2.733-20.801 4.16-4.596 6.893-2.733 16.206 4.16 20.801 5.958 3.972 9.376 10.54 9.376 18.019 0 7.48-3.418 14.048-9.376 18.02a50.952 50.952 0 0 0-22.735 42.48 50.955 50.955 0 0 0 22.735 42.481c6.881 4.587 16.198 2.745 20.801-4.16 4.596-6.893 2.733-16.206-4.16-20.801-5.958-3.972-9.376-10.358-9.376-17.52 0-7.161 3.418-13.547 9.376-17.519z" fill="#ffffff" data-original="#000000" class=""></path></g></svg>