<?xml version="1.0" encoding="utf-8"?>
<!-- Generator: Adobe Illustrator 27.4.1, SVG Export Plug-In . SVG Version: 6.00 Build 0)  -->
<svg version="1.1" id="Layer_1" xmlns:svgjs="http://svgjs.com/svgjs"
	 xmlns="http://www.w3.org/2000/svg" xmlns:xlink="http://www.w3.org/1999/xlink" x="0px" y="0px" viewBox="0 0 512 512"
	 style="enable-background:new 0 0 512 512;" xml:space="preserve">
<style type="text/css">
	.st0{fill:#D27722;}
	.st1{fill:#FFFFFF;}
</style>
<path className="st0" d="M491.9,372.5c-5,37.7-26.9,70.9-61.8,93.3c-28.7,18-61.9,27.5-95.8,27.2c-8.6,0-17.2-0.6-25.7-1.7
	c-42.4-5-81.6-24.9-110.7-56c-18.2-19.4-30.3-43.7-34.9-69.9C80.5,356,19,296.5,19,224.9c0-55.8,38.8-106.4,97.6-129.1
	c-0.5-0.6-0.9-1.3-1.1-2c-1.3-3.6,0.6-7.6,4.3-8.8c16.2-5.4,33-8.9,50.1-10.4c0.7-2.3,1.4-4.6,2.1-6.8c0-0.1,0.1-0.2,0.1-0.3
	c2.6-8.4,6-16.5,10.1-24.2c4.2-7.7,9.1-15,14.7-21.8c2.5-2.9,7-3.2,9.9-0.7l18.1,15.7c2.9,2.5,3.2,7,0.7,9.9
	c-7.3,8.9-12.9,19.1-16.5,30.1c18.1,2.5,39.8,7.3,54.4,16.2c3,1.7,4.2,5.4,2.8,8.6c35.6,17,62.7,44.6,76,77.4
	c6.2-10.5,13.9-19.9,22.9-28.1h0c2.9-2.6,7.3-2.3,9.9,0.6l15.9,18c2.6,2.9,2.3,7.3-0.6,9.9c-8.4,7.9-15.3,17.2-20.2,27.7
	c17.6,4.8,38.5,12.4,51.9,23.2c2.2,1.8,3.1,4.6,2.3,7.3c-0.2,0.5-0.4,1-0.7,1.5C472.2,270.1,498.7,321.1,491.9,372.5z"/>
<g>
	<path className="st1" d="M423.7,238.7c0.3-0.5,0.5-1,0.7-1.5c0.8-2.7-0.2-5.6-2.3-7.3c-13.4-10.8-34.3-18.3-51.9-23.2
		c4.9-10.4,11.8-19.8,20.2-27.7c2.9-2.6,3.2-7,0.6-9.9l-15.9-18c-2.6-2.9-7-3.2-9.9-0.6h0c-9,8.2-16.7,17.6-22.9,28.1
		c-13.3-32.8-40.4-60.4-76-77.4c1.4-3.2,0.2-6.8-2.8-8.6c-14.7-8.9-36.4-13.7-54.4-16.2c3.6-11,9.1-21.2,16.5-30.1
		c2.5-2.9,2.2-7.3-0.7-9.9l-18.1-15.7c-2.9-2.5-7.3-2.2-9.9,0.7c-5.6,6.8-10.6,14.1-14.7,21.8c-4.2,7.7-7.5,15.8-10.1,24.2
		c0,0.1-0.1,0.2-0.1,0.3c-0.7,2.2-1.4,4.5-2.1,6.8c-17.1,1.4-33.9,4.9-50.1,10.4c-3.6,1.3-5.5,5.2-4.3,8.8c0.2,0.7,0.6,1.4,1.1,2
		C57.8,118.5,19,169.2,19,224.9c0,71.6,61.5,131.1,144,140.5c4.6,26.2,16.8,50.5,34.9,69.9c29.1,31.2,68.4,51,110.7,56
		c8.5,1.1,17.1,1.7,25.7,1.7c33.9,0.3,67.1-9.2,95.8-27.2c34.9-22.4,56.8-55.6,61.8-93.3C498.7,321.1,472.2,270.1,423.7,238.7z
		 M336.7,225.8c1.8-5.8,3.9-11.4,6.1-16.8c0.8-1.9,1.6-3.8,2.4-5.6c0.2-0.4,0.4-0.8,0.6-1.3c5.8-13.4,13.8-25.7,23.7-36.4l6.6,7.5
		c-9.4,10.3-16.9,22.2-22.3,35.1c-1.6,3.5,0.1,7.7,3.6,9.2c0.4,0.2,0.8,0.3,1.1,0.4c12.2,2.9,24.1,6.8,35.6,11.7
		c-7.2,0.1-14.3-0.5-21.4-1.8c-3.8-0.8-7.5,1.5-8.4,5.3c-0.6,2.5,0.3,5.2,2.3,6.9c5.8,4.8,11.2,10,16.3,15.6
		c-8.9-1.3-17.4-4.5-25-9.3c-3-2.4-7.4-1.9-9.8,1.2c-0.3,0.4-0.6,0.8-0.8,1.3c-3.8,7.8-8.5,15.1-13.9,21.8c-1.7-7.5-3.2-15-4.4-22.7
		c-0.6-3.8-4.2-6.4-8-5.8c-0.3,0-0.6,0.1-0.9,0.2c-7.3,2-14.8,3.3-22.4,3.8c5.1-3.5,9.8-7.7,13.8-12.4c2.5-3,2.1-7.4-0.9-9.8
		c-0.5-0.4-1.1-0.8-1.7-1.1c-4.6-2.1-8.8-4.7-12.8-7.8c9.9-1.2,19.9-1.8,29.9-1.6c-1,2.7-1.9,5.4-2.7,8.1c-1.2,3.7,0.9,7.6,4.6,8.8
		C331.6,231.5,335.5,229.5,336.7,225.8z M166.3,88.9c-0.6,2.8-1.2,5.6-1.7,8.4c-0.7,3.8,1.9,7.4,5.7,8.1c0.4,0.1,0.8,0.1,1.2,0.1
		c3.4,0,6.3-2.5,6.9-5.8c1.1-6,2.4-11.8,3.8-17.4c0.5-2,1.1-3.9,1.6-5.8l0.4-1.4c4-14,10.4-27.2,18.8-39.1l7.6,6.6
		c-8,11.5-13.9,24.2-17.5,37.8c-1.1,3.7,1.1,7.6,4.8,8.7c0.4,0.1,0.8,0.2,1.2,0.2c12.4,1.3,24.8,3.6,36.8,6.9
		c-7.1,1.1-14.3,1.4-21.4,1c-3.9-0.3-7.2,2.5-7.6,6.4c-0.2,2.6,1,5.1,3.2,6.5c6.3,4.1,12.4,8.5,18.2,13.3c-9-0.1-17.9-2.1-26-6
		c-3.3-2-7.6-0.9-9.6,2.5c-0.3,0.4-0.5,0.9-0.6,1.4c-2.8,8.2-6.5,16-11,23.4c-2.7-7.2-5.1-14.5-7.3-21.9c-0.9-3-3.6-5-6.7-5
		c-1,0-1.9,0.2-2.8,0.6c-7,2.9-14.2,5.1-21.7,6.6c4.6-4.1,8.6-8.9,12-14.1c2-3.3,1.1-7.6-2.2-9.7c-0.6-0.4-1.2-0.6-1.8-0.8
		c-4.8-1.5-9.3-3.5-13.7-6.1C146.5,91.9,156.3,90,166.3,88.9z M162.3,329.1c-1,7.3-1.3,14.7-0.9,22C87.7,341.5,33,288.4,33,224.9
		c0-52.3,38.6-99.7,96.3-118.8c2.6,1.6,5.3,3,8.1,4.3c-5.1,5.4-10.9,10.1-17.2,14l-2.2,1.5c-3.2,2.2-4,6.6-1.8,9.7
		c0.8,1.2,2,2.1,3.4,2.6c13.4,4.7,32.4-0.6,42.9-4.3c5,15.7,9.8,26.7,10,27.3c0.9,2.1,2.8,3.6,5,4.1c0.5,0.1,0.9,0.1,1.4,0.1
		c1.8,0,3.5-0.7,4.8-1.9c8.8-8.4,15.4-22.2,18.8-30.7c17,6,40.1,4.6,41.2,4.5c3.8-0.2,6.8-3.6,6.5-7.4c0-0.4-0.1-0.8-0.2-1.1
		c-1.3-5.6-7.9-12.3-15.5-18.4c4.3-0.5,8.6-1.2,12.9-2c43.1,16.3,74.9,48.6,85.7,87.1c-0.6,1.4-1.3,2.7-1.9,4.1
		c-17.1-0.8-34.2,0.5-51,3.7c-3.8,0.8-6.2,4.5-5.4,8.2c0.2,0.8,0.5,1.5,0.9,2.2C214.6,228.7,169.6,273.8,162.3,329.1z M478.1,370.7
		c-4.4,33.6-24.1,63.2-55.5,83.4c-33.4,20.8-73.2,29.1-112.1,23.4c-39.1-4.6-75.3-22.8-102.2-51.6c-25.1-27.6-36.5-61.3-32.1-94.9
		c6.8-51.8,51.3-93.8,111-105.2c2.4,1.9,4.8,3.7,7.4,5.3c-5.8,4.7-12.1,8.6-18.8,11.7c-0.9,0.4-1.7,0.8-2.4,1.2
		c-3.4,1.8-4.8,6-3,9.4c0.7,1.3,1.8,2.4,3.1,3c12.6,6.4,32.2,3.6,43,1.3c2.9,16.2,6.2,27.8,6.4,28.3c1.1,3.7,4.9,5.9,8.7,4.8
		c0.8-0.2,1.5-0.6,2.2-1.1c9.8-7.1,18.1-20,22.6-28c16.1,8.2,39.2,9.8,40.3,9.8c2,0.2,4-0.6,5.5-2.1c1.4-1.5,2.1-3.5,2-5.5
		c-0.5-5.7-6.3-13.2-13-20.3c4.4,0.1,8.8,0,13.2-0.3C455.7,271.1,484.6,320.8,478.1,370.7z"/>
	<path className="st1" d="M203.6,372.1c-1.2-3.7-5.1-5.7-8.8-4.5c-3.7,1.2-5.7,5.1-4.5,8.8c2.9,8.9,7,17.5,12.1,25.4
		c1.3,2,3.5,3.3,5.9,3.2c1.3,0,2.6-0.4,3.7-1.1c3.3-2.1,4.2-6.4,2.2-9.7c0,0,0,0,0,0C209.8,387.4,206.2,379.9,203.6,372.1
		L203.6,372.1z"/>
</g>
</svg>
