<svg xmlns="http://www.w3.org/2000/svg" version="1.1" xmlns:xlink="http://www.w3.org/1999/xlink" xmlns:svgjs="http://svgjs.com/svgjs" width="512" height="512" x="0" y="0" viewBox="0 0 512 512" style="enable-background:new 0 0 512 512" xml:space="preserve"><g><path d="M420.418 91.582 335.085 6.248l-.011-.01a21.489 21.489 0 0 0-1.552-1.403c-.247-.203-.507-.379-.761-.569-.303-.227-.6-.462-.916-.673-.304-.203-.619-.379-.931-.565-.286-.171-.565-.35-.859-.508-.318-.17-.644-.314-.969-.467-.307-.145-.609-.298-.923-.429-.315-.13-.637-.236-.957-.35-.337-.121-.669-.25-1.013-.354-.32-.097-.646-.168-.969-.249-.351-.089-.698-.187-1.055-.258-.375-.074-.753-.119-1.13-.173-.311-.044-.617-.104-.933-.135a21.468 21.468 0 0 0-4.211 0c-.315.031-.621.09-.933.135-.377.054-.756.098-1.13.173-.358.071-.704.169-1.055.258-.324.081-.649.152-.969.249-.344.104-.677.233-1.013.354-.32.115-.642.22-.957.35-.315.13-.616.284-.923.429-.324.153-.651.297-.969.467-.294.158-.573.337-.859.508-.312.186-.627.362-.931.565-.316.211-.612.446-.916.673-.254.19-.514.366-.761.569-.54.443-1.059.91-1.552 1.403l-.011.01-85.333 85.333c-8.331 8.331-8.331 21.839 0 30.17 8.331 8.331 21.839 8.331 30.17 0l48.915-48.915V320c0 11.782 9.551 21.333 21.333 21.333s21.333-9.551 21.333-21.333V72.837l48.915 48.915c8.331 8.331 21.839 8.331 30.17 0 8.33-8.332 8.33-21.839-.001-30.17zM262.248 390.248l-48.915 48.915V192c0-11.782-9.551-21.333-21.333-21.333-11.782 0-21.333 9.551-21.333 21.333v247.163l-48.915-48.915c-8.331-8.331-21.839-8.331-30.17 0s-8.331 21.839 0 30.17l85.333 85.333.012.011c.493.492 1.012.959 1.551 1.402.247.203.508.379.762.57.303.227.6.462.915.673.304.203.619.379.931.565.286.171.565.35.859.507.318.17.645.314.97.467.306.145.608.298.922.428.315.13.637.236.957.35.337.121.669.25 1.013.354.32.097.645.168.969.249.351.089.698.187 1.056.258.375.074.753.118 1.13.172.311.044.618.104.933.135 1.4.138 2.811.138 4.211 0 .315-.031.621-.09.933-.135.377-.054.756-.098 1.13-.173.358-.071.704-.169 1.055-.258.324-.081.649-.152.969-.249.344-.104.677-.233 1.013-.354.32-.115.642-.22.957-.35.314-.13.615-.283.921-.428.325-.153.653-.297.971-.468.293-.157.572-.336.857-.506.312-.186.628-.363.932-.566.315-.211.611-.445.913-.671.255-.191.516-.368.764-.571.535-.439 1.05-.903 1.54-1.392l.023-.021 85.333-85.333c8.331-8.331 8.331-21.839 0-30.17s-21.837-8.33-30.169.001z" fill="#ffdbb8" data-original="#000000"></path></g></svg>