<svg xmlns="http://www.w3.org/2000/svg" version="1.1" xmlns:xlink="http://www.w3.org/1999/xlink" xmlns:svgjs="http://svgjs.com/svgjs" width="512" height="512" x="0" y="0" viewBox="0 0 682.667 682.667" style="enable-background:new 0 0 512 512" xml:space="preserve" className=""><g><defs><clipPath id="a" clipPathUnits="userSpaceOnUse"><path d="M0 512h512V0H0Z" fill="#d27722" data-original="#000000" className=""></path></clipPath></defs><g clipPath="url(#a)" transform="matrix(1.33333 0 0 -1.33333 0 682.667)"><path d="M397 75H115V15h282z" style="strokeWidth:30;strokeLinecap:round;strokeLinejoin:round;strokeMiterlimit:10;stroke-dasharray:none;stroke-opacity:1" fill="none" stroke="#d27722" strokeWidth="30" strokeLinecap="round" strokeLinejoin="round" strokeMiterlimit="10" stroke-dasharray="none" stroke-opacity="" data-original="#000000" className=""></path><path d="M0 0h-482v-80c0-55.229 44.771-100 100-100h282C-44.771-180 0-135.229 0-80z" style="strokeWidth:30;strokeLinecap:round;strokeLinejoin:round;strokeMiterlimit:10;stroke-dasharray:none;stroke-opacity:1" transform="translate(497 255)" fill="none" stroke="#d27722" strokeWidth="30" strokeLinecap="round" strokeLinejoin="round" strokeMiterlimit="10" stroke-dasharray="none" stroke-opacity="" data-original="#000000" className=""></path><path d="m0 0-40.049-48.648c5.433-4.377 10.166-9.113 14.094-14.253l50.304 18.845C43.957-36.71 52.276-13.515 41.807 4.619 34.586 17.125 20.825 22.903 7.668 21.038 7.571 13.657 5.129 6.23 0 0Z" style="strokeWidth:30;strokeLinecap:round;strokeLinejoin:round;strokeMiterlimit:10;stroke-dasharray:none;stroke-opacity:1" transform="translate(450.64 425.061)" fill="none" stroke="#d27722" strokeWidth="30" strokeLinecap="round" strokeLinejoin="round" strokeMiterlimit="10" stroke-dasharray="none" stroke-opacity="" data-original="#000000" className=""></path><path d="M0 0c6.897-2.668 13.832-6.126 20.78-10.138 6.949-4.011 13.411-8.289 19.17-12.927l40.049 48.648c13.309 16.166 8.915 40.412-9.219 50.882-18.133 10.469-41.327 2.15-48.674-17.458Z" style="strokeWidth:30;strokeLinecap:round;strokeLinejoin:round;strokeMiterlimit:10;stroke-dasharray:none;stroke-opacity:1" transform="translate(370.642 399.478)" fill="none" stroke="#d27722" strokeWidth="30" strokeLinecap="round" strokeLinejoin="round" strokeMiterlimit="10" stroke-dasharray="none" stroke-opacity="" data-original="#000000" className=""></path><path d="M0 0c6.416-.832 12.884-2.563 19.391-5.079l22.106 59.007c2.831 7.557 8.042 13.386 14.385 17.16-4.962 12.328-16.846 21.355-31.288 21.355-20.939 0-36.866-18.802-33.424-39.456Z" style="strokeWidth:30;strokeLinecap:round;strokeLinejoin:round;strokeMiterlimit:10;stroke-dasharray:none;stroke-opacity:1" transform="translate(351.251 404.557)" fill="none" stroke="#d27722" strokeWidth="30" strokeLinecap="round" strokeLinejoin="round" strokeMiterlimit="10" stroke-dasharray="none" stroke-opacity="" data-original="#000000" className=""></path><path d="m0 0-33.477 19.328" style="strokeWidth:30;strokeLinecap:round;strokeLinejoin:round;strokeMiterlimit:10;stroke-dasharray:none;stroke-opacity:1" transform="translate(429.54 298.05)" fill="none" stroke="#d27722" strokeWidth="30" strokeLinecap="round" strokeLinejoin="round" strokeMiterlimit="10" stroke-dasharray="none" stroke-opacity="" data-original="#000000" className=""></path><path d="m0 0 32.992-19.048" style="strokeWidth:30;strokeLinecap:round;strokeLinejoin:round;strokeMiterlimit:10;stroke-dasharray:none;stroke-opacity:1" transform="translate(268.79 333.125)" fill="none" stroke="#d27722" strokeWidth="30" strokeLinecap="round" strokeLinejoin="round" strokeMiterlimit="10" stroke-dasharray="none" stroke-opacity="" data-original="#000000" className=""></path><path d="M0 0c33.138 57.395 8.981 87.191-29.282 109.282-38.264 22.092-76.145 28.113-109.281-29.282-14.706-25.468-29.929-65.957-38.984-105.058h160.891C-10.131-16.232-4.472-7.747 0 0Z" style="strokeWidth:30;strokeLinecap:round;strokeLinejoin:round;strokeMiterlimit:10;stroke-dasharray:none;stroke-opacity:1" transform="translate(420.704 280.058)" fill="none" stroke="#d27722" strokeWidth="30" strokeLinecap="round" strokeLinejoin="round" strokeMiterlimit="10" stroke-dasharray="none" stroke-opacity="" data-original="#000000" className=""></path><path d="M0 0c-27.577-27.578-74.9-24.967-74.9-24.967s-2.612 47.323 24.966 74.901C-22.356 77.511 24.967 74.9 24.967 74.9S27.578 27.578 0 0Z" style="strokeWidth:30;strokeLinecap:round;strokeLinejoin:round;strokeMiterlimit:10;stroke-dasharray:none;stroke-opacity:1" transform="translate(189.967 280.033)" fill="none" stroke="#d27722" strokeWidth="30" strokeLinecap="round" strokeLinejoin="round" strokeMiterlimit="10" stroke-dasharray="none" stroke-opacity="" data-original="#000000" className=""></path><path d="M0 0c27.578-27.578 24.967-74.9 24.967-74.9s-47.323-2.611-74.901 24.966C-77.512-22.356-74.9 24.967-74.9 24.967S-27.577 27.578 0 0z" style="strokeWidth:30;strokeLinecap:round;strokeLinejoin:round;strokeMiterlimit:10;stroke-dasharray:none;stroke-opacity:1" transform="translate(89.967 329.967)" fill="none" stroke="#d27722" strokeWidth="30" strokeLinecap="round" strokeLinejoin="round" strokeMiterlimit="10" stroke-dasharray="none" stroke-opacity="" data-original="#000000" className=""></path><path d="M0 0a60.303 60.303 0 0 0-.835 9.94c0 33.138 26.863 60 60 60 .075 0 .148-.005.223-.005 2.541 30.798 28.324 55.005 59.777 55.005s57.236-24.207 59.777-55.005c.075 0 .148.005.223.005 24.516 0 45.583-14.71 54.894-35.779" style="strokeWidth:30;strokeLinecap:round;strokeLinejoin:round;strokeMiterlimit:10;stroke-dasharray:none;stroke-opacity:1" transform="translate(62.835 347.06)" fill="none" stroke="#d27722" strokeWidth="30" strokeLinecap="round" strokeLinejoin="round" strokeMiterlimit="10" stroke-dasharray="none" stroke-opacity="" data-original="#000000" className=""></path><path d="m0 0 67.46 35.351-30-78.402" style="strokeWidth:30;strokeLinecap:round;strokeLinejoin:round;strokeMiterlimit:10;stroke-dasharray:none;stroke-opacity:1" transform="translate(429.54 298.05)" fill="none" stroke="#d27722" strokeWidth="30" strokeLinecap="round" strokeLinejoin="round" strokeMiterlimit="10" stroke-dasharray="none" stroke-opacity="" data-original="#000000" className=""></path></g></g></svg>