<svg xmlns="http://www.w3.org/2000/svg" version="1.1" xmlns:xlink="http://www.w3.org/1999/xlink" xmlns:svgjs="http://svgjs.com/svgjs" width="512" height="512" x="0" y="0" viewBox="0 0 512.345 512.345" style="enable-background:new 0 0 512 512" xml:space="preserve" className=""><g><path d="m450.567 152.653 38.582-36.745c10.914-10.914 10.929-28.758.034-39.653s-28.739-10.88-39.653.034l-3.052 3.052.031-36.15c.013-15.422-12.593-28.028-28.015-28.015h0c-15.421.013-28.05 12.642-28.063 28.063l-.028 33.044c-10.901-10.837-28.699-10.804-39.594.091h0c-10.914 10.914-10.929 28.758-.034 39.653l37.585 36.985" style="strokeWidth:30;strokeLinecap:round;strokeLinejoin:round;strokeMiterlimit:10;" fill="none" stroke="#d27722" strokeWidth="30" strokeLinecap="round" strokeLinejoin="round" strokeMiterlimit="10" data-original="#000000" className=""></path><path d="m468.031 257.287 13.949-48.482c8.085-28.101-12.199-56.751-41.414-57.579l-42.408.096c-7.881.468-15.067 2.951-21.179 6.88M48.22 257.288a39.573 39.573 0 0 1-10.101-26.466 39.53 39.53 0 0 1 4.307-17.982c-15.736-5.282-27.078-20.139-27.078-37.655 0-15.949 9.403-29.694 22.965-36.015-9.956-7.218-16.438-18.936-16.438-32.174 0-21.938 17.784-39.722 39.722-39.722 1.614 0 3.202.107 4.766.295a39.662 39.662 0 0 1-2.076-12.67c0-21.938 17.784-39.722 39.722-39.722 21.938 0 39.722 17.784 39.722 39.722 0 4.432-.737 8.689-2.076 12.67a40.094 40.094 0 0 1 4.766-.295c21.938 0 39.722 17.784 39.722 39.722a39.544 39.544 0 0 1-9.52 25.79M224.338 126.374 242.68 69.51a24.688 24.688 0 0 1 23.496-17.11h0c15.966 0 27.691 14.912 24.006 30.446-2.839 11.967-5.373 26.336-5.931 40.973" style="strokeWidth:30;strokeLinecap:round;strokeLinejoin:round;strokeMiterlimit:10;" fill="none" stroke="#d27722" strokeWidth="30" strokeLinecap="round" strokeLinejoin="round" strokeMiterlimit="10" data-original="#000000" className=""></path><path d="M126.524 257.287v-68.101c0-31.368 25.429-56.797 56.797-56.797h0c9.945 0 19.293 2.556 27.422 7.047M301.952 139.437c8.13-4.491 17.478-7.047 27.422-7.047h0c31.368 0 56.797 25.429 56.797 56.797v68.1" style="strokeWidth:30;strokeLinecap:round;strokeLinejoin:round;strokeMiterlimit:10;" fill="none" stroke="#d27722" strokeWidth="30" strokeLinecap="round" strokeLinejoin="round" strokeMiterlimit="10" data-original="#000000" className=""></path><path d="M199.551 257.287v-83.992c0-31.368 25.429-56.797 56.797-56.797h0c31.368 0 56.797 25.429 56.797 56.797v83.993" style="strokeWidth:30;strokeLinecap:round;strokeLinejoin:round;strokeMiterlimit:10;" fill="none" stroke="#d27722" strokeWidth="30" strokeLinecap="round" strokeLinejoin="round" strokeMiterlimit="10" data-original="#000000" className=""></path><path d="M15 257.287h482v119.882H15zM437.799 317.228h0M75.799 317.228h0M497 377.169v120H15.004v-120M437.799 437.228h0M75.799 437.228h0" style="strokeWidth:30;strokeLinecap:round;strokeLinejoin:round;strokeMiterlimit:10;" fill="none" stroke="#d27722" strokeWidth="30" strokeLinecap="round" strokeLinejoin="round" strokeMiterlimit="10" data-original="#000000" className=""></path></g></svg>