<svg xmlns="http://www.w3.org/2000/svg" version="1.1" xmlns:xlink="http://www.w3.org/1999/xlink" xmlns:svgjs="http://svgjs.com/svgjs" width="512" height="512" x="0" y="0" viewBox="0 0 511.999 511.999" style="enable-background:new 0 0 512 512" xml:space="preserve" className=""><g><path d="M395.622 175.196 370.001 12.928A15.316 15.316 0 0 0 354.873 0H157.126a15.315 15.315 0 0 0-15.128 12.928l-25.621 162.269c-6.456 40.893 5.266 82.397 32.16 113.872 23.551 27.561 56.515 44.829 92.147 48.696v143.603h-67.492c-8.459 0-15.316 6.857-15.316 15.316S164.733 512 173.192 512h165.616c8.459 0 15.316-6.858 15.316-15.316s-6.857-15.316-15.316-15.316h-67.493V337.764c35.631-3.868 68.596-21.134 92.147-48.696 26.895-31.474 38.616-72.979 32.16-113.872zM170.213 30.632h171.572l13.207 83.645H157.007l13.206-83.645zm169.961 238.537c-21.067 24.654-51.747 38.793-84.174 38.793s-63.108-14.14-84.175-38.793a110.576 110.576 0 0 1-25.191-89.196l5.536-35.064h207.658l5.536 35.064a110.574 110.574 0 0 1-25.19 89.196z" fill="#d27722" data-original="#000000" className=""></path></g></svg>